<?xml version="1.0" encoding="utf-8"?>
<!-- Generator: Adobe Illustrator 22.1.0, SVG Export Plug-In . SVG Version: 6.00 Build 0)  -->
<svg version="1.1" id="Layer_1" xmlns="http://www.w3.org/2000/svg" xmlns:xlink="http://www.w3.org/1999/xlink" x="0px" y="0px"
	 viewBox="0 0 770 576" style="enable-background:new 0 0 770 576;" xml:space="preserve">
<style type="text/css">
	.st0{fill:#FFFFFF;}
	.st1{fill:#FFFFFF;stroke:#FFFFFF;stroke-width:0.31;stroke-linejoin:bevel;stroke-miterlimit:10;}
	.st2{fill:#FFFFFF;stroke:#FFFFFF;stroke-width:0.19;stroke-miterlimit:10;}
</style>
<g>
	<path class="st0" d="M49.4,437.1l8.2-61.7H59l7.7,61.7H49.4z M19.3,489.9h22.3l4.7-31.9h23l4.7,31.9h23.5L73.3,342.5H43.5
		L19.3,489.9z"/>
	<polygon class="st0" points="110.4,489.9 168.4,489.9 168.4,468.5 133.2,468.5 133.2,342.5 110.4,342.5 	"/>
	<polygon class="st0" points="181,489.9 239,489.9 239,468.5 203.6,468.5 203.6,342.5 181,342.5 	"/>
	<polygon class="st0" points="294.1,489.9 353.5,489.9 353.5,467.8 316.9,467.8 316.9,423.7 343.2,423.7 343.2,402.4 316.9,402.4 
		316.9,363.9 353.5,363.9 353.5,342.5 294.1,342.5 	"/>
	<path class="st1" d="M361.2,342.5l26.5,147.4h23.7l26-147.4h-22.3l-13.1,87.3c-0.7,3.8-1.2,8.4-1.6,13.8c-0.2,5.6-0.7,12-0.9,19.5
		v-2.6c0-6.3-0.2-12.2-0.7-17.1c-0.5-5.2-0.9-9.6-1.6-13.6l-13.6-87.3H361.2z"/>
	<polygon class="st0" points="451.1,489.9 510.5,489.9 510.5,467.8 474.1,467.8 474.1,423.7 500.2,423.7 500.2,402.4 474.1,402.4 
		474.1,363.9 510.5,363.9 510.5,342.5 451.1,342.5 	"/>
	<path class="st0" d="M528.1,489.9H549v-77c0-1.4-0.2-4-0.7-7.3c-0.2-3.5-0.9-8-1.9-13.1c0.7,3.5,1.6,6.8,2.6,9.4
		c0.7,2.6,1.4,4.9,2.1,6.8l27.9,81.4h21.4V342.8H579v84c0,1.4,0.2,3.5,0.5,6.8c0.2,3.5,0.9,7.7,1.9,12.9c-1.2-4.7-2.1-8.2-3.1-10.8
		c-0.7-2.6-1.2-4.2-1.4-4.7l-28.4-88.5h-20.4V489.9z"/>
	<polygon class="st0" points="610.9,363.9 634.4,363.9 634.4,489.9 657.2,489.9 657.2,363.9 681.1,363.9 681.1,342.5 610.9,342.5 	
		"/>
	<path class="st0" d="M684.4,452.6c0.2,8.7,2.1,16,5.2,22.1c3.1,6.1,7.3,10.6,12.9,13.8c5.4,3.1,12,4.7,19.2,4.7
		c6.8,0,12.9-1.4,18.3-4.7c5.2-3.1,9.4-7.3,12.4-12.9c3.1-5.4,4.7-11.7,4.7-19.2c0-6.8-0.9-12.7-3.1-17.6
		c-1.9-5.2-4.9-10.1-8.7-14.5c-3.8-4.7-8.4-9.4-13.6-14.5c-4.5-4-8.2-8-11.7-11.7c-3.5-3.5-6.3-7.3-8.2-11c-1.9-3.8-3.1-8-3.1-12.2
		c0-4.2,1.2-7.5,3.5-10.1c2.1-2.6,5.2-3.5,8.7-3.5c4,0,7.3,1.4,8.9,4.5c1.9,3.1,3.1,7.5,3.5,13.8l22.1-3.1
		c-0.5-7.7-2.3-14.3-5.2-19.7c-3.1-5.4-7-9.6-12-12.4c-4.9-3.1-10.6-4.5-16.7-4.5c-6.6,0-12.4,1.6-17.6,4.7
		c-5.4,3.3-9.6,7.5-12.9,13.1c-3.1,5.6-4.7,12-4.9,19c0.2,6.3,1.4,12.2,3.8,17.4c2.3,5.2,5.6,10.3,9.9,15.3s8.9,10.1,14.5,15.5
		c4,4,7.7,7.7,10.8,11c3.1,3.3,5.4,6.6,7,9.9c1.9,3.5,2.6,7,2.6,11.3s-1.4,7.7-3.8,10.3c-2.6,2.3-5.9,3.8-10.1,4
		c-4.7,0-8.4-1.9-10.8-5.4c-2.3-3.8-4-9.2-4.2-16.7L684.4,452.6z"/>
	<path class="st2" d="M19.3,281.3v-33.1h71.3c0.5,10.6,9.4,19.2,20.2,19.2H285c11,0,20.2-8.9,20.2-20.2V144.7
		c0-11.3-9.2-20.2-20.2-20.2H110.9c-11.3,0-20.2,8.9-20.2,20.2v3.8H19.3v-37.8c0-18.5,15-33.6,33.6-33.6h289.8
		c18.5,0,33.6,15,33.6,33.6v170.8c0,18.8-15,33.8-33.6,33.8H52.9C34.4,315.1,19.3,300.1,19.3,281.3z"/>
	<path class="st2" d="M19.3,286.5v-80.7c0-18.5,15-33.6,33.6-33.6h289.8c18.5,0,33.6,15,33.6,33.6v80.7h-71.3V240
		c0-11.3-9.2-20.2-20.2-20.2H110.6c-11.3,0-20.2,8.9-20.2,20.2v46.5H19.3z"/>
	<path class="st2" d="M757.4,110.5v33.3h-71.6c-0.5-10.6-9.4-19.2-20.2-19.2H491.7c-11.3,0-20.2,9.2-20.2,20.2v102.5
		c0,11.3,8.9,20.2,20.2,20.2h174.1c11.3,0,20.2-8.9,20.2-20.2v-3.5h71.3v37.8c0,18.8-15,33.8-33.8,33.8H434
		c-18.8,0-33.8-15-33.8-33.8V110.7c0-18.5,15-33.6,33.8-33.6h289.6C742.3,76.9,757.4,91.9,757.4,110.5z"/>
	<path class="st2" d="M757.4,105.5v80.7c0,18.5-15,33.6-33.8,33.6H434c-18.8,0-33.8-15-33.8-33.6v-80.7h71.6V152
		c0,11.3,8.9,20.4,20.2,20.4h173.9c11.3,0,20.2-9.2,20.2-20.4v-46.5L757.4,105.5L757.4,105.5z"/>
</g>
</svg>
