<svg id="Layer_1" data-name="Layer 1" xmlns="http://www.w3.org/2000/svg" viewBox="0 0 551.55 220.84"><defs><style>.cls-1,.cls-2{fill:#fff;stroke:#fff;stroke-miterlimit:10;}.cls-1{fill-rule:evenodd;}</style></defs><title>ampr</title><polygon class="cls-1" points="153.33 110.05 153.33 0.5 185.81 0.5 212.21 53.78 238.42 0.5 270.81 0.5 270.81 110.05 247.88 110.05 247.88 32.7 220.91 87.21 203.67 87.21 176.52 31.75 176.52 110.05 153.33 110.05"/><polygon class="cls-1" points="322.93 0.5 322.93 110.05 346.86 110.05 346.86 24.44 382.75 24.44 382.75 110.05 406.68 110.05 406.68 0.5 322.93 0.5"/><path class="cls-1" d="M113.13,716.43h27.16l-48-109.55H72.55L25,716.43H51.59l7.91-18.11h45.82l7.81,18.11Zm-44.48-39,13.9-31.85,13.74,31.85Z" transform="translate(-24.2 -606.38)"/><path class="cls-1" d="M537.36,651.51H507V628.72h30.41c4.71,0,13.54,1.32,13.54,11.39s-8.83,11.4-13.54,11.4Zm.41-44.63h-55V716.43H507V672.94H536.7c21.76,0,37.56-9.85,37.56-33.53C574,611.18,548.91,607.11,537.77,606.88Z" transform="translate(-24.2 -606.38)"/><path class="cls-2" d="M93.52,769.05h-9.9l-2.34,6.77H77.64l9.49-26.3h3.05l9.29,26.3H95.84l-2.32-6.77Zm-8.87-3h7.86l-3.83-11.29h-.11l-3.92,11.29Zm37.46,1.34,0,.1a7.91,7.91,0,0,1-2.6,6.2,10,10,0,0,1-7.07,2.5A9.29,9.29,0,0,1,105.2,773a11.63,11.63,0,0,1-2.8-8v-4.68a11.68,11.68,0,0,1,2.8-8,9.29,9.29,0,0,1,7.27-3.17,10.25,10.25,0,0,1,7.11,2.37,7.86,7.86,0,0,1,2.56,6.3l0,.11h-3.42a5.88,5.88,0,0,0-1.62-4.37,6.28,6.28,0,0,0-4.6-1.61,5.6,5.6,0,0,0-4.75,2.41A9.78,9.78,0,0,0,106,760.3V765a9.9,9.9,0,0,0,1.76,6,5.61,5.61,0,0,0,4.75,2.4,6.28,6.28,0,0,0,4.6-1.6,5.91,5.91,0,0,0,1.62-4.41Zm23.43,0,0,.1a7.88,7.88,0,0,1-2.61,6.2,9.94,9.94,0,0,1-7.06,2.5,9.28,9.28,0,0,1-7.27-3.17,11.64,11.64,0,0,1-2.81-8v-4.68a11.68,11.68,0,0,1,2.81-8,9.28,9.28,0,0,1,7.27-3.17,10.22,10.22,0,0,1,7.1,2.37,7.87,7.87,0,0,1,2.57,6.3l0,.11h-3.42a5.88,5.88,0,0,0-1.62-4.37,6.24,6.24,0,0,0-4.59-1.61,5.59,5.59,0,0,0-4.75,2.41,9.72,9.72,0,0,0-1.77,5.95V765a9.83,9.83,0,0,0,1.77,6,5.6,5.6,0,0,0,4.75,2.4,6.24,6.24,0,0,0,4.59-1.6,5.91,5.91,0,0,0,1.62-4.41ZM170.29,765a11.22,11.22,0,0,1-3,8,10.15,10.15,0,0,1-7.75,3.18,9.66,9.66,0,0,1-7.5-3.18,11.5,11.5,0,0,1-2.88-8v-4.68a11.51,11.51,0,0,1,2.88-8,9.64,9.64,0,0,1,7.5-3.2,10.13,10.13,0,0,1,7.75,3.19,11.24,11.24,0,0,1,3,8V765Zm-3.55-4.72a8.88,8.88,0,0,0-2-5.92,6.48,6.48,0,0,0-5.23-2.32,6,6,0,0,0-5,2.32,9.15,9.15,0,0,0-1.86,5.92V765a9.19,9.19,0,0,0,1.86,6,6,6,0,0,0,5,2.32,6.48,6.48,0,0,0,5.24-2.31,8.92,8.92,0,0,0,2-6V760.3Zm8.52-10.78h3.56V773h12.81V749.52h3.56v23.41h3.42v9.38h-3.56v-6.49H175.26v-26.3Zm44.25,0h3.55v26.3h-3.55V755.77l-.11,0-12.67,20.09h-3.55v-26.3h3.55v20l.12,0,12.66-20.07Zm23.21,19.53h-9.89l-2.35,6.77h-3.64l9.49-26.3h3l9.29,26.3H245l-2.32-6.77Zm-8.86-3h7.85l-3.83-11.29h-.11l-3.91,11.29Zm18.52-16.55h3.55V773h12.81V749.52h3.56v23.41h3.42v9.38h-3.56v-6.49H252.38v-26.3Zm44.24,0h3.56v26.3h-3.56V755.77l-.11,0-12.66,20.09h-3.56v-26.3h3.56v20l.11,0,12.66-20.07Zm11.13,26.3H304l6.18-11.94a8.32,8.32,0,0,1-3.89-2.63,6.62,6.62,0,0,1-1.33-4.18,6.72,6.72,0,0,1,2.48-5.57,10.64,10.64,0,0,1,6.83-2h8.41v26.3H319.1v-11h-5.84l-5.51,11Zm11.35-23.5h-4.86a6.43,6.43,0,0,0-4.28,1.25,4.33,4.33,0,0,0-1.47,3.46,4.7,4.7,0,0,0,1.47,3.6A6,6,0,0,0,314.2,762h4.9v-9.68Zm31.27,18.57h.11l8.4-21.37h4.43v26.3h-3.56v-19.7l-.11,0-8,19.72H349.2L341,755.44l-.11,0v20.36h-3.56v-26.3H342l8.36,21.37ZM389.56,765a11.26,11.26,0,0,1-3,8,10.16,10.16,0,0,1-7.76,3.18,9.64,9.64,0,0,1-7.49-3.18,11.5,11.5,0,0,1-2.88-8v-4.68a11.51,11.51,0,0,1,2.88-8,9.62,9.62,0,0,1,7.49-3.2,10.13,10.13,0,0,1,7.76,3.19,11.28,11.28,0,0,1,3,8V765ZM386,760.3a8.87,8.87,0,0,0-1.95-5.92,6.5,6.5,0,0,0-5.24-2.32,6,6,0,0,0-5,2.32A9.15,9.15,0,0,0,372,760.3V765a9.19,9.19,0,0,0,1.85,6,6,6,0,0,0,5,2.32,6.52,6.52,0,0,0,5.25-2.31,9,9,0,0,0,1.94-6V760.3Zm28.58-10.78v26.3H411v-23.5h-9.5l0,9.59q0,7.23-1.86,10.57a6.51,6.51,0,0,1-6.18,3.34h-.95V773h.74a3.71,3.71,0,0,0,3.59-2.57q1.11-2.58,1.12-8.56l0-12.39Zm26.2,15.5a11.26,11.26,0,0,1-3,8,10.16,10.16,0,0,1-7.76,3.18,9.64,9.64,0,0,1-7.49-3.18,11.5,11.5,0,0,1-2.88-8v-4.68a11.51,11.51,0,0,1,2.88-8,9.62,9.62,0,0,1,7.49-3.2,10.13,10.13,0,0,1,7.76,3.19,11.28,11.28,0,0,1,3,8V765Zm-3.56-4.72a8.87,8.87,0,0,0-2-5.92,6.49,6.49,0,0,0-5.24-2.32,6,6,0,0,0-5,2.32,9.15,9.15,0,0,0-1.85,5.92V765a9.19,9.19,0,0,0,1.85,6,6,6,0,0,0,5,2.32,6.52,6.52,0,0,0,5.25-2.31,9,9,0,0,0,1.94-6V760.3Zm33,22h-3.55v-6.46H447.37v6.49h-3.56V773h1.89q2.39,0,3.57-3.28a35.22,35.22,0,0,0,1.5-9.6l.6-10.64h15.3V773h3.59v9.24Zm-15.89-22.12a46.23,46.23,0,0,1-1,7.72,14.17,14.17,0,0,1-2.12,5.16h11.83V752.32h-8.32l-.42,7.84Zm23.43-.23h6.48a9.27,9.27,0,0,1,6.55,2.16,7.38,7.38,0,0,1,2.34,5.71,7.62,7.62,0,0,1-2.34,5.8,9.17,9.17,0,0,1-6.55,2.22h-10v-26.3h3.56v10.41Zm0,2.8V773h6.48a5,5,0,0,0,4-1.53,5.47,5.47,0,0,0,1.34-3.75,5.1,5.1,0,0,0-1.34-3.59,5.16,5.16,0,0,0-4-1.44ZM500,775.82h-3.58v-26.3H500v26.3Zm14.69-16,6.14-10.26h4.3l-8.35,13.05,8.53,13.25H521l-6.3-10.44-6.32,10.44h-4.31l8.53-13.25-8.34-13.05h4.26l6.11,10.26ZM47.87,820.23H44.3V796.72H31.49v23.51H27.93V793.92H47.87v26.31Zm9.66-10.55v10.55H54V793.92H64a9.24,9.24,0,0,1,6.54,2.18,8.15,8.15,0,0,1,0,11.43A9.28,9.28,0,0,1,64,809.68Zm0-2.78H64a4.78,4.78,0,0,0,5.31-5.06A5.26,5.26,0,0,0,68,798.19a5.13,5.13,0,0,0-4-1.47H57.53V806.9ZM91.85,808H81.05v9.42H93.7v2.78H77.49V793.92h16v2.8H81.05v8.51h10.8V808Zm30.41,18.65h-3.55v-6.45H99.37v6.49H95.81v-9.27h1.88q2.4,0,3.58-3.28a35.61,35.61,0,0,0,1.5-9.6l.6-10.65h15.3v23.53h3.59v9.23Zm-15.89-22.11a46.37,46.37,0,0,1-1,7.72,14.17,14.17,0,0,1-2.12,5.16h11.83V796.72h-8.33l-.41,7.85Zm39.89,15.66h-3.57V796.72h-12.8v23.51h-3.56V793.92h19.93v26.31Zm9.66-10.55v10.55h-3.56V793.92h10.07A9.27,9.27,0,0,1,169,796.1a8.15,8.15,0,0,1,0,11.43,9.3,9.3,0,0,1-6.55,2.15Zm0-2.78h6.51a4.78,4.78,0,0,0,5.31-5.06,5.26,5.26,0,0,0-1.33-3.65,5.13,5.13,0,0,0-4-1.47h-6.51V806.9Zm36.35-13h3.56v26.31h-3.56V800.18l-.1,0L179.5,820.23h-3.56V793.92h3.56v20l.11,0,12.66-20.08Zm29.53,26.31h-3.57V808.61H205.46v11.62H201.9V793.92h3.56v11.89h12.77V793.92h3.57v26.31Zm22.52-26.31h3.56v26.31h-3.56V800.18l-.1,0-12.67,20.09H228V793.92h3.56v20l.11,0,12.66-20.08ZM267,815.3h.11l8.4-21.38h4.43v26.31h-3.56V800.52l-.11,0-8,19.73h-2.47l-8.2-20.38-.11,0v20.36H254V793.92h4.68L267,815.3Zm32.69-1.84h-9.9l-2.35,6.77h-3.63l9.48-26.31h3l9.29,26.31H302l-2.31-6.77Zm-8.87-3h7.85l-3.83-11.29h-.11l-3.91,11.29Zm37.07-13.76h-8.67v23.51h-3.56V796.72h-8.57v-2.8h20.8v2.8ZM346,808h-10.8v9.42h12.65v2.78H331.63V793.92h16v2.8H335.19v8.51H346V808Zm25.95-14.11v26.31h-3.56V796.72h-9.5l0,9.6q0,7.23-1.86,10.57a6.51,6.51,0,0,1-6.18,3.34h-.95v-2.78h.74a3.73,3.73,0,0,0,3.59-2.58q1.1-2.57,1.12-8.55l0-12.4ZM392.41,808h-10.8v9.42h12.64v2.78h-16.2V793.92h16v2.8H381.61v8.51h10.8V808Zm22.44-14.11h3.56v26.31h-3.56V800.18l-.1,0-12.67,20.09h-3.56V793.92h3.56v20l.11,0,12.66-20.08Zm-1-7.48,0,.12a4.14,4.14,0,0,1-1.39,3.41,6.57,6.57,0,0,1-7.9,0,4.13,4.13,0,0,1-1.37-3.41l0-.12H406a2.93,2.93,0,0,0,.61,1.94,2.9,2.9,0,0,0,3.88,0,2.85,2.85,0,0,0,.64-1.93Zm23.42,23.24v10.55h-3.56V793.92h10.06a9.25,9.25,0,0,1,6.55,2.18,8.15,8.15,0,0,1,0,11.43,9.29,9.29,0,0,1-6.55,2.15Zm0-2.78h6.5a4.78,4.78,0,0,0,5.31-5.06,5.25,5.25,0,0,0-1.32-3.65,5.16,5.16,0,0,0-4-1.47h-6.5V806.9Zm40.05,2.53a11.22,11.22,0,0,1-3,8,10.17,10.17,0,0,1-7.76,3.19,9.65,9.65,0,0,1-7.49-3.19,11.46,11.46,0,0,1-2.88-8v-4.68a11.55,11.55,0,0,1,2.88-8,9.65,9.65,0,0,1,7.49-3.19,10.13,10.13,0,0,1,7.76,3.19,11.25,11.25,0,0,1,3,8v4.68Zm-3.56-4.72a8.92,8.92,0,0,0-2-5.93,6.51,6.51,0,0,0-5.24-2.31,6,6,0,0,0-5,2.31,9.25,9.25,0,0,0-1.85,5.93v4.72a9.26,9.26,0,0,0,1.85,6,6,6,0,0,0,5,2.31,6.53,6.53,0,0,0,5.25-2.3,8.91,8.91,0,0,0,1.94-6v-4.72Zm27.46,7.1,0,.11a7.91,7.91,0,0,1-2.6,6.2,10,10,0,0,1-7.07,2.5,9.29,9.29,0,0,1-7.27-3.17,11.63,11.63,0,0,1-2.8-8v-4.68a11.66,11.66,0,0,1,2.8-8,9.26,9.26,0,0,1,7.27-3.17,10.25,10.25,0,0,1,7.11,2.37,7.88,7.88,0,0,1,2.56,6.3l0,.11h-3.41a5.88,5.88,0,0,0-1.62-4.37,6.24,6.24,0,0,0-4.6-1.61,5.61,5.61,0,0,0-4.75,2.4,9.84,9.84,0,0,0-1.77,6v4.72a9.9,9.9,0,0,0,1.77,6,5.61,5.61,0,0,0,4.75,2.4,6.28,6.28,0,0,0,4.6-1.6,5.94,5.94,0,0,0,1.62-4.42Zm23.44,0,0,.11a7.88,7.88,0,0,1-2.61,6.2,9.94,9.94,0,0,1-7.06,2.5,9.26,9.26,0,0,1-7.27-3.17,11.64,11.64,0,0,1-2.81-8v-4.68a11.67,11.67,0,0,1,2.81-8,9.23,9.23,0,0,1,7.27-3.17,10.24,10.24,0,0,1,7.1,2.37,7.85,7.85,0,0,1,2.57,6.3l0,.11h-3.42a5.88,5.88,0,0,0-1.62-4.37,6.2,6.2,0,0,0-4.59-1.61,5.6,5.6,0,0,0-4.75,2.4,9.77,9.77,0,0,0-1.77,6v4.72a9.83,9.83,0,0,0,1.77,6,5.6,5.6,0,0,0,4.75,2.4,6.24,6.24,0,0,0,4.59-1.6,5.94,5.94,0,0,0,1.62-4.42Zm21-17.89h3.55v26.31h-3.55V800.18l-.11,0-12.66,20.09h-3.56V793.92h3.56v20l.11,0,12.66-20.08Zm26,0h3.56v26.31h-3.56V800.18l-.1,0-12.67,20.09h-3.56V793.92h3.56v20l.11,0Z" transform="translate(-24.2 -606.38)"/></svg>