<svg xmlns="http://www.w3.org/2000/svg" width="237" height="129" viewBox="0 0 237 129">
  <path fill="#FFF" fill-rule="evenodd" d="M131.380706,42.8442353 L129.607529,43.9637647 C129.244235,44.1929412 128.763765,44.0842353 128.534588,43.7209412 L124.424941,37.2117647 C124.195294,36.8484706 124.304,36.368 124.667294,36.1383529 L126.440471,35.0192941 C126.803765,34.7896471 127.284235,34.8983529 127.513412,35.2616471 L131.623059,41.7712941 C131.852706,42.1345882 131.744,42.6150588 131.380706,42.8442353 Z M127.285647,44.3383529 L125.771294,46.3355294 C125.727529,46.3934118 125.644706,46.3934118 125.594824,46.3407059 C125.082353,45.7952941 124.246588,45.6677647 123.592,46.0715294 C123.356706,46.2169412 123.170353,46.408 123.038588,46.632 C122.994353,46.7077647 122.890353,46.7176471 122.840471,46.6451765 L122.832471,46.6334118 C122.364235,45.9482353 121.452706,45.6677647 120.715765,46.0489412 C120.267294,46.2809412 119.961412,46.6889412 119.864,47.1750588 C119.832471,47.3312941 119.826353,47.4884706 119.841412,47.6423529 C119.848,47.7124706 119.795765,47.7694118 119.725176,47.7689412 C119.354353,47.7665882 118.989176,47.8875294 118.697882,48.1237647 C118.162353,48.5571765 117.972706,49.2781176 118.183529,49.9058824 C118.207059,49.976 118.165647,50.0451765 118.093176,50.0574118 C117.583529,50.1449412 117.125647,50.5025882 116.945412,51.0597647 C116.803294,51.5011765 116.903059,51.9863529 117.168471,52.3670588 L117.36,52.6414118 C117.408471,52.7115294 117.367059,52.8084706 117.282824,52.8211765 L115.016,53.168 C114.517176,53.2442353 114.022118,53.1755294 113.578353,52.9825882 C113.294588,52.8592941 113.296471,52.4522353 113.572235,52.312 L115.632,51.2658824 C115.814588,51.1731765 115.887529,50.9501176 115.794824,50.7670588 C115.701647,50.5844706 115.478118,50.5115294 115.295529,50.6042353 L112.428235,52.0602353 C111.922824,52.3171765 111.312,52.1501176 111.007529,51.6729412 C110.874353,51.4922353 110.830118,51.2983529 110.867765,51.104 C110.905412,50.9101176 111.018824,50.7463529 111.187765,50.6432941 L111.850353,50.2390588 L114.528,48.7792941 C114.708235,48.6814118 114.774588,48.456 114.676235,48.2757647 C114.578353,48.096 114.352941,48.0291765 114.173176,48.128 L110.469176,50.1463529 C109.928471,50.4414118 109.239059,50.2687059 108.900235,49.7538824 C108.789647,49.5858824 108.753412,49.3849412 108.798588,49.1887059 C108.843294,48.9929412 108.962824,48.8277647 109.135529,48.7247059 L109.404235,48.5642353 L113.382588,46.1830588 C113.558118,46.0781176 113.616,45.8503529 113.510118,45.6743529 C113.405176,45.4983529 113.177412,45.4409412 113.001412,45.5463529 L109.210824,47.8150588 L109.022588,47.9270588 L108.317647,48.3491765 C107.824941,48.6437647 107.128471,48.5152941 106.831529,48.024 C106.694588,47.7971765 106.648941,47.5312941 106.704,47.2705882 C106.761412,46.9957647 106.922353,46.76 107.158118,46.6075294 L115.919059,40.9298824 C116.097412,40.8136471 116.326118,40.8028235 116.515294,40.9021176 L120.528471,43 C120.972706,43.232 121.518588,43.2395294 121.937412,42.9632941 C122.337882,42.6992941 122.564235,42.2531765 122.537412,41.7614118 C122.522824,41.4842353 122.406588,41.2216471 122.237176,41.0018824 L120.614588,38.8912941 L122.365176,38.6127059 C122.506824,38.5901176 122.643765,38.5454118 122.770824,38.4795294 L123.149647,38.2828235 C123.606588,38.0451765 124.169412,38.1976471 124.444235,38.6334118 L127.334118,43.2103529 C127.554824,43.5595294 127.535529,44.0094118 127.285647,44.3383529 Z M125.992,49.6517647 L125.958118,49.6767059 C125.772235,49.8089412 125.541647,49.8602353 125.312,49.8202353 C125.108706,49.784 124.932706,49.6762353 124.802824,49.5185882 L123.686118,47.8832941 C123.573176,47.6964706 123.533176,47.4785882 123.579294,47.2635294 C123.628706,47.0315294 123.767529,46.8357647 123.969412,46.7110588 C124.115765,46.6202353 124.277176,46.5774118 124.435294,46.5774118 C124.708706,46.5774118 124.973176,46.7063529 125.138353,46.9425882 L126.198588,48.4583529 C126.467765,48.8437647 126.375529,49.3792941 125.992,49.6517647 Z M124.196235,51.4856471 C123.999529,51.6244706 123.763294,51.6776471 123.529882,51.6338824 C123.296471,51.5910588 123.094118,51.4597647 122.96,51.2635294 L122.805647,51.0367059 C122.780235,50.9910588 122.760471,50.9421176 122.730824,50.8988235 L121.056,48.4649412 C121.049412,48.4555294 121.040471,48.4484706 121.033882,48.4390588 L120.727529,47.9901176 C120.592941,47.7929412 120.544941,47.5552941 120.592,47.3209412 C120.638588,47.0870588 120.774588,46.8861176 120.974588,46.7557647 C121.120941,46.6607059 121.287059,46.6150588 121.451765,46.6150588 C121.734118,46.6150588 122.013176,46.7496471 122.182118,46.9971765 L123.071529,48.2997647 C123.08,48.3129412 123.085176,48.328 123.094588,48.3416471 C123.423529,48.8263529 123.812235,49.3981176 124.141176,49.8785882 C124.155294,49.8997647 124.174118,49.9157647 124.189176,49.936 L124.416941,50.2691765 C124.686588,50.6649412 124.587765,51.2103529 124.196235,51.4856471 Z M122.249882,52.0254118 C122.190118,52.272 122.034353,52.4738824 121.811294,52.5943529 C121.413647,52.8070588 120.922353,52.6889412 120.667294,52.3181176 L120.417882,51.9552941 C120.394824,51.9143529 120.378353,51.8710588 120.351059,51.832 L119.536,50.6611765 C119.524706,50.6451765 119.509176,50.6329412 119.497882,50.6174118 L118.993412,49.8837647 C118.734588,49.5077647 118.809882,48.9877647 119.165176,48.7007059 C119.323765,48.5717647 119.515765,48.504 119.715765,48.504 C119.758588,48.504 119.802353,48.5072941 119.845176,48.5134118 C120.079059,48.5472941 120.281882,48.6710588 120.422118,48.8592941 L122.196235,51.4616471 C122.275765,51.6376471 122.296471,51.8324706 122.249882,52.0254118 Z M119.841412,52.8672941 C119.779765,53.0762353 119.628706,53.2442353 119.427294,53.3275294 C119.114353,53.456 118.760471,53.3524706 118.566588,53.0748235 L117.751059,51.9044706 C117.538824,51.6004706 117.597176,51.1774118 117.883765,50.9421176 C118.014118,50.8348235 118.171765,50.7783529 118.336471,50.7783529 C118.369882,50.7783529 118.403294,50.7807059 118.437176,50.7854118 C118.616941,50.8103529 118.773176,50.9016471 118.887529,51.04 L119.808941,52.3797647 C119.875765,52.5327059 119.889412,52.7035294 119.841412,52.8672941 Z M104.403765,44.2272941 C104.222588,44.056 104.187765,43.7807059 104.320941,43.5698824 L107.773647,38.1002353 C107.908235,37.8870588 108.176,37.8009412 108.409882,37.8950588 L109.111059,38.1774118 C109.356235,38.2767059 109.625412,38.3002353 109.883765,38.2461176 L112.273412,37.7444706 C113.526588,37.4814118 114.819294,37.4658824 116.078588,37.6997647 L118.326118,38.1176471 C118.895059,38.2235294 119.405176,38.536 119.758118,38.9948235 L121.674353,41.4875294 C121.771294,41.6131765 121.812706,41.7694118 121.792,41.9270588 C121.770353,42.0847059 121.688941,42.224 121.561882,42.32 C121.380706,42.4574118 121.132706,42.4781176 120.930824,42.3727059 L116.858824,40.2442353 C116.432471,40.0211765 115.919059,40.0451765 115.515294,40.3068235 L106.754353,45.9844706 C106.657882,46.0475294 106.569412,46.1190588 106.488,46.1971765 L104.403765,44.2272941 Z M102.422588,43.7185882 L100.615529,42.56 C100.255059,42.3294118 100.148706,41.8517647 100.376941,41.4898824 L104.486588,34.9807059 C104.717176,34.6155294 105.200941,34.5082353 105.564235,34.7411765 L107.371765,35.8992941 C107.731765,36.1298824 107.838118,36.608 107.609882,36.9694118 L103.500235,43.4790588 C103.269647,43.8437647 102.786353,43.9515294 102.422588,43.7185882 Z M116,22 C103.849882,22 94,31.8498824 94,44 C94,56.1505882 103.849882,66.0004706 116,66.0004706 C128.150588,66.0004706 138,56.1505882 138,44 C138,31.8498824 128.150588,22 116,22 Z M116,78 C97.2223185,78 82,62.7776815 82,44 C82,25.2223185 97.2223185,10 116,10 C134.777681,10 150,25.2223185 150,44 C150,62.7776815 134.777681,78 116,78 Z M116,74 C132.568542,74 146,60.5685425 146,44 C146,27.4314575 132.568542,14 116,14 C99.4314575,14 86,27.4314575 86,44 C86,60.5685425 99.4314575,74 116,74 Z M116,87.5 C91.9756134,87.5 72.5,68.0243866 72.5,44 C72.5,19.9756134 91.9756134,0.5 116,0.5 C140.024387,0.5 159.5,19.9756134 159.5,44 C159.5,68.0243866 140.024387,87.5 116,87.5 Z M116,86.5 C139.472102,86.5 158.5,67.4721019 158.5,44 C158.5,20.5278981 139.472102,1.5 116,1.5 C92.5278981,1.5 73.5,20.5278981 73.5,44 C73.5,67.4721019 92.5278981,86.5 116,86.5 Z M0.590820312,122 L0.590820312,100.671875 L7.90039062,100.671875 C10.3125121,100.671875 12.1484312,101.155269 13.4082031,102.12207 C14.667975,103.088872 15.2978516,104.529287 15.2978516,106.443359 C15.2978516,107.419927 15.0341823,108.298824 14.5068359,109.080078 C13.9794896,109.861332 13.2080129,110.466795 12.1923828,110.896484 C13.3447323,111.208986 14.2358367,111.797359 14.8657227,112.661621 C15.4956086,113.525883 15.8105469,114.563471 15.8105469,115.774414 C15.8105469,117.776377 15.1684635,119.314448 13.8842773,120.388672 C12.6000912,121.462896 10.7617307,122 8.36914062,122 L0.590820312,122 Z M4.296875,112.375977 L4.296875,119.041016 L8.41308594,119.041016 C9.57520112,119.041016 10.4833952,118.752933 11.1376953,118.176758 C11.7919955,117.600583 12.1191406,116.79981 12.1191406,115.774414 C12.1191406,113.557606 10.9863395,112.424805 8.72070312,112.375977 L4.296875,112.375977 Z M4.296875,109.651367 L7.9296875,109.651367 C9.08203701,109.651367 9.98290691,109.390139 10.6323242,108.867676 C11.2817415,108.345212 11.6064453,107.605474 11.6064453,106.648438 C11.6064453,105.593745 11.3061553,104.832034 10.7055664,104.363281 C10.1049775,103.894529 9.16992822,103.660156 7.90039062,103.660156 L4.296875,103.660156 L4.296875,109.651367 Z M26.1523438,122.292969 C23.8964731,122.292969 22.0678781,121.582527 20.6665039,120.161621 C19.2651297,118.740716 18.5644531,116.848645 18.5644531,114.485352 L18.5644531,114.045898 C18.5644531,112.463859 18.8696259,111.050299 19.4799805,109.805176 C20.0903351,108.560052 20.9472601,107.590824 22.0507812,106.897461 C23.1543024,106.204098 24.3847588,105.857422 25.7421875,105.857422 C27.9004014,105.857422 29.5678652,106.545892 30.7446289,107.922852 C31.9213926,109.299812 32.5097656,111.248034 32.5097656,113.767578 L32.5097656,115.203125 L22.1533203,115.203125 C22.2607427,116.511725 22.6977501,117.546871 23.4643555,118.308594 C24.2309609,119.070316 25.1953067,119.451172 26.3574219,119.451172 C27.9882894,119.451172 29.3164011,118.791999 30.3417969,117.473633 L32.2607422,119.304688 C31.6259734,120.251958 30.7788139,120.986814 29.7192383,121.509277 C28.6596627,122.031741 27.4707097,122.292969 26.1523438,122.292969 Z M25.7275391,108.713867 C24.7509717,108.713867 23.9624053,109.055661 23.3618164,109.739258 C22.7612275,110.422855 22.3779305,111.374994 22.2119141,112.595703 L28.9941406,112.595703 L28.9941406,112.332031 C28.9160152,111.140619 28.5986356,110.239749 28.0419922,109.629395 C27.4853488,109.01904 26.7138721,108.713867 25.7275391,108.713867 Z M41.7822266,119.451172 C42.6709029,119.451172 43.4082002,119.192385 43.9941406,118.674805 C44.5800811,118.157224 44.8925779,117.517582 44.9316406,116.755859 L48.2861328,116.755859 C48.2470701,117.742192 47.939456,118.662593 47.3632812,119.51709 C46.7871065,120.371586 46.0058643,121.047849 45.0195312,121.545898 C44.0331982,122.043948 42.9687557,122.292969 41.8261719,122.292969 C39.6093639,122.292969 37.851569,121.575202 36.5527344,120.139648 C35.2538998,118.704094 34.6044922,116.721692 34.6044922,114.192383 L34.6044922,113.826172 C34.6044922,111.41405 35.249017,109.482917 36.5380859,108.032715 C37.8271549,106.582512 39.5849498,105.857422 41.8115234,105.857422 C43.6962985,105.857422 45.2319277,106.406733 46.418457,107.505371 C47.6049864,108.604009 48.2275388,110.046866 48.2861328,111.833984 L44.9316406,111.833984 C44.8925779,110.925777 44.5825224,110.178714 44.0014648,109.592773 C43.4204073,109.006833 42.6806686,108.713867 41.7822266,108.713867 C40.6298771,108.713867 39.7412141,109.131343 39.1162109,109.966309 C38.4912078,110.801274 38.1738282,112.068351 38.1640625,113.767578 L38.1640625,114.338867 C38.1640625,116.057626 38.474118,117.339351 39.0942383,118.184082 C39.7143586,119.028813 40.6103457,119.451172 41.7822266,119.451172 Z M50.3076172,113.928711 C50.3076172,112.375969 50.6152313,110.977057 51.2304688,109.731934 C51.8457062,108.48681 52.7099554,107.529789 53.8232422,106.86084 C54.936529,106.191891 56.2158131,105.857422 57.6611328,105.857422 C59.7998154,105.857422 61.5356379,106.545892 62.8686523,107.922852 C64.2016668,109.299812 64.9218745,111.125965 65.0292969,113.401367 L65.0439453,114.236328 C65.0439453,115.798836 64.7436553,117.195306 64.1430664,118.425781 C63.5424775,119.656256 62.6831111,120.608395 61.5649414,121.282227 C60.4467718,121.956058 59.1552808,122.292969 57.6904297,122.292969 C55.4540904,122.292969 53.6645575,121.548347 52.3217773,120.059082 C50.9789972,118.569817 50.3076172,116.584973 50.3076172,114.104492 L50.3076172,113.928711 Z M53.8671875,114.236328 C53.8671875,115.867196 54.2040982,117.144038 54.8779297,118.066895 C55.5517612,118.989751 56.4892518,119.451172 57.6904297,119.451172 C58.8916076,119.451172 59.8266568,118.982427 60.4956055,118.044922 C61.1645541,117.107417 61.4990234,115.735361 61.4990234,113.928711 C61.4990234,112.32714 61.1547886,111.057622 60.4663086,110.120117 C59.7778286,109.182613 58.8427793,108.713867 57.6611328,108.713867 C56.4990176,108.713867 55.5761753,109.175288 54.8925781,110.098145 C54.208981,111.021001 53.8671875,112.400381 53.8671875,114.236328 Z M71.4013672,106.150391 L71.5039062,107.805664 C72.6171931,106.506829 74.1406153,105.857422 76.0742188,105.857422 C78.19337,105.857422 79.6435508,106.667961 80.4248047,108.289062 C81.5771542,106.667961 83.1982317,105.857422 85.2880859,105.857422 C87.0361416,105.857422 88.3373981,106.340815 89.1918945,107.307617 C90.046391,108.274419 90.4833983,109.700186 90.5029297,111.584961 L90.5029297,122 L86.9433594,122 L86.9433594,111.6875 C86.9433594,110.681636 86.723635,109.944338 86.2841797,109.475586 C85.8447244,109.006834 85.1171926,108.772461 84.1015625,108.772461 C83.2910116,108.772461 82.6293971,108.989744 82.1166992,109.424316 C81.6040013,109.858889 81.2451182,110.427731 81.0400391,111.130859 L81.0546875,122 L77.4951172,122 L77.4951172,111.570312 C77.4462888,109.705069 76.4941499,108.772461 74.6386719,108.772461 C73.2128835,108.772461 72.2021514,109.35351 71.6064453,110.515625 L71.6064453,122 L68.046875,122 L68.046875,106.150391 L71.4013672,106.150391 Z M101.137695,122.292969 C98.8818247,122.292969 97.0532297,121.582527 95.6518555,120.161621 C94.2504813,118.740716 93.5498047,116.848645 93.5498047,114.485352 L93.5498047,114.045898 C93.5498047,112.463859 93.8549774,111.050299 94.465332,109.805176 C95.0756866,108.560052 95.9326117,107.590824 97.0361328,106.897461 C98.139654,106.204098 99.3701104,105.857422 100.727539,105.857422 C102.885753,105.857422 104.553217,106.545892 105.72998,107.922852 C106.906744,109.299812 107.495117,111.248034 107.495117,113.767578 L107.495117,115.203125 L97.1386719,115.203125 C97.2460943,116.511725 97.6831016,117.546871 98.449707,118.308594 C99.2163124,119.070316 100.180658,119.451172 101.342773,119.451172 C102.973641,119.451172 104.301753,118.791999 105.327148,117.473633 L107.246094,119.304688 C106.611325,120.251958 105.764165,120.986814 104.70459,121.509277 C103.645014,122.031741 102.456061,122.292969 101.137695,122.292969 Z M100.712891,108.713867 C99.7363232,108.713867 98.9477569,109.055661 98.347168,109.739258 C97.746579,110.422855 97.3632821,111.374994 97.1972656,112.595703 L103.979492,112.595703 L103.979492,112.332031 C103.901367,111.140619 103.583987,110.239749 103.027344,109.629395 C102.4707,109.01904 101.699224,108.713867 100.712891,108.713867 Z M127.197266,122 C127.041015,121.697264 126.904297,121.204105 126.787109,120.520508 C125.654291,121.702154 124.267586,122.292969 122.626953,122.292969 C121.035148,122.292969 119.736333,121.838872 118.730469,120.930664 C117.724604,120.022456 117.22168,118.899421 117.22168,117.561523 C117.22168,115.872062 117.849115,114.575688 119.104004,113.672363 C120.358893,112.769038 122.153309,112.317383 124.487305,112.317383 L126.669922,112.317383 L126.669922,111.277344 C126.669922,110.457027 126.440432,109.800295 125.981445,109.307129 C125.522459,108.813962 124.824223,108.567383 123.886719,108.567383 C123.076168,108.567383 122.412112,108.770018 121.894531,109.175293 C121.376951,109.580568 121.118164,110.0957 121.118164,110.720703 L117.558594,110.720703 C117.558594,109.851558 117.846677,109.038578 118.422852,108.281738 C118.999026,107.524899 119.78271,106.931643 120.773926,106.501953 C121.765142,106.072263 122.871088,105.857422 124.091797,105.857422 C125.947275,105.857422 127.426752,106.323726 128.530273,107.256348 C129.633795,108.18897 130.200195,109.499992 130.229492,111.189453 L130.229492,118.337891 C130.229492,119.763679 130.429685,120.901363 130.830078,121.750977 L130.830078,122 L127.197266,122 Z M123.286133,119.436523 C123.989261,119.436523 124.650876,119.265627 125.270996,118.923828 C125.891116,118.58203 126.35742,118.12305 126.669922,117.546875 L126.669922,114.558594 L124.750977,114.558594 C123.432611,114.558594 122.44141,114.788084 121.777344,115.24707 C121.113278,115.706057 120.78125,116.355465 120.78125,117.195312 C120.78125,117.87891 121.008299,118.423338 121.462402,118.828613 C121.916506,119.233889 122.52441,119.436523 123.286133,119.436523 Z M155.307617,114.236328 C155.307617,116.687512 154.750982,118.643059 153.637695,120.103027 C152.524408,121.562996 151.030283,122.292969 149.155273,122.292969 C147.416983,122.292969 146.025396,121.721685 144.980469,120.579102 L144.980469,128.09375 L141.420898,128.09375 L141.420898,106.150391 L144.702148,106.150391 L144.848633,107.761719 C145.89356,106.492181 147.314444,105.857422 149.111328,105.857422 C151.044932,105.857422 152.56103,106.57763 153.659668,108.018066 C154.758306,109.458503 155.307617,111.457995 155.307617,114.016602 L155.307617,114.236328 Z M151.762695,113.928711 C151.762695,112.346672 151.447757,111.091802 150.817871,110.164062 C150.187985,109.236323 149.287115,108.772461 148.115234,108.772461 C146.660149,108.772461 145.615238,109.373041 144.980469,110.574219 L144.980469,117.605469 C145.625003,118.835944 146.67968,119.451172 148.144531,119.451172 C149.277349,119.451172 150.163571,118.994633 150.803223,118.081543 C151.442874,117.168452 151.762695,115.784189 151.762695,113.928711 Z M167.788086,122 C167.631835,121.697264 167.495118,121.204105 167.37793,120.520508 C166.245112,121.702154 164.858407,122.292969 163.217773,122.292969 C161.625969,122.292969 160.327153,121.838872 159.321289,120.930664 C158.315425,120.022456 157.8125,118.899421 157.8125,117.561523 C157.8125,115.872062 158.439935,114.575688 159.694824,113.672363 C160.949713,112.769038 162.744129,112.317383 165.078125,112.317383 L167.260742,112.317383 L167.260742,111.277344 C167.260742,110.457027 167.031252,109.800295 166.572266,109.307129 C166.113279,108.813962 165.415044,108.567383 164.477539,108.567383 C163.666988,108.567383 163.002932,108.770018 162.485352,109.175293 C161.967771,109.580568 161.708984,110.0957 161.708984,110.720703 L158.149414,110.720703 C158.149414,109.851558 158.437497,109.038578 159.013672,108.281738 C159.589847,107.524899 160.37353,106.931643 161.364746,106.501953 C162.355962,106.072263 163.461908,105.857422 164.682617,105.857422 C166.538095,105.857422 168.017573,106.323726 169.121094,107.256348 C170.224615,108.18897 170.791015,109.499992 170.820312,111.189453 L170.820312,118.337891 C170.820312,119.763679 171.020506,120.901363 171.420898,121.750977 L171.420898,122 L167.788086,122 Z M163.876953,119.436523 C164.580082,119.436523 165.241696,119.265627 165.861816,118.923828 C166.481937,118.58203 166.948241,118.12305 167.260742,117.546875 L167.260742,114.558594 L165.341797,114.558594 C164.023431,114.558594 163.03223,114.788084 162.368164,115.24707 C161.704098,115.706057 161.37207,116.355465 161.37207,117.195312 C161.37207,117.87891 161.599119,118.423338 162.053223,118.828613 C162.507326,119.233889 163.115231,119.436523 163.876953,119.436523 Z M182.84668,109.402344 C182.377927,109.324218 181.894534,109.285156 181.396484,109.285156 C179.765617,109.285156 178.666995,109.91015 178.100586,111.160156 L178.100586,122 L174.541016,122 L174.541016,106.150391 L177.939453,106.150391 L178.027344,107.922852 C178.886723,106.545892 180.078117,105.857422 181.601562,105.857422 C182.109378,105.857422 182.529295,105.925781 182.861328,106.0625 L182.84668,109.402344 Z M189.555664,102.297852 L189.555664,106.150391 L192.353516,106.150391 L192.353516,108.787109 L189.555664,108.787109 L189.555664,117.634766 C189.555664,118.240237 189.675292,118.677245 189.914551,118.945801 C190.15381,119.214357 190.581052,119.348633 191.196289,119.348633 C191.606447,119.348633 192.021482,119.299805 192.441406,119.202148 L192.441406,121.956055 C191.630855,122.180665 190.849613,122.292969 190.097656,122.292969 C187.363268,122.292969 185.996094,120.784195 185.996094,117.766602 L185.996094,108.787109 L183.388672,108.787109 L183.388672,106.150391 L185.996094,106.150391 L185.996094,102.297852 L189.555664,102.297852 Z M198.374023,106.150391 L198.476562,107.981445 C199.648443,106.565423 201.186514,105.857422 203.09082,105.857422 C206.391618,105.857422 208.071289,107.747051 208.129883,111.526367 L208.129883,122 L204.570312,122 L204.570312,111.731445 C204.570312,110.725581 204.35303,109.980959 203.918457,109.497559 C203.483885,109.014158 202.773442,108.772461 201.787109,108.772461 C200.351555,108.772461 199.28223,109.421869 198.579102,110.720703 L198.579102,122 L195.019531,122 L195.019531,106.150391 L198.374023,106.150391 Z M218.735352,122.292969 C216.479481,122.292969 214.650886,121.582527 213.249512,120.161621 C211.848138,118.740716 211.147461,116.848645 211.147461,114.485352 L211.147461,114.045898 C211.147461,112.463859 211.452634,111.050299 212.062988,109.805176 C212.673343,108.560052 213.530268,107.590824 214.633789,106.897461 C215.73731,106.204098 216.967767,105.857422 218.325195,105.857422 C220.483409,105.857422 222.150873,106.545892 223.327637,107.922852 C224.5044,109.299812 225.092773,111.248034 225.092773,113.767578 L225.092773,115.203125 L214.736328,115.203125 C214.843751,116.511725 215.280758,117.546871 216.047363,118.308594 C216.813969,119.070316 217.778315,119.451172 218.94043,119.451172 C220.571297,119.451172 221.899409,118.791999 222.924805,117.473633 L224.84375,119.304688 C224.208981,120.251958 223.361822,120.986814 222.302246,121.509277 C221.24267,122.031741 220.053718,122.292969 218.735352,122.292969 Z M218.310547,108.713867 C217.333979,108.713867 216.545413,109.055661 215.944824,109.739258 C215.344235,110.422855 214.960938,111.374994 214.794922,112.595703 L221.577148,112.595703 L221.577148,112.332031 C221.499023,111.140619 221.181643,110.239749 220.625,109.629395 C220.068357,109.01904 219.29688,108.713867 218.310547,108.713867 Z M236.152344,109.402344 C235.683591,109.324218 235.200198,109.285156 234.702148,109.285156 C233.071281,109.285156 231.972659,109.91015 231.40625,111.160156 L231.40625,122 L227.84668,122 L227.84668,106.150391 L231.245117,106.150391 L231.333008,107.922852 C232.192387,106.545892 233.383781,105.857422 234.907227,105.857422 C235.415042,105.857422 235.834959,105.925781 236.166992,106.0625 L236.152344,109.402344 Z"/>
</svg>
