<svg xmlns="http://www.w3.org/2000/svg" viewBox="0 0 190.86 86.81"><defs><style>.cls-1{fill:#fff;}</style></defs><title>bo</title><path class="cls-1" d="M112.2,97a6.52,6.52,0,1,0-6.51-6.52A6.51,6.51,0,0,0,112.2,97" transform="translate(-11.22 -11.17)"/><path class="cls-1" d="M178.83,54.57c0,13.72-6,24-19.44,24s-19.67-9.78-19.67-24c0-13.35,6.2-24,19.2-24,13.83,0,19.91,10.49,19.91,24m23.25.48c0-26-17.29-43.88-42.81-43.88-26.59,0-42.8,18.72-42.8,44.36,0,24.56,18,42.45,42.8,42.45s42.81-18.48,42.81-42.93M77.16,69c0,5.85-3.58,9.54-11.57,9.54H45.44V61.61H65.59c7.75,0,11.57,2.38,11.57,7.39M103,69c0-18.72-14.54-21.1-28.85-21.1H45.44V30.73H76.56l.36,11.32H97.79V12.84H11.22V31.32H24.58V78H11.22V96.43H68.46C91.59,96.43,103,85.58,103,69" transform="translate(-11.22 -11.17)"/></svg>