<svg xmlns="http://www.w3.org/2000/svg" viewBox="0 0 426.82 185.69"><defs><style>.cls-1{fill:#fff;}</style></defs><title>Ресурс 1</title><g id="Слой_2" data-name="Слой 2"><g id="Слой_1-2" data-name="Слой 1"><path class="cls-1" d="M0,110v-.41C0,66.85,32.85,33.38,77.2,33.38c29.92,0,49.17,12.55,62.14,30.55L108.79,87.57c-8.36-10.46-18-17.16-32-17.16-20.51,0-34.95,17.37-34.95,38.71v.42c0,22,14.44,39.12,35,39.12,15.27,0,24.26-7.11,33.05-17.78l30.55,21.76c-13.81,19-32.43,33.05-64.86,33.05C33.69,185.69,0,153.68,0,110Z"/><path class="cls-1" d="M215.3,106.61c13.8,0,21.75-6.7,21.75-17.37v-.42c0-11.5-8.36-17.36-22-17.36H188.51v35.15Zm1.88-70.3c22.39,0,37.87,5.86,47.7,15.9,8.58,8.37,13,19.67,13,34.1v.42c0,22.39-11.93,37.24-30.13,45l34.94,51H235.8l-29.5-44.35H188.51v44.35H147.92V36.31Z"/><polygon class="cls-1" points="326.4 36.31 386.65 113.72 386.65 36.31 426.82 36.31 426.82 182.76 391.25 182.76 328.69 102.42 328.69 182.76 288.52 182.76 288.52 36.31 326.4 36.31"/><rect class="cls-1" x="288.53" width="138.3" height="3.6"/><path class="cls-1" d="M289.11,29.49h-.58V10.8H293v9.59l10.69-10h.55V29.1h-4.45V19.4Z"/><path class="cls-1" d="M310.08,14.4h-3.71V10.8h11.85v3.6h-3.68V29.1h-4.46Z"/><path class="cls-1" d="M318.65,21.19h6.76V23.8h-6.76Z"/><path class="cls-1" d="M332.72,14.4v3.49h2.75c5.64,0,6.19,3.76,6.19,5.75,0,3-2.06,5.46-6.21,5.46h-7.18V10.8h11.16v3.6Zm1.71,11.1c.91,0,2.78,0,2.78-2s-1.82-2-2.75-2h-1.74v4Z"/><path class="cls-1" d="M344.17,29.49h-.58V10.8H348v9.59l10.7-10h.54V29.1h-4.45V19.4Z"/><path class="cls-1" d="M361.52,12.2a17,17,0,0,1,7.8-1.79c5.17,0,6.57,2.83,6.57,4.87a4.14,4.14,0,0,1-3.46,4.12A4.65,4.65,0,0,1,376.77,24c0,2.42-1.81,5.5-7,5.5a17.07,17.07,0,0,1-8.52-2.2l2.25-3a10.74,10.74,0,0,0,5.36,1.57c2.66,0,3.46-1.35,3.46-2.17,0-2.39-3.13-2.37-4.26-2.37h-1.29V17.72h1.34c.61,0,3.33.06,3.33-2.06,0-.66-.66-1.64-2.44-1.64a12,12,0,0,0-5.64,1.62Z"/><path class="cls-1" d="M383.15,29.1H378.7V10.8h4.45v6.92h6.77V10.8h4.45V29.1h-4.45V21.33h-6.77Z"/><path class="cls-1" d="M408.2,21.68h-7.06V25.5h7.06v3.6H396.68V10.8H408.2v3.6h-7.06v3.68h7.06Z"/><path class="cls-1" d="M424.5,15.6A6.88,6.88,0,0,0,420.08,14c-3.33,0-5.47,2.47-5.47,5.93,0,3,1.62,5.94,5.16,5.94a7,7,0,0,0,4.73-1.71l2.29,3a12.06,12.06,0,0,1-7.56,2.34c-5.91,0-9.1-4.65-9.1-9.54,0-3.76,2.17-9.54,9.15-9.54a12.06,12.06,0,0,1,7.51,2.37Z"/></g></g></svg>