<svg xmlns="http://www.w3.org/2000/svg" viewBox="0 0 218.84 57.43"><defs><style>.cls-1,.cls-2{fill:#fff;}.cls-2{fill-rule:evenodd;}</style></defs><title>daily</title><g id="Layer_2" data-name="Layer 2"><g id="Layer_1-2" data-name="Layer 1"><path class="cls-1" d="M60.16,39.57c.41,0,1,.05,1.79.13s1.43.1,2,.1a29.7,29.7,0,0,0,4-.23,9.52,9.52,0,0,0,2.51-.82,7.73,7.73,0,0,0,2.36-1.66,8.63,8.63,0,0,0,1.54-2.48,12.91,12.91,0,0,0,1.2-5.86,17.59,17.59,0,0,0-.26-2.91A11.77,11.77,0,0,0,74.35,23a6.21,6.21,0,0,0-1.62-2.21,7.69,7.69,0,0,0-3.47-1.7,24.53,24.53,0,0,0-4.7-.36c-.61,0-1.37,0-2.25.07l-2,.1C60.12,22.26,60,24.65,60,26v9.51ZM59.62,41c-.59,0-1.46,0-2.61.11l.15-3.42.11-16.16-.11-4.23h9.47a23.23,23.23,0,0,1,4.77.42,8.39,8.39,0,0,1,3.65,1.81,9.41,9.41,0,0,1,2.82,3.81,12.79,12.79,0,0,1,.92,4.88,14.4,14.4,0,0,1-1,5.75,13.16,13.16,0,0,1-3.37,4.46,9.08,9.08,0,0,1-3.06,1.79A13.38,13.38,0,0,1,68,41c-1.1.09-2.47.14-4.12.14ZM81.85,28.25v-2a9.68,9.68,0,0,1,5.59-2A5.63,5.63,0,0,1,91.73,26a3.83,3.83,0,0,1,1.1,1.78,12,12,0,0,1,.2,2.52l-.1,4.13c0,.29,0,.72,0,1.27s0,1,0,1.3a7.65,7.65,0,0,0,.25,2.31,1,1,0,0,0,1,.78,2.1,2.1,0,0,0,.82-.11v.76a.24.24,0,0,0-.23.1l-.45.14A2.45,2.45,0,0,1,94,41a9,9,0,0,1-1.14.11A2.26,2.26,0,0,1,90.38,39l-.34.33a7,7,0,0,1-5.11,2.18,4.87,4.87,0,0,1-3.29-1.19,3.88,3.88,0,0,1-1.38-3.06A4.85,4.85,0,0,1,80.82,35a3.46,3.46,0,0,1,1.5-1.57,14.17,14.17,0,0,1,4.4-1.2,10.29,10.29,0,0,0,3.05-.81,2.33,2.33,0,0,0,.54-.39,4.56,4.56,0,0,0,.1-1.14,4.17,4.17,0,0,0-1.06-3,4,4,0,0,0-3-1.11,4.42,4.42,0,0,0-3.86,1.95,4.23,4.23,0,0,0-.28.5Zm8.58,4.25a.81.81,0,0,0-.32.11l-1,.21c-1.41.25-2.45.48-3.11.66a4.67,4.67,0,0,0-1.9,1.08,2.84,2.84,0,0,0-.9,2.23c0,2.18,1.14,3.27,3.41,3.27a3.86,3.86,0,0,0,2.77-1.3l.65-.7a.64.64,0,0,0,.26-.39Zm7-7.83a9.5,9.5,0,0,0,1.67.11,6.06,6.06,0,0,0,1.35-.11q-.21,3.7-.21,8.2,0,4,.16,7.93l0,.34c-.65-.07-1.15-.11-1.5-.11a7.74,7.74,0,0,0-1.52.11c.13-2.46.21-5.23.21-8.27q0-5.31-.17-7.94Zm1.67-4.25a1.71,1.71,0,0,1-1.26-.51,1.65,1.65,0,0,1-.52-1.22,1.73,1.73,0,0,1,.52-1.26,1.7,1.7,0,0,1,1.27-.54,1.65,1.65,0,0,1,1.23.54,1.79,1.79,0,0,1,.51,1.26,1.76,1.76,0,0,1-1.74,1.73Zm8.74,16.75.05,3.63.06.34-.93-.05c-.93,0-1.62,0-2,.05v-1l.26-8V18.53l-.11-3.16-.06-.26.45.11h2.17a.92.92,0,0,0,.42-.11v1l-.26,7.66Zm8.69,5.45.6-1.26.16-.27-.43-1.14-6.57-15.27,1.14.11h.86l1.3-.06.27.93,1.79,4.61,2.94,7,.27.23.38-.88L120.46,34l1.35-3.58,2.12-5.76a4.29,4.29,0,0,0,1,.11,5.61,5.61,0,0,0,1.25-.11L118,42.83l-1.32,3.74a2.91,2.91,0,0,0-1-.17,4.91,4.91,0,0,0-1.31.17Zm0,0"/><path class="cls-1" d="M0,53.49a34.39,34.39,0,0,0,4.35,1.84C26.66,63,51.1,48.7,51.1,28.61a24.53,24.53,0,0,0-2.5-11,25.45,25.45,0,0,0-1.72-3,25.07,25.07,0,0,0-5,6.08h0q-.77,1.31-1.38,2.61l.15.46a16.72,16.72,0,0,1,.71,4.8h0c0,14.64-17.3,24.51-33.33,19.12A24.15,24.15,0,0,1,.39,43.53L0,43.21ZM0,4c.86-.36,2.28-1,3-1.24s1.32-.52,1.91-.71A37.54,37.54,0,0,1,17.12,0h0A37.45,37.45,0,0,1,35.26,4.38a33.29,33.29,0,0,1,3,1.85l.82.57-.63.52h0a40.63,40.63,0,0,0-5.52,5.58l-.24-.17q-.69-.48-1.42-.92T29.73,11h0a28,28,0,0,0-12.6-2.77h0A29.24,29.24,0,0,0,9.8,9.1V45.43A30.18,30.18,0,0,1,0,40.18ZM0,4"/><path class="cls-1" d="M80,53.49a34.2,34.2,0,0,1-4.35,1.84,39,39,0,0,1-12.77,2,39.23,39.23,0,0,1-13.07-2.12,34.37,34.37,0,0,1-9.09-4.82,38.19,38.19,0,0,0,6-6.15,23.45,23.45,0,0,0,6.54,3.41,29.91,29.91,0,0,0,9.61,1.46h0A28.54,28.54,0,0,0,72,47.75a24.88,24.88,0,0,0,2.69-1.09,24.3,24.3,0,0,0,4.93-3.13l.39-.32ZM33.14,42.64a25.2,25.2,0,0,1-1.74-3,24.76,24.76,0,0,1-2.49-11C28.9,8.77,53-5.5,75.12,2.05c.59.2,1.22.44,1.91.71q1.51.6,3,1.34V14.2l-.42-.36h0A24.44,24.44,0,0,0,76,11.38a24.13,24.13,0,0,0-4-1.75C57.79,4.84,43,11.7,39.37,23.83a16.82,16.82,0,0,0-.71,4.8h0a19.81,19.81,0,0,0,.79,5.65,25.16,25.16,0,0,1-6.3,8.37Zm0,0"/><path class="cls-1" d="M147.7,21.26l-.16-.2a1.11,1.11,0,0,0-.22-.19,8.76,8.76,0,0,0-6.25-2.6,8.84,8.84,0,0,0-8.53,5.54,13.93,13.93,0,0,0-1.09,5.55,21,21,0,0,0,.6,4.35A9.38,9.38,0,0,0,133.78,37a8.25,8.25,0,0,0,3.12,2.45,9.47,9.47,0,0,0,4,.86,11.63,11.63,0,0,0,7-2.51.77.77,0,0,1,.55-.26L148,39.67a15.49,15.49,0,0,1-14.23.45,10.08,10.08,0,0,1-4.26-4.32,14,14,0,0,1-1.47-6.61,13,13,0,0,1,1.08-5.07A10.75,10.75,0,0,1,132.1,20,13.62,13.62,0,0,1,141.24,17a18.19,18.19,0,0,1,7.44,1.57,17.33,17.33,0,0,0-.71,2.68ZM158,24.34A7.63,7.63,0,0,1,164,27a8.28,8.28,0,0,1,2.07,5.87,9.69,9.69,0,0,1-1.25,4.74q-2.35,3.91-7.45,3.91a9.11,9.11,0,0,1-3.54-.72,8.41,8.41,0,0,1-2.7-2,7.11,7.11,0,0,1-1.56-2.66,12.21,12.21,0,0,1-.41-3.38,8,8,0,0,1,2.49-6.1A8.92,8.92,0,0,1,158,24.34Zm3.53,14a9,9,0,0,0,1.35-3.8,10.42,10.42,0,0,0,.11-1.79,10.49,10.49,0,0,0-1.19-5,4,4,0,0,0-3.8-2.2,4.69,4.69,0,0,0-4.39,2.29,10.82,10.82,0,0,0-1.33,5.54,9.17,9.17,0,0,0,1.31,5,4.48,4.48,0,0,0,4.07,2.08,4.82,4.82,0,0,0,3.87-2.07Zm30.08-3.41v3l.12,2.33v.93l-.34-.05-.7-.06a12.79,12.79,0,0,0-1.91.11,5.75,5.75,0,0,0,.07-1l.16-2.17.11-3.69V31.63a9.1,9.1,0,0,0-.6-4,3.35,3.35,0,0,0-3-1.51,4.41,4.41,0,0,0-2.6.76,4.14,4.14,0,0,0-1.54,2.17,23,23,0,0,0-.26,2.77v4.23c0,1.27,0,2.21.06,2.83v1.48l.11.75a7,7,0,0,0-1.41-.11,8.15,8.15,0,0,0-1.57.11,3.52,3.52,0,0,1,.06-.71l.21-4V31a5.77,5.77,0,0,0-.86-3.52,3.22,3.22,0,0,0-2.84-1.25A3.77,3.77,0,0,0,171,28.7a13.74,13.74,0,0,0-.54,4.51v4.73l.11,2.5.06.71-.33-.05A9,9,0,0,0,169.2,41a7.49,7.49,0,0,0-1.48.11,4.56,4.56,0,0,0,.05-.8l.28-6.87V29.3l-.16-3.82v-.8l.22.05a10.23,10.23,0,0,0,1.19.06,6.77,6.77,0,0,0,1.37-.11,12,12,0,0,0-.08,1.34c0,.42,0,1,0,1.59a6.1,6.1,0,0,1,5.28-3.14,5.69,5.69,0,0,1,3.15.89,4.6,4.6,0,0,1,1.91,2.54,6.35,6.35,0,0,1,5.7-3.37,5.39,5.39,0,0,1,3.78,1.32,4.78,4.78,0,0,1,1.43,3.67q0,1.09-.1,3.15Zm26.95,0v3l.12,2.33v.93l-.33-.05-.7-.06a12.79,12.79,0,0,0-1.91.11,5.75,5.75,0,0,0,.07-1l.16-2.17.11-3.69V31.63a9.08,9.08,0,0,0-.6-4,3.34,3.34,0,0,0-3-1.51,4.44,4.44,0,0,0-2.6.76,4.16,4.16,0,0,0-1.54,2.17,23.08,23.08,0,0,0-.26,2.77v4.23q0,1.9.05,2.83v1.48l.11.75a7,7,0,0,0-1.41-.11,8.15,8.15,0,0,0-1.57.11,3.52,3.52,0,0,1,.05-.71l.21-4V31a5.77,5.77,0,0,0-.86-3.52,3.22,3.22,0,0,0-2.84-1.25A3.77,3.77,0,0,0,198,28.7a13.63,13.63,0,0,0-.54,4.51v4.73l.11,2.5.06.71-.34-.05a8.92,8.92,0,0,0-1.13-.06,7.52,7.52,0,0,0-1.48.11,4.12,4.12,0,0,0,.05-.8l.28-6.87V29.3l-.16-3.82v-.8l.22.05a10.15,10.15,0,0,0,1.19.06,6.77,6.77,0,0,0,1.37-.11,12,12,0,0,0-.08,1.34c0,.42,0,1,0,1.59a6.1,6.1,0,0,1,5.28-3.14,5.69,5.69,0,0,1,3.15.89,4.61,4.61,0,0,1,1.91,2.54,6.34,6.34,0,0,1,5.69-3.37,5.39,5.39,0,0,1,3.79,1.32,4.78,4.78,0,0,1,1.43,3.67q0,1.09-.11,3.15Zm0,0"/><path class="cls-2" d="M87.53,53l-.37,0a1.17,1.17,0,0,1-.92-.32,2.28,2.28,0,0,1-.43-1.11A2.54,2.54,0,0,0,85.07,50a2.31,2.31,0,0,0-1.57-.5h0V53h-1V45.65h1v3h.09a2.42,2.42,0,0,0,1.51-.43A1.91,1.91,0,0,0,85.77,47a2.22,2.22,0,0,1,.41-1.06,1.11,1.11,0,0,1,.89-.33,1.91,1.91,0,0,1,.35,0v.86h-.21a.35.35,0,0,0-.29.13,1.51,1.51,0,0,0-.19.57,2.54,2.54,0,0,1-.6,1.22,2.37,2.37,0,0,1-1.15.71,2.73,2.73,0,0,1,1.84,2.26A1.72,1.72,0,0,0,87,52a.36.36,0,0,0,.29.14l.21,0Zm3.23-5.52a2.22,2.22,0,0,1,1.79.75,3.54,3.54,0,0,1,0,4.09,2.47,2.47,0,0,1-3.55,0,3,3,0,0,1-.65-2.05,2.93,2.93,0,0,1,.68-2,2.22,2.22,0,0,1,1.76-.77Zm0,4.8a1.18,1.18,0,0,0,1-.56,2.58,2.58,0,0,0,.37-1.47q0-2-1.42-2a1.23,1.23,0,0,0-1.06.54,2.49,2.49,0,0,0-.38,1.45q0,2,1.44,2Zm8.55.68-.57-3.24-1.62,3.33h-.26l-1.61-3.28L94.7,53h-.92l1-5.47h.26l2,4,2-4h.25l1,5.47Zm7,0-.57-3.24-1.62,3.33h-.26l-1.62-3.28L101.72,53h-.92l1-5.47h.26l2,4,2-4h.25l1,5.47Zm4,.88a1.67,1.67,0,0,1-.78.85,2.59,2.59,0,0,1-1.33.34v-.86a1.82,1.82,0,0,0,1-.28.8.8,0,0,0,.43-.68,2.42,2.42,0,0,0-.16-.87l-1.86-4.8h1l1.57,4.16,1.43-4.16h1Zm7.43-.88h-1V50.57H114.3V53h-1V47.62h1v2.16h2.47V47.62h1Zm5.88,0h-1V49.32l-3.35,3.82h-.22V47.62h1V51.3l3.35-3.82h.21Zm5.59,0-.35,0a1,1,0,0,1-1.08-.94,1.86,1.86,0,0,0-.54-1.18,1.82,1.82,0,0,0-1.23-.37h-.08V53h-1V47.62h1v2.15h.13a1.85,1.85,0,0,0,1.15-.31,1.49,1.49,0,0,0,.52-1,1,1,0,0,1,1.06-.93l.33,0v.82h-.25c-.15,0-.25.11-.29.31a1.79,1.79,0,0,1-1.34,1.45,2.13,2.13,0,0,1,1.43,1.77c0,.19.14.29.28.29a1.06,1.06,0,0,0,.25,0Zm4.05-.65a2.13,2.13,0,0,1-1.75.72,1.5,1.5,0,0,1-1.1-.46,1.55,1.55,0,0,1-.46-1.14,1.7,1.7,0,0,1,.71-1.38,2.84,2.84,0,0,1,1.82-.56,2.3,2.3,0,0,1,.69.12q0-1.31-1.18-1.31a1.89,1.89,0,0,0-1.38.48l-.4-.79a2.34,2.34,0,0,1,.73-.37,2.89,2.89,0,0,1,.95-.17,2.35,2.35,0,0,1,1.68.52,2.29,2.29,0,0,1,.54,1.71v1.93a1,1,0,0,0,.42.94v.47a1.67,1.67,0,0,1-.9-.19.92.92,0,0,1-.38-.52Zm-.08-2a5,5,0,0,0-.64-.11,1.81,1.81,0,0,0-1.18.38,1.11,1.11,0,0,0-.46.88c0,.56.33.84,1,.84a1.67,1.67,0,0,0,1.28-.69Zm7.11,4.38h-.86V53h-3.88V47.62h1v4.59h2.2V47.62h1v4.59h.63ZM145.74,53h-1V49.32l-3.36,3.82h-.21V47.62h1V51.3l3.35-3.82h.22Zm5.88,0h-1V49.32l-3.36,3.82h-.21V47.62h1V51.3l3.35-3.82h.22Zm7.66-2.89a1.33,1.33,0,0,1,1,1.36,1.37,1.37,0,0,1-.51,1.1,2.33,2.33,0,0,1-1.53.43h-2.19V47.63q1.13-.06,2.1-.06a2.37,2.37,0,0,1,1.41.37,1.25,1.25,0,0,1,.5,1.08,1.09,1.09,0,0,1-.21.66,1.27,1.27,0,0,1-.59.44Zm-2.3-.3h1.15q1,0,1-.79a.65.65,0,0,0-.24-.54,1,1,0,0,0-.67-.19c-.56,0-1,0-1.27,0Zm0,2.42q.57,0,1.17,0c.8,0,1.2-.29,1.2-.87a.76.76,0,0,0-.31-.65,1.53,1.53,0,0,0-.91-.23c-.51,0-.89,0-1.15,0ZM170,53h-1V47.72l-4.13,5.38h-.26V45.65h1v5.27l4.14-5.38H170Zm4.38-6.45V53h-1V46.55H171v-.9h5.79v.9Zm3.54,3.91v-.88H180v.88ZM182,49.12a2.46,2.46,0,0,1,.84-.89,2.07,2.07,0,0,1,1.09-.31,2.12,2.12,0,0,1,1.65.67,2.61,2.61,0,0,1,.6,1.8,2.86,2.86,0,0,1-.66,2,2.26,2.26,0,0,1-1.79.75,2.19,2.19,0,0,1-1.84-.86,3.69,3.69,0,0,1-.66-2.32,7.9,7.9,0,0,1,.17-1.73,3.54,3.54,0,0,1,.5-1.23,2.64,2.64,0,0,1,.84-.77,4.92,4.92,0,0,1,1.34-.48l1.72-.4.21.89c-1.25.27-2,.45-2.31.52a2.59,2.59,0,0,0-.81.36,1.68,1.68,0,0,0-.59.72,4.35,4.35,0,0,0-.3,1.3Zm1.78,3.19a1.2,1.2,0,0,0,1-.49,2.2,2.2,0,0,0,.36-1.32,2.12,2.12,0,0,0-.36-1.33,1.21,1.21,0,0,0-1-.46,1.36,1.36,0,0,0-1.11.52,2,2,0,0,0-.42,1.27,2,2,0,0,0,.41,1.3,1.36,1.36,0,0,0,1.11.51Zm7.93.69h-1V49.32l-3.36,3.82h-.21V47.62h1V51.3l3.35-3.82h.22Zm4-2.81a1.33,1.33,0,0,1,1,1.32,1.37,1.37,0,0,1-.57,1.17,2.48,2.48,0,0,1-1.53.43,3.5,3.5,0,0,1-2-.61l.48-.76a2.19,2.19,0,0,0,1.54.59,1.23,1.23,0,0,0,.77-.22.71.71,0,0,0,.28-.59c0-.64-.4-1-1.2-1a5.35,5.35,0,0,0-.6,0v-.76h.63a1.32,1.32,0,0,0,.77-.19.62.62,0,0,0,.27-.54.72.72,0,0,0-.25-.59,1,1,0,0,0-.7-.21,2.89,2.89,0,0,0-1.41.41l-.35-.77a4.31,4.31,0,0,1,1.81-.42,2.1,2.1,0,0,1,1.33.42,1.34,1.34,0,0,1,.54,1.12,1.14,1.14,0,0,1-.85,1.14ZM202.14,53h-1V50.57h-2.48V53h-1V47.62h1v2.16h2.48V47.62h1ZM208,50.41h-3.88a2.27,2.27,0,0,0,.2,1,1.55,1.55,0,0,0,.58.65,1.71,1.71,0,0,0,.92.24,2,2,0,0,0,1.37-.49l.39.77a2.16,2.16,0,0,1-.83.41,5,5,0,0,1-1.12.11,2.36,2.36,0,0,1-1.8-.75,2.77,2.77,0,0,1-.7-2,2.91,2.91,0,0,1,.74-2.07,2.36,2.36,0,0,1,1.78-.79,2.48,2.48,0,0,1,1.78.63,2.2,2.2,0,0,1,.66,1.68,3,3,0,0,1-.09.59Zm-2.32-2.09a1.51,1.51,0,0,0-1.53,1.39h3a1.37,1.37,0,0,0-.39-1,1.43,1.43,0,0,0-1.05-.39Zm7.48-.26-.46.67a1.63,1.63,0,0,0-.53-.29,2.05,2.05,0,0,0-.71-.12,1.54,1.54,0,0,0-1.24.55,2.28,2.28,0,0,0-.46,1.5,2.06,2.06,0,0,0,.46,1.42,1.67,1.67,0,0,0,1.31.51,2.13,2.13,0,0,0,1.3-.51l.37.8a3.34,3.34,0,0,1-1.9.5,2.42,2.42,0,0,1-1.81-.74,2.75,2.75,0,0,1-.71-2,2.84,2.84,0,0,1,.75-2.09,2.73,2.73,0,0,1,2-.76,2.58,2.58,0,0,1,.92.18,2.31,2.31,0,0,1,.7.37Zm5.57,2.34h-3.88a2.27,2.27,0,0,0,.2,1,1.56,1.56,0,0,0,.58.65,1.71,1.71,0,0,0,.92.24,2,2,0,0,0,1.37-.49l.39.77a2.16,2.16,0,0,1-.83.41,5,5,0,0,1-1.12.11,2.36,2.36,0,0,1-1.8-.75,2.76,2.76,0,0,1-.7-2,2.92,2.92,0,0,1,.74-2.07,2.36,2.36,0,0,1,1.78-.79,2.49,2.49,0,0,1,1.78.63,2.2,2.2,0,0,1,.66,1.68,3.05,3.05,0,0,1-.09.59Zm-2.32-2.09a1.52,1.52,0,0,0-1.53,1.39h3a1.37,1.37,0,0,0-.39-1,1.43,1.43,0,0,0-1.05-.39Zm0,0"/></g></g></svg>