<?xml version="1.0" encoding="utf-8"?>
<!-- Generator: Adobe Illustrator 22.1.0, SVG Export Plug-In . SVG Version: 6.00 Build 0)  -->
<svg version="1.1" id="Layer_1" xmlns="http://www.w3.org/2000/svg" xmlns:xlink="http://www.w3.org/1999/xlink" x="0px" y="0px"
	 viewBox="0 0 371.8 368.9" style="enable-background:new 0 0 371.8 368.9;" xml:space="preserve">
<style type="text/css">
	.st0{fill:#FFFFFF;}
	.st1{fill:#151624;}
	.st2{fill:#C4281A;}
</style>
<g>
	<path class="st0" d="M20.8,187.7C20.8,97.4,94,24.3,184.3,24.3c90.3,0,163.4,73.2,163.4,163.4c0,90.3-73.2,163.4-163.4,163.4
		C94,351.1,20.8,278,20.8,187.7z"/>
	<path class="st1" d="M309.4,169.6c-1.2-1.4-2.7-2.2-4.5-2.3c-1.8-0.1-3.6,0.3-5.3,1.4c-1.7,1-2.8,2.9-3.3,5.5
		c-0.5,3.1-1.8,7.7-3.9,13.8c-2.1,6.1-4.4,12.2-7,18.1c-2.6,6-5.1,11.2-7.6,15.8c-2.5,4.6-4.5,6.8-6,6.8c-2.3,0-3.8-2.1-4.3-6.2
		c-0.5-4.2-0.5-9.2,0-15c0.5-5.9,1.4-12,2.5-18.5c1.2-6.5,2.3-12.1,3.3-16.8c1-4.7,0.5-7.7-1.6-9c-2.1-1.3-4.7-1.9-7.8-1.8
		c-3.1,0.1-6.4,0.5-9.9,1c-3.5,0.5-6,0.4-7.6-0.4c2.1-4.9,2.9-9.4,2.3-13.5c-0.5-4-3.5-6-9-6c-3.1,0-5.9,1-8.4,2.9
		c-2.5,2-4.4,4.3-5.7,7c-1.3,2.7-1.8,5.7-1.6,8.8c0.3,3.1,1.6,5.9,3.9,8.2l-2.3,6.6c-1,2.3-1,4.2,0,5.7c1,1.4,2.5,2.3,4.3,2.7
		c1.8,0.4,3.6,0.1,5.3-0.8c1.7-0.9,2.8-2.4,3.3-4.5c0.3-1.6,0.8-3,1.6-4.3h3.9c0.5,0,0.9,0,1.4-0.1c-0.6,0.8-1,1.7-1.4,2.8
		c-1,3.4-2.6,7.7-4.7,13.1c-2.1,5.3-4.4,10.5-7,15.6c-2.6,5.1-5.1,9.4-7.6,13.1c-2.5,3.6-4.5,5.5-6,5.5c-1.3,0-2-3.1-2.1-9.4
		c-0.1-6.2,0.1-13.2,0.8-21.1c0.6-7.8,1.5-15.4,2.5-22.8c1-7.4,1.9-12.3,2.7-14.6c1.3-3.6,0.8-6.3-1.4-8c-2.2-1.7-5.1-2.6-8.8-2.7
		c-3.6-0.1-7.4,0.5-11.3,2c-3.9,1.4-6.9,3.4-9,6c-2.1,2.9-5,7.5-8.8,13.8c-3.8,6.4-7.2,12.9-10.3,19.7c0.8-12.2,1.6-24.6,2.5-37
		c0.9-12.5,1.9-23.9,2.9-34.3c1-10.4,1.9-19.2,2.5-26.5c0.6-7.3,1.2-11.8,1.8-13.6c0.8-4.2-0.3-7.5-3.3-10.1c-3-2.6-6.4-4-10.3-4.3
		c-3.9-0.3-7.5,0.8-10.9,3.3c-3.4,2.5-5.1,6.8-5.1,13.1c0,2.9-0.2,8.1-0.6,15.8c-0.4,7.7-0.8,16.7-1.4,27.1
		c-0.5,10.4-1.2,21.6-2,33.7c-0.8,12.1-1.6,24-2.3,35.7c-0.8,11.7-1.6,22.7-2.3,32.9c-0.3,3.6-0.5,6.9-0.8,10.1
		c-0.5,0.2-1.1,0.4-1.6,0.4c-2.6,0-4.4-3.3-5.3-9.9c-0.9-6.6-1.4-15.1-1.4-25.5c0-10.4,0.4-21.7,1.2-33.9c0.8-12.2,1.8-24,2.9-35.5
		c1.2-11.4,2.3-21.5,3.3-30.2c1-8.7,1.8-14.6,2.3-17.7c0.8-4.2-0.3-7.5-3.3-10.1c-3-2.6-6.4-4-10.3-4.3c-3.9-0.3-7.5,0.8-10.9,3.3
		c-3.4,2.5-5.1,6.8-5.1,13.1c0,6.5-0.6,16.1-1.9,28.8c-1.3,12.7-2.5,26.5-3.5,41.3c-3.9-4.7-8.5-7.4-13.6-8.2
		c-9.6-1.6-17.8-0.3-24.6,3.7c-6.8,4-12.2,9.7-16.2,17c-4,7.3-6.7,15.5-8,24.6c-1.3,9.1-1.1,17.9,0.6,26.3
		c1.7,8.4,4.7,15.8,9.2,22.2c4.4,6.4,10.4,10.5,17.9,12.3c4.2,1.6,9.1,1.3,14.8-0.8c5.2-1.8,9.6-4.7,13.1-8.6
		c3.5-3.9,6.3-8.3,8.4-13.2c1.8,7.8,4.3,14.1,7.6,18.9c3.2,4.8,7.9,7.2,13.8,7.2c3.4,0,6.6-0.6,9.6-1.7c0.5,1.8,1.5,3.1,3.1,4.1
		c2.7,1.7,5.8,2.5,9.4,2.3c3.5-0.1,6.8-1.2,9.7-3.1c3-1.9,4.5-4.7,4.5-8.4v-3.9c0.3-0.3,0.4-0.8,0.4-1.6c0.3-3.1,1.4-7.9,3.5-14.4
		c2.1-6.5,4.4-13.1,6.8-19.7c2.5-6.6,4.9-12.6,7.2-17.9c2.3-5.3,4.2-8.2,5.5-8.8c-0.8,2.1-1.5,5.2-2.1,9.4c-0.6,4.2-1,8.7-1.2,13.6
		c-0.1,4.9,0.1,10,0.8,15.2c0.6,5.2,1.9,9.7,3.7,13.6c1.8,3.9,4.4,6.9,7.8,9c3.4,2.1,7.8,2.6,13.3,1.6c4.9-1,9.8-4.2,14.6-9.6
		c4.6-5.1,8.8-11,12.5-17.7c0.1,1.1,0.1,2.2,0.2,3.3c0.8,7.4,2.6,13.8,5.5,19.1c2.9,5.3,7.4,8.1,13.6,8.4c5.5,0.3,10.4-1.1,14.8-4.1
		c4.4-3,8.4-6.9,12.1-11.9c3.6-4.9,6.8-10.3,9.4-16.2c2.6-5.8,4.8-11.4,6.6-16.8c1.8-5.3,3.2-10.1,4.3-14.4c1-4.3,1.7-7.1,1.9-8.4
		C311,173.1,310.5,171,309.4,169.6 M106.4,199.1c-1,7-2.7,13.4-4.9,19.1c-2.2,5.7-4.8,10.4-7.8,14c-3,3.6-6.2,5.2-9.6,4.7
		c-3.4-0.5-6-2.8-7.8-6.8c-1.8-4-2.9-9-3.3-14.8c-0.4-5.9-0.1-12,0.8-18.5c0.9-6.5,2.4-12.4,4.5-17.7c2.1-5.3,4.7-9.7,8-13.1
		c3.2-3.4,7-4.7,11.1-3.9c2.9,0.5,5,2.6,6.4,6.2c1.4,3.6,2.4,7.3,2.9,10.9C107.5,185.5,107.4,192.1,106.4,199.1"/>
	<g>
		<path class="st2" d="M191.5,263.7c1.5,0,2.7,0.6,3.5,1.8v-2.4c0-0.6,0-1,0-1.2c-0.1-0.5-0.3-0.7-0.7-0.7c-0.1,0-0.3,0-0.5,0.1
			c-0.2,0-0.4,0.1-0.5,0.1c-0.6,0-0.9-0.2-0.9-0.8c0-0.5,0.4-0.8,1.2-0.8c0.1,0,0.4,0,0.7,0c0.5,0,0.8,0.1,0.8,0.1
			c0.1,0,0.3,0,0.6-0.1c0.3,0,0.5-0.1,0.6-0.1c0.4,0,0.7,0.3,0.7,0.9v0.3c0,0,0,0.5,0,1.2c0,0.1,0,0.7-0.1,1.8c0,0.8,0,1.4,0,1.8
			v2.3v3.9c0,1,0.1,1.7,0.1,1.9c0.1,0.3,0.3,0.4,0.6,0.4c0.2,0,0.4,0,0.5,0c0.3,0,0.4,0,0.5,0c0.6,0,0.9,0.3,0.9,0.8
			c0,0.5-0.4,0.8-1.1,0.8c-0.2,0-0.4,0-0.7-0.1c-0.3,0-0.6-0.1-0.7-0.1c0,0-0.2,0-0.5,0c-0.2,0-0.3,0.1-0.5,0.1
			c-0.4,0-0.6-0.3-0.6-0.8v-0.1v-0.4c-0.8,1.1-2,1.7-3.6,1.7c-1.6,0-2.9-0.6-3.8-1.7c-1-1.2-1.4-2.7-1.4-4.5c0-1.9,0.5-3.4,1.4-4.5
			C188.6,264.2,189.9,263.7,191.5,263.7 M194.9,271.9c0.1-0.5,0.1-1.2,0.1-2c0-1,0-1.7-0.1-2.1c-0.1-0.8-0.5-1.4-1-1.8
			c-0.6-0.5-1.4-0.8-2.2-0.8c-1.1,0-2,0.4-2.6,1.2c-0.6,0.8-0.9,2-0.9,3.4c0,1.5,0.3,2.6,1,3.5c0.6,0.8,1.5,1.3,2.6,1.3
			c0.9,0,1.6-0.2,2.1-0.7C194.4,273.4,194.8,272.7,194.9,271.9"/>
		<path class="st2" d="M204.1,269v3c0,0.8,0,1.2,0,1.4c0.1,0.7,0.3,1.1,0.6,1.1c0.1,0,0.3,0,0.6-0.1c0.1,0,0.2,0,0.4,0
			c0.6,0,0.9,0.3,0.9,0.8c0,0.2-0.1,0.4-0.3,0.6c-0.2,0.2-0.4,0.2-0.7,0.2c-0.3,0-0.6,0-1.1-0.1c-0.5-0.1-0.9-0.1-1.1-0.1
			c-0.4,0-0.9,0-1.4,0.1c-0.6,0.1-1,0.1-1.2,0.1c-0.6,0-0.9-0.3-0.9-0.8c0-0.5,0.3-0.8,0.8-0.8c0.1,0,0.3,0,0.6,0.1
			c0.2,0,0.4,0.1,0.6,0.1c0.4,0,0.6-0.5,0.7-1.5v-2V269v-2c-0.1-1-0.3-1.5-0.7-1.5c-0.1,0-0.3,0-0.5,0.1c-0.2,0.1-0.4,0.1-0.5,0.1
			c-0.6,0-0.8-0.3-0.8-0.8c0-0.5,0.3-0.8,1-0.8c0.3,0,0.5,0,0.6,0c0.5,0.1,0.8,0.1,1,0.1c0.1,0,0.3,0,0.6-0.1c0.3,0,0.5-0.1,0.6-0.1
			c0.5,0,0.7,0.3,0.7,0.9c0,0.1,0,0.2,0,0.3c0,0.1,0,0.2,0,0.3c0,0.1,0,0.6,0,1.4C204.1,267.6,204.1,268.3,204.1,269 M202.9,262.8
			c-0.4,0-0.7-0.1-0.9-0.4c-0.3-0.3-0.4-0.6-0.4-0.9c0-0.4,0.1-0.7,0.4-0.9c0.3-0.3,0.6-0.4,0.9-0.4c0.4,0,0.7,0.1,0.9,0.4
			c0.3,0.3,0.4,0.6,0.4,0.9c0,0.4-0.1,0.7-0.4,0.9C203.5,262.7,203.2,262.8,202.9,262.8"/>
		<path class="st2" d="M213.1,263.7c0.4,0,0.9,0.1,1.4,0.2c0.1-1.5,1-2.3,2.7-2.3c0.7,0,1.3,0.2,1.8,0.6c0.5,0.4,0.7,0.9,0.7,1.4
			c0,0.4-0.1,0.7-0.4,1c-0.2,0.3-0.5,0.4-0.8,0.4c-0.3,0-0.5-0.1-0.7-0.3c-0.2-0.2-0.3-0.4-0.3-0.6c0-0.3,0.2-0.5,0.5-0.8
			c-0.3-0.3-0.6-0.5-1-0.5c-0.8,0-1.2,0.5-1.3,1.5c1.2,0.8,1.8,1.9,1.8,3.2c0,1.1-0.4,2-1.2,2.7c-0.8,0.7-1.8,1.1-3.1,1.1
			c-0.9,0-1.8-0.2-2.7-0.6c-0.2-0.1-0.5-0.2-0.6-0.2c-0.2,0-0.4,0.1-0.6,0.3c-0.2,0.2-0.3,0.4-0.3,0.7c0,0.8,0.8,1.2,2.5,1.2h0.1
			h0.4h0.3c1.5,0,2.7,0.1,3.6,0.4c0.9,0.3,1.5,0.7,2,1.2c0.5,0.6,0.8,1.2,0.8,1.9c0,1.1-0.5,2-1.6,2.7c-1.1,0.7-2.5,1-4.3,1
			c-1.8,0-3.2-0.3-4.2-0.9c-1-0.6-1.5-1.5-1.5-2.6c0-1.3,0.7-2.2,2.1-2.7c-1.3-0.5-1.9-1.2-1.9-2.2c0-1.1,0.6-1.8,1.9-2.2
			c-0.4-0.5-0.6-1.2-0.6-1.9c0-1.1,0.4-1.9,1.2-2.6C210.8,264,211.9,263.7,213.1,263.7 M213.2,274.3c-1.2,0-2.2,0.2-3,0.6
			c-0.7,0.4-1.1,0.9-1.1,1.5c0,0.6,0.4,1.1,1.1,1.5c0.7,0.4,1.7,0.5,2.8,0.5c1.2,0,2.2-0.2,3-0.6c0.7-0.4,1.1-0.9,1.1-1.5
			c0-0.7-0.3-1.2-1-1.5C215.4,274.5,214.4,274.3,213.2,274.3 M213.2,265.2c-0.7,0-1.3,0.2-1.8,0.6c-0.5,0.4-0.8,0.9-0.8,1.5v0.1
			c0,0.7,0.2,1.2,0.7,1.7c0.5,0.4,1.1,0.6,1.8,0.6c0.8,0,1.4-0.2,1.9-0.6c0.5-0.4,0.7-1,0.7-1.6c0-0.7-0.2-1.2-0.7-1.7
			C214.5,265.4,213.9,265.2,213.2,265.2"/>
		<path class="st2" d="M224.1,269v3c0,0.8,0,1.2,0,1.4c0.1,0.7,0.3,1.1,0.6,1.1c0.1,0,0.3,0,0.6-0.1c0.1,0,0.2,0,0.4,0
			c0.6,0,0.9,0.3,0.9,0.8c0,0.2-0.1,0.4-0.3,0.6c-0.2,0.2-0.4,0.2-0.7,0.2c-0.3,0-0.6,0-1.1-0.1c-0.5-0.1-0.9-0.1-1.1-0.1
			c-0.4,0-0.9,0-1.4,0.1c-0.6,0.1-1,0.1-1.2,0.1c-0.6,0-0.9-0.3-0.9-0.8c0-0.5,0.3-0.8,0.8-0.8c0.1,0,0.3,0,0.6,0.1
			c0.2,0,0.4,0.1,0.6,0.1c0.4,0,0.6-0.5,0.7-1.5v-2V269v-2c-0.1-1-0.3-1.5-0.7-1.5c-0.1,0-0.3,0-0.5,0.1c-0.2,0.1-0.4,0.1-0.5,0.1
			c-0.6,0-0.9-0.3-0.9-0.8c0-0.5,0.3-0.8,1-0.8c0.3,0,0.5,0,0.6,0c0.5,0.1,0.8,0.1,1,0.1c0.1,0,0.3,0,0.6-0.1c0.3,0,0.4-0.1,0.6-0.1
			c0.5,0,0.7,0.3,0.7,0.9c0,0.1,0,0.2,0,0.3c0,0.1,0,0.2,0,0.3c0,0.1,0,0.6,0,1.4C224.1,267.6,224.1,268.3,224.1,269 M222.9,262.8
			c-0.4,0-0.7-0.1-0.9-0.4c-0.3-0.3-0.4-0.6-0.4-0.9c0-0.4,0.1-0.7,0.4-0.9c0.3-0.3,0.6-0.4,0.9-0.4c0.4,0,0.7,0.1,0.9,0.4
			c0.3,0.3,0.4,0.6,0.4,0.9c0,0.4-0.1,0.7-0.4,0.9C223.6,262.7,223.3,262.8,222.9,262.8"/>
		<path class="st2" d="M234.1,272.5V271c0-0.6,0.3-1,0.8-1c0.5,0,0.8,0.4,0.8,1.1c0,1.7-0.2,2.9-0.6,3.6c-0.6,0.9-1.6,1.4-2.9,1.4
			c-1.2,0-2.1-0.4-2.6-1.2c-0.4-0.6-0.6-1.6-0.6-2.9v-5.6c0-0.3-0.2-0.5-0.5-0.5h-0.8c-0.3,0-0.5-0.1-0.6-0.2
			c-0.2-0.2-0.3-0.4-0.3-0.6c0-0.2,0.1-0.4,0.2-0.6c0.2-0.2,0.3-0.3,0.5-0.3h0.9c0.3,0,0.4-0.1,0.4-0.4v-2.4c0-0.6,0.3-0.9,0.9-0.9
			c0.6,0,0.8,0.3,0.8,0.9v2.5c0,0.2,0.1,0.3,0.4,0.3h2.5c0.6,0,0.9,0.3,0.9,0.8c0,0.6-0.3,0.9-1,0.9H231c-0.2,0-0.3,0.2-0.3,0.5v5.7
			c0,1.6,0.5,2.5,1.6,2.5C233.5,274.5,234,273.8,234.1,272.5"/>
		<path class="st2" d="M247,276.1c-1.3,0-2.1-0.6-2.4-1.7c-0.8,1.2-2,1.8-3.7,1.8c-1.3,0-2.3-0.3-3-0.9c-0.8-0.6-1.1-1.5-1.1-2.5
			c0-1.3,0.6-2.2,1.7-2.8c0.4-0.2,0.8-0.4,1.1-0.5c0.3-0.1,0.9-0.2,1.8-0.3c1.3-0.1,2.2-0.3,2.6-0.6c0.4-0.3,0.6-0.7,0.6-1.4
			c0-0.6-0.2-1.1-0.7-1.5c-0.4-0.4-1.1-0.5-1.9-0.5c-0.7,0-1.4,0.2-2,0.6c-0.2,0.2-0.3,0.3-0.3,0.5c0,0.1,0.1,0.1,0.2,0.2
			c0.2,0.2,0.3,0.4,0.3,0.8c0,0.3-0.1,0.6-0.3,0.8c-0.2,0.2-0.5,0.3-0.9,0.3c-0.4,0-0.7-0.1-1-0.4c-0.3-0.3-0.4-0.6-0.4-1
			c0-0.9,0.4-1.6,1.3-2.3c0.9-0.6,1.9-0.9,3.1-0.9c2.8,0,4.3,1.4,4.3,4.1v4.7c0,0.7,0,1.2,0,1.3c0.1,0.5,0.4,0.8,0.8,0.8
			c0.5,0,0.8-0.5,0.8-1.5V272c0-0.5,0.2-0.7,0.7-0.7c0.5,0,0.8,0.4,0.8,1.1v0.1v1.3C249.3,275.3,248.6,276.1,247,276.1 M244.4,271.4
			v-1.7c-0.3,0.3-0.7,0.5-1.1,0.7c-0.4,0.1-1.1,0.2-2,0.3c-1.8,0.2-2.7,0.8-2.7,2c0,0.6,0.2,1.1,0.6,1.4c0.4,0.3,1,0.5,1.7,0.5
			c1,0,1.9-0.3,2.5-0.8C244,273.2,244.4,272.4,244.4,271.4"/>
		<path class="st2" d="M253.8,266v7.3c0,0.8,0.2,1.2,0.6,1.2c0.1,0,0.3,0,0.6-0.1c0.2,0,0.3,0,0.4,0c0.5,0,0.8,0.3,0.8,0.8
			c0,0.5-0.3,0.8-1,0.8c-0.2,0-0.6,0-1.2-0.1c-0.5-0.1-1-0.1-1.3-0.1c-0.3,0-0.6,0-1.1,0.1c-0.5,0.1-0.9,0.1-1.1,0.1h-0.1
			c-0.7,0-1-0.3-1-0.8c0-0.5,0.3-0.7,0.8-0.7h0.2c0.1,0,0.2,0,0.2,0c0.4,0.1,0.6,0.1,0.7,0.1c0.3,0,0.5-0.1,0.5-0.4
			c0.1-0.2,0.1-0.9,0.1-1.9l0-1.6v-3.6v-4.2c0-0.5,0-0.8-0.1-0.9c-0.1-0.4-0.3-0.5-0.7-0.5c0,0-0.3,0-0.6,0.1c-0.2,0-0.3,0-0.4,0
			c-0.5,0-0.8-0.2-0.8-0.8c0-0.5,0.3-0.8,0.9-0.8c0.2,0,0.3,0,0.4,0l0.6,0.1c0.2,0,0.5,0,0.6,0c0.2,0,0.4,0,0.7-0.1
			c0.3-0.1,0.5-0.1,0.7-0.1c0.4,0,0.5,0.2,0.5,0.7c0,0.2,0,0.3,0,0.3C253.9,262.1,253.8,263.8,253.8,266"/>
		<path class="st2" d="M261,260.7l-0.1,4.5c0.6-0.6,1.2-1,1.7-1.2c0.5-0.2,1.1-0.3,1.8-0.3c1.3,0,2.4,0.4,3.2,1.1
			c0.8,0.8,1.2,1.8,1.2,3v3.9c0,0.9,0,1.4,0,1.5c0.1,0.8,0.3,1.2,0.6,1.2c0.1,0,0.3,0,0.5-0.1c0.1,0,0.2,0,0.4,0
			c0.6,0,0.9,0.3,0.9,0.8c0,0.5-0.4,0.8-1.1,0.8c-0.2,0-0.5,0-0.9-0.1c-0.7-0.1-1.2-0.1-1.6-0.1s-0.7,0-0.9,0
			c-0.7,0.1-1.1,0.1-1.2,0.1c-0.3,0-0.5-0.1-0.7-0.3c-0.2-0.2-0.3-0.4-0.3-0.6c0-0.2,0.1-0.4,0.2-0.5c0.2-0.1,0.4-0.2,0.6-0.2
			c0.2,0,0.4,0,0.6,0.1c0.1,0,0.3,0.1,0.4,0.1c0.5,0,0.7-0.5,0.7-1.5c0-0.2,0-0.5,0-1.1v-1v-1.3c0-1.6-0.2-2.7-0.5-3.2
			c-0.5-0.8-1.2-1.2-2.4-1.2c-1.2,0-2.1,0.4-2.7,1.3c-0.4,0.6-0.6,1.5-0.6,2.8v1.7c0,0.1,0,0.3-0.1,0.5v0.4c0,0.9,0,1.4,0,1.5
			c0.1,0.8,0.3,1.1,0.7,1.1c0.1,0,0.3,0,0.5-0.1c0.2-0.1,0.4-0.1,0.5-0.1c0.5,0,0.8,0.3,0.8,0.7c0,0.6-0.3,0.8-1,0.8
			c-0.2,0-0.6,0-1-0.1c-0.6-0.1-1.1-0.1-1.5-0.1c-0.3,0-0.6,0-1.1,0.1c-0.6,0.1-1,0.1-1.2,0.1c-0.6,0-1-0.3-1-0.9
			c0-0.5,0.3-0.7,0.9-0.7c0.2,0,0.4,0,0.5,0.1c0.3,0.1,0.5,0.1,0.6,0.1c0.3,0,0.4-0.2,0.5-0.7c0.1-0.5,0.1-1.4,0.2-2.9v-4.2
			c0-2.3,0-3.8-0.1-4.4c-0.1-0.6-0.3-0.9-0.7-0.9c-0.1,0-0.3,0-0.5,0.1c-0.2,0-0.4,0.1-0.5,0.1c-0.5,0-0.8-0.2-0.8-0.7
			c0-0.2,0.1-0.4,0.3-0.6c0.2-0.2,0.4-0.2,0.7-0.2c0.1,0,0.3,0,0.8,0.1c0.3,0,0.6,0,1,0c0.1,0,0.3,0,0.6-0.1c0.2,0,0.4-0.1,0.5-0.1
			C260.8,259.8,261,260.1,261,260.7L261,260.7z"/>
		<path class="st2" d="M275.8,264.7v0.6c0.8-1.1,1.9-1.7,3.2-1.7c1.1,0,2,0.3,2.7,0.9c0.7,0.6,1,1.4,1,2.4c0,0.7-0.2,1.2-0.5,1.7
			c-0.3,0.4-0.8,0.6-1.4,0.6c-0.4,0-0.7-0.1-0.9-0.3c-0.2-0.2-0.4-0.5-0.4-0.8c0-0.3,0.1-0.5,0.3-0.7c0.2-0.2,0.4-0.3,0.7-0.3
			c0,0,0.1,0,0.3,0.1c0.1-0.2,0.1-0.4,0.1-0.5c0-0.4-0.2-0.8-0.6-1.1c-0.4-0.3-0.9-0.5-1.5-0.5c-1.2,0-2,0.5-2.4,1.6
			c-0.3,0.7-0.4,1.7-0.4,3v1.5c0,1,0,1.6,0,1.7c0.1,0.9,0.3,1.3,0.7,1.3c0.2,0,0.4,0,0.6-0.1c0.2,0,0.3-0.1,0.4-0.1
			c0.5,0,0.8,0.2,0.8,0.7c0,0.5-0.3,0.8-1,0.8h-0.1c-0.2,0-0.6,0-1.1-0.1c-0.5,0-0.8-0.1-1.1-0.1c-0.6,0-1.1,0-1.5,0l-1.3,0.1
			c-0.6,0-1-0.3-1-0.8c0-0.5,0.3-0.7,0.9-0.7c0.2,0,0.3,0,0.4,0l0.4,0.1c0.2,0,0.3,0,0.3,0c0.4,0,0.6-0.4,0.6-1.1v-1.2l-0.1-5.3
			c0-0.9-0.3-1.4-0.7-1.4c-0.1,0-0.3,0-0.5,0.1c-0.2,0-0.4,0.1-0.5,0.1c-0.5,0-0.8-0.2-0.8-0.7c0-0.5,0.3-0.8,1-0.8
			c0.2,0,0.4,0,0.7,0.1c0.3,0,0.5,0.1,0.7,0.1c0.1,0,0.3,0,0.6-0.1c0.1,0,0.3-0.1,0.4-0.1C275.6,264.1,275.8,264.3,275.8,264.7"/>
		<path class="st2" d="M283.9,276.1c-0.4,0-0.8-0.1-1-0.4c-0.3-0.3-0.4-0.6-0.4-1c0-0.4,0.1-0.8,0.4-1c0.3-0.3,0.6-0.4,1-0.4
			c0.4,0,0.7,0.1,1,0.4c0.3,0.3,0.4,0.6,0.4,1c0,0.4-0.1,0.8-0.4,1C284.6,276,284.3,276.1,283.9,276.1"/>
		<path class="st2" d="M291.5,264.7v0.6c0.8-1.1,1.9-1.7,3.2-1.7c1.1,0,2,0.3,2.7,0.9c0.7,0.6,1,1.4,1,2.4c0,0.7-0.2,1.2-0.5,1.7
			c-0.3,0.4-0.8,0.6-1.4,0.6c-0.4,0-0.7-0.1-0.9-0.3c-0.3-0.2-0.4-0.5-0.4-0.8c0-0.3,0.1-0.5,0.3-0.7c0.2-0.2,0.4-0.3,0.7-0.3
			c0,0,0.1,0,0.3,0.1c0.1-0.2,0.1-0.4,0.1-0.5c0-0.4-0.2-0.8-0.6-1.1c-0.4-0.3-0.9-0.5-1.5-0.5c-1.2,0-2,0.5-2.4,1.6
			c-0.3,0.7-0.4,1.7-0.4,3v1.5c0,1,0,1.6,0,1.7c0.1,0.9,0.3,1.3,0.7,1.3c0.2,0,0.4,0,0.6-0.1c0.2,0,0.3-0.1,0.4-0.1
			c0.5,0,0.8,0.2,0.8,0.7c0,0.5-0.3,0.8-1,0.8h-0.1c-0.2,0-0.6,0-1.1-0.1c-0.5,0-0.8-0.1-1.1-0.1c-0.6,0-1.1,0-1.5,0l-1.3,0.1
			c-0.6,0-1-0.3-1-0.8c0-0.5,0.3-0.7,0.9-0.7c0.2,0,0.3,0,0.4,0l0.4,0.1c0.2,0,0.3,0,0.3,0c0.4,0,0.6-0.4,0.6-1.1v-1.2l-0.1-5.3
			c0-0.9-0.3-1.4-0.7-1.4c-0.1,0-0.3,0-0.5,0.1c-0.2,0-0.4,0.1-0.5,0.1c-0.5,0-0.8-0.2-0.8-0.7c0-0.5,0.3-0.8,1-0.8
			c0.2,0,0.4,0,0.7,0.1c0.3,0,0.5,0.1,0.7,0.1c0.1,0,0.3,0,0.6-0.1c0.1,0,0.3-0.1,0.4-0.1C291.3,264.1,291.5,264.3,291.5,264.7"/>
		<path class="st2" d="M309.5,275.2v-0.7c-0.8,1.1-2,1.7-3.7,1.7c-1.8,0-3.1-0.6-3.8-1.7c-0.3-0.5-0.5-1.1-0.5-1.8c0-0.3,0-1,0-2.1
			v-1.9c0-2.1-0.2-3.2-0.7-3.2c-0.1,0-0.2,0-0.4,0c-0.2,0-0.4,0-0.5,0c-0.5,0-0.8-0.3-0.8-0.8c0-0.5,0.3-0.7,1-0.7
			c0.2,0,0.4,0,0.7,0.1c0.3,0,0.5,0.1,0.7,0.1c0.1,0,0.4,0,0.7-0.1c0.2,0,0.4,0,0.4,0c0.5,0,0.7,0.3,0.7,0.9v0.5v1.5l-0.1,1.7v1.5
			c0,1.4,0.1,2.3,0.3,2.9c0.4,1,1.2,1.5,2.6,1.5c0.7,0,1.3-0.1,1.8-0.5c0.5-0.3,0.9-0.7,1.1-1.2c0.3-0.6,0.4-1.8,0.4-3.5v-1.3v-1.5
			c-0.1-0.8-0.3-1.1-0.6-1.1h-0.4H308c-0.5,0-0.8-0.2-0.8-0.7c0-0.5,0.3-0.8,0.9-0.8c0.1,0,0.4,0,0.6,0c0.3,0,0.5,0,0.6,0
			c0.1,0,0.3,0,0.6,0c0.2,0,0.4,0,0.6,0c0.5,0,0.7,0.2,0.7,0.8c0,0.2,0,0.4,0,0.5c-0.1,0.6-0.1,1.5-0.1,2.6v3.6c0,1,0,1.5,0,1.6
			c0.1,0.8,0.3,1.2,0.7,1.2c0.1,0,0.3,0,0.5,0c0.2,0,0.4,0,0.5,0c0.5,0,0.8,0.3,0.8,0.8c0,0.5-0.3,0.8-1,0.8c-0.1,0-0.3,0-0.6,0
			c-0.4,0-0.6-0.1-0.7-0.1c0,0-0.2,0-0.5,0c-0.2,0-0.4,0.1-0.5,0.1C309.7,275.8,309.5,275.6,309.5,275.2"/>
	</g>
	<g>
		<path class="st1" d="M191,264.2c1.5,0,2.7,0.6,3.5,1.8v-2.4c0-0.6,0-1,0-1.1c-0.1-0.5-0.3-0.7-0.7-0.7c-0.1,0-0.3,0-0.5,0.1
			c-0.2,0.1-0.4,0.1-0.5,0.1c-0.6,0-0.9-0.3-0.9-0.8c0-0.5,0.4-0.8,1.2-0.8c0.1,0,0.4,0,0.7,0c0.5,0,0.8,0.1,0.8,0.1
			c0.1,0,0.3,0,0.6-0.1c0.3,0,0.5-0.1,0.6-0.1c0.4,0,0.7,0.3,0.7,0.9v0.3c0,0,0,0.5,0,1.2c0,0.1,0,0.7-0.1,1.8c0,0.8,0,1.4,0,1.8
			v2.3v3.9c0,1,0.1,1.7,0.1,1.9c0.1,0.3,0.3,0.4,0.6,0.4c0.2,0,0.4,0,0.5,0c0.2,0,0.4,0,0.5,0c0.6,0,0.9,0.3,0.9,0.8
			c0,0.5-0.3,0.8-1.1,0.8c-0.2,0-0.4,0-0.7,0c-0.3,0-0.6-0.1-0.7-0.1c0,0-0.2,0-0.5,0c-0.2,0-0.4,0.1-0.5,0.1
			c-0.4,0-0.6-0.3-0.6-0.8v-0.1v-0.4c-0.8,1.1-2,1.7-3.6,1.7c-1.6,0-2.9-0.6-3.8-1.7c-1-1.2-1.4-2.7-1.4-4.5c0-1.9,0.5-3.4,1.4-4.5
			C188.2,264.8,189.4,264.2,191,264.2 M194.4,272.5c0.1-0.5,0.1-1.2,0.1-2c0-1,0-1.8-0.1-2.1c-0.1-0.8-0.5-1.4-1-1.8
			c-0.6-0.5-1.4-0.8-2.2-0.8c-1.1,0-2,0.4-2.6,1.2c-0.6,0.8-0.9,2-0.9,3.4c0,1.5,0.3,2.6,1,3.5c0.6,0.8,1.5,1.3,2.6,1.3
			c0.9,0,1.6-0.2,2.1-0.7C194,274,194.3,273.3,194.4,272.5"/>
		<path class="st1" d="M203.6,269.6v3c0,0.8,0,1.2,0,1.4c0.1,0.7,0.3,1.1,0.6,1.1c0.1,0,0.3,0,0.6-0.1c0.1,0,0.2,0,0.4,0
			c0.6,0,0.9,0.3,0.9,0.8c0,0.2-0.1,0.4-0.3,0.6c-0.2,0.2-0.4,0.2-0.7,0.2c-0.2,0-0.6,0-1.1-0.1c-0.5-0.1-0.9-0.1-1.1-0.1
			c-0.4,0-0.9,0-1.4,0.1c-0.6,0.1-1,0.1-1.2,0.1c-0.6,0-0.9-0.3-0.9-0.8c0-0.5,0.3-0.8,0.8-0.8c0.1,0,0.3,0,0.6,0.1
			c0.2,0,0.4,0.1,0.6,0.1c0.4,0,0.6-0.5,0.7-1.5v-2v-1.9v-2c-0.1-1-0.3-1.5-0.7-1.5c-0.1,0-0.3,0-0.5,0.1c-0.2,0-0.4,0.1-0.5,0.1
			c-0.6,0-0.8-0.2-0.8-0.8c0-0.5,0.3-0.8,1-0.8c0.3,0,0.5,0,0.6,0c0.5,0.1,0.8,0.1,1,0.1c0.1,0,0.3,0,0.6-0.1c0.3,0,0.4-0.1,0.6-0.1
			c0.4,0,0.7,0.3,0.7,0.9c0,0.1,0,0.2,0,0.3c0,0.1,0,0.2,0,0.3c0,0.1,0,0.6,0,1.4C203.6,268.2,203.6,268.9,203.6,269.6 M202.4,263.4
			c-0.4,0-0.7-0.1-0.9-0.4c-0.3-0.3-0.4-0.6-0.4-0.9c0-0.4,0.1-0.7,0.4-0.9c0.3-0.3,0.6-0.4,0.9-0.4c0.4,0,0.7,0.1,0.9,0.4
			c0.3,0.3,0.4,0.6,0.4,0.9c0,0.4-0.1,0.7-0.4,0.9C203,263.3,202.7,263.4,202.4,263.4"/>
		<path class="st1" d="M212.6,264.2c0.4,0,0.9,0.1,1.4,0.2c0.1-1.5,1-2.3,2.7-2.3c0.7,0,1.3,0.2,1.8,0.6c0.5,0.4,0.7,0.9,0.7,1.4
			c0,0.4-0.1,0.7-0.4,1c-0.2,0.3-0.5,0.4-0.9,0.4c-0.2,0-0.5-0.1-0.7-0.3c-0.2-0.2-0.3-0.4-0.3-0.6c0-0.2,0.2-0.5,0.5-0.8
			c-0.3-0.3-0.6-0.5-1-0.5c-0.8,0-1.2,0.5-1.3,1.5c1.2,0.8,1.8,1.9,1.8,3.2c0,1.1-0.4,2-1.2,2.7c-0.8,0.7-1.8,1.1-3.1,1.1
			c-0.9,0-1.8-0.2-2.7-0.6c-0.3-0.1-0.5-0.2-0.6-0.2c-0.2,0-0.4,0.1-0.6,0.3c-0.2,0.2-0.3,0.4-0.3,0.7c0,0.8,0.8,1.2,2.5,1.2h0.1
			h0.4h0.3c1.5,0,2.7,0.1,3.6,0.4c0.9,0.3,1.5,0.7,2,1.2c0.5,0.6,0.8,1.2,0.8,1.9c0,1.1-0.5,2-1.6,2.7c-1.1,0.7-2.5,1-4.3,1
			c-1.8,0-3.2-0.3-4.2-0.9c-1-0.6-1.5-1.5-1.5-2.6c0-1.3,0.7-2.2,2.1-2.7c-1.3-0.5-1.9-1.3-1.9-2.2c0-1.1,0.6-1.8,1.9-2.2
			c-0.4-0.5-0.6-1.2-0.6-1.9c0-1.1,0.4-1.9,1.2-2.6S211.4,264.2,212.6,264.2 M212.7,274.9c-1.3,0-2.2,0.2-3,0.6
			c-0.7,0.4-1.1,0.9-1.1,1.5c0,0.6,0.3,1.1,1.1,1.5c0.7,0.4,1.7,0.5,2.8,0.5c1.2,0,2.2-0.2,3-0.6c0.7-0.4,1.1-0.9,1.1-1.5
			c0-0.7-0.3-1.2-1-1.5C214.9,275.1,213.9,274.9,212.7,274.9 M212.7,265.8c-0.7,0-1.3,0.2-1.8,0.6c-0.5,0.4-0.7,0.9-0.8,1.5v0.1
			c0,0.7,0.2,1.2,0.7,1.7c0.5,0.4,1.1,0.6,1.8,0.6c0.8,0,1.4-0.2,1.9-0.6c0.5-0.4,0.7-1,0.7-1.6c0-0.7-0.2-1.2-0.7-1.7
			C214,266,213.4,265.8,212.7,265.8"/>
		<path class="st1" d="M223.6,269.6v3c0,0.8,0,1.2,0,1.4c0.1,0.7,0.3,1.1,0.6,1.1c0.1,0,0.3,0,0.6-0.1c0.1,0,0.2,0,0.4,0
			c0.6,0,0.9,0.3,0.9,0.8c0,0.2-0.1,0.4-0.3,0.6c-0.2,0.2-0.4,0.2-0.7,0.2c-0.2,0-0.6,0-1.1-0.1c-0.5-0.1-0.9-0.1-1.1-0.1
			c-0.4,0-0.9,0-1.4,0.1c-0.6,0.1-1,0.1-1.2,0.1c-0.6,0-0.9-0.3-0.9-0.8c0-0.5,0.3-0.8,0.8-0.8c0.1,0,0.3,0,0.6,0.1
			c0.2,0,0.4,0.1,0.6,0.1c0.4,0,0.6-0.5,0.7-1.5v-2v-1.9v-2c-0.1-1-0.3-1.5-0.7-1.5c-0.1,0-0.3,0-0.5,0.1c-0.2,0-0.4,0.1-0.5,0.1
			c-0.6,0-0.8-0.2-0.8-0.8c0-0.5,0.3-0.8,1-0.8c0.3,0,0.5,0,0.6,0c0.5,0.1,0.8,0.1,1,0.1c0.1,0,0.3,0,0.6-0.1c0.3,0,0.5-0.1,0.6-0.1
			c0.5,0,0.7,0.3,0.7,0.9c0,0.1,0,0.2,0,0.3c0,0.1,0,0.2,0,0.3c0,0.1,0,0.6,0,1.4C223.6,268.2,223.6,268.9,223.6,269.6 M222.4,263.4
			c-0.4,0-0.7-0.1-0.9-0.4c-0.3-0.3-0.4-0.6-0.4-0.9c0-0.4,0.1-0.7,0.4-0.9c0.3-0.3,0.6-0.4,0.9-0.4c0.4,0,0.7,0.1,0.9,0.4
			c0.3,0.3,0.4,0.6,0.4,0.9c0,0.4-0.1,0.7-0.4,0.9C223.1,263.3,222.8,263.4,222.4,263.4"/>
		<path class="st1" d="M233.6,273.1v-1.5c0-0.6,0.3-1,0.8-1c0.5,0,0.8,0.4,0.8,1.1c0,1.7-0.2,2.9-0.7,3.6c-0.6,0.9-1.6,1.4-2.9,1.4
			c-1.2,0-2.1-0.4-2.7-1.2c-0.4-0.6-0.6-1.6-0.6-2.9v-5.6c0-0.3-0.1-0.5-0.5-0.5h-0.8c-0.3,0-0.5-0.1-0.6-0.2
			c-0.2-0.2-0.3-0.4-0.3-0.6c0-0.2,0.1-0.4,0.3-0.6c0.2-0.2,0.3-0.3,0.6-0.3h0.9c0.3,0,0.4-0.1,0.4-0.4v-2.4c0-0.6,0.3-0.9,0.9-0.9
			c0.6,0,0.8,0.3,0.8,0.9v2.5c0,0.2,0.1,0.4,0.4,0.4h2.5c0.6,0,0.9,0.3,0.9,0.8c0,0.6-0.3,0.9-1,0.9h-2.6c-0.2,0-0.3,0.2-0.3,0.5
			v5.8c0,1.6,0.5,2.5,1.6,2.5C233,275.1,233.5,274.4,233.6,273.1"/>
		<path class="st1" d="M246.5,276.6c-1.3,0-2.1-0.6-2.4-1.7c-0.8,1.2-2,1.8-3.7,1.8c-1.3,0-2.3-0.3-3-0.9c-0.8-0.6-1.1-1.5-1.1-2.5
			c0-1.3,0.5-2.2,1.7-2.8c0.4-0.2,0.8-0.4,1.1-0.5c0.3-0.1,0.9-0.2,1.8-0.3c1.3-0.1,2.2-0.3,2.6-0.6c0.4-0.2,0.6-0.7,0.6-1.4
			c0-0.6-0.2-1.1-0.7-1.5c-0.4-0.4-1.1-0.6-1.9-0.6c-0.7,0-1.4,0.2-2,0.6c-0.2,0.2-0.4,0.3-0.4,0.5c0,0.1,0.1,0.1,0.2,0.2
			c0.2,0.2,0.3,0.4,0.3,0.8c0,0.3-0.1,0.6-0.3,0.8c-0.2,0.2-0.5,0.3-0.9,0.3c-0.4,0-0.7-0.1-1-0.4c-0.3-0.3-0.4-0.6-0.4-1
			c0-0.9,0.4-1.6,1.3-2.2c0.9-0.6,1.9-0.9,3.1-0.9c2.8,0,4.3,1.4,4.3,4.1v4.7c0,0.7,0,1.2,0,1.3c0.1,0.5,0.4,0.8,0.8,0.8
			c0.5,0,0.8-0.5,0.8-1.5v-1.1c0-0.5,0.2-0.7,0.7-0.7c0.5,0,0.8,0.4,0.8,1.1v0.1v1.3C248.9,275.9,248.1,276.6,246.5,276.6
			 M243.9,272v-1.7c-0.3,0.3-0.7,0.5-1.1,0.7c-0.4,0.1-1.1,0.2-2,0.3c-1.8,0.2-2.7,0.8-2.7,2c0,0.6,0.2,1.1,0.6,1.4
			c0.4,0.3,1,0.5,1.7,0.5c1,0,1.9-0.3,2.5-0.8C243.6,273.8,243.9,273,243.9,272"/>
		<path class="st1" d="M253.3,266.6v7.3c0,0.8,0.2,1.2,0.6,1.2c0.1,0,0.3,0,0.6-0.1c0.2,0,0.3,0,0.4,0c0.5,0,0.8,0.3,0.8,0.8
			c0,0.5-0.3,0.8-1,0.8c-0.2,0-0.6,0-1.2-0.1c-0.5-0.1-1-0.1-1.3-0.1c-0.3,0-0.6,0-1.1,0.1c-0.5,0.1-0.9,0.1-1.1,0.1H250
			c-0.7,0-1-0.3-1-0.8c0-0.5,0.3-0.7,0.8-0.7h0.2c0.1,0,0.2,0,0.2,0c0.4,0.1,0.6,0.1,0.7,0.1c0.3,0,0.5-0.1,0.5-0.4
			c0.1-0.2,0.1-0.9,0.1-1.9l0-1.6v-3.6v-4.2c0-0.5,0-0.8-0.1-0.9c-0.1-0.4-0.3-0.5-0.7-0.5c0,0-0.2,0-0.6,0.1c-0.2,0-0.3,0-0.4,0
			c-0.5,0-0.8-0.3-0.8-0.8c0-0.5,0.3-0.8,0.9-0.8c0.2,0,0.3,0,0.4,0l0.6,0.1c0.3,0,0.5,0.1,0.6,0.1c0.2,0,0.4,0,0.7-0.1
			c0.3-0.1,0.5-0.1,0.7-0.1c0.4,0,0.5,0.2,0.5,0.7c0,0.2,0,0.3,0,0.3C253.4,262.7,253.3,264.4,253.3,266.6"/>
		<path class="st1" d="M260.5,261.3l-0.1,4.6c0.6-0.6,1.2-1,1.7-1.2c0.5-0.2,1.1-0.3,1.8-0.3c1.3,0,2.4,0.4,3.2,1.1
			c0.8,0.8,1.2,1.8,1.2,3v3.9c0,0.9,0,1.4,0,1.5c0.1,0.8,0.3,1.2,0.6,1.2c0.1,0,0.3,0,0.5-0.1c0.1,0,0.2,0,0.4,0
			c0.6,0,0.9,0.3,0.9,0.8c0,0.5-0.4,0.8-1.1,0.8c-0.2,0-0.5,0-0.9-0.1c-0.7-0.1-1.2-0.1-1.6-0.1c-0.4,0-0.7,0-0.9,0
			c-0.7,0.1-1.1,0.1-1.2,0.1c-0.3,0-0.5-0.1-0.7-0.2c-0.2-0.2-0.3-0.4-0.3-0.6c0-0.2,0.1-0.4,0.2-0.5c0.2-0.1,0.4-0.2,0.6-0.2
			c0.2,0,0.4,0,0.6,0.1c0.1,0,0.3,0.1,0.4,0.1c0.5,0,0.7-0.5,0.7-1.5c0-0.2,0-0.6,0-1.1v-1v-1.3c0-1.6-0.2-2.7-0.5-3.2
			c-0.5-0.8-1.3-1.2-2.4-1.2c-1.2,0-2.1,0.4-2.7,1.3c-0.4,0.6-0.6,1.5-0.6,2.8v1.7c0,0.1,0,0.3-0.1,0.5v0.4c0,0.9,0,1.4,0,1.5
			c0.1,0.8,0.3,1.1,0.7,1.1c0.1,0,0.3,0,0.5-0.1c0.2-0.1,0.4-0.1,0.5-0.1c0.5,0,0.8,0.3,0.8,0.8c0,0.6-0.3,0.8-1,0.8
			c-0.2,0-0.6,0-1-0.1c-0.6-0.1-1.1-0.1-1.5-0.1c-0.3,0-0.6,0-1.1,0.1c-0.6,0.1-1,0.1-1.2,0.1c-0.6,0-1-0.3-1-0.9
			c0-0.5,0.3-0.7,0.9-0.7c0.2,0,0.4,0,0.5,0.1c0.3,0.1,0.5,0.1,0.6,0.1c0.3,0,0.4-0.2,0.5-0.7c0.1-0.5,0.1-1.4,0.2-2.9v-4.2
			c0-2.3,0-3.8-0.1-4.4c-0.1-0.6-0.3-0.9-0.7-0.9c-0.1,0-0.3,0-0.5,0.1c-0.2,0-0.4,0.1-0.5,0.1c-0.5,0-0.8-0.3-0.8-0.8
			c0-0.2,0.1-0.4,0.3-0.6c0.2-0.2,0.4-0.2,0.7-0.2c0.1,0,0.3,0,0.8,0.1c0.3,0,0.6,0,1,0c0.1,0,0.3,0,0.6-0.1c0.2,0,0.4-0.1,0.5-0.1
			C260.3,260.4,260.5,260.7,260.5,261.3L260.5,261.3z"/>
		<path class="st1" d="M275.3,265.3v0.6c0.8-1.1,1.9-1.7,3.3-1.7c1.1,0,2,0.3,2.7,0.9c0.7,0.6,1,1.4,1,2.4c0,0.7-0.2,1.2-0.5,1.7
			c-0.3,0.4-0.8,0.6-1.4,0.6c-0.4,0-0.7-0.1-0.9-0.3c-0.3-0.2-0.4-0.5-0.4-0.8c0-0.3,0.1-0.5,0.3-0.7c0.2-0.2,0.4-0.3,0.7-0.3
			c0,0,0.1,0,0.3,0.1c0.1-0.2,0.1-0.4,0.1-0.5c0-0.4-0.2-0.8-0.6-1.1c-0.4-0.3-0.9-0.5-1.5-0.5c-1.2,0-2,0.5-2.4,1.6
			c-0.3,0.7-0.4,1.7-0.4,3v1.5c0,1,0,1.6,0,1.8c0.1,0.9,0.3,1.3,0.7,1.3c0.2,0,0.4,0,0.6-0.1c0.2,0,0.3-0.1,0.4-0.1
			c0.5,0,0.8,0.2,0.8,0.7c0,0.5-0.3,0.8-1,0.8h-0.1c-0.2,0-0.6,0-1.1-0.1c-0.5,0-0.8-0.1-1.1-0.1c-0.6,0-1.1,0-1.5,0l-1.3,0.1
			c-0.6,0-1-0.3-1-0.8c0-0.5,0.3-0.7,0.9-0.7c0.2,0,0.3,0,0.4,0l0.4,0.1c0.2,0,0.3,0,0.3,0c0.4,0,0.6-0.4,0.6-1.1v-1.2l-0.1-5.3
			c0-0.9-0.3-1.4-0.7-1.4c-0.1,0-0.3,0-0.5,0.1c-0.2,0-0.4,0.1-0.5,0.1c-0.5,0-0.8-0.2-0.8-0.7c0-0.5,0.3-0.8,1-0.8
			c0.2,0,0.4,0,0.7,0.1c0.3,0,0.5,0.1,0.7,0.1c0.1,0,0.3,0,0.6-0.1c0.1,0,0.3-0.1,0.4-0.1C275.1,264.6,275.3,264.9,275.3,265.3"/>
		<path class="st1" d="M283.4,276.7c-0.4,0-0.7-0.1-1-0.4c-0.3-0.3-0.4-0.6-0.4-1c0-0.4,0.1-0.8,0.4-1c0.3-0.3,0.6-0.4,1-0.4
			c0.4,0,0.8,0.1,1,0.4c0.3,0.3,0.4,0.6,0.4,1c0,0.4-0.1,0.8-0.4,1C284.1,276.6,283.8,276.7,283.4,276.7"/>
		<path class="st1" d="M291,265.3v0.6c0.8-1.1,1.9-1.7,3.2-1.7c1.1,0,2,0.3,2.7,0.9c0.7,0.6,1,1.4,1,2.4c0,0.7-0.2,1.2-0.5,1.7
			c-0.3,0.4-0.8,0.6-1.4,0.6c-0.4,0-0.7-0.1-0.9-0.3c-0.3-0.2-0.4-0.5-0.4-0.8c0-0.3,0.1-0.5,0.3-0.7c0.2-0.2,0.4-0.3,0.7-0.3
			c0,0,0.1,0,0.3,0.1c0.1-0.2,0.1-0.4,0.1-0.5c0-0.4-0.2-0.8-0.6-1.1c-0.4-0.3-0.9-0.5-1.5-0.5c-1.2,0-2,0.5-2.4,1.6
			c-0.2,0.7-0.4,1.7-0.4,3v1.5c0,1,0,1.6,0,1.8c0.1,0.9,0.3,1.3,0.7,1.3c0.2,0,0.4,0,0.6-0.1c0.2,0,0.3-0.1,0.4-0.1
			c0.5,0,0.8,0.2,0.8,0.7c0,0.5-0.3,0.8-1,0.8h-0.1c-0.2,0-0.6,0-1.1-0.1c-0.5,0-0.8-0.1-1.1-0.1c-0.6,0-1.1,0-1.5,0l-1.3,0.1
			c-0.6,0-1-0.3-1-0.8c0-0.5,0.3-0.7,0.9-0.7c0.2,0,0.3,0,0.4,0l0.4,0.1c0.2,0,0.3,0,0.3,0c0.4,0,0.6-0.4,0.6-1.1v-1.2l-0.1-5.3
			c0-0.9-0.3-1.4-0.7-1.4c-0.1,0-0.3,0-0.5,0.1c-0.2,0-0.4,0.1-0.5,0.1c-0.5,0-0.8-0.2-0.8-0.7c0-0.5,0.3-0.8,1-0.8
			c0.2,0,0.4,0,0.7,0.1c0.3,0,0.6,0.1,0.7,0.1c0.1,0,0.3,0,0.6-0.1c0.1,0,0.3-0.1,0.4-0.1C290.8,264.6,291,264.9,291,265.3"/>
		<path class="st1" d="M309,275.8V275c-0.8,1.1-2.1,1.7-3.7,1.7c-1.8,0-3.1-0.6-3.8-1.7c-0.3-0.5-0.5-1.1-0.5-1.8c0-0.3,0-1,0-2.1
			v-1.9c0-2.1-0.2-3.2-0.7-3.2c-0.1,0-0.2,0-0.4,0c-0.2,0-0.4,0-0.5,0c-0.5,0-0.8-0.3-0.8-0.8c0-0.5,0.3-0.7,1-0.7
			c0.2,0,0.4,0,0.7,0.1c0.3,0,0.5,0.1,0.7,0.1c0.1,0,0.4,0,0.7-0.1c0.2,0,0.4,0,0.4,0c0.5,0,0.7,0.3,0.7,0.9v0.5v1.5l-0.1,1.7v1.5
			c0,1.4,0.1,2.3,0.3,2.9c0.4,1,1.2,1.5,2.6,1.5c0.7,0,1.3-0.1,1.8-0.5c0.5-0.3,0.9-0.7,1.1-1.2c0.3-0.6,0.4-1.8,0.4-3.5v-1.3v-1.5
			c-0.1-0.8-0.3-1.1-0.6-1.1h-0.4h-0.3c-0.5,0-0.8-0.2-0.8-0.7c0-0.5,0.3-0.8,0.9-0.8c0.1,0,0.4,0,0.6,0c0.3,0,0.5,0,0.6,0
			c0.1,0,0.3,0,0.6,0c0.2,0,0.4,0,0.6,0c0.5,0,0.7,0.3,0.7,0.8c0,0.2,0,0.4,0,0.5c-0.1,0.6-0.1,1.5-0.1,2.6v3.6c0,1,0,1.5,0,1.6
			c0.1,0.8,0.3,1.2,0.7,1.2c0.1,0,0.3,0,0.5,0c0.2,0,0.4,0,0.5,0c0.5,0,0.8,0.3,0.8,0.8c0,0.5-0.3,0.8-1,0.8c-0.1,0-0.3,0-0.6,0
			c-0.4,0-0.6-0.1-0.7-0.1c0,0-0.2,0-0.5,0c-0.2,0-0.3,0.1-0.5,0.1C309.2,276.4,309,276.2,309,275.8"/>
	</g>
</g>
</svg>
