<?xml version="1.0" encoding="utf-8"?>
<!-- Generator: Adobe Illustrator 22.1.0, SVG Export Plug-In . SVG Version: 6.00 Build 0)  -->
<svg version="1.1" id="Layer_1" xmlns="http://www.w3.org/2000/svg" xmlns:xlink="http://www.w3.org/1999/xlink" x="0px" y="0px"
	 viewBox="0 0 948 365.3" style="enable-background:new 0 0 948 365.3;" xml:space="preserve">
<style type="text/css">
	.st0{fill:#FFFFFF;}
	.st1{fill:#0A0028;}
</style>
<g>
	<rect x="45.6" y="42.9" class="st0" width="279.5" height="279.5"/>
	<polygon class="st1" points="222.9,140 222.9,117.2 154.7,117.2 154.7,124.8 154.7,140 154.7,170.3 154.7,193.1 154.7,223.4 
		154.7,246.2 177.4,246.2 222.9,246.2 222.9,223.4 177.4,223.4 177.4,193.1 207.8,193.1 207.8,170.3 177.4,170.3 177.4,140 	"/>
	<g>
		<path class="st0" d="M395.4,92.5h33.8v9.6h-23.5v14.5h21v9.6h-21v15.1H430v9.6h-34.6V92.5z"/>
		<path class="st0" d="M440.4,123.6h21v8.9h-21V123.6z"/>
		<path class="st0" d="M474.7,150.9V92.5c3.3,0,12.5-0.2,16.6-0.2c17.2,0,22.6,9.2,22.6,18.8c0,9.9-7.4,18.9-21.4,18.9
			c-1.8,0-5.1,0-7.6-0.3v21.1L474.7,150.9L474.7,150.9z M485,102.1V120c2.4,0.3,4.9,0.4,7.3,0.4c6.1,0,10.8-2.9,10.8-9.4
			c0-6.1-3.8-9.1-10.8-9.1C490.3,101.9,487.7,102,485,102.1z"/>
		<path class="st0" d="M525.8,92.5h33.8v9.6h-23.5v14.5h21v9.6h-21v15.1h24.4v9.6h-34.6V92.5H525.8z"/>
		<path class="st0" d="M573.8,150.9V92.5c3.3,0,12.5-0.2,16.6-0.2c17.2,0,22.6,9.2,22.6,18.8c0,9.9-7.4,18.9-21.4,18.9
			c-1.8,0-5.1,0-7.6-0.3v21.1L573.8,150.9L573.8,150.9z M584,102.1V120c2.4,0.3,4.9,0.4,7.3,0.4c6.1,0,10.8-2.9,10.8-9.4
			c0-6.1-3.8-9.1-10.8-9.1C589.3,101.9,586.8,102,584,102.1z"/>
		<path class="st0" d="M624.8,150.9V92.5c3.3,0,12.5-0.2,16.6-0.2c17.2,0,22.6,9.2,22.6,18.8c0,9.9-7.4,18.9-21.4,18.9
			c-1.8,0-5.1,0-7.6-0.3v21.1L624.8,150.9L624.8,150.9z M635.1,102.1V120c2.4,0.3,4.9,0.4,7.3,0.4c6.1,0,10.8-2.9,10.8-9.4
			c0-6.1-3.8-9.1-10.8-9.1C640.4,101.9,637.9,102,635.1,102.1z"/>
		<path class="st0" d="M675.9,92.5h33.8v9.6h-23.5v14.5h21v9.6h-21v15.1h24.4v9.6H676L675.9,92.5L675.9,92.5z"/>
		<path class="st0" d="M723.9,150.9V92.5c3.3,0,16.1-0.2,17.8-0.2c15.9,0,21.2,7.9,21.2,18c0,10-6.4,15-11.3,16.7l18.3,23.9h-12.4
			L741.3,129h-7.2v21.9H723.9z M734.2,102.1v17.4h6.7c5.9,0,11.2-3,11.2-9c0-4.6-2.5-8.5-10.8-8.5
			C739.2,101.9,736.9,102,734.2,102.1z"/>
		<path class="st0" d="M781.1,138.5c3.6,0,6.1,3.3,6.1,6.2c0,3.4-2.5,6.7-6.1,6.7c-4.2,0-6.7-3.3-6.7-6.7
			C774.5,141.7,777,138.5,781.1,138.5z"/>
		<path class="st0" d="M799.1,150.9V92.5c3.3,0,16.1-0.2,17.8-0.2c15.9,0,21.2,7.9,21.2,18c0,10-6.4,15-11.3,16.7l18.3,23.9h-12.4
			L816.5,129h-7.2v21.9H799.1z M809.3,102.1v17.4h6.7c5.9,0,11.2-3,11.2-9c0-4.6-2.5-8.5-10.8-8.5
			C814.4,101.9,812.1,102,809.3,102.1z"/>
		<path class="st0" d="M901.2,126.7c0,17.9-10.9,25.1-23.2,25.1c-14.5,0-24.9-8.6-24.9-25.7V92.5h10.3V124
			c0,10.9,4.5,18.3,14.6,18.3c8.8,0,13-6.3,13-17.6V92.5h10.2L901.2,126.7L901.2,126.7z"/>
	</g>
	<g>
		<path class="st0" d="M414.7,221.9c-2.5,2.6-6.4,3.9-10.1,3.9c-8.6,0-14.5-5.6-14.5-14.2c0-7.9,4.9-14.2,13.8-14.2
			c7,0,12.4,4.9,12.4,12.3c0,1-0.1,1.8-0.2,2.5h-22.5c0.2,6.6,4.6,10.6,11.2,10.6c3.7,0,7-1.4,8.9-3.3L414.7,221.9z M393.5,209.6
			h19.7c-0.1-5.8-3.8-9.3-9.5-9.3C397.6,200.4,394,204.3,393.5,209.6z"/>
		<path class="st0" d="M424.2,207.3h13.9v3h-13.9V207.3z"/>
		<path class="st0" d="M470.9,221.4c-2.3,2.9-6.3,4.4-10.3,4.4c-8.4,0-14.4-5.6-14.4-14.2c0-7.9,5.8-14.2,13.6-14.2
			c4.2,0,8,0.9,10.6,3.4l-1.5,2.5c-2.4-2.2-5.5-3-8.6-3c-5.8,0-10.7,4.7-10.7,11.2c0,6.9,5,11.2,11.3,11.2c3.5,0,6.6-1.6,8.5-3.8
			L470.9,221.4z"/>
		<path class="st0" d="M490.2,197.4c8.5,0,14.3,6,14.3,14.2s-5.8,14.2-14.3,14.2s-14.3-6-14.3-14.2
			C475.9,203.4,481.7,197.4,490.2,197.4z M490.2,222.8c6.4,0,11-4.6,11-11.2c0-6.6-4.6-11.2-11-11.2c-6.3,0-11,4.6-11,11.2
			C479.2,218.1,483.8,222.8,490.2,222.8z"/>
		<path class="st0" d="M552,225.2h-3.2v-17.1c0-5.3-2.4-7.8-6.9-7.8c-3.8,0-6.8,1.9-8.4,4.6c0.1,0.5,0.1,1.3,0.1,1.9v18.3h-3.2
			v-18.4c0-3.8-2.4-6.4-6.9-6.4c-3.8,0-6.8,2.1-8.3,4.3v20.5H512v-27.3h3.2v3.8c2.1-2.5,5.8-4.3,9.5-4.3c4.2,0,7.4,1.9,8.4,5
			c2-3,5.9-5,10-5c5.1,0,8.9,2.4,8.9,9.9L552,225.2L552,225.2z"/>
		<path class="st0" d="M600.9,225.2h-3.2v-17.1c0-5.3-2.4-7.8-6.9-7.8c-3.8,0-6.8,1.9-8.4,4.6c0.1,0.5,0.1,1.3,0.1,1.9v18.3h-3.2
			v-18.4c0-3.8-2.4-6.4-6.9-6.4c-3.8,0-6.8,2.1-8.3,4.3v20.5h-3.2v-27.3h3.2v3.8c2.1-2.5,5.8-4.3,9.5-4.3c4.2,0,7.4,1.9,8.4,5
			c2-3,5.9-5,10-5c5.1,0,8.9,2.4,8.9,9.9L600.9,225.2L600.9,225.2z"/>
		<path class="st0" d="M632.6,221.9c-2.5,2.6-6.4,3.9-10.1,3.9c-8.6,0-14.5-5.6-14.5-14.2c0-7.9,4.9-14.2,13.8-14.2
			c7,0,12.4,4.9,12.4,12.3c0,1-0.1,1.8-0.2,2.5h-22.5c0.2,6.6,4.6,10.6,11.2,10.6c3.7,0,7-1.4,8.9-3.3L632.6,221.9z M611.3,209.6
			H631c-0.1-5.8-3.8-9.3-9.5-9.3C615.5,200.4,611.9,204.3,611.3,209.6z"/>
		<path class="st0" d="M641.7,197.9h3.2v3.6c1.5-2.3,3.8-4.1,7.3-4.1c2.2,0,3.3,0.4,4.2,1l-1.1,3c-1.3-0.8-2.1-1-3.8-1
			c-3.6,0-5.4,2.2-6.7,4.4v20.4h-3.2L641.7,197.9L641.7,197.9z"/>
		<path class="st0" d="M684.5,221.4c-2.3,2.9-6.3,4.4-10.3,4.4c-8.4,0-14.4-5.6-14.4-14.2c0-7.9,5.8-14.2,13.6-14.2
			c4.2,0,8,0.9,10.6,3.4l-1.5,2.5c-2.4-2.2-5.5-3-8.6-3c-5.8,0-10.7,4.7-10.7,11.2c0,6.9,5,11.2,11.3,11.2c3.5,0,6.6-1.6,8.5-3.8
			L684.5,221.4z"/>
		<path class="st0" d="M714.1,221.9c-2.5,2.6-6.4,3.9-10.1,3.9c-8.6,0-14.5-5.6-14.5-14.2c0-7.9,4.9-14.2,13.8-14.2
			c7,0,12.4,4.9,12.4,12.3c0,1-0.1,1.8-0.2,2.5H693c0.2,6.6,4.6,10.6,11.2,10.6c3.7,0,7-1.4,8.9-3.3L714.1,221.9z M692.8,209.6h19.7
			c-0.1-5.8-3.8-9.3-9.5-9.3C697,200.4,693.4,204.3,692.8,209.6z"/>
		<path class="st0" d="M750,211.2l10.9,14.1H757l-9.3-12.1l-9.3,12.1h-3.7l10.9-14L735.3,198h3.9l8.7,11.3l8.8-11.3h3.7L750,211.2z"
			/>
		<path class="st0" d="M767.5,199.9c2.5-1.6,5.5-2.5,8.7-2.5c7.6,0,10.1,4,10.1,10.9v16.9h-3.2V221c-1.7,2.3-4.4,4.6-9.3,4.6
			c-5,0-8.4-3.2-8.4-8.1c0-5.5,4.5-8.5,10.4-8.5c2.2,0,5.2,0.5,7.4,2.1c0-6.5-0.4-10.7-7.2-10.7c-3.2,0-5.2,0.8-7.6,2.1L767.5,199.9
			z M783.2,218.3v-4.6c-2-1.5-4.3-2.2-7.1-2.2c-3.6,0-7.3,1.7-7.3,5.7c0,3.4,2.7,5.3,6.1,5.3C779.4,222.6,781.7,220.3,783.2,218.3z"
			/>
		<path class="st0" d="M818.8,184.5c-3.1,4.6-7.8,2.5-14.4,5.5c-6.1,2.6-7.5,9.7-7.8,15.5h0.1c1.9-4.6,6.7-7.4,11.8-7.4
			c8.1,0,13,5.5,13,13.7c0,7.6-5.8,14-13.8,14c-8.6,0-14.2-6.3-14.2-16.8c0-7.3,1-18.3,10-22c6.7-2.9,10.8-0.8,13.6-4.8L818.8,184.5
			z M807.5,222.8c6.1,0,10.6-4.9,10.6-10.9c0-6.4-3.8-10.9-10.4-10.9c-6.3,0-10.1,4.4-11,8.4C796.7,218,801.3,222.8,807.5,222.8z"/>
	</g>
</g>
</svg>
