<?xml version="1.0" encoding="UTF-8"?>
<svg width="201px" height="77px" viewBox="0 0 201 77" version="1.1" xmlns="http://www.w3.org/2000/svg" xmlns:xlink="http://www.w3.org/1999/xlink">
    <!-- Generator: Sketch 49.1 (51147) - http://www.bohemiancoding.com/sketch -->
    <title>ecom</title>
    <desc>Created with Sketch.</desc>
    <defs></defs>
    <g id="intercom" stroke="none" stroke-width="1" fill="none" fill-rule="evenodd">
        <g id="Extra-large-≥1200px" transform="translate(-127.000000, -3946.000000)" fill="#FFFFFF">
            <g id="place-screen" transform="translate(0.000000, 3418.000000)">
                <g id="ecom" transform="translate(127.000000, 528.000000)">
                    <path d="M16.2656087,70 L21,70 L21,72 L16.2679652,72 C16.3510825,72.3551795 16.4817784,72.6991029 16.6577495,73.0220518 C16.9813569,73.608106 17.4638802,74.0900161 18.0493201,74.4118537 C18.6619229,74.7503941 19.3513593,74.9240462 20.0505994,74.915927 C20.6430271,74.9238057 21.230192,74.8034582 21.7721301,74.5630757 C22.4137617,74.2396001 22.9939843,73.8057808 23.4864877,73.2812895 L24.9210965,74.8151123 C24.2398497,75.524457 23.4352053,76.1028413 22.5468189,76.5217603 C21.7364766,76.8522081 20.8676979,77.0139026 19.9932151,76.9970294 C18.3897342,77.0480773 16.8350607,76.4393876 15.6893885,75.3119845 C14.5564862,74.1677772 13.9462397,72.6036186 14.0037231,70.9913567 C13.9847336,69.9323513 14.2498327,68.8877131 14.7712389,67.9669173 C15.295546,67.0588719 16.0569985,66.3118767 16.9733635,65.8066034 C17.9138781,65.2724106 18.977179,64.9943767 20.0577725,65.0000862 C21.953527,65.0001573 23.7562355,65.8249181 25,67.2612147 L23.4864877,68.701424 C22.6146035,67.684171 21.3513147,67.0893652 20.0147342,67.0667865 C18.9890199,67.0530942 18.0013232,67.4561067 17.2759695,68.1842921 C16.7739585,68.6882628 16.4270964,69.3183839 16.2656087,70 Z" id="Combined-Shape" fill-rule="nonzero"></path>
                    <polygon id="Shape" fill-rule="nonzero" points="27.234375 65 29.6420455 65 32 68.5322377 34.3650568 65 36.7727273 65 33.2073864 70.3331226 37 76 34.5923295 76 32 72.1340076 29.4147727 76 27 76 30.7997159 70.3261694"></polygon>
                    <path d="M40,65.0099104 L42.3797864,65.0099104 C43.3208253,64.9641647 44.2629957,65.0770485 45.1611617,65.3431538 C45.7212847,65.5586861 46.1929303,65.9357381 46.5072283,66.4192523 C46.8475508,66.9589854 47.0176896,67.5774642 46.9980592,68.203493 C47.0236678,68.8903766 46.7951989,69.5645519 46.3510548,70.1126999 C45.9049162,70.6318688 45.2924861,71.0040998 44.6033992,71.1749133 C43.8276613,71.3193939 43.0363317,71.3776539 42.2459234,71.3484776 L42.2459234,76 L40.0148737,76 L40,65.0099104 Z M42.2310497,69.3073617 L42.9747329,69.3073617 C43.367729,69.3265531 43.7615459,69.2890862 44.1423156,69.1962806 C44.3508834,69.1276186 44.5306128,68.9987407 44.6554571,68.8283243 C44.7843378,68.6426632 44.8492207,68.4246088 44.8413779,68.203493 C44.8687064,67.8249847 44.6641891,67.4646477 44.3133628,67.2731885 C43.8653845,67.0956267 43.3780667,67.0217899 42.8929278,67.0579688 L42.260797,67.0579688 L42.2310497,69.3073617 Z" id="Shape" fill-rule="nonzero"></path>
                    <path d="M55.0459512,65.0144327 C56.6325841,64.995096 58.1560189,65.6302289 59.2520908,66.7680079 C60.4024127,67.8959075 61.0340284,69.4435071 60.9985848,71.0473088 C61.0315421,72.6329802 60.4052105,74.1622612 59.2666449,75.2760951 C58.1311284,76.3904433 56.5949881,77.0106925 54.9974813,76.9998605 C53.3999745,76.9890285 51.8725308,76.3480064 50.7524869,75.2183643 C49.0342731,73.499337 48.5265949,70.9245372 49.4653428,68.6903348 C50.4040907,66.4561324 52.6052067,65.0005824 55.0459512,65 M55.0459512,67.1288259 C54.0350576,67.1109079 53.0622275,67.510912 52.3607167,68.2329288 C51.6287315,68.9806485 51.2347178,69.9913294 51.269158,71.0328761 C51.2205654,72.1897795 51.7281831,73.300972 52.6372449,74.027665 C53.3225122,74.5954498 54.189399,74.9024698 55.0823365,74.8936281 C56.0793485,74.9015938 57.0343688,74.4960871 57.7166315,73.7750925 C59.1842379,72.2254598 59.1842379,69.811427 57.7166315,68.2617942 C57.0188997,67.5318068 56.0455766,67.1237529 55.0313971,67.1360422" id="Shape" fill-rule="nonzero"></path>
                    <polygon id="Shape" fill-rule="nonzero" points="64.5874126 69 63.4125874 69 63 65 65 65"></polygon>
                    <polygon id="Shape" fill-rule="nonzero" points="69.1136 65 72 65 72 76 70.0864 76 70.0864 66.9608091 68 66.9608091"></polygon>
                    <polygon id="Shape" points="117 24 140 24 140 1"></polygon>
                    <polygon id="Shape" points="0 0 47 0 47 11.8014236 11.751772 11.8014236 11.751772 23.5957293 35.248228 23.5957293 35.248228 35.3971529 11.751772 35.3971529 11.751772 47.1985764 47 47.1985764 47 59 0 59"></polygon>
                    <path d="M82.3330151,15.8041428 C75.2169357,9.98509481 64.8756355,10.7413071 58.6559894,17.5355362 C52.4363433,24.3297652 52.4578595,34.8466984 58.705252,41.6146841 C64.9526446,48.3826699 75.2969499,49.0953387 82.3891581,43.2463821 L89,52.7354885 C77.0727124,62.1990802 59.9821591,60.7951148 49.7116122,49.5080017 C39.4410652,38.2208886 39.4279402,20.8282745 49.6814399,9.52522551 C59.9349397,-1.77782348 77.023354,-3.20832705 88.9649106,6.23673169 L82.3330151,15.8041428 Z" id="Shape"></path>
                    <polygon id="Shape" points="142 59 142 0 153.602799 0 171 17.7021354 188.404199 0 200 0 200 59 188.404199 59 188.404199 17.5455423 171.083977 35.3971529 153.518822 17.7021354 153.518822 59"></polygon>
                    <path d="M125.682917,19.6006232 C120.677473,12.0883023 110.901954,9.63616978 103.036859,13.9199905 C95.1717642,18.2038112 91.758829,27.8391974 95.130422,36.241415 C98.5020151,44.6436327 107.56855,49.0973658 116.134041,46.5589743 C124.699532,44.0205827 129.995898,35.3103899 128.403651,26.3808611 L139.839129,26.3808611 C139.945584,27.411317 139.999279,28.4467078 139.999995,29.4828378 C140.008417,44.0530779 129.557391,56.4468176 115.399467,58.6562924 C101.241543,60.8657671 87.6186954,52.2289778 83.3328318,38.3262719 C79.0469682,24.423566 85.382212,9.42044923 98.2452757,3.01064022 C111.108339,-3.39916879 126.645213,0.704826313 134.817311,12.6709782 L125.682917,19.6006232 Z" id="Shape"></path>
                    <rect id="Rectangle-path" fill-rule="nonzero" x="0" y="70" width="11" height="2"></rect>
                    <rect id="Rectangle-path" fill-rule="nonzero" x="89" y="70" width="112" height="2"></rect>
                    <path d="M83.3698788,70.513355 C83.8755726,70.8294228 84.2908259,71.2692373 84.5757261,71.7905252 C85.1666913,72.8960474 85.1387007,74.2263261 84.5017477,75.3064135 C84.1909833,75.8467117 83.7282445,76.285431 83.1701372,76.5689036 C82.5009129,76.8749699 81.7685882,77.0207938 81.0321625,76.9946271 C80.2710249,77.0298246 79.5118633,76.891732 78.8128116,76.5909238 C78.2614958,76.3168942 77.8035637,75.8880641 77.4959967,75.3577939 C77.162836,74.7926783 76.9914589,74.148054 77.0003417,73.4934189 C76.99228,72.921655 77.1269805,72.356801 77.392427,71.8492457 C77.6817058,71.3260496 78.0863185,70.8744154 78.5760808,70.5280351 C78.2516006,70.2083435 77.9883974,69.8327884 77.799308,69.4196862 C77.6265099,69.0312987 77.5382788,68.6110973 77.5403838,68.1865563 C77.5348556,67.6165634 77.685735,67.0558187 77.9768561,66.5644032 C78.2614599,66.0683131 78.6856435,65.6652975 79.1974991,65.4046739 C79.7568182,65.1255471 80.3766474,64.9869227 81.0025712,65.0009706 C81.6196937,64.9888576 82.2300606,65.1301642 82.7780519,65.412014 C83.2825207,65.6809159 83.7004328,66.0853886 83.9838992,66.5790833 C84.2755583,67.0706213 84.4288515,67.6308418 84.4277694,68.2012364 C84.4323257,68.5922096 84.3542002,68.9797859 84.1984365,69.3389455 C83.9842609,69.7737305 83.6993244,70.1705181 83.3550831,70.513355 M81.0173668,71.6730843 C80.5285041,71.6583574 80.052347,71.8289601 79.6857563,72.1501881 C79.3428523,72.4298493 79.1446111,72.8474851 79.1457142,73.2878973 C79.1395382,73.731504 79.3253957,74.1564394 79.6561649,74.4549666 C80.0213837,74.7833762 80.5028198,74.9549174 80.9951733,74.9320705 C81.4802953,74.9563809 81.9565075,74.7962583 82.3267839,74.4843269 C82.6572184,74.1929549 82.8390298,73.7702467 82.8224389,73.3319376 C82.8300426,72.8822822 82.6412067,72.4513515 82.3045904,72.1501881 C81.9529927,71.828558 81.4879276,71.6571687 81.009969,71.6730843 M80.921195,67.0928875 C80.588834,67.0830537 80.2672944,67.210665 80.0334546,67.4452103 C79.7993019,67.6871359 79.6738696,68.0128312 79.6857563,68.3480375 C79.6782858,68.6910353 79.8118262,69.0222791 80.0556481,69.2655449 C80.5615668,69.756009 81.3695971,69.756009 81.8755158,69.2655449 C82.1170585,69.0099345 82.2450011,68.6687744 82.230612,68.3186773 C82.2427756,67.9827638 82.1110821,67.6574346 81.868118,67.4231901 C81.6115777,67.1873384 81.2706041,67.063115 80.921195,67.0782073" id="Shape" fill-rule="nonzero"></path>
                </g>
            </g>
        </g>
    </g>
</svg>