<?xml version="1.0" encoding="utf-8"?>
<!-- Generator: Adobe Illustrator 22.1.0, SVG Export Plug-In . SVG Version: 6.00 Build 0)  -->
<svg version="1.1"
	 id="svg2" xmlns:cc="http://creativecommons.org/ns#" xmlns:dc="http://purl.org/dc/elements/1.1/" xmlns:rdf="http://www.w3.org/1999/02/22-rdf-syntax-ns#" xmlns:svg="http://www.w3.org/2000/svg"
	 xmlns="http://www.w3.org/2000/svg" xmlns:xlink="http://www.w3.org/1999/xlink" x="0px" y="0px" viewBox="0 0 110 27.1"
	 style="enable-background:new 0 0 110 27.1;" xml:space="preserve">
<style type="text/css">
	.st0{fill:#FFFFFF;}
</style>
<g id="layer1" transform="translate(-466.3974,-939.62852)">
	<g id="text17567">
		<g id="g17588" transform="translate(0,56)">
			<path id="path17574" class="st0" d="M466.4,894.5c0-1,0.2-2,0.5-2.8c0.4-0.9,0.8-1.6,1.5-2.3c0.6-0.7,1.4-1.2,2.3-1.5
				c0.9-0.4,1.9-0.6,3.1-0.6c0.9,0,1.8,0.2,2.6,0.5c0.8,0.3,1.4,0.8,1.9,1.4c0.5,0.6,0.9,1.2,1.2,2c0.3,0.8,0.4,1.6,0.4,2.5
				c0,0.3,0,0.6-0.1,0.9c0,0.3-0.1,0.4-0.1,0.5c-0.2,0.1-0.5,0.1-0.9,0.2c-0.4,0-0.8,0.1-1.2,0.1c-0.5,0-1,0-1.5,0.1
				c-0.6,0-1.1,0-1.8,0c-0.3,0-0.7,0-1.1,0c-0.4,0-0.8,0-1.3,0c-0.4,0-0.8,0-1.2,0c-0.4,0-0.7,0-1,0c0.2,1,0.8,1.7,1.6,2.2
				s1.9,0.8,3.2,0.8c0.5,0,1,0,1.4-0.1s0.9-0.2,1.2-0.3s0.7-0.3,0.9-0.4c0.3-0.1,0.5-0.3,0.6-0.4c0,0.4,0,0.9-0.1,1.4
				c0,0.5-0.1,1.2-0.1,1.9c-0.2,0.1-0.5,0.3-0.9,0.4c-0.3,0.1-0.7,0.2-1.1,0.3c-0.4,0.1-0.8,0.2-1.3,0.2c-0.4,0.1-0.8,0.1-1.3,0.1
				c-1.1,0-2.1-0.2-3.1-0.5c-0.9-0.3-1.8-0.8-2.5-1.4c-0.7-0.6-1.2-1.3-1.6-2.2C466.6,896.5,466.4,895.5,466.4,894.5L466.4,894.5z
				 M470,892.6c0.2,0,0.5,0,0.8,0c0.3,0,0.6,0,0.9,0c0.3,0,0.6,0,0.9,0c0.3,0,0.5,0,0.7,0c0.2,0,0.4,0,0.7,0c0.3,0,0.6,0,0.9,0
				c0.3,0,0.6,0,0.9,0c0.3,0,0.5,0,0.8-0.1c-0.2-0.8-0.5-1.5-1-1.9c-0.5-0.4-1.2-0.7-2.1-0.7c-0.4,0-0.8,0.1-1.2,0.2
				c-0.4,0.1-0.7,0.3-1,0.5c-0.3,0.2-0.5,0.5-0.8,0.8C470.3,891.9,470.1,892.2,470,892.6L470,892.6z"/>
			<path id="path17576" class="st0" d="M484.1,883.7c0.3,0,0.5,0,0.7,0c0.2,0,0.4,0,0.6,0c0.5,0,0.9,0,1.3,0c0.4,0,0.6,0,0.7-0.1
				l4.4,7.5l4.3-7.5c0.1,0,0.2,0,0.3,0.1c0.2,0,0.4,0,0.6,0c0.2,0,0.4,0,0.6,0c0.2,0,0.4,0,0.6,0c0.3,0,0.6,0,0.8,0
				c0.2,0,0.5,0,0.7,0v17.6h-1.1c-0.3,0-0.5,0-0.8,0c-0.2,0-0.5,0-0.7,0s-0.4,0-0.5,0c-0.1,0-0.3,0-0.3,0v-12l-4.4,7.9l-4.5-7.3
				v11.4c-0.1,0-0.2,0-0.3,0c-0.1,0-0.3,0-0.5,0c-0.2,0-0.4,0-0.7,0c-0.2,0-0.5,0-0.8,0h-1.1V883.7L484.1,883.7z"/>
			<path id="path17578" class="st0" d="M503.9,896.9c0-0.6,0.1-1.1,0.4-1.7c0.3-0.5,0.7-1,1.3-1.4c0.6-0.4,1.3-0.8,2.2-1
				c0.9-0.3,1.9-0.4,3.1-0.4c0.1,0,0.2,0,0.2,0c0.1,0,0.2,0,0.3,0l0.7,0.1c0-0.4-0.1-0.8-0.2-1.1s-0.3-0.5-0.5-0.7
				c-0.2-0.2-0.5-0.3-0.9-0.4c-0.3-0.1-0.7-0.1-1.2-0.1c-0.4,0-0.7,0-1.1,0.1c-0.4,0.1-0.8,0.2-1.2,0.3s-0.7,0.3-1,0.4
				s-0.6,0.3-0.8,0.5l0,0l-0.4-3c0.7-0.4,1.4-0.7,2.3-0.9c0.9-0.2,1.8-0.3,2.7-0.3c0.9,0,1.8,0.1,2.5,0.4c0.7,0.2,1.3,0.6,1.8,1.1
				c0.5,0.5,0.8,1,1,1.7c0.2,0.7,0.3,1.4,0.3,2.2v4.8c0,0.6,0.1,1,0.3,1.3s0.4,0.6,0.8,0.8l-2.4,2.2c-0.4-0.2-0.8-0.5-1-0.9
				c-0.5,0.3-1.1,0.4-1.7,0.6c-0.6,0.1-1.2,0.2-1.8,0.2c-0.9,0-1.7-0.1-2.4-0.3c-0.7-0.2-1.3-0.5-1.8-0.9c-0.5-0.4-0.9-0.9-1.1-1.4
				C504,898.2,503.9,897.6,503.9,896.9L503.9,896.9z M507.1,896.8c0,0.6,0.3,1,0.8,1.4s1.3,0.5,2.2,0.5c0.7,0,1.4-0.1,2-0.4
				c0-0.3,0-0.5,0-0.8V895c-0.2,0-0.4-0.1-0.6-0.1c-0.2,0-0.5,0-0.7,0c-0.7,0-1.3,0.1-1.7,0.2c-0.5,0.1-0.9,0.3-1.2,0.4
				c-0.3,0.2-0.5,0.4-0.6,0.6C507.2,896.4,507.1,896.6,507.1,896.8L507.1,896.8z"/>
			<path id="path17580" class="st0" d="M520.8,901.4c-0.4-0.3-0.7-0.7-0.8-1.1s-0.3-0.9-0.3-1.4s0.1-1,0.4-1.5
				c0.2-0.5,0.6-0.8,1-1.2c-0.5-0.4-0.9-1-1.2-1.6c-0.3-0.6-0.4-1.3-0.4-2.1c0-0.8,0.1-1.5,0.4-2.1c0.3-0.7,0.7-1.2,1.2-1.7
				s1.2-0.9,1.9-1.2c0.8-0.3,1.6-0.4,2.6-0.4c0.7,0,1.3,0.1,1.9,0.3c0.6,0.2,1.1,0.4,1.6,0.7c0.3-0.1,0.7-0.3,1-0.5
				c0.4-0.2,0.7-0.4,1-0.5c0.3-0.2,0.6-0.4,0.9-0.6s0.5-0.4,0.6-0.5l0.1,0c0,0.1,0.1,0.3,0.1,0.5c0.1,0.2,0.1,0.4,0.2,0.6
				c0.1,0.2,0.1,0.5,0.2,0.7s0.1,0.5,0.2,0.7s0.1,0.4,0.1,0.6c0,0.2,0.1,0.3,0.1,0.3c-0.1,0.1-0.3,0.3-0.5,0.4
				c-0.2,0.1-0.4,0.2-0.6,0.3c-0.2,0.1-0.4,0.1-0.7,0.2c-0.2,0-0.5,0.1-0.7,0.1c0.3,0.6,0.4,1.3,0.4,2c0,0.7-0.1,1.4-0.4,2.1
				s-0.7,1.2-1.2,1.7c-0.5,0.5-1.2,0.8-1.9,1.1c-0.7,0.3-1.6,0.4-2.5,0.4c-0.8,0-1.6-0.1-2.2-0.3c-0.1,0.2-0.3,0.3-0.3,0.5
				c-0.1,0.2-0.1,0.3-0.1,0.5c0,0.2,0.1,0.3,0.2,0.4s0.3,0.2,0.6,0.4c0.3,0.1,0.7,0.2,1.3,0.3c0.5,0.1,1.2,0.2,2.1,0.4
				c1.1,0.2,2,0.4,2.8,0.7c0.8,0.3,1.5,0.7,2,1.1s0.9,0.9,1.1,1.5s0.4,1.2,0.4,2c0,0.8-0.2,1.5-0.5,2.2s-0.9,1.3-1.5,1.8
				c-0.6,0.5-1.4,0.9-2.3,1.2c-0.9,0.3-1.9,0.4-3,0.4c-1.1,0-2.1-0.1-3-0.4s-1.7-0.6-2.3-1.1c-0.6-0.5-1.1-1-1.5-1.7
				c-0.3-0.7-0.5-1.4-0.5-2.2c0-0.9,0.2-1.6,0.6-2.3C519.5,902.4,520.1,901.9,520.8,901.4z M522.4,892.5c0,0.3,0.1,0.6,0.2,0.9
				c0.1,0.3,0.4,0.5,0.6,0.8c0.3,0.2,0.6,0.4,1,0.5s0.9,0.2,1.4,0.2c0.3,0,0.7-0.1,1-0.2c0.3-0.1,0.6-0.3,0.9-0.5
				c0.3-0.2,0.5-0.5,0.7-0.8s0.3-0.6,0.3-1c0-0.4-0.1-0.7-0.2-1s-0.4-0.5-0.7-0.8c-0.3-0.2-0.6-0.4-1-0.5s-0.8-0.2-1.2-0.2
				c-0.5,0-1,0.1-1.3,0.2c-0.4,0.1-0.7,0.3-0.9,0.5c-0.2,0.2-0.4,0.5-0.6,0.8C522.5,891.9,522.4,892.2,522.4,892.5z M521.8,905.3
				c0,0.4,0.1,0.7,0.3,1c0.2,0.3,0.5,0.6,0.9,0.8s0.8,0.4,1.3,0.6c0.5,0.1,1.1,0.2,1.8,0.2c0.6,0,1.2-0.1,1.6-0.2
				c0.5-0.1,0.8-0.3,1.1-0.5c0.3-0.2,0.5-0.4,0.6-0.7c0.1-0.3,0.2-0.6,0.2-0.9c0-0.3-0.1-0.7-0.2-0.9c-0.1-0.3-0.4-0.5-0.7-0.8
				c-0.4-0.2-0.8-0.4-1.5-0.6c-0.6-0.2-1.5-0.3-2.5-0.5l-1.1-0.2c-0.6,0.3-1.1,0.7-1.4,1.2S521.8,904.8,521.8,905.3z"/>
			<path id="path17582" class="st0" d="M536.6,887.5h3.2v1.2c0.6-0.5,1.2-0.9,1.8-1.1s1.2-0.3,1.9-0.3c0.7,0,1.4,0.1,2,0.4
				c0.6,0.3,1.1,0.6,1.5,1.1c0.4,0.5,0.7,1,0.9,1.7c0.2,0.7,0.3,1.4,0.3,2.2v3.2c0,0.8,0,1.5,0,2c0,0.5,0,1,0,1.4c0,0.4,0,0.7,0,0.9
				c0,0.2,0,0.4,0,0.5c0,0.2,0.1,0.4,0.2,0.5c0.1,0.1,0.1,0.2,0.2,0.2l0,0.1c-0.1,0-0.3,0-0.4,0c-0.2,0-0.4,0-0.6,0
				c-0.2,0-0.4,0-0.6,0c-0.2,0-0.4,0-0.6,0c-0.1,0-0.3,0-0.6,0c-0.2,0-0.5,0-0.8,0v-7.2c0-0.7-0.1-1.2-0.2-1.7
				c-0.1-0.5-0.3-0.9-0.5-1.2c-0.2-0.3-0.4-0.5-0.7-0.7c-0.3-0.1-0.6-0.2-0.9-0.2c-0.6,0-1.1,0.2-1.6,0.5s-0.9,0.8-1.3,1.4v7.4
				c0,0.4,0,0.7,0,1c0,0.3,0,0.5,0.1,0.7h-3.3L536.6,887.5L536.6,887.5z"/>
			<path id="path17584" class="st0" d="M551.8,896.9c0-0.6,0.1-1.1,0.4-1.7c0.3-0.5,0.7-1,1.3-1.4c0.6-0.4,1.3-0.8,2.2-1
				c0.9-0.3,1.9-0.4,3.1-0.4c0.1,0,0.2,0,0.2,0c0.1,0,0.2,0,0.3,0l0.7,0.1c0-0.4-0.1-0.8-0.2-1.1s-0.3-0.5-0.5-0.7
				c-0.2-0.2-0.5-0.3-0.9-0.4c-0.3-0.1-0.7-0.1-1.2-0.1c-0.4,0-0.7,0-1.1,0.1c-0.4,0.1-0.8,0.2-1.2,0.3s-0.7,0.3-1,0.4
				s-0.6,0.3-0.8,0.5l0,0l-0.4-3c0.7-0.4,1.4-0.7,2.3-0.9c0.9-0.2,1.8-0.3,2.7-0.3c0.9,0,1.8,0.1,2.5,0.4c0.7,0.2,1.3,0.6,1.8,1.1
				c0.5,0.5,0.8,1,1,1.7c0.2,0.7,0.3,1.4,0.3,2.2v4.8c0,0.6,0.1,1,0.3,1.3s0.4,0.6,0.8,0.8l-2.4,2.2c-0.4-0.2-0.8-0.5-1-0.9
				c-0.5,0.3-1.1,0.4-1.7,0.6c-0.6,0.1-1.2,0.2-1.8,0.2c-0.9,0-1.7-0.1-2.4-0.3c-0.7-0.2-1.3-0.5-1.8-0.9c-0.5-0.4-0.9-0.9-1.1-1.4
				C551.9,898.2,551.8,897.6,551.8,896.9L551.8,896.9z M555,896.8c0,0.6,0.3,1,0.8,1.4s1.3,0.5,2.2,0.5c0.7,0,1.4-0.1,2-0.4
				c0-0.3,0-0.5,0-0.8V895c-0.2,0-0.4-0.1-0.6-0.1c-0.2,0-0.5,0-0.7,0c-0.7,0-1.3,0.1-1.7,0.2c-0.5,0.1-0.9,0.3-1.2,0.4
				c-0.3,0.2-0.5,0.4-0.6,0.6C555.1,896.4,555,896.6,555,896.8L555,896.8z"/>
			<path id="path17586" class="st0" d="M568.8,890.5h-2c0-0.1,0-0.3,0-0.4s0-0.3,0-0.4v-1.5c0-0.2,0-0.4,0-0.6s0-0.2,0-0.2h2v-3.8
				h3.2v3.8h3.3v3h-3.3v5.4c0,0.5,0,0.9,0.1,1.3c0.1,0.3,0.2,0.6,0.4,0.8c0.2,0.2,0.4,0.3,0.6,0.4c0.3,0.1,0.5,0.1,0.9,0.1
				c0.5,0,1-0.1,1.3-0.2c0.4-0.2,0.7-0.4,0.9-0.7h0.1l-0.4,3.3c-0.1,0.1-0.2,0.2-0.4,0.3c-0.2,0.1-0.4,0.1-0.6,0.2
				c-0.2,0.1-0.5,0.1-0.8,0.1c-0.3,0-0.5,0.1-0.8,0.1c-0.7,0-1.3-0.1-1.8-0.3c-0.5-0.2-1-0.5-1.4-0.9c-0.4-0.4-0.7-0.9-0.9-1.5
				c-0.2-0.6-0.3-1.4-0.3-2.3V890.5z"/>
		</g>
	</g>
</g>
</svg>
