<svg xmlns="http://www.w3.org/2000/svg" viewBox="0 0 557.26 114.59"><defs><style>.cls-1{fill:#fff;}.cls-1,.cls-2,.cls-3{fill-rule:evenodd;}.cls-2{fill:#9ec21a;}.cls-3{fill:#241930;stroke:#1d1d1b;stroke-miterlimit:10;}</style></defs><title>event live</title><g id="Layer_2" data-name="Layer 2"><g id="Layer_1-2" data-name="Layer 1"><path class="cls-1" d="M17.25,32.12v16.8h1.51c8,0,16,0,24,0a31.1,31.1,0,0,1,3.47.24c1.66.27,2.59,1,2.59,2.54a78.19,78.19,0,0,1-.39,8.65C48.28,62.12,47.07,62.92,45,63c-1.34.13-2.68.16-4,.16-7.35,0-14.64,0-22,0H17.27V81.11c.44,0,.9.11,1.34.11q15.42,0,30.82,0c3.67,0,5,1.1,4.92,4.55,0,1.7-.08,3.45-.19,5.12C54,94.19,52.6,95.43,49,95.48c-3.75.11-7.5.09-11.25.08-6.31,0-12.6.08-18.89-.1a33.88,33.88,0,0,1-7.26-1C4.85,92.89,1,88.72.29,82.25A43.3,43.3,0,0,1,0,77.35v-54a18.25,18.25,0,0,1,.12-2.83C.41,18.75,1.19,18,3.18,18c3-.08,6-.07,9-.08q18.26-.05,36.52-.09c.46,0,.93,0,1.39,0,2.76.15,4,1,4.15,3.54a43.21,43.21,0,0,1-.19,7.2c-.2,1.94-1.4,3-3.52,3.25s-4.06.24-6.08.26c-8.5,0-16.94,0-25.43,0Z"/><path class="cls-1" d="M137.23,76.2c.11,4.73,2.45,7.15,7.36,7.3,5.12.11,10.28-.14,15.4-.18,2.77,0,5.55.06,8.32.16,1.08,0,1.87.37,1.87,1.57.05,2.78.2,5.62.17,8.47,0,.4-.77,1.07-1.3,1.19-2.28.51-4.59.95-6.9,1.28-6,.86-12,1.47-18.13.77A54.35,54.35,0,0,1,134.14,95C126.47,92.8,122.48,87.65,122,80.2a232.46,232.46,0,0,1,0-27.8c.35-5.88,4.22-10.7,10.56-12.82,9-3,18.08-2.83,27.19-.64,7.06,1.65,10.36,5.3,11.19,12.1A37,37,0,0,1,171,62.31c-1.17,6.42-5.28,10.24-12,11.47-4.2.82-8.5,1.2-12.78,1.6-3,.34-6,.57-9.06.82Zm-.34-11.67c5.22-.49,10.36-.88,15.49-1.53a3.69,3.69,0,0,0,3.22-3.31,23.88,23.88,0,0,0,.14-5.65c-.23-2.4-1.88-3.92-4.49-4.42-1.28-.24-2.52-.53-3.82-.71-6-.7-9.82,1.88-10.51,7.47A72.82,72.82,0,0,0,136.9,64.53Z"/><path class="cls-1" d="M183.17,70.55c0-7.14,0-14.26,0-21.39A6,6,0,0,1,187,43.3a56.29,56.29,0,0,1,35.54-4.74c5.32,1,8.72,4,9.44,9.14a115.83,115.83,0,0,1,1,14.62c.2,9.75.13,19.54.13,29.29a11.36,11.36,0,0,1-.19,2.3,3.37,3.37,0,0,1-3.53,2.87A100.73,100.73,0,0,1,219.28,96c-1.71-.18-2.46-1.41-2.46-3.49,0-5.71,0-11.44,0-17.14,0-6,0-12,0-17.94,0-.51,0-1,0-1.54-.23-3-1.56-4.21-4.76-4.2a66.49,66.49,0,0,0-8.16.52c-3.07.4-4.42,1.84-4.58,4.77-.2,3.15-.28,6.27-.28,9.42C199,75,199,83.5,199,92c0,.61,0,1.21,0,1.8a3.17,3.17,0,0,1-3.36,3c-3.41-.12-6.82-.45-10.2-.83-1.54-.18-2.24-1.41-2.24-3.3,0-4.75,0-9.55,0-14.31V70.55Z"/><path class="cls-1" d="M88.32,78.28q3.25-11.45,6.49-22.89C96,51.22,97.18,47,98.4,42.84c.18-.62.41-1.23.63-1.84a4.19,4.19,0,0,1,4-3.06c3.21-.14,6.48-.27,9.69-.13,2.83.18,4.06,1.78,3.22,4.33-1.38,4.21-3,8.41-4.65,12.65C106.55,67.14,101.74,79.51,97,91.92a15.53,15.53,0,0,1-1.21,2.59,5.17,5.17,0,0,1-5.07,2.54c-1.62-.11-3.25-.26-4.83-.5-3.14-.43-5.43-1.94-6.55-4.84-6-15.68-12.11-31.33-18.13-47a16.06,16.06,0,0,1-.94-3.62c-.24-1.75.5-2.77,2.33-3.14a30,30,0,0,1,11.7.16,4,4,0,0,1,3,3q1.46,4.46,2.76,8.91,3.91,13.66,7.78,27.25a8.94,8.94,0,0,0,.3,1Z"/><path class="cls-1" d="M265.73,52.72v3.84c.07,7.54.1,15.12.19,22.64,0,2.32,1,3.36,3.39,3.71s4.87.58,7.29.74c1.48.11,2.34.7,2.46,2.09.23,2.53.5,5,.66,7.6.08,1.18-1,1.77-2,2-6.61,2-13.32,2.62-19.94,0A11.8,11.8,0,0,1,250,85.24c-.48-4.26-.4-8.58-.47-12.85,0-5.92,0-11.83,0-17.78V53c-1.59-.19-3.13-.37-4.68-.57-2.9-.34-3.6-1-3.6-3.7,0-2.14.07-4.35.27-6.55.18-1.84,1.45-2.9,3.34-3.33a26.71,26.71,0,0,1,3.57-.51c.78-.08,1.16-.3,1.15-1.1-.08-2.69,0-5.39-.12-8.13-.09-2.46.7-3.59,3.39-4,2.51-.3,5.05-.61,7.58-.7,2.84-.08,4.17.85,4.51,3.47.38,2.9.38,5.72.48,8.65.11,1.91.08,1.91,2.19,1.91,2.68,0,5.36,0,8-.1a4,4,0,0,1,3.88,3.11,17.8,17.8,0,0,1,0,4c-.09,1.28-.37,2.5-.45,3.71-.18,2.37-1.45,3.47-4,3.47l-7.65,0Z"/><path class="cls-1" d="M307.24,14.16S307.94.93,321.07.27C324.75.1,342.17,0,365.3,0h29.13c57.13,0,126.44.27,126.44.27S556.57,3,557,31.7c.13,8.5.2,18.1.22,27.36V66.3c0,19-.22,35-.22,35s-2.76,13.25-14.75,13.25h-201s-34.09-1.49-34.09-33.52V14.16Zm80,75.1h13.38V28.5H387.2V89.26ZM332.85,28.5V89.28h43.69V77.16h-30.3V28.5Zm148,0V89.28h46.29V77.38h-33V64.61h28.65V52.72H494.17V40.39h32.53V28.5Zm-70.31,0,24.56,61.24H447L471.51,28.5H457.09L441.2,71.32,425.32,28.5Z"/><path class="cls-2" d="M387.2,89.26h13.38V28.5H387.2V89.26ZM332.85,28.5h13.39V77.16h30.3V89.28H332.85V28.5Zm148,0h45.81V40.39H494.17V52.72h28.65V64.61H494.17V77.38h33V89.28H480.88V28.5Zm-70.31,0h14.76L441.2,71.32,457.09,28.5h14.42L447,89.74H435.13Z"/><path class="cls-3" d="M387.2,89.26h13.38V28.5H387.2V89.26ZM332.85,28.5h13.39V77.16h30.3V89.28H332.85V28.5Zm148,0h45.81V40.39H494.17V52.72h28.65V64.61H494.17V77.38h33V89.28H480.88V28.5Zm-70.31,0h14.76L441.2,71.32,457.09,28.5h14.42L447,89.74H435.13Z"/></g></g></svg>