<svg xmlns="http://www.w3.org/2000/svg" viewBox="0 0 98.93 31.47"><defs><style>.cls-1,.cls-2{fill:#fff;}.cls-2{fill-rule:evenodd;}</style></defs><title>Ресурс 1</title><g id="Слой_2" data-name="Слой 2"><g id="Слой_1-2" data-name="Слой 1"><path class="cls-1" d="M13.52,24.13c.34,5.2.37,5.35.89,7.24l0,.07s0,0,0,0c-3.69.11-4.09-5.07-4.47-7.92a.4.4,0,0,0-.28-.33.38.38,0,0,0-.4.11c-1.57,1.72-4,4.85-5.12,1.11a.29.29,0,0,1,0-.24C5,23,5.38,22.39,6,21.58s1.58-1.86,3.42-3.93h0c.67-.71.67-.71,1.38-1.43a1.21,1.21,0,0,1,.53-.36h.48s0,0,0,0H12s0,0,0,0h.05v0h0l.06.06,0,0,1,1.14h0l0,0,0,0,.35.37h0c2.58,2.63,3.88,3.94,5,5s2.16,2,4.18,3.81h0a.4.4,0,0,1,.08.5C21,30.58,16.49,26,14.19,23.82a.38.38,0,0,0-.44-.07.38.38,0,0,0-.23.38ZM3.08,12h0C.87,12.62.17,12.62,0,14.8a.38.38,0,0,0,.11.3.38.38,0,0,0,.29.13c.32,0,.88,0,2.18,0a.42.42,0,0,1,.34.2.39.39,0,0,1,0,.39c-.89,1.62-3.08,6-.85,6.77h0s.07,0,.09-.07l0,0a22.7,22.7,0,0,1,1.57-2.9c.58-.88,1.42-2,3.08-4.11l0,0,1.29-1.42a1.35,1.35,0,0,0,.38-.6h0v0h0v0h0v-.06h0s0,0,0,0h0v0H8.48v0h-.1v0H8.31l0-.06,0,0h0c-.41-.5-.41-.51-.8-1l0,0h0l0,0-.23-.28h0C4.54,7.87,4.52,7.85,3.67,6.12l0,0s0,0-.1,0C1.64,8,2.42,9.47,3.34,11.48a.4.4,0,0,1,0,.34.39.39,0,0,1-.26.21Zm7.76-8h0C11.7,1.57,11.92.3,14.26,0a.42.42,0,0,1,.35.14.39.39,0,0,1,.08.37,22.12,22.12,0,0,0-.51,2.89.39.39,0,0,0,.17.39.38.38,0,0,0,.42,0c2-1.24,6.65-4.06,7.6-1.14,0,.05,0,.1-.12.13l0,0a37.24,37.24,0,0,0-3.56,2c-1,.7-2.28,1.64-4.75,3.53h0c-.77.66-.77.66-1.54,1.35a1.45,1.45,0,0,1-.62.38h-.26s0,0,0,0h-.33l0,0,0,0,0,0-.88-.89,0,0h0l0,0L9.85,8.5h0C6.72,5.38,6.72,5.37,5.34,4.13h0s0-.08,0-.15c2-2,3-1.07,4.88.21A.39.39,0,0,0,10.84,4ZM23.18,16h0c2.89.17,4.45.26,5.54.35s1.87.17,3.17.33h0s.05,0,.06-.05c.74-4.12-5.71-4.28-8.83-4.52a.41.41,0,0,1-.35-.29.4.4,0,0,1,.15-.43c2-1.48,6.62-5.11,2.12-6.14h0a.39.39,0,0,0-.28,0c-1.56,1.07-2.34,1.6-3.34,2.38s-2.23,1.8-4.67,3.85h0L15.2,12.94a1.37,1.37,0,0,0-.41.54.24.24,0,0,0,0,.08h0v0h0a.13.13,0,0,0,0,.06h0s0,0,0,0h0v0h0v0H15v0h.1l0,0,.05.05h0l1.08,1.14,0,0h0c.19.19.19.19.37.39h0c2.54,2.73,3.81,4.1,4.9,5.29s2,2.2,3.82,4.23h0l.07.07a.4.4,0,0,0,.42.06c4-1.81-.94-6.76-3-8.89a.4.4,0,0,1-.07-.44.38.38,0,0,1,.38-.23Z"/><path class="cls-2" d="M37.9,10.13a1.85,1.85,0,0,1,1.22-.4h4.34c.19,0,.38,0,.57,0a1.17,1.17,0,0,1,.87.55,1.18,1.18,0,0,1,.13.76,1.2,1.2,0,0,1-.64.86,1.28,1.28,0,0,1-.6.13H39.87v1.86h3.39a1.19,1.19,0,0,1,.79.25,1.07,1.07,0,0,1-.21,1.76,1.2,1.2,0,0,1-.62.14H39.87c0,.63,0,1.26,0,1.88,1.3,0,2.59,0,3.89,0a1.67,1.67,0,0,1,.32,0,1.24,1.24,0,0,1,.91.72,1.13,1.13,0,0,1,0,.92,1.19,1.19,0,0,1-.71.61,1.61,1.61,0,0,1-.44.06h-4.7a1.87,1.87,0,0,1-1.21-.39,1.72,1.72,0,0,1-.57-1.33V11.44a1.67,1.67,0,0,1,.56-1.31Zm9.1,2a1.19,1.19,0,0,1,1.14.38c.54.6,1.06,1.22,1.6,1.82L51,12.89a6,6,0,0,1,.42-.45,1.24,1.24,0,0,1,1.87.32,1.15,1.15,0,0,1,.1.94,2.18,2.18,0,0,1-.54.8c-.5.58-1,1.16-1.51,1.75.52.57,1,1.16,1.54,1.74a2.69,2.69,0,0,1,.49.67,1.19,1.19,0,0,1-.6,1.58,1.28,1.28,0,0,1-1.27-.13,3.55,3.55,0,0,1-.47-.48L49.74,18.1l-1.29,1.49a2.48,2.48,0,0,1-.61.6,1.36,1.36,0,0,1-1.15.06,1.2,1.2,0,0,1-.59-1.6,2.55,2.55,0,0,1,.46-.63c.52-.59,1-1.19,1.54-1.77-.54-.64-1.08-1.26-1.63-1.9a1.65,1.65,0,0,1-.4-.64,1.16,1.16,0,0,1,0-.8,1.25,1.25,0,0,1,.91-.73Zm46.49.15a6.62,6.62,0,0,1,2.08-.24,3.86,3.86,0,0,1,1.89.62,3.31,3.31,0,0,1,1.34,2A6.11,6.11,0,0,1,98.92,16a8,8,0,0,1-.12,1.83,3.24,3.24,0,0,1-1,1.75,3.16,3.16,0,0,1-1.48.72,4.2,4.2,0,0,1-2.3-.23v1.43c0,.25,0,.5,0,.74a1.23,1.23,0,0,1-1.89.9A1.29,1.29,0,0,1,91.59,22V13.61a.59.59,0,0,1,.24-.51,5.25,5.25,0,0,1,1.66-.77Zm1.35,2.16a1.52,1.52,0,0,1,1,.1,1,1,0,0,1,.51.61,3.27,3.27,0,0,1,.11.94,7.55,7.55,0,0,1,0,.95,1.08,1.08,0,0,1-.4.75,1.28,1.28,0,0,1-.81.21,2.48,2.48,0,0,1-1.16-.31V14.8a2,2,0,0,1,.78-.31Zm-10-2.05a5.32,5.32,0,0,1,1.71-.35,5.17,5.17,0,0,1,2.21.32,2.46,2.46,0,0,1,1.15,1,4,4,0,0,1,.45,2.2v3a2,2,0,0,1-.08.72.88.88,0,0,1-.41.42,5.6,5.6,0,0,1-2.25.71,5.86,5.86,0,0,1-2-.07,2.88,2.88,0,0,1-1.48-.78,2.41,2.41,0,0,1-.67-1.69,2.24,2.24,0,0,1,.57-1.58,2.55,2.55,0,0,1,1.43-.77,4.76,4.76,0,0,1,1.25-.09A5.32,5.32,0,0,1,88,15.6a2.82,2.82,0,0,0-.06-.87.76.76,0,0,0-.6-.45,3,3,0,0,0-1.22.05,5.37,5.37,0,0,1-1,.17,1.23,1.23,0,0,1-.86-.3,1,1,0,0,1-.15-1.15,1.34,1.34,0,0,1,.75-.61Zm1.1,4.9a.94.94,0,0,1,.76-.37,3.53,3.53,0,0,1,1.33.17c0,.37,0,.73,0,1.1a2.14,2.14,0,0,1-1.58.27.86.86,0,0,1-.55-.4.78.78,0,0,1,0-.77Zm-12-5.21a4,4,0,0,1,1.91.08,2.8,2.8,0,0,1,1,.61,4.7,4.7,0,0,1,2-.74,4.32,4.32,0,0,1,2,.24,2.33,2.33,0,0,1,1.28,1.19,4.48,4.48,0,0,1,.37,1.92v3.62a1.45,1.45,0,0,1-.26.81,1.14,1.14,0,0,1-.62.43,1.3,1.3,0,0,1-.85,0,1.26,1.26,0,0,1-.71-.63A1.54,1.54,0,0,1,80,19V16.11a7.66,7.66,0,0,0,0-.83.9.9,0,0,0-.29-.61A.94.94,0,0,0,79,14.5a1.32,1.32,0,0,0-.68.28c0,1.23,0,2.45,0,3.68a6.18,6.18,0,0,1,0,.86,1.25,1.25,0,0,1-.38.69,1.35,1.35,0,0,1-1,.36,1.23,1.23,0,0,1-1.14-.87,2.09,2.09,0,0,1-.07-.66V16a3.1,3.1,0,0,0-.06-.91.76.76,0,0,0-.43-.51,1.3,1.3,0,0,0-1.19.17v4a2.48,2.48,0,0,1-.06.77,1.32,1.32,0,0,1-.5.66,1.61,1.61,0,0,1-.83.22,1.28,1.28,0,0,1-1.13-.88,2.14,2.14,0,0,1-.06-.62V14a1.4,1.4,0,0,1,.11-.7,1.6,1.6,0,0,1,.52-.48,4.79,4.79,0,0,1,1.83-.69Zm-7.84,0a4.17,4.17,0,0,1,2.66.51,3.25,3.25,0,0,1,1.41,1.65,5.66,5.66,0,0,1,.24,1.92,7.91,7.91,0,0,1-.1,1.46,3.26,3.26,0,0,1-.93,1.74,3.67,3.67,0,0,1-2.08,1A4.13,4.13,0,0,1,64.74,20,3.36,3.36,0,0,1,63,17.54a9.24,9.24,0,0,1-.08-1.49,5.14,5.14,0,0,1,.23-1.75A3.17,3.17,0,0,1,64.06,13a3.85,3.85,0,0,1,2-.87Zm.3,2.32a1.42,1.42,0,0,1,1.11.25,1.12,1.12,0,0,1,.41.85c0,.42,0,.84,0,1.25a1.42,1.42,0,0,1-.26.85,1.17,1.17,0,0,1-.9.44,1.26,1.26,0,0,1-1.11-.45,2.19,2.19,0,0,1-.3-1.37,2.62,2.62,0,0,1,.2-1.27,1.15,1.15,0,0,1,.84-.55Zm-8.86-2.32a5.6,5.6,0,0,1,1.53,0,3.52,3.52,0,0,1,1.63.74,3.28,3.28,0,0,1,1.09,1.79A6,6,0,0,1,61.91,16a7.24,7.24,0,0,1-.17,2A3.19,3.19,0,0,1,61,19.44a2.92,2.92,0,0,1-1.51.82,4.1,4.1,0,0,1-2.4-.2v2a1.36,1.36,0,0,1-.26.8,1.18,1.18,0,0,1-.9.49A1.2,1.2,0,0,1,55,23a1.37,1.37,0,0,1-.39-1V13.64a.7.7,0,0,1,.06-.35A.87.87,0,0,1,55,13a6,6,0,0,1,2.57-.87Zm-.49,2.68a2.12,2.12,0,0,1,1.06-.35,1.18,1.18,0,0,1,1,.41,1.69,1.69,0,0,1,.29,1.07,8.49,8.49,0,0,1,0,1.13,1.07,1.07,0,0,1-.4.78,1.28,1.28,0,0,1-.81.21,2.45,2.45,0,0,1-1.16-.31V14.77Z"/></g></g></svg>