<?xml version="1.0" encoding="UTF-8"?>
<svg width="11px" height="18px" viewBox="0 0 11 18" version="1.1" xmlns="http://www.w3.org/2000/svg" xmlns:xlink="http://www.w3.org/1999/xlink">
    <!-- Generator: Sketch 48.1 (47250) - http://www.bohemiancoding.com/sketch -->
    <title>fb_icn</title>
    <desc>Created with Sketch.</desc>
    <defs></defs>
    <g id="Extra-large-+--1920" stroke="none" stroke-width="1" fill="none" fill-rule="evenodd" transform="translate(-1882.000000, -3187.000000)">
        <g id="desktop" transform="translate(-17.000000, 0.000000)" fill="#FFFFFF">
            <g id="screen-03" transform="translate(0.000000, 2009.000000)">
                <g id="footer" transform="translate(201.000000, 1176.000000)">
                    <g id="social-icns" transform="translate(1593.000000, 0.000000)">
                        <path d="M110.843519,5 L111,5 L111,9 L114.196941,9 C114.483846,9 114.748958,9.15668452 114.89241,9.41103203 C115.035863,9.66537953 115.035863,9.97874858 114.89241,10.2330961 C114.748958,10.4874436 114.483846,10.6441281 114.196941,10.6441281 L110.564054,10.6441281 L110.564054,19.158363 C110.564054,19.6231863 110.195951,20 109.741874,20 C109.287796,20 108.919694,19.6231863 108.919694,19.158363 L108.919694,10.6441281 L105.803059,10.6441281 C105.359542,10.6441281 105,10.2760775 105,9.82206406 C105,9.36805061 105.359542,9 105.803059,9 L109,9 L109,5 L109.006988,5 C109.124316,3.31127294 110.655012,1.98370123 112.510703,2.00015123 L115.100917,2.00015123 C115.597467,2.00015123 116,2.37147414 116,2.82952416 C116,3.28757419 115.597467,3.6588971 115.100917,3.6588971 L112.510703,3.6588971 C111.658205,3.65222171 110.948837,4.2374631 110.843519,5 Z" id="fb_icn"></path>
                    </g>
                </g>
            </g>
        </g>
    </g>
</svg>