<svg id="Layer_1" data-name="Layer 1" xmlns="http://www.w3.org/2000/svg" viewBox="0 0 1000 600"><defs><style>.cls-1{fill:#fff;}.cls-2{fill:#0a0028;}</style></defs><title>GVA</title><rect class="cls-1" y="400" width="200" height="200"/><rect class="cls-1" x="200" y="200" width="200" height="200"/><rect class="cls-1" x="200" y="400" width="200" height="200"/><polygon class="cls-1" points="400 0 400 200 800 200 800 600 1000 600 1000 0 400 0"/><polygon class="cls-1" points="400 200 400 400 600 400 600 600 800 600 800 200 400 200"/><rect class="cls-1" x="400" y="400" width="200" height="200"/><path class="cls-2" d="M294.6,669.94a78.73,78.73,0,0,1-29.45-5.32,68,68,0,0,1-22.86-14.78,66.79,66.79,0,0,1-14.88-22.46A74.32,74.32,0,0,1,222.09,599v-.39a70.46,70.46,0,0,1,43.35-65.71,73.33,73.33,0,0,1,29-5.62,102,102,0,0,1,16.84,1.28,80.58,80.58,0,0,1,14.09,3.65,65,65,0,0,1,12.21,5.91,92,92,0,0,1,11,8.07l-19.12,23.06a76.68,76.68,0,0,0-7.88-5.91,52.13,52.13,0,0,0-8.17-4.34,48.69,48.69,0,0,0-9.16-2.75,55.18,55.18,0,0,0-10.84-1A35.15,35.15,0,0,0,278,558.73,41.81,41.81,0,0,0,265.34,568a42.54,42.54,0,0,0-8.47,13.63,45.26,45.26,0,0,0-3.05,16.68v.39a48.48,48.48,0,0,0,3.05,17.48,41.46,41.46,0,0,0,8.67,13.92,39.49,39.49,0,0,0,13.2,9.19,42.27,42.27,0,0,0,16.85,3.25q16.94,0,28.57-8.33V614.38H293.62v-26.2h59.89v59.89a100.8,100.8,0,0,1-25.31,15.46q-14.68,6.4-33.6,6.41" transform="translate(-190 -100)"/><polygon class="cls-2" points="230.84 429.66 264.34 429.66 300.4 526.79 336.45 429.66 369.16 429.66 313.4 568.56 286.6 568.56 230.84 429.66"/><path class="cls-2" d="M676,528.67h28l59.11,138.9H731.38l-12.61-30.93H660.45l-12.61,30.93H616.9Zm31.91,81.18-18.32-44.73-18.33,44.73Z" transform="translate(-190 -100)"/><path class="cls-2" d="M647.86,181.74a28.92,28.92,0,0,1-11.42-2.15,25.55,25.55,0,0,1-8.61-5.92,25.84,25.84,0,0,1-5.46-8.81,30.5,30.5,0,0,1-1.88-10.8v-.16a28.82,28.82,0,0,1,2-10.57,27.75,27.75,0,0,1,5.5-8.88,26,26,0,0,1,19.53-8.39,39.13,39.13,0,0,1,6.19.46,26.7,26.7,0,0,1,5.23,1.39,24.37,24.37,0,0,1,4.54,2.27,37.51,37.51,0,0,1,4.11,3l-3.92,4.61a27.36,27.36,0,0,0-3.23-2.5,22.18,22.18,0,0,0-3.65-1.92,23.14,23.14,0,0,0-4.31-1.27,26.72,26.72,0,0,0-5.19-.46,19.12,19.12,0,0,0-8.23,1.77,19.94,19.94,0,0,0-6.46,4.76,22.51,22.51,0,0,0-4.23,7,23.59,23.59,0,0,0-1.54,8.5v.15a25.61,25.61,0,0,0,1.5,8.92,20.92,20.92,0,0,0,4.27,7.08,19.58,19.58,0,0,0,6.69,4.69,22.1,22.1,0,0,0,8.85,1.69,23.93,23.93,0,0,0,8.69-1.57,25.53,25.53,0,0,0,6.84-3.81V157.52H647.25v-5.46h22.23v21.45a34.66,34.66,0,0,1-9.27,5.81A30.24,30.24,0,0,1,647.86,181.74Z" transform="translate(-190 -100)"/><path class="cls-2" d="M681.17,124.68h5.92v56.14h-5.92Z" transform="translate(-190 -100)"/><path class="cls-2" d="M717.46,181.74a20.34,20.34,0,0,1-8.23-1.65,20.75,20.75,0,0,1-6.53-4.46,20.13,20.13,0,0,1-4.31-6.54,20.57,20.57,0,0,1-1.54-8V161a20.87,20.87,0,0,1,1.54-8,20.43,20.43,0,0,1,4.31-6.61,20.22,20.22,0,0,1,6.57-4.5,20.78,20.78,0,0,1,8.35-1.66,20.74,20.74,0,0,1,14.84,6.12,20.13,20.13,0,0,1,4.31,6.54,20.73,20.73,0,0,1,1.53,7.95V161a20.53,20.53,0,0,1-1.57,8,21,21,0,0,1-4.35,6.61,20.18,20.18,0,0,1-6.61,4.5A20.82,20.82,0,0,1,717.46,181.74Zm.16-5.3a14.1,14.1,0,0,0,5.92-1.23,14.41,14.41,0,0,0,4.61-3.31,15.12,15.12,0,0,0,3-4.85,16.09,16.09,0,0,0,1.08-5.92V161a16.1,16.1,0,0,0-1.12-6A15.31,15.31,0,0,0,728,150a15,15,0,0,0-4.69-3.35,13.94,13.94,0,0,0-5.85-1.23,14.1,14.1,0,0,0-5.92,1.23A13.92,13.92,0,0,0,707,150a15.43,15.43,0,0,0-3,4.88,16.7,16.7,0,0,0-1.07,6V161a16.33,16.33,0,0,0,1.11,6,15.23,15.23,0,0,0,3.08,4.88,14.92,14.92,0,0,0,4.65,3.31A13.91,13.91,0,0,0,717.62,176.44Z" transform="translate(-190 -100)"/><path class="cls-2" d="M768.61,181.67a17.33,17.33,0,0,1-5.08-.7,16.86,16.86,0,0,1-4.15-1.84,18.22,18.22,0,0,1-3.35-2.69,24.81,24.81,0,0,1-2.65-3.23v7.61h-5.92V124.68h5.92v24.38a31.16,31.16,0,0,1,2.73-3.39,17.54,17.54,0,0,1,3.34-2.8,17.34,17.34,0,0,1,4.12-1.93,16.58,16.58,0,0,1,5-.73,18.75,18.75,0,0,1,13.07,5.43A19.82,19.82,0,0,1,786,152.1a22.23,22.23,0,0,1,1.61,8.72V161a22.36,22.36,0,0,1-1.61,8.69,20.13,20.13,0,0,1-4.27,6.5,18.51,18.51,0,0,1-6.08,4.07A18.14,18.14,0,0,1,768.61,181.67Zm-1.08-5.31a14.4,14.4,0,0,0,5.42-1,12.63,12.63,0,0,0,4.46-3,14.4,14.4,0,0,0,3-4.8,17.68,17.68,0,0,0,1.12-6.46v-.16a17.43,17.43,0,0,0-1.12-6.38,14.6,14.6,0,0,0-3-4.85,13.43,13.43,0,0,0-4.46-3.07,13.57,13.57,0,0,0-5.38-1.08,13.23,13.23,0,0,0-5.35,1.12,14.78,14.78,0,0,0-4.61,3.15,15,15,0,0,0-3.23,4.84,15.63,15.63,0,0,0-1.19,6.19V161a16,16,0,0,0,1.19,6.3,14.46,14.46,0,0,0,3.23,4.85,15.18,15.18,0,0,0,4.61,3.11A13.23,13.23,0,0,0,767.53,176.36Z" transform="translate(-190 -100)"/><path class="cls-2" d="M808.83,181.67a19.84,19.84,0,0,1-5.46-.77,14.19,14.19,0,0,1-4.77-2.35,12.15,12.15,0,0,1-3.35-3.88,11.07,11.07,0,0,1-1.27-5.39v-.15a12.31,12.31,0,0,1,1.23-5.65,11,11,0,0,1,3.5-4A16.6,16.6,0,0,1,804.1,157a26.35,26.35,0,0,1,6.88-.85,41.23,41.23,0,0,1,6.65.47,46.08,46.08,0,0,1,5.5,1.23V156.6q0-5.26-3.08-8c-2-1.81-4.94-2.71-8.69-2.71a25,25,0,0,0-6.42.76,34,34,0,0,0-5.65,2.08l-1.77-4.87a42,42,0,0,1,6.69-2.5,29.43,29.43,0,0,1,7.77-.94q8.46,0,12.84,4.39Q829,149,829,156.52v24.3h-5.84V174.9a18.94,18.94,0,0,1-5.58,4.73A17.08,17.08,0,0,1,808.83,181.67Zm1.19-4.85a16.72,16.72,0,0,0,5.14-.76,13.32,13.32,0,0,0,4.18-2.19,10.46,10.46,0,0,0,2.83-3.36,9.11,9.11,0,0,0,1-4.33v-3.67c-1.49-.41-3.17-.79-5.06-1.15a35.18,35.18,0,0,0-6.52-.54q-5.52,0-8.55,2.19a6.79,6.79,0,0,0-3,5.77v.16a7,7,0,0,0,.8,3.33,7.34,7.34,0,0,0,2.19,2.48,10.45,10.45,0,0,0,3.18,1.54A13.45,13.45,0,0,0,810,176.82Z" transform="translate(-190 -100)"/><path class="cls-2" d="M840.51,124.68h5.92v56.14h-5.92Z" transform="translate(-190 -100)"/><path class="cls-2" d="M876.58,127h6.76l19.16,46.37L921.72,127h6.54l-23.15,54.22h-5.38Z" transform="translate(-190 -100)"/><path class="cls-2" d="M939.87,163.36a16,16,0,0,0,1.54,5.62,13.47,13.47,0,0,0,7.46,6.73,14.23,14.23,0,0,0,5,.88,15.17,15.17,0,0,0,7.11-1.54A20.83,20.83,0,0,0,966.4,171l3.7,3.3a24.38,24.38,0,0,1-6.85,5.43,20.28,20.28,0,0,1-9.54,2,19.89,19.89,0,0,1-7.69-1.5,18.89,18.89,0,0,1-6.3-4.23,20,20,0,0,1-4.27-6.57,22.13,22.13,0,0,1-1.58-8.46,23.13,23.13,0,0,1,1.42-8.11,20.29,20.29,0,0,1,4-6.62,18.54,18.54,0,0,1,6-4.42,19.13,19.13,0,0,1,15.5,0,17.08,17.08,0,0,1,5.84,4.5,19.45,19.45,0,0,1,3.62,6.69,26.81,26.81,0,0,1,1.23,8.23v.88a11.45,11.45,0,0,1-.08,1.19Zm25.61-4.84a18.68,18.68,0,0,0-1.15-5.09,14.44,14.44,0,0,0-2.5-4.24,11.61,11.61,0,0,0-3.85-2.91,12.06,12.06,0,0,0-5.19-1.07,11.49,11.49,0,0,0-4.77,1A12.12,12.12,0,0,0,944.1,149a15.66,15.66,0,0,0-2.81,4.24,17.31,17.31,0,0,0-1.42,5.28Z" transform="translate(-190 -100)"/><path class="cls-2" d="M980.32,141.06h5.93V148a18.83,18.83,0,0,1,5.22-5.5,14.32,14.32,0,0,1,8.39-2.27,16.74,16.74,0,0,1,6.42,1.16,13.36,13.36,0,0,1,4.77,3.27,14.67,14.67,0,0,1,3,5,19.28,19.28,0,0,1,1,6.46v24.69h-5.92V157.65c0-3.69-.95-6.6-2.84-8.75s-4.62-3.23-8.15-3.23a12.48,12.48,0,0,0-4.73.89,11,11,0,0,0-3.81,2.53,11.43,11.43,0,0,0-2.5,3.95,14,14,0,0,0-.88,5.07v22.71h-5.93Z" transform="translate(-190 -100)"/><path class="cls-2" d="M1039.46,181.51a15.66,15.66,0,0,1-4.46-.61,9.27,9.27,0,0,1-3.57-2,9.08,9.08,0,0,1-2.35-3.5,14.23,14.23,0,0,1-.84-5.16v-24h-5.54v-5.23h5.54v-12h5.92v12h12.61v5.23h-12.61v23.17q0,3.67,1.84,5.13a7.56,7.56,0,0,0,4.85,1.46,13.27,13.27,0,0,0,2.88-.29,13.07,13.07,0,0,0,2.89-1v5.08a13.13,13.13,0,0,1-3.27,1.27A16.56,16.56,0,0,1,1039.46,181.51Z" transform="translate(-190 -100)"/><path class="cls-2" d="M1070.3,181.67a16.74,16.74,0,0,1-6.42-1.16,13.36,13.36,0,0,1-4.77-3.27,14.43,14.43,0,0,1-3-5,19.24,19.24,0,0,1-1-6.46V141.06H1061v23.17c0,3.69.94,6.6,2.84,8.75s4.62,3.23,8.15,3.23a12.48,12.48,0,0,0,4.73-.89,10.53,10.53,0,0,0,3.77-2.53,12.21,12.21,0,0,0,2.5-3.95,13.38,13.38,0,0,0,.92-5.07V141.06h5.85v39.76h-5.85V173.9a18.61,18.61,0,0,1-5.23,5.5A14.26,14.26,0,0,1,1070.3,181.67Z" transform="translate(-190 -100)"/><path class="cls-2" d="M1101.53,141.06h5.92v10.38a21.32,21.32,0,0,1,2.69-4.54,18.33,18.33,0,0,1,3.69-3.57,15.59,15.59,0,0,1,4.54-2.27,16.31,16.31,0,0,1,5.3-.69v6.38h-.46a16.47,16.47,0,0,0-6.11,1.15,13.94,13.94,0,0,0-5,3.47,16.38,16.38,0,0,0-3.38,5.72,23.3,23.3,0,0,0-1.23,7.89v15.84h-5.92Z" transform="translate(-190 -100)"/><path class="cls-2" d="M1134.67,163.36a16,16,0,0,0,1.54,5.62,13.47,13.47,0,0,0,7.46,6.73,14.27,14.27,0,0,0,5,.88,15.17,15.17,0,0,0,7.11-1.54,20.83,20.83,0,0,0,5.42-4.07l3.7,3.3a24.38,24.38,0,0,1-6.85,5.43,20.28,20.28,0,0,1-9.54,2,19.89,19.89,0,0,1-7.69-1.5,18.89,18.89,0,0,1-6.3-4.23,20,20,0,0,1-4.27-6.57,22.13,22.13,0,0,1-1.58-8.46,22.91,22.91,0,0,1,1.43-8.11,20.26,20.26,0,0,1,4-6.62,18.54,18.54,0,0,1,6-4.42,19.13,19.13,0,0,1,15.5,0,17.12,17.12,0,0,1,5.85,4.5,19.6,19.6,0,0,1,3.61,6.69,26.81,26.81,0,0,1,1.23,8.23v.88a11.45,11.45,0,0,1-.08,1.19Zm25.61-4.84a18.68,18.68,0,0,0-1.15-5.09,14.44,14.44,0,0,0-2.5-4.24,11.61,11.61,0,0,0-3.85-2.91,12.06,12.06,0,0,0-5.19-1.07,11.49,11.49,0,0,0-4.77,1,12.12,12.12,0,0,0-3.92,2.79,15.66,15.66,0,0,0-2.81,4.24,17.31,17.31,0,0,0-1.42,5.28Z" transform="translate(-190 -100)"/><path class="cls-2" d="M642.79,218.89h5.69L673,273.11h-6.53l-6.31-14.23h-29.3l-6.38,14.23h-6.23Zm15,34.53L645.56,226l-12.31,27.46Z" transform="translate(-190 -100)"/><path class="cls-2" d="M680.55,217h5.92v56.15h-5.92Z" transform="translate(-190 -100)"/><path class="cls-2" d="M698.16,217h5.92v56.15h-5.92Z" transform="translate(-190 -100)"/><path class="cls-2" d="M715.39,218.12h6.76v6.53h-6.76Zm.38,15.23h5.92v39.76h-5.92Z" transform="translate(-190 -100)"/><path class="cls-2" d="M744.68,274a19.94,19.94,0,0,1-5.46-.77,14.21,14.21,0,0,1-4.76-2.34,12.19,12.19,0,0,1-3.35-3.89,10.92,10.92,0,0,1-1.27-5.38v-.15a12.36,12.36,0,0,1,1.23-5.66,11,11,0,0,1,3.5-4,16.82,16.82,0,0,1,5.39-2.47,26.36,26.36,0,0,1,6.88-.84,41.34,41.34,0,0,1,6.65.46,50.35,50.35,0,0,1,5.5,1.23v-1.22q0-5.28-3.08-8c-2-1.8-4.95-2.71-8.69-2.71a25,25,0,0,0-6.42.77,32.3,32.3,0,0,0-5.65,2.08l-1.77-4.88a41,41,0,0,1,6.69-2.49,29,29,0,0,1,7.77-.94q8.46,0,12.84,4.38,4.16,4.15,4.15,11.69v24.31H759v-5.93a18.65,18.65,0,0,1-5.58,4.73A17.09,17.09,0,0,1,744.68,274Zm1.2-4.84a16.72,16.72,0,0,0,5.14-.77,13.51,13.51,0,0,0,4.18-2.18,10.49,10.49,0,0,0,2.83-3.37,9.07,9.07,0,0,0,1-4.32v-3.68c-1.49-.4-3.17-.79-5.06-1.14a35.18,35.18,0,0,0-6.52-.54q-5.52,0-8.55,2.18a6.81,6.81,0,0,0-3,5.78v.15a7,7,0,0,0,.8,3.33,7.28,7.28,0,0,0,2.19,2.49,10.66,10.66,0,0,0,3.18,1.53A13.1,13.1,0,0,0,745.88,269.11Z" transform="translate(-190 -100)"/><path class="cls-2" d="M774.76,233.35h5.92v6.92a18.49,18.49,0,0,1,5.23-5.5,14.26,14.26,0,0,1,8.38-2.27,16.75,16.75,0,0,1,6.42,1.15,13.36,13.36,0,0,1,4.77,3.27,14.32,14.32,0,0,1,3,5,19.24,19.24,0,0,1,1,6.46v24.69h-5.93V249.93c0-3.68-.94-6.6-2.84-8.75S796.14,238,792.6,238a12.51,12.51,0,0,0-4.73.88,11.1,11.1,0,0,0-3.81,2.53,11.47,11.47,0,0,0-2.5,4,14,14,0,0,0-.88,5.06v22.72h-5.92Z" transform="translate(-190 -100)"/><path class="cls-2" d="M837.43,274a19.83,19.83,0,0,1-8.11-1.65,20.29,20.29,0,0,1-10.73-11,20.85,20.85,0,0,1-1.54-7.92v-.16a21.06,21.06,0,0,1,5.81-14.61,20.39,20.39,0,0,1,6.46-4.5,19.83,19.83,0,0,1,8.11-1.65,22.71,22.71,0,0,1,5.16.54,19.57,19.57,0,0,1,4.23,1.5,18.67,18.67,0,0,1,3.53,2.27,30.48,30.48,0,0,1,3,2.76l-3.92,4.16a28.11,28.11,0,0,0-5.19-4.23,12.66,12.66,0,0,0-6.88-1.77,13.46,13.46,0,0,0-5.62,1.19,14.21,14.21,0,0,0-4.53,3.27,14.71,14.71,0,0,0-3,4.88,16.69,16.69,0,0,0-1.08,6v.15a16.25,16.25,0,0,0,1.11,6,15.76,15.76,0,0,0,3.08,4.92,14.16,14.16,0,0,0,4.61,3.31,14,14,0,0,0,5.81,1.19,13.49,13.49,0,0,0,6.81-1.69,23,23,0,0,0,5.34-4.23l3.77,3.54a26.69,26.69,0,0,1-6.81,5.54A18.91,18.91,0,0,1,837.43,274Z" transform="translate(-190 -100)"/><path class="cls-2" d="M864.35,255.65a15.79,15.79,0,0,0,1.54,5.61,13.58,13.58,0,0,0,3.15,4.16,13.79,13.79,0,0,0,4.31,2.57,14.23,14.23,0,0,0,5,.89,15.3,15.3,0,0,0,7.11-1.54,21.27,21.27,0,0,0,5.42-4.08l3.69,3.31a24.3,24.3,0,0,1-6.84,5.42,20.16,20.16,0,0,1-9.54,2,19.85,19.85,0,0,1-7.69-1.5,18.89,18.89,0,0,1-6.3-4.23,20,20,0,0,1-4.27-6.58,22.09,22.09,0,0,1-1.58-8.46,22.94,22.94,0,0,1,1.42-8.11,20.39,20.39,0,0,1,4-6.61,18.71,18.71,0,0,1,6-4.43,19.24,19.24,0,0,1,15.5,0,17.33,17.33,0,0,1,5.84,4.5,19.63,19.63,0,0,1,3.62,6.69,26.91,26.91,0,0,1,1.23,8.23v.89a11.45,11.45,0,0,1-.08,1.19ZM890,250.8a18.61,18.61,0,0,0-1.15-5.08,14.49,14.49,0,0,0-2.5-4.25,11.55,11.55,0,0,0-3.85-2.9,11.92,11.92,0,0,0-5.19-1.07,11.65,11.65,0,0,0-4.77,1,12.32,12.32,0,0,0-3.92,2.79,15.71,15.71,0,0,0-2.81,4.25,17,17,0,0,0-1.42,5.27Z" transform="translate(-190 -100)"/></svg>