<?xml version="1.0" encoding="UTF-8"?>
<svg width="190px" height="190px" viewBox="0 0 190 190" version="1.1" xmlns="http://www.w3.org/2000/svg" xmlns:xlink="http://www.w3.org/1999/xlink">
    <!-- Generator: Sketch 48.1 (47250) - http://www.bohemiancoding.com/sketch -->
    <title>icn 01</title>
    <desc>Created with Sketch.</desc>
    <defs></defs>
    <g id="Extra-large-≥1200px" stroke="none" stroke-width="1" fill="none" fill-rule="evenodd" transform="translate(-126.000000, -1179.000000)" stroke-linecap="round">
        <g id="desktop" transform="translate(-736.000000, 0.000000)" stroke-width="0.639">
            <g id="screen-02" transform="translate(718.000000, 854.000000)">
                <g id="icns" transform="translate(144.000000, 325.000000)">
                    <g id="01">
                        <path d="M88.723181,131.95545 C103.81931,131.95545 116.133862,119.105687 116.133862,103.347393 C116.133862,87.5890995 103.81931,74.7393365 88.723181,74.7393365 C73.6270522,74.7393365 61.3125,87.5981043 61.3125,103.347393 C61.3125,119.096682 73.6270522,131.95545 88.723181,131.95545 Z" id="Shape" stroke="#2E72F2"></path>
                        <polygon id="Shape" stroke="#2E72F2" points="124.32556 58.5308057 157.308396 58.5308057 157.308396 77.1165877 140.042817 77.1165877 133.426446 82.9156398 133.6875 77.1165877 124.32556 77.1165877"></polygon>
                        <rect id="Rectangle-path" stroke="#2E72F2" x="69.4141791" y="97.2511848" width="39.608209" height="7.20379147" rx="2.007"></rect>
                        <ellipse id="Oval" stroke="#2E72F2" cx="140.979011" cy="67.985782" rx="1.35027985" ry="1.3507109"></ellipse>
                        <ellipse id="Oval" stroke="#2E72F2" cx="148.180504" cy="67.985782" rx="1.35027985" ry="1.3507109"></ellipse>
                        <ellipse id="Oval" stroke="#2E72F2" cx="133.777519" cy="67.985782" rx="1.35027985" ry="1.3507109"></ellipse>
                        <path d="M56.8115672,89.6241706 C61.9336287,75.6308057 74.5722481,65.7345972 89.3443097,65.7345972 C104.341418,65.7345972 117.124067,75.9279621 122.102099,90.2635071" id="Shape" stroke="#2E72F2"></path>
                        <path d="M46.0093284,100.132701 C46.1259464,94.2285408 50.797682,89.4253927 56.6945429,89.1469194 L56.6945429,111.118483 C50.797682,110.84001 46.1259464,106.036862 46.0093284,100.132701 Z" id="Shape" stroke="#2E72F2"></path>
                        <path d="M132.310215,100.132701 C132.193597,94.2285408 127.521861,89.4253927 121.625,89.1469194 L121.625,111.118483 C127.521861,110.84001 132.193597,106.036862 132.310215,100.132701 Z" id="Shape" stroke="#2E72F2"></path>
                        <path d="M56.8115672,111.658768 C63.5419437,118.064089 72.4572106,121.666749 81.7467351,121.735071" id="Shape" stroke="#2E72F2"></path>
                        <rect id="Rectangle-path" stroke="#2E72F2" x="82.016791" y="117.962085" width="14.4029851" height="6.30331754" rx="3.15165877"></rect>
                        <path d="M87.8229944,131.054976 C102.919123,131.054976 115.233675,118.205213 115.233675,102.446919 C115.233675,86.6886256 102.919123,73.8388626 87.8229944,73.8388626 C72.7268657,73.8388626 60.4123134,86.6886256 60.4123134,102.446919 C60.4123134,118.205213 72.7358675,131.054976 87.8229944,131.054976 Z" id="Shape" stroke="#FFFFFF"></path>
                        <polygon id="Shape" stroke="#FFFFFF" points="123.425373 57.6303318 156.417211 57.6303318 156.417211 76.2161137 139.142631 76.2161137 132.526259 82.0151659 132.787313 76.2161137 123.425373 76.2161137"></polygon>
                        <rect id="Rectangle-path" stroke="#FFFFFF" x="69.4141791" y="96.3507109" width="39.608209" height="7.20379147" rx="2.007"></rect>
                        <ellipse id="Oval" stroke="#FFFFFF" cx="140.078825" cy="67.0853081" rx="1.35027985" ry="1.3507109"></ellipse>
                        <ellipse id="Oval" stroke="#FFFFFF" cx="147.280317" cy="67.0853081" rx="1.35027985" ry="1.3507109"></ellipse>
                        <ellipse id="Oval" stroke="#FFFFFF" cx="132.877332" cy="67.0853081" rx="1.35027985" ry="1.3507109"></ellipse>
                        <path d="M55.9113806,88.7236967 C61.042444,74.7303318 73.6720616,64.8341232 88.4441231,64.8341232 C103.441231,64.8341232 116.223881,75.0274882 121.201912,89.3630332" id="Shape" stroke="#FFFFFF"></path>
                        <path d="M45.1091418,100.132701 C45.2257598,94.2285408 49.8974954,89.4253927 55.7943563,89.1469194 L55.7943563,111.118483 C49.8974954,110.84001 45.2257598,106.036862 45.1091418,100.132701 Z" id="Shape" stroke="#FFFFFF"></path>
                        <path d="M132.310215,100.132701 C132.193597,94.2285408 127.521861,89.4253927 121.625,89.1469194 L121.625,111.118483 C127.521861,110.84001 132.193597,106.036862 132.310215,100.132701 Z" id="Shape" stroke="#FFFFFF"></path>
                        <path d="M55.9113806,110.758294 C62.6353004,117.171358 71.5474349,120.783711 80.8375466,120.861611" id="Shape" stroke="#FFFFFF"></path>
                        <rect id="Rectangle-path" stroke="#FFFFFF" x="81.1166045" y="117.061611" width="14.4029851" height="6.30331754" rx="3.15165877"></rect>
                    </g>
                </g>
            </g>
        </g>
    </g>
</svg>