<?xml version="1.0" encoding="UTF-8"?>
<svg width="190px" height="190px" viewBox="0 0 190 190" version="1.1" xmlns="http://www.w3.org/2000/svg" xmlns:xlink="http://www.w3.org/1999/xlink">
    <!-- Generator: Sketch 48.1 (47250) - http://www.bohemiancoding.com/sketch -->
    <title>icn 04 </title>
    <desc>Created with Sketch.</desc>
    <defs></defs>
    <g id="Extra-large-+--1920" stroke="none" stroke-width="1" fill="none" fill-rule="evenodd" transform="translate(-1117.000000, -1391.000000)" stroke-linecap="round">
        <g id="desktop" transform="translate(-17.000000, 0.000000)" stroke-width="0.639">
            <g id="screen-02" transform="translate(200.000000, 1101.000000)">
                <g id="icns" transform="translate(131.000000, 290.000000)">
                    <g id="04" transform="translate(803.000000, 0.000000)">
                        <path d="M88.3084738,117.258604 C87.9281603,117.606432 87.5119468,117.911493 87.067084,118.168474 C86.6304489,118.446229 86.1699861,118.683327 85.6913169,118.876873 C84.9661064,119.162832 83.8121684,119.061013 82.2295031,118.571417 C80.5036255,118.081125 78.9909229,117.014131 77.9358301,115.542849 C77.6986879,115.193873 77.4849089,114.829103 77.2959384,114.451004 C77.0698434,114.017733 76.9077375,113.694946 76.8096208,113.482643 C76.711504,113.27034 76.5259354,112.878229 76.252915,112.30631 C76.0097562,111.734392 75.8583152,111.387775 75.7985919,111.266459 C75.2150071,109.98201 74.7687952,108.637674 74.4676173,107.256531 C73.9739622,104.815783 73.759245,102.325332 73.8277256,99.8345898 C73.8535933,97.3414729 74.1627885,94.8597257 74.7491696,92.4386451 C75.0971359,91.0699966 75.5883864,89.7431223 76.2145215,88.4807098 C76.2785107,88.3593937 76.4406166,88.0171092 76.7008392,87.4538563 C76.9610618,86.8906033 77.1444974,86.5028253 77.251146,86.2905222 C77.3577946,86.0782192 77.5305653,85.761931 77.7694582,85.3416576 C77.9806376,84.977186 78.2157991,84.6276078 78.4733391,84.2953069 C79.5788818,82.8628642 81.1276464,81.8508283 82.8693947,81.4227168 C84.4691239,80.9894452 85.6251948,80.9266209 86.3376075,81.2342437 C86.8093234,81.4458304 87.2612227,81.7003318 87.6877789,81.9946352 C88.1235622,82.267994 88.5290396,82.5883016 88.8971741,82.9499989 C89.0097105,83.0569983 89.1009502,83.1849681 89.1659286,83.3269451 C89.2853751,83.5739098 89.1573967,84.2346489 88.7819936,85.3091623 C88.6966748,85.616785 88.5686964,86.0500566 88.3980586,86.6089768 C88.2274209,87.1678971 88.0738469,87.6726584 87.9373367,88.1232608 C87.8050924,88.5781958 87.683513,89.0114674 87.5725984,89.4230753 C87.5725984,89.4967315 87.529939,89.7133672 87.4446201,90.0729826 C87.3893459,90.3708346 87.3123467,90.664101 87.2142591,90.9503574 C87.1432017,91.1540843 87.0271946,91.3385994 86.8751165,91.4897804 C86.5257505,91.7356111 86.1012697,91.8462741 85.6785191,91.8017359 C85.0925797,91.7953188 84.5082132,91.7387937 83.9316149,91.63276 C83.3457266,91.528796 82.7534999,91.4658234 82.159115,91.4442869 C81.7624782,91.3821197 81.3571719,91.4700001 81.0201078,91.6912517 C80.9050977,91.8149012 80.8120082,91.9578204 80.7449544,92.1136914 C80.6735578,92.2575685 80.6094842,92.4050751 80.5529869,92.5556284 C80.5145934,92.6639462 80.4612691,92.8589184 80.393014,93.1405449 C80.3247589,93.4221714 80.2842324,93.5781491 80.2714346,93.6084781 C78.9643604,97.7021184 78.8886133,102.098596 80.0538714,106.236176 C80.0538714,106.236176 80.0986639,106.42465 80.162653,106.710609 C80.2266422,106.996568 80.2714346,107.19154 80.3034292,107.302024 C80.3533821,107.454424 80.4110491,107.604101 80.4761999,107.75046 C80.5367876,107.90723 80.6233573,108.052306 80.7321566,108.179399 C81.0597361,108.413437 81.4603845,108.517479 81.8583659,108.471857 C82.4445915,108.475474 83.0303796,108.438561 83.6116691,108.361373 C84.2013866,108.284209 84.796497,108.258118 85.3905679,108.283384 C85.8158339,108.252267 86.2380232,108.376757 86.5807663,108.634334 C86.727379,108.791375 86.8368015,108.980305 86.9007122,109.186756 C87.0004045,109.483583 87.0774196,109.787774 87.1310732,110.096626 C87.1907964,110.464906 87.2249239,110.681542 87.2334558,110.746533 C87.3273066,111.179804 87.4339552,111.613076 87.5534017,112.046348 C87.6728481,112.479619 87.8093583,112.988713 87.9629323,113.57363 C88.1165063,114.13255 88.2316868,114.565821 88.3084738,114.873444 C88.6454834,115.960956 88.7499991,116.626027 88.6220207,116.868659 C88.5454493,117.019444 88.4386423,117.152275 88.3084738,117.258604 Z" id="Shape" stroke="#2E72F2"></path>
                        <path d="M124.777856,87.4926188 C124.502925,87.7410965 124.202598,87.9589732 123.882008,88.1425261 C123.567223,88.343526 123.235274,88.5153607 122.890175,88.6559528 C122.050942,88.8443591 121.174896,88.7649164 120.3818,88.4284853 C119.131856,88.0750685 118.036038,87.3033178 117.271927,86.2382978 C117.094456,85.9853475 116.934114,85.7204418 116.792008,85.4454109 C116.629902,85.1377881 116.512589,84.9038215 116.440068,84.743511 L116.06893,83.8791344 C115.894027,83.4458628 115.785245,83.1945654 115.742586,83.1252419 C115.321532,82.1966763 114.999746,81.2249239 114.782748,80.2266555 C114.429924,78.4586079 114.279617,76.6550476 114.334824,74.8519223 C114.344453,73.0477783 114.559172,71.2507979 114.974716,69.4966864 C115.226742,68.5054545 115.582857,67.5445807 116.036936,66.6305953 C116.083861,66.543941 116.201175,66.2969762 116.388876,65.889701 L116.785609,65.0448216 C116.862396,64.8888438 116.988241,64.6592099 117.163145,64.3559198 C117.313983,64.0866508 117.482886,63.8282438 117.66866,63.5825302 C117.837853,63.3640801 118.021728,63.1577833 118.218966,62.9651183 C118.960527,62.2607237 119.865101,61.7577676 120.848921,61.5028269 C121.651387,61.1966924 122.527221,61.1490383 123.357296,61.3663464 C123.696958,61.518355 124.022479,61.7010641 124.329932,61.9122685 C124.645638,62.1092925 124.939548,62.3402566 125.206583,62.6011702 C125.287141,62.6788776 125.352303,62.7715329 125.398551,62.8741313 C125.450065,63.3937968 125.352274,63.9174931 125.116998,64.3819161 C125.053009,64.6028846 124.959158,64.9148401 124.835446,65.3177826 C124.711734,65.7207251 124.600819,66.0846732 124.502702,66.4096268 C124.404586,66.7389132 124.317134,67.053035 124.240347,67.3519924 C124.240347,67.403985 124.210485,67.5621291 124.150762,67.8264247 C124.111565,68.0470216 124.055948,68.2642807 123.98439,68.476332 C123.933523,68.6233707 123.85037,68.7567207 123.741231,68.8662763 C123.487754,69.046443 123.178598,69.1272506 122.870979,69.0937439 C122.442257,69.0958902 122.014128,69.0611039 121.591195,68.9897587 C121.167886,68.9189034 120.740286,68.8776456 120.311412,68.8662763 C120.023588,68.8217763 119.729712,68.8865618 119.485952,69.0482504 C119.402885,69.137612 119.335762,69.2409724 119.287585,69.3537068 C119.235361,69.457359 119.188375,69.5636485 119.146809,69.6721613 C119.121214,69.7501502 119.08282,69.8909635 119.031629,70.0946011 C118.980437,70.2982387 118.950576,70.4108893 118.942044,70.4325529 C118.48516,71.9062051 118.233168,73.4374473 118.193371,74.9819038 C118.183292,76.5190305 118.383574,78.0501233 118.78847,79.5312547 C118.78847,79.5312547 118.820465,79.6677352 118.865257,79.8757055 C118.910049,80.0836759 118.942044,80.2266555 118.96764,80.3046443 C119.00469,80.4151549 119.047408,80.5236211 119.095618,80.629598 C119.13938,80.743633 119.202154,80.8491607 119.281186,80.9415535 C119.519761,81.1107625 119.81134,81.1847982 120.100248,81.1495238 C120.528099,81.1534049 120.955706,81.1273469 121.380031,81.0715349 C121.804431,81.0177317 122.232539,81.0003393 122.659814,81.0195423 C122.966326,80.9967212 123.270688,81.0866906 123.517269,81.2730062 C123.623258,81.3877567 123.702048,81.525574 123.74763,81.6759487 C123.810524,81.8886957 123.857582,82.1059435 123.888406,82.325856 C123.931066,82.5901516 123.956662,82.7482957 123.965193,82.8002883 C124.033449,83.0992456 124.110236,83.4155338 124.195554,83.7491529 C124.280873,84.082772 124.37899,84.4510528 124.489905,84.8539953 C124.600819,85.2569378 124.684005,85.5710596 124.739462,85.7963608 C124.944901,86.2467882 125.024587,86.7458722 124.969823,87.239155 C124.92154,87.3347945 124.856486,87.4206879 124.777856,87.4926188 Z" id="Shape" stroke="#2E72F2"></path>
                        <path d="M124.784135,132.475166 C124.50939,132.723879 124.209037,132.941775 123.888287,133.125073 C123.573519,133.326104 123.241568,133.49794 122.896455,133.6385 C122.059912,133.827585 121.186331,133.750433 120.394478,133.417532 C119.144534,133.064115 118.048716,132.292364 117.284605,131.227344 C117.107002,130.974483 116.946654,130.709568 116.804686,130.434457 C116.64258,130.126835 116.525267,129.892868 116.452746,129.732557 L116.062412,128.887678 C115.887508,128.454406 115.778727,128.203109 115.736067,128.133786 C115.318928,127.213276 114.999319,126.250335 114.782629,125.261195 C114.430144,123.493098 114.279841,121.689578 114.334704,119.886462 C114.344391,118.082322 114.559109,116.285348 114.974596,114.531226 C115.231303,113.521139 115.59608,112.542619 116.062412,111.613143 C116.109337,111.526488 116.226651,111.279524 116.414352,110.872248 L116.811085,110.027369 C116.887872,109.871391 117.013718,109.641757 117.188621,109.338467 C117.33951,109.06923 117.508412,108.810827 117.694136,108.565078 C117.863376,108.346668 118.047248,108.140374 118.244443,107.947666 C118.987813,107.242319 119.894697,106.739303 120.880796,106.485374 C121.682051,106.206093 122.548029,106.181158 123.363576,106.413884 C123.703253,106.565862 124.028777,106.748572 124.336211,106.959807 C124.651889,107.156872 124.945795,107.387833 125.212863,107.648708 C125.293302,107.72652 125.358447,107.819151 125.40483,107.921669 C125.444509,108.417002 125.349321,108.913878 125.129677,109.357964 C125.065688,109.578933 124.971837,109.890888 124.848124,110.293831 C124.724412,110.696773 124.613497,111.060721 124.515381,111.385675 C124.417264,111.714961 124.329812,112.029083 124.253025,112.328041 C124.253025,112.380033 124.223164,112.538177 124.16344,112.802473 C124.124268,113.023075 124.06865,113.240336 123.997068,113.45238 C123.946,113.59932 123.862874,113.732626 123.75391,113.842325 C123.500432,114.022491 123.191276,114.103299 122.883657,114.069792 C122.455115,114.074149 122.026982,114.041537 121.603874,113.972306 C121.180559,113.901491 120.752962,113.860234 120.32409,113.848824 C120.036266,113.804324 119.74239,113.869109 119.49863,114.030798 C119.415665,114.120241 119.348554,114.223583 119.300264,114.336254 C119.25013,114.439998 119.205278,114.546289 119.165886,114.654709 C119.140291,114.732698 119.101897,114.873511 119.050706,115.077148 C118.999515,115.280786 118.969653,115.393437 118.961121,115.4151 C118.014589,118.377118 117.958893,121.558474 118.801148,124.552796 C118.801148,124.552796 118.833143,124.689277 118.877935,124.897247 C118.922728,125.105218 118.954722,125.248197 118.980318,125.326186 C119.017346,125.436705 119.060065,125.545172 119.108296,125.65114 C119.152173,125.765118 119.214935,125.870627 119.293865,125.963095 C119.53244,126.132304 119.824018,126.20634 120.112926,126.171066 C120.540776,126.174885 120.968379,126.148827 121.392709,126.093077 C121.816929,126.037103 122.245038,126.017537 122.672493,126.034585 C122.979004,126.011764 123.283366,126.101733 123.529948,126.288049 C123.635937,126.402799 123.714727,126.540617 123.760309,126.690991 C123.823132,126.903757 123.870189,127.120999 123.901085,127.340899 C123.943744,127.605194 123.96934,127.763338 123.977872,127.815331 C124.046127,128.114288 124.122914,128.430577 124.208233,128.764196 C124.293552,129.097815 124.391668,129.466095 124.502583,129.869038 C124.613497,130.27198 124.696683,130.586102 124.752141,130.811404 C124.95758,131.261831 125.037265,131.760915 124.982502,132.254198 C124.929216,132.338762 124.862134,132.413487 124.784135,132.475166 Z" id="Shape" stroke="#2E72F2"></path>
                        <path d="M92.7192164,82.2053616 L110.71297,71.1374408" id="Shape" stroke="#2E72F2"></path>
                        <path d="M91.8190299,110.758294 L109.819182,121.826215" id="Shape" stroke="#2E72F2"></path>
                        <path d="M87.350697,115.483652 C86.9744011,115.830718 86.5625109,116.135755 86.122105,116.393522 C85.6854872,116.671309 85.2250216,116.908408 84.746338,117.101921 C84.0211274,117.387881 82.8671895,117.286062 81.2845241,116.796465 C79.5586465,116.306173 78.0459439,115.239179 76.9908511,113.767897 C76.7536601,113.418953 76.5398791,113.054179 76.3509594,112.676053 C76.1248644,112.242781 75.9627585,111.919994 75.8646418,111.707691 C75.766525,111.495388 75.5958873,111.101111 75.3527284,110.52486 C75.1095696,109.952941 74.9581286,109.606324 74.8984054,109.485008 C74.3148205,108.200559 73.8686086,106.856223 73.5674307,105.47508 C73.0737756,103.034332 72.8590584,100.543882 72.9275391,98.0531392 C72.9345451,95.5622901 73.224412,93.0805744 73.7913928,90.6571944 C74.1352591,89.2890587 74.6222133,87.9622008 75.2439469,86.6992591 C75.307936,86.5779431 75.4700419,86.2356586 75.7302645,85.6724056 C75.9904871,85.1091526 76.1739227,84.7213746 76.2805713,84.5090716 C76.38722,84.2967686 76.5599907,83.9804803 76.7988836,83.560207 C77.0092887,83.1890272 77.2444654,82.832912 77.5027644,82.494359 C78.6083071,81.0619163 80.1570717,80.0498805 81.8988201,79.6217689 C83.4985492,79.1884974 84.6546202,79.125673 85.3670329,79.4332958 C85.8541932,79.6423568 86.3211861,79.8969136 86.7619967,80.1936873 C87.1854015,80.4607785 87.5800309,80.7722746 87.9393973,81.1230547 C88.0519336,81.2300542 88.1431733,81.358024 88.2081518,81.5000009 C88.3275983,81.7469657 88.1996199,82.4077047 87.8242168,83.4822181 C87.7388979,83.7898409 87.6109196,84.2231124 87.4402818,84.7820326 C87.2696441,85.3409529 87.1160701,85.8543797 86.9795598,86.3223129 C86.8345177,86.7555844 86.7129383,87.1888559 86.6148216,87.6221274 C86.6148216,87.6957836 86.5721621,87.9124194 86.4868433,88.2720347 C86.4315691,88.5698867 86.3545699,88.8631531 86.2564823,89.1494095 C86.1854249,89.3531364 86.0694177,89.5376515 85.9173397,89.6888326 C85.5679736,89.9346632 85.1434929,90.0453262 84.7207423,90.0007881 C84.1184389,90.0058835 83.5168306,89.9580453 82.9226467,89.8578085 C82.3447537,89.7616133 81.7611248,89.7051596 81.1757425,89.6888326 C80.7791058,89.6266654 80.3737994,89.7145457 80.0367354,89.9357973 C79.9217253,90.0594469 79.8286358,90.202366 79.761582,90.3582371 C79.6901546,90.5020994 79.6260803,90.6496077 79.5696145,90.800174 C79.531221,90.9084919 79.4778967,91.1034641 79.4096415,91.3850906 C79.3413864,91.666717 79.30086,91.8226948 79.2880621,91.8530238 C77.9851815,95.9479602 77.9138902,100.344431 79.0832968,104.480722 C79.0832968,104.480722 79.1280892,104.669195 79.1920784,104.955154 C79.2560675,105.241114 79.30086,105.436086 79.3328545,105.54657 C79.3828711,105.698946 79.4405369,105.84862 79.5056253,105.995006 C79.5662129,106.151776 79.6527826,106.296852 79.761582,106.423945 C80.0891615,106.657983 80.4898099,106.762025 80.8877913,106.716403 C81.4740179,106.72006 82.0598088,106.683146 82.6410944,106.605919 C83.230812,106.528754 83.8259223,106.502664 84.4199932,106.52793 C84.8452592,106.496813 85.2674486,106.621303 85.6101917,106.87888 C85.7568044,107.035921 85.8662269,107.224851 85.9301375,107.431301 C86.0158669,107.722823 86.0800347,108.020442 86.122105,108.321674 C86.1818282,108.689955 86.2159558,108.906591 86.2244877,108.971581 C86.3183385,109.404853 86.4249871,109.838124 86.5444335,110.271396 C86.66388,110.704667 86.8003902,111.213761 86.9539642,111.798678 C87.1075382,112.357598 87.2227187,112.79087 87.2995057,113.098493 C87.6365153,114.186004 87.7410309,114.851076 87.6130526,115.093708 C87.5515483,115.239863 87.4624137,115.372346 87.350697,115.483652 Z" id="Shape" stroke="#FFFFFF"></path>
                        <path d="M123.884068,85.6536715 C123.609168,85.9021882 123.308837,86.120068 122.98822,86.3035788 C122.673435,86.5045788 122.341487,86.6764134 121.996388,86.8170055 C121.15643,87.0108956 120.277974,86.9359775 119.481614,86.6025361 C118.23167,86.2491194 117.135852,85.4773687 116.37174,84.4123486 C116.194286,84.1593873 116.033945,83.8944827 115.891821,83.6194617 C115.729715,83.311839 115.612402,83.0778723 115.539881,82.9175619 L115.168744,82.0596843 C114.99384,81.6264128 114.885059,81.3751153 114.842399,81.3057918 C114.421345,80.3772262 114.099559,79.4054738 113.882562,78.4072054 C113.529737,76.6391578 113.37943,74.8355975 113.434637,73.0324722 C113.444267,71.2283282 113.658986,69.4313478 114.074529,67.6772363 C114.325373,66.6907136 114.679324,65.7342494 115.13035,64.8241434 C115.177276,64.7374891 115.294589,64.4905243 115.482291,64.0832491 L115.879024,63.2383696 C115.955811,63.0823919 116.081656,62.852758 116.25656,62.5494679 C116.41022,62.286705 116.58125,62.0348295 116.768473,61.7955755 C116.936533,61.5659849 117.120431,61.3488032 117.31878,61.1456682 C118.06242,60.4483304 118.966819,59.952177 119.948734,59.7028741 C120.75314,59.3953776 121.63142,59.347712 122.463509,59.5663935 C122.803155,59.7184336 123.128674,59.9011412 123.436144,60.1123156 C123.75185,60.3093397 124.04576,60.5403037 124.312796,60.8012173 C124.393353,60.8789247 124.458516,60.97158 124.504763,61.0741784 C124.544441,61.5695107 124.449254,62.0663874 124.22961,62.5104735 C124.16562,62.731442 124.07177,63.0433974 123.948057,63.44634 C123.824345,63.8492825 123.71343,64.2132305 123.615314,64.5381842 C123.517197,64.876136 123.41908,65.1902578 123.320964,65.4805497 C123.320964,65.5325423 123.291102,65.6906864 123.231379,65.954982 C123.192279,66.1756005 123.13666,66.3928671 123.065007,66.6048893 C123.01414,66.7519281 122.930987,66.885278 122.821848,66.9948337 C122.568371,67.1750004 122.259215,67.255808 121.951595,67.2223012 C121.522873,67.2244788 121.094741,67.1896923 120.671812,67.1183161 C120.24851,67.0473998 119.820906,67.0061416 119.392029,66.9948337 C119.104205,66.9503336 118.810328,67.0151192 118.566569,67.1768077 C118.483502,67.2661693 118.416379,67.3695298 118.368202,67.4822641 C118.315927,67.5858917 118.268939,67.6921839 118.227426,67.8007187 C118.20183,67.8787076 118.163437,68.0195208 118.112245,68.2231584 C118.061054,68.426796 118.031192,68.5394466 118.022661,68.5611102 C117.565858,70.0347823 117.313868,71.5660128 117.273987,73.1104611 C117.263992,74.6475825 117.464272,76.1786638 117.869087,77.659812 C117.869087,77.659812 117.901081,77.7962926 117.945874,78.0042629 C117.990666,78.2122332 118.022661,78.3552128 118.048256,78.4332017 C118.085318,78.5437082 118.128035,78.6521737 118.176235,78.7581553 C118.219997,78.8721904 118.282771,78.9777181 118.361803,79.0701108 C118.600378,79.2393198 118.891957,79.3133555 119.180864,79.2780811 C119.608716,79.2819622 120.036323,79.2559043 120.460648,79.2000923 C120.885043,79.1462274 121.313156,79.1288349 121.740431,79.1480997 C122.046943,79.1252785 122.351304,79.2152479 122.597886,79.4015635 C122.704058,79.5161755 122.782874,79.6540385 122.828247,79.804506 C122.891164,80.0172468 122.938222,80.2344965 122.969023,80.4544133 C123.011683,80.7187089 123.037278,80.876853 123.04581,80.9288456 C123.114065,81.227803 123.190852,81.5440912 123.276171,81.8777102 C123.36149,82.2113293 123.459607,82.5796101 123.570521,82.9825526 C123.681436,83.3854951 123.764622,83.699617 123.820079,83.9249182 C124.025518,84.3753455 124.105203,84.8744295 124.05044,85.3677123 C124.013274,85.4728539 123.95682,85.5698867 123.884068,85.6536715 Z" id="Shape" stroke="#FFFFFF"></path>
                        <path d="M124.764919,130.682872 C124.490173,130.931585 124.189821,131.149481 123.86907,131.33278 C123.554285,131.533779 123.222337,131.705614 122.877238,131.846206 C122.040695,132.035292 121.167114,131.958139 120.375262,131.625238 C119.128567,131.272206 118.035298,130.502952 117.271787,129.441549 C117.094201,129.188677 116.933854,128.923763 116.791869,128.648662 C116.629763,128.34104 116.512449,128.107073 116.439928,127.946763 L116.068791,127.088885 C115.893887,126.655614 115.785106,126.404316 115.742446,126.334993 C115.321393,125.406427 114.999607,124.434675 114.782609,123.436406 C114.430181,121.668301 114.279878,119.864787 114.334685,118.061673 C114.344314,116.257529 114.559033,114.460549 114.974576,112.706437 C115.213114,111.721444 115.554177,110.765028 115.992004,109.853344 C116.038929,109.76669 116.156243,109.519725 116.343944,109.11245 L116.740677,108.26757 C116.817464,108.111593 116.94331,107.881959 117.118213,107.578669 C117.26912,107.309443 117.43802,107.05104 117.623728,106.805279 C117.793015,106.586909 117.976884,106.380618 118.174035,106.187867 C118.917406,105.48252 119.824289,104.979504 120.810388,104.725576 C121.612854,104.419441 122.488688,104.371787 123.318764,104.589095 C123.65844,104.741072 123.983965,104.923783 124.291399,105.135017 C124.615972,105.330563 124.918519,105.56157 125.193646,105.823919 C125.274085,105.901731 125.33923,105.994362 125.385614,106.09688 C125.425292,106.592212 125.330104,107.089089 125.11046,107.533175 C125.046471,107.754144 124.95262,108.066099 124.828908,108.469042 C124.705195,108.871984 124.594281,109.235932 124.496164,109.560886 C124.398047,109.890172 124.310596,110.204294 124.233809,110.503251 C124.233809,110.555244 124.203947,110.713388 124.144224,110.977684 C124.105075,111.198291 124.049457,111.415554 123.977852,111.627591 C123.926784,111.77453 123.843657,111.907837 123.734693,112.017535 C123.481216,112.197702 123.17206,112.27851 122.86444,112.245003 C122.435719,112.247149 122.00759,112.212363 121.584657,112.141018 C121.16134,112.070223 120.733744,112.028966 120.304874,112.017535 C120.01705,111.973035 119.723173,112.037821 119.479414,112.199509 C119.396449,112.288953 119.329338,112.392294 119.281047,112.504966 C119.230923,112.608714 119.186072,112.715005 119.14667,112.82342 C119.121074,112.901409 119.082681,113.042222 119.031489,113.24586 C118.980298,113.449498 118.950436,113.562148 118.941905,113.583812 C117.999179,116.547061 117.947937,119.728527 118.79473,122.721508 C118.79473,122.721508 118.826724,122.857989 118.871516,123.065959 C118.916309,123.273929 118.948303,123.416909 118.973899,123.494898 C119.01095,123.605408 119.053668,123.713875 119.101877,123.819851 C119.145754,123.933829 119.208517,124.039338 119.287446,124.131807 C119.526021,124.301016 119.8176,124.375052 120.106507,124.339777 C120.534356,124.343556 120.961956,124.317498 121.386291,124.261788 C121.810508,124.205784 122.238619,124.186218 122.666074,124.203297 C122.972586,124.180476 123.276947,124.270445 123.523529,124.456761 C123.629701,124.571373 123.708517,124.709235 123.75389,124.859703 C123.816737,125.072462 123.863794,125.289707 123.894666,125.50961 C123.937325,125.773906 123.962921,125.93205 123.971453,125.984043 C124.039708,126.283 124.116495,126.599288 124.201814,126.932907 C124.287133,127.266526 124.38525,127.634807 124.496164,128.03775 C124.607079,128.440692 124.690265,128.754814 124.745722,128.980115 C124.951161,129.430543 125.030846,129.929627 124.976083,130.422909 C124.922762,130.522517 124.851071,130.610775 124.764919,130.682872 Z" id="Shape" stroke="#FFFFFF"></path>
                        <path d="M91.8190299,80.4044138 L109.812783,69.3364929" id="Shape" stroke="#FFFFFF"></path>
                        <path d="M91.8190299,109.85782 L109.812783,120.925741" id="Shape" stroke="#FFFFFF"></path>
                    </g>
                </g>
            </g>
        </g>
    </g>
</svg>