<?xml version="1.0" encoding="UTF-8"?>
<svg width="190px" height="190px" viewBox="0 0 190 190" version="1.1" xmlns="http://www.w3.org/2000/svg" xmlns:xlink="http://www.w3.org/1999/xlink">
    <!-- Generator: Sketch 48.1 (47250) - http://www.bohemiancoding.com/sketch -->
    <title>icn 03 </title>
    <desc>Created with Sketch.</desc>
    <defs></defs>
    <g id="Extra-large-+--1920" stroke="none" stroke-width="1" fill="none" fill-rule="evenodd" transform="translate(-850.000000, -1391.000000)" stroke-linecap="round">
        <g id="desktop" transform="translate(-17.000000, 0.000000)" stroke-width="0.639">
            <g id="screen-02" transform="translate(200.000000, 1101.000000)">
                <g id="icns" transform="translate(131.000000, 290.000000)">
                    <g id="03" transform="translate(536.000000, 0.000000)">
                        <polygon id="Shape" stroke="#2E72F2" points="63.9132463 60.3317536 113.872487 60.3317536 113.872487 88.4707285 87.72977 88.4707285 77.7009492 97.2468217 78.0937832 88.4707285 63.9132463 88.4707285"></polygon>
                        <ellipse id="Oval" stroke="#2E72F2" cx="88.6683769" cy="74.7393365" rx="2.25046642" ry="1.80094787"></ellipse>
                        <ellipse id="Oval" stroke="#2E72F2" cx="99.4706157" cy="74.7393365" rx="2.25046642" ry="1.80094787"></ellipse>
                        <ellipse id="Oval" stroke="#2E72F2" cx="77.8661381" cy="74.7393365" rx="2.25046642" ry="1.80094787"></ellipse>
                        <polygon id="Shape" stroke="#2E72F2" points="145.371314 97.2511848 95.4197761 97.2511848 95.4197761 125.39016 121.562493 125.39016 131.583611 134.166253 131.19848 125.39016 145.371314 125.39016"></polygon>
                        <ellipse id="Oval" stroke="#2E72F2" cx="120.174907" cy="111.658768" rx="2.25046642" ry="1.80094787"></ellipse>
                        <ellipse id="Oval" stroke="#2E72F2" cx="109.372668" cy="111.658768" rx="2.25046642" ry="1.80094787"></ellipse>
                        <ellipse id="Oval" stroke="#2E72F2" cx="130.977146" cy="111.658768" rx="2.25046642" ry="1.80094787"></ellipse>
                        <polygon id="Shape" stroke="#FFFFFF" points="62.1128731 59.4312796 112.072114 59.4312796 112.072114 87.5702546 85.9293968 87.5702546 75.9005761 96.3540529 76.29341 87.5702546 62.1128731 87.5702546"></polygon>
                        <ellipse id="Oval" stroke="#FFFFFF" cx="87.7681903" cy="73.8388626" rx="2.25046642" ry="1.80094787"></ellipse>
                        <ellipse id="Oval" stroke="#FFFFFF" cx="98.5704291" cy="73.8388626" rx="2.25046642" ry="1.80094787"></ellipse>
                        <ellipse id="Oval" stroke="#FFFFFF" cx="76.0657649" cy="73.8388626" rx="2.25046642" ry="1.80094787"></ellipse>
                        <polygon id="Shape" stroke="#FFFFFF" points="143.570941 96.3507109 93.619403 96.3507109 93.619403 124.489686 119.76212 124.489686 129.783238 133.265779 129.390404 124.489686 143.570941 124.489686"></polygon>
                        <ellipse id="Oval" stroke="#FFFFFF" cx="119.27472" cy="109.85782" rx="2.25046642" ry="1.80094787"></ellipse>
                        <ellipse id="Oval" stroke="#FFFFFF" cx="107.572295" cy="109.85782" rx="2.25046642" ry="1.80094787"></ellipse>
                        <ellipse id="Oval" stroke="#FFFFFF" cx="130.076959" cy="109.85782" rx="2.25046642" ry="1.80094787"></ellipse>
                    </g>
                </g>
            </g>
        </g>
    </g>
</svg>