<svg id="Layer_1" data-name="Layer 1" xmlns="http://www.w3.org/2000/svg" viewBox="0 0 252.85 68.61"><defs><style>.cls-1{fill:#fff;}</style></defs><title>id-connect</title><path class="cls-1" d="M280.69,67.7l-2.38,3.12-2.43-3.12h-1v5.16h1V69.67l0-.55a2.11,2.11,0,0,0,.31.53l1.94,2.59h.24l1.94-2.58a2.49,2.49,0,0,0,.3-.54,3.85,3.85,0,0,0,0,.55v3.19h1.1V67.7ZM259,68.64h4v3.28h-4Zm-1.2,3a1.37,1.37,0,0,0,.28,1,1.45,1.45,0,0,0,1,.25h3.8a1.45,1.45,0,0,0,1-.25,1.37,1.37,0,0,0,.28-1V68.92a1.37,1.37,0,0,0-.28-1,1.45,1.45,0,0,0-1-.25H259a1.45,1.45,0,0,0-1,.25,1.37,1.37,0,0,0-.28,1ZM242.49,72l1.59-3.24L245.71,72Zm1.07-4.28-2.13,4.22h-.62v1.93H242v-1h4.42v1h1.14V71.92h-.62l-2.17-4.22Zm-28.35,0H214v5.16h1l4.3-3.81v3.81h1.2V67.7h-1l-4.3,3.81Zm2.88-1.89a.61.61,0,0,1-.15.46,1.26,1.26,0,0,1-1.36,0,.61.61,0,0,1-.15-.46h-.8a1.28,1.28,0,0,0,.3,1,2.23,2.23,0,0,0,2.66,0,1.28,1.28,0,0,0,.3-1ZM197.84,67.7h-1.2v5.16h1l4.3-3.81v3.81h1.2V67.7h-1l-4.3,3.81Zm-16.59,0h-1.2v5.16h1.2V70.59l3.09,2.27h1.93l-3.84-2.73,3.42-2.43h-1.74l-2.86,2.15Zm-13.17.94v1l1.2-.19v-.51a1.37,1.37,0,0,0-.28-1,1.45,1.45,0,0,0-1-.25h-3.08a1.45,1.45,0,0,0-1,.25,1.37,1.37,0,0,0-.28,1v2.72a1.37,1.37,0,0,0,.28,1,1.45,1.45,0,0,0,1,.25H168a1.45,1.45,0,0,0,1-.25,1.37,1.37,0,0,0,.28-1v-.59l-1.2-.25v1.12h-3.24V68.64ZM151.5,70.41a.63.63,0,0,1,.38.09.44.44,0,0,1,.13.35v.65a.42.42,0,0,1-.11.31.74.74,0,0,1-.47.11h-2.72V70.41Zm-2.79-2.71h-1.2v5.16h4.14a2,2,0,0,0,1.21-.3.87.87,0,0,0,.31-.71V70.56a.94.94,0,0,0-.24-.67,1.64,1.64,0,0,0-1.29-.32h-2.93Zm-15.55,0-2.8,5.16h1.25l2.09-4.07,2.06,4.07h1.4l-2.84-5.16Zm-18.25,0v5.16h5.33v-.94h-4.13V70.61h2.38v-.88h-2.38V68.58h4.08V67.7Zm-12.62.94h2.37V67.7H98.73v.94h2.37v4.22h1.19ZM85.37,70.8l1.16-2.1,1.12,2.1ZM86,67.7l-2.92,5.16h1.21l.59-1.12h3.28l.61,1.12h1.35l-3-5.16ZM68.27,72l1.59-3.24L71.49,72Zm1.07-4.28-2.13,4.22h-.62v1.93h1.14v-1h4.42v1h1.14V71.92h-.62L70.5,67.7Zm-14.4,5.16a2,2,0,0,0,1.21-.3.87.87,0,0,0,.31-.71v-.66a1,1,0,0,0-.24-.67,1.12,1.12,0,0,0-.76-.32,1,1,0,0,0,.67-.32.75.75,0,0,0,.19-.55V68.7a1,1,0,0,0-.25-.74,1.33,1.33,0,0,0-.88-.26H52.13a1.35,1.35,0,0,0-.8.2.94.94,0,0,0-.26.74V69l1,.19v-.64h2.64a.47.47,0,0,1,.34.1.45.45,0,0,1,.09.31v.43a.44.44,0,0,1-.09.3.42.42,0,0,1-.33.09H53.06v.84h1.75a.53.53,0,0,1,.35.1.44.44,0,0,1,.1.32v.49a.43.43,0,0,1-.1.31.51.51,0,0,1-.35.09H52v-.71L51,71.43v.44a1.09,1.09,0,0,0,.22.76,1.41,1.41,0,0,0,.93.23ZM35,67.7h-1.2v5.16h1l4.3-3.81v3.81h1.2V67.7h-1L35,71.51Z" transform="translate(-29.48 -5.24)"/><path class="cls-1" d="M71.61,5.24,72.74,22H71.61q-2.27-7.51-6.43-10.83a15.66,15.66,0,0,0-10-3.31A15.54,15.54,0,0,0,40,18.28a35.36,35.36,0,0,0-2.28,13.57,28.69,28.69,0,0,0,2.15,11.6A16.11,16.11,0,0,0,46.37,51a18.45,18.45,0,0,0,9.82,2.62,17,17,0,0,0,8.48-2.06q3.67-2.06,8.07-8.16l1.13.72a25.9,25.9,0,0,1-8.65,9.65,22,22,0,0,1-11.76,3q-12.24,0-19-9.1a26,26,0,0,1-5-15.92,28.36,28.36,0,0,1,3.3-13.56,24,24,0,0,1,9.11-9.58A24.67,24.67,0,0,1,54.56,5.24,23.25,23.25,0,0,1,65.1,7.85a5.8,5.8,0,0,0,2.19.8A2.4,2.4,0,0,0,69,8a5.72,5.72,0,0,0,1.35-2.72Zm187.85,6.18V22.35h7.78V24.9h-7.78V46.5c0,2.16.31,3.61.93,4.36A2.9,2.9,0,0,0,262.76,52a4.18,4.18,0,0,0,2.34-.75,5,5,0,0,0,1.75-2.19h1.41a11.57,11.57,0,0,1-3.6,5.36,7.76,7.76,0,0,1-4.8,1.8,6.46,6.46,0,0,1-3.28-.93,5.61,5.61,0,0,1-2.36-2.66,14,14,0,0,1-.76-5.32V24.9h-5.27V23.71A14,14,0,0,0,252.28,21,21.64,21.64,0,0,0,256,16.47a40.05,40.05,0,0,0,2.33-5ZM245.94,43q-1.33,6.6-5.27,10.13A12.65,12.65,0,0,1,232,56.68a12.83,12.83,0,0,1-9.89-4.77q-4.23-4.75-4.22-12.87c0-5.23,1.56-9.49,4.68-12.75a14.9,14.9,0,0,1,11.2-4.92A12.32,12.32,0,0,1,241.84,24c2.1,1.72,3.16,3.52,3.16,5.4a3,3,0,0,1-.89,2.23,3.48,3.48,0,0,1-2.5.86,3.89,3.89,0,0,1-3.24-1.38,5.8,5.8,0,0,1-.81-2.92,4.8,4.8,0,0,0-1.47-3.27,5.3,5.3,0,0,0-3.53-1.08,7.2,7.2,0,0,0-5.85,2.68,14.35,14.35,0,0,0-2.94,9.42,18.9,18.9,0,0,0,2.93,10.52A9,9,0,0,0,234.6,51,9.52,9.52,0,0,0,241,48.57c1.34-1.11,2.63-3.13,3.9-6.08Zm-55-8.1c0,5,1.17,8.82,3.6,11.64a11,11,0,0,0,8.54,4.21,9.31,9.31,0,0,0,5.7-1.8c1.61-1.19,2.95-3.25,4-6.16l1.13.72a17.26,17.26,0,0,1-4.43,9.07,11.87,11.87,0,0,1-9.2,4.1A13.4,13.4,0,0,1,190.05,52c-2.85-3.11-4.27-7.31-4.27-12.57,0-5.69,1.45-10.14,4.38-13.31a14.28,14.28,0,0,1,11-4.79A12.23,12.23,0,0,1,210.35,25q3.6,3.69,3.6,9.87Zm0-2.11h15.41a14.19,14.19,0,0,0-.76-4.51,7.25,7.25,0,0,0-2.71-3.2,6.88,6.88,0,0,0-3.76-1.16,7.52,7.52,0,0,0-5.4,2.34,10.22,10.22,0,0,0-2.78,6.53m-31.29-4.36q5.85-7,11.16-7.06a8,8,0,0,1,4.69,1.37,9.06,9.06,0,0,1,3.12,4.49,20.59,20.59,0,0,1,.8,6.69V48.14a11.59,11.59,0,0,0,.52,4.28,3,3,0,0,0,1.29,1.43,7.4,7.4,0,0,0,3.29.51v1.3H168v-1.3h.69a5.48,5.48,0,0,0,3.25-.72,3.65,3.65,0,0,0,1.3-2.09,21,21,0,0,0,.14-3.41V34.5c0-3-.39-5.22-1.17-6.6a4.27,4.27,0,0,0-4-2q-4.32,0-8.61,4.73V48.14a12.1,12.1,0,0,0,.4,4.17,3.23,3.23,0,0,0,1.4,1.55,8.72,8.72,0,0,0,3.61.5v1.3H148.59v-1.3h.74c1.68,0,2.84-.44,3.43-1.29s.88-2.51.88-4.93V35.77a52.31,52.31,0,0,0-.27-7.3,3.08,3.08,0,0,0-.83-1.79,2.3,2.3,0,0,0-1.52-.47,7.13,7.13,0,0,0-2.43.55l-.54-1.32,10-4.07h1.56Zm-37.6,0q5.85-7,11.16-7.06a8,8,0,0,1,4.69,1.37A9,9,0,0,1,141,27.23a20.92,20.92,0,0,1,.79,6.69V48.14a11.54,11.54,0,0,0,.53,4.28,3,3,0,0,0,1.29,1.43,7.35,7.35,0,0,0,3.28.51v1.3H130.45v-1.3h.69a5.52,5.52,0,0,0,3.25-.72,3.64,3.64,0,0,0,1.29-2.09,20.49,20.49,0,0,0,.15-3.41V34.5c0-3-.4-5.22-1.18-6.6a4.24,4.24,0,0,0-4-2q-4.32,0-8.62,4.73V48.14a12.38,12.38,0,0,0,.4,4.17,3.33,3.33,0,0,0,1.4,1.55,8.77,8.77,0,0,0,3.62.5v1.3H111v-1.3h.73c1.69,0,2.84-.44,3.44-1.29s.88-2.51.88-4.93V35.77a54.07,54.07,0,0,0-.27-7.3,3.14,3.14,0,0,0-.83-1.79,2.34,2.34,0,0,0-1.52-.47,7.08,7.08,0,0,0-2.43.55l-.55-1.32,10-4.07h1.56ZM93.23,21.37a14.81,14.81,0,0,1,12.15,5.75,17.6,17.6,0,0,1,3.89,11.27,21.18,21.18,0,0,1-2.15,9,15.2,15.2,0,0,1-14.28,9.24,14.12,14.12,0,0,1-12-6,18.7,18.7,0,0,1-3.75-11.35,20.18,20.18,0,0,1,2.27-9.11,15.53,15.53,0,0,1,6-6.68,15.16,15.16,0,0,1,7.85-2.18M92.1,23.74a7.55,7.55,0,0,0-3.87,1.14,8.06,8.06,0,0,0-3.14,4,19,19,0,0,0-1.2,7.37,25.76,25.76,0,0,0,2.89,12.54c1.92,3.51,4.47,5.28,7.62,5.28a7.13,7.13,0,0,0,5.82-2.91c1.53-1.94,2.28-5.27,2.28-10,0-5.92-1.26-10.57-3.82-14a7.84,7.84,0,0,0-6.58-3.49" transform="translate(-29.48 -5.24)"/><path class="cls-1" d="M278.17,48.71a4,4,0,0,1,4,4,4.05,4.05,0,1,1-4-4" transform="translate(-29.48 -5.24)"/><path class="cls-1" d="M281.94,22.07h.21v3.3h-.21V25.1a.8.8,0,0,0-.28-.69,1.6,1.6,0,0,0-.87-.14h-5a2.57,2.57,0,0,0-.77.07.58.58,0,0,0-.24.23,1.13,1.13,0,0,0-.14.53v.27h-.21v-3.3h.21v.28a.82.82,0,0,0,.28.69,1.71,1.71,0,0,0,.87.14h5a2.91,2.91,0,0,0,.77-.07.47.47,0,0,0,.24-.24,1,1,0,0,0,.14-.52Z" transform="translate(-29.48 -5.24)"/><path class="cls-1" d="M274.45,11.34l1.81-.09v.22a2.12,2.12,0,0,0-.68.17,1.12,1.12,0,0,0-.49.47,1.65,1.65,0,0,0-.16.76V14h5.89a1.66,1.66,0,0,0,.89-.15.91.91,0,0,0,.23-.67v-.27h.21v3.27h-.21v-.27a.79.79,0,0,0-.3-.7,1.74,1.74,0,0,0-.82-.12h-5.89V16a2.62,2.62,0,0,0,.08.76,1,1,0,0,0,.42.51,1.7,1.7,0,0,0,.83.25v.21l-1.81-.09Z" transform="translate(-29.48 -5.24)"/><path class="cls-1" d="M274.45,29.91h.21a1,1,0,0,0,.11.49,1,1,0,0,0,.4.36,9.35,9.35,0,0,0,.95.36l6.21,2.14v.23l-4.93,1.76L282.33,37v.2l-6.4,2.29-.84.32a.76.76,0,0,0-.32.32,1.07,1.07,0,0,0-.11.53h-.21V37.8h.21v.13a.68.68,0,0,0,.14.46.44.44,0,0,0,.33.16,3.8,3.8,0,0,0,.91-.25l4.32-1.51-3.67-1.28-.65.22-.51.19a2.22,2.22,0,0,0-.51.26.86.86,0,0,0-.32.47.94.94,0,0,0,0,.34h-.21V34h.21v.21a.67.67,0,0,0,.14.46.47.47,0,0,0,.37.15,3.73,3.73,0,0,0,1-.26l4.18-1.47-4.24-1.47a3.4,3.4,0,0,0-1-.25.46.46,0,0,0-.24.08.54.54,0,0,0-.16.21,1.71,1.71,0,0,0-.08.56h-.21Z" transform="translate(-29.48 -5.24)"/></svg>