<svg id="Layer_1" data-name="Layer 1" xmlns="http://www.w3.org/2000/svg" viewBox="0 0 1273.7 351.81"><defs><style>.cls-1{fill:#6323b2;}.cls-2{fill:#9037ff;}.cls-3{fill:#fff;}</style></defs><title>AIR_logo-02</title><path class="cls-1" d="M606.65,639.58s2.79,2.35,16.91-4.32,20.51-11.5,29.11-19.66c8.13-7.71,59.67-70.5,59.67-70.5s44.33-54.34,61.33-72.67,32.15-33.24,42.34-35c9.66-1.67,16.16,5.15,22.75,14.82s16.43,49.68,9.67,55S814.31,536.81,802,553.42c-21.92,29.6-42.09,58.83-42.09,58.83s-39.78,50.52-50.85,56.26-14.9,6.41-14.9,6.41-8.83,1.33-22.5,0-63-16.67-67.33-24S606.65,639.58,606.65,639.58Z" transform="translate(-290.68 -325.23)"/><path class="cls-2" d="M694.17,659.93c-37.26-20.9-59.5-61-95.5-103.5s-89-102.36-100-113.5c-10-10.17-20.42-19.41-20.42-19.41s-30.91-16.92-24.58-45.27,34.49-52.57,41-52.7,18.67-4,45.34,19,59,63,73,80.66,50.33,66.67,65.66,87.34,41.34,56.33,62.67,81,43.27,37.67,52,37.67C813,631.25,757.17,695.25,694.17,659.93Z" transform="translate(-290.68 -325.23)"/><path class="cls-3" d="M501.17,325.43s-38-2-22.5,101,92.66,178.78,96,182.5c42,46.75,94,64.5,119.5,66,0,0-42,19.5-208-60-176.26-84.42-199.5-216-195-245,0,0,1-37.5,29-39.5S501.17,325.43,501.17,325.43Z" transform="translate(-290.68 -325.23)"/><path class="cls-3" d="M906.17,479.43s-4.28,87.8-31.5,119C828.29,651.6,750.4,668.65,750.4,668.65s47.27-38.72,60.27-55.72,24-40,27.5-50,14-30.08,9.5-76c-3.76-38.63-25.41-49.36-25.41-49.36a17.32,17.32,0,0,1,5.4,2C847,450.05,906.17,479.43,906.17,479.43Z" transform="translate(-290.68 -325.23)"/><path class="cls-3" d="M986.79,596.65h-3.44l-5.18-17.17c-.42-1.42-.72-2.54-1.33-5.13-.65,2.74-.94,3.86-1.31,5.13l-5.09,17.17h-3.55l-8.46-26.11h3.46l5,15.89c.57,1.73.94,3.21,1.84,6.76,1-4.12.55-2.82,1.73-6.85l4.69-15.8h3.66l5,16.56c.4,1.37.7,2.69,1.47,6.09.71-3.05,1.07-4.32,1.57-6L992,570.54h3.3Z" transform="translate(-290.68 -325.23)"/><path class="cls-3" d="M1024.43,596.65H1021l-5.22-17.17c-.4-1.42-.71-2.54-1.31-5.13-.67,2.74-.94,3.86-1.33,5.13L1008,596.65h-3.56L996,570.54h3.45l5,15.89c.55,1.73.94,3.21,1.82,6.76,1-4.12.57-2.82,1.73-6.85l4.7-15.8h3.67l5,16.56c.4,1.37.71,2.69,1.47,6.09.72-3.05,1.06-4.32,1.57-6l5.23-16.65h3.31Z" transform="translate(-290.68 -325.23)"/><path class="cls-3" d="M1062.05,596.65h-3.45l-5.17-17.17c-.42-1.42-.72-2.54-1.33-5.13-.66,2.74-.94,3.86-1.31,5.13l-5.09,17.17h-3.55l-8.46-26.11h3.46l4.91,15.89c.57,1.73.94,3.21,1.88,6.76,1-4.12.56-2.82,1.73-6.85l4.7-15.8H1054l5,16.56c.4,1.37.7,2.69,1.47,6.09.71-3.05,1.07-4.32,1.57-6l5.24-16.65h3.3Z" transform="translate(-290.68 -325.23)"/><path class="cls-3" d="M1077.34,596.65h-4.16v-5.24h4.16Z" transform="translate(-290.68 -325.23)"/><path class="cls-3" d="M1088.56,565.58h-3.2v-5.23h3.2Zm0,31.08h-3.2V570.54h3.2Z" transform="translate(-290.68 -325.23)"/><path class="cls-3" d="M1097.7,575.47c2.09-3.72,4.7-5.64,9.25-5.64,5.07,0,9,2.64,9,9v17.78h-3.21V579.88c0-5.38-2.68-7.26-6.65-7.26-4.77,0-8.22,3.15-8.22,9.9v14.1h-3.22V570.54h3Z" transform="translate(-290.68 -325.23)"/><path class="cls-3" d="M1132.39,573.1H1127v16.55c0,2.64-.1,4.37,3.3,4.37a18.36,18.36,0,0,0,2.09-.15v2.75a17.82,17.82,0,0,1-2.82.19c-2.29,0-4.83-.45-5.44-3-.26-1.06-.3-1.83-.3-5.73v-15h-4.63v-2.59h4.62v-8H1127v8h5.39Z" transform="translate(-290.68 -325.23)"/><path class="cls-3" d="M1147.57,597.53c-7.26,0-12-5.34-12-13.62s4.93-14.09,11.93-14.09c7.73,0,11.49,6.4,11.49,13.61v.94h-20.15c0,5.49,2.54,10.57,8.84,10.57,4.17,0,7-2.34,8-6.86h3.1C1157.64,593.85,1153.72,597.53,1147.57,597.53Zm-.15-25c-5.69,0-8,4.41-8.59,9.29h16.92c-.31-5.81-3.46-9.31-8.33-9.31Z" transform="translate(-290.68 -325.23)"/><path class="cls-3" d="M1176.72,573.38h-.87a8.45,8.45,0,0,0-8.32,6.19,23.39,23.39,0,0,0-.61,6.46v10.66h-3.15V570.54h3v6.25c2.18-4.78,4.7-6.58,10-6.65Z" transform="translate(-290.68 -325.23)"/><path class="cls-3" d="M1183.27,575.47c2.07-3.72,4.7-5.64,9.23-5.64,5.09,0,9,2.64,9,9v17.78h-3.19V579.88c0-5.38-2.69-7.26-6.65-7.26-4.78,0-8.23,3.15-8.23,9.9v14.1h-3.2V570.54h3Z" transform="translate(-290.68 -325.23)"/><path class="cls-3" d="M1218.1,597.53c-7.26,0-12-5.34-12-13.62s4.92-14.09,11.93-14.09c7.72,0,11.48,6.4,11.48,13.61v.94h-20.16c0,5.49,2.54,10.57,8.83,10.57,4.17,0,7-2.34,8-6.86h3.1C1228.12,593.85,1224.25,597.53,1218.1,597.53Zm-.15-25c-5.64,0-8,4.41-8.58,9.29h16.92c-.31-5.81-3.46-9.31-8.34-9.31Z" transform="translate(-290.68 -325.23)"/><path class="cls-3" d="M1244.31,573.1h-5.39v16.55c0,2.64-.1,4.37,3.3,4.37a18.19,18.19,0,0,0,2.09-.15v2.75a17.74,17.74,0,0,1-2.82.19c-2.28,0-4.82-.45-5.43-3-.26-1.06-.3-1.83-.3-5.73v-15h-4.63v-2.59h4.63v-8h3.15v8h5.38Z" transform="translate(-290.68 -325.23)"/><path class="cls-3" d="M1261.67,584.25h-12.75v-3.1h12.75Z" transform="translate(-290.68 -325.23)"/><path class="cls-3" d="M1290.62,596.5a7.34,7.34,0,0,1-2.54.4c-3.1,0-3.4-2.39-3.4-4.77a11,11,0,0,1-9.86,5.22c-5.33,0-8.53-2.73-8.53-7.31,0-4.77,3.25-7.41,9.7-8.07,4.12-.41,6.35-.51,7.62-1.37.66-.46.93-1.17.93-2.49,0-4.32-2.64-5.64-6.81-5.64-4.41,0-6.7,1.88-7.1,6.14h-3.05c.26-5.58,4.06-8.78,10.51-8.78,5.89,0,9.6,2.59,9.6,7.51v14.22c0,1.58,0,2.64,1.72,2.64a3.56,3.56,0,0,0,1.22-.15Zm-13.16-12.22c-3.3.46-7.77,1.22-7.77,5.49,0,3,2.34,5,6,5,4.78,0,8.89-3,8.89-8v-4.26c-1,1.09-3.65,1.34-7.16,1.8Z" transform="translate(-290.68 -325.23)"/><path class="cls-3" d="M1309.71,578.15c-.3-3.95-2.82-5.64-7.06-5.64-3.76,0-6.1,1.68-6.1,4.33,0,3.24,2.55,3.8,7.52,4.92,4.27.94,9.7,2.28,9.7,7.72,0,4.77-4.16,8-10.34,8-6.71,0-10.57-3.34-10.72-9.34h3.1c0,4.37,2.9,6.7,7.72,6.7,4.26,0,7.11-2,7.11-5.07,0-3.66-4.42-4.48-7.16-5.13-4.27-1-10.06-1.69-10.06-7.42,0-4.57,3.66-7.37,9.6-7.37,5.74,0,9.86,2.75,9.86,8.33Z" transform="translate(-290.68 -325.23)"/><path class="cls-3" d="M1334.14,578.15c-.31-3.95-2.82-5.64-7.07-5.64-3.75,0-6.09,1.68-6.09,4.33,0,3.24,2.54,3.8,7.47,4.92,4.26.94,9.7,2.28,9.7,7.72,0,4.77-4.17,8-10.33,8-6.7,0-10.57-3.34-10.72-9.34h3.11c0,4.37,2.89,6.7,7.72,6.7,4.27,0,7.1-2,7.1-5.07,0-3.66-4.41-4.48-7.16-5.13-4.26-1-10-1.69-10-7.42,0-4.57,3.65-7.37,9.6-7.37,5.74,0,9.85,2.75,9.85,8.33Z" transform="translate(-290.68 -325.23)"/><path class="cls-3" d="M1366.33,583.7c0,8.45-4.7,13.71-12.29,13.71s-12.44-5.39-12.44-13.82,4.88-13.81,12.44-13.81S1366.33,575.16,1366.33,583.7Zm-21.48-.11c0,6.85,3.51,11.18,9.24,11.18,5.53,0,9-4.33,9-11.13s-3.55-11.17-9.13-11.17-9.15,4.39-9.15,11.12Z" transform="translate(-290.68 -325.23)"/><path class="cls-3" d="M1382,597.41c-7.32,0-12.1-5.34-12.1-13.56,0-8.53,4.83-14.1,12.22-14.1,6,0,10,3.35,10.72,9h-3.25c-.82-4.12-3.4-6.35-7.42-6.35-5.48,0-8.93,4.37-8.93,11.18s3.34,11.17,8.62,11.17c4.37,0,7.32-2.75,8-7.47h3.2C1392.17,593.24,1388.32,597.41,1382,597.41Z" transform="translate(-290.68 -325.23)"/><path class="cls-3" d="M1400.76,565.58h-3.2v-5.23h3.2Zm0,31.08h-3.2V570.54h3.2Z" transform="translate(-290.68 -325.23)"/><path class="cls-3" d="M1429.81,596.5a7.34,7.34,0,0,1-2.54.4c-3.1,0-3.4-2.39-3.4-4.77a10.94,10.94,0,0,1-9.86,5.22c-5.33,0-8.53-2.73-8.53-7.31,0-4.77,3.25-7.41,9.71-8.07,4.1-.41,6.34-.51,7.61-1.37.66-.46.94-1.17.94-2.49,0-4.32-2.64-5.64-6.81-5.64-4.41,0-6.7,1.88-7.1,6.14h-3c.25-5.58,4.06-8.78,10.51-8.78,5.89,0,9.6,2.59,9.6,7.51v14.22c0,1.58-.05,2.64,1.72,2.64a3.65,3.65,0,0,0,1.23-.15Zm-13.2-12.22c-3.3.46-7.78,1.22-7.78,5.49,0,3,2.34,5,6,5,4.77,0,8.88-3,8.88-8v-4.26c-1,1.09-3.6,1.34-7.1,1.8Z" transform="translate(-290.68 -325.23)"/><path class="cls-3" d="M1443.67,573.1h-5.39v16.55c0,2.64-.1,4.37,3.31,4.37a18,18,0,0,0,2.08-.15v2.75a17.82,17.82,0,0,1-2.82.19c-2.29,0-4.82-.45-5.43-3-.26-1.06-.31-1.83-.31-5.73v-15h-4.63v-2.59h4.63v-8h3.14v8h5.39Z" transform="translate(-290.68 -325.23)"/><path class="cls-3" d="M1451.54,565.58h-3.2v-5.23h3.2Zm0,31.08h-3.2V570.54h3.2Z" transform="translate(-290.68 -325.23)"/><path class="cls-3" d="M1481.09,583.7c0,8.45-4.69,13.71-12.29,13.71s-12.44-5.39-12.44-13.82,4.88-13.81,12.44-13.81S1481.09,575.16,1481.09,583.7Zm-21.48-.11c0,6.85,3.51,11.18,9.25,11.18,5.53,0,9-4.33,9-11.13s-3.56-11.17-9.14-11.17-9.15,4.39-9.15,11.12Z" transform="translate(-290.68 -325.23)"/><path class="cls-3" d="M1488.91,575.47c2.09-3.72,4.7-5.64,9.25-5.64,5.07,0,9,2.64,9,9v17.78H1504V579.88c0-5.38-2.68-7.26-6.65-7.26-4.77,0-8.22,3.15-8.22,9.9v14.1h-3.21V570.54h3Z" transform="translate(-290.68 -325.23)"/><path class="cls-3" d="M1519.33,596.65h-4.16v-5.24h4.16Z" transform="translate(-290.68 -325.23)"/><path class="cls-3" d="M1540.66,573.38h-.87a8.45,8.45,0,0,0-8.32,6.19,23.81,23.81,0,0,0-.61,6.46v10.66h-3.15V570.54h3v6.25c2.18-4.78,4.7-6.58,10-6.65Z" transform="translate(-290.68 -325.23)"/><path class="cls-3" d="M1564.38,596.65h-3v-4.83a9.52,9.52,0,0,1-9.19,5.63c-5.44,0-9-3.14-9-9.5V570.54h3.2v16c0,5.13,1.58,8.08,6.58,8.08,5.22,0,8.17-4.37,8.17-9.65V570.54h3.15Z" transform="translate(-290.68 -325.23)"/><path class="cls-3" d="M994.38,443.32h-4l-4.7-12.08H968.06l-4.7,12.1h-4l15.57-38.59h4ZM977,408.24l-7.78,20h15.35Z" transform="translate(-290.68 -325.23)"/><path class="cls-3" d="M1008.75,444.13c-7.78,0-12.86-5.67-12.86-14.43,0-9.08,5.14-15,13-15,6.43,0,10.65,3.57,11.41,9.57h-3.46c-.87-4.38-3.62-6.76-7.89-6.76-5.84,0-9.52,4.65-9.52,11.89s3.57,11.89,9.19,11.89c4.65,0,7.79-2.92,8.49-7.94h3.4C1019.56,439.7,1015.46,444.13,1008.75,444.13Z" transform="translate(-290.68 -325.23)"/><path class="cls-3" d="M1036.8,444.13c-7.78,0-12.86-5.67-12.86-14.43,0-9.08,5.13-15,13-15,6.43,0,10.65,3.57,11.4,9.57h-3.46c-.86-4.38-3.62-6.76-7.89-6.76-5.83,0-9.51,4.65-9.51,11.89s3.57,11.89,9.19,11.89c4.65,0,7.78-2.92,8.49-7.94h3.4C1047.61,439.7,1043.5,444.13,1036.8,444.13Z" transform="translate(-290.68 -325.23)"/><path class="cls-3" d="M1078.2,429.54c0,9-5,14.59-13.08,14.59s-13.24-5.73-13.24-14.7,5.19-14.7,13.24-14.7S1078.2,420.46,1078.2,429.54Zm-22.82-.11c0,7.3,3.73,11.89,9.83,11.89,5.9,0,9.62-4.59,9.62-11.83s-3.78-11.89-9.72-11.89S1055.38,422.24,1055.38,429.43Z" transform="translate(-290.68 -325.23)"/><path class="cls-3" d="M1106.19,452.24v-8.87h-23.08V415.54h3.41v24.92h15.86V415.54h3.4v24.92h3.84v11.78Z" transform="translate(-290.68 -325.23)"/><path class="cls-3" d="M1132.56,443.32V419.54l-15,23.78h-4.22V415.54h3.41v23.78l15-23.78H1136v27.78Z" transform="translate(-290.68 -325.23)"/><path class="cls-3" d="M1166.77,443.16a7.79,7.79,0,0,1-2.7.43c-3.3,0-3.62-2.54-3.62-5.08a11.64,11.64,0,0,1-10.48,5.57c-5.68,0-9.08-2.92-9.08-7.78,0-5.08,3.45-7.89,10.32-8.6,4.38-.43,6.75-.54,8.1-1.46.71-.48,1-1.24,1-2.64,0-4.6-2.81-6-7.24-6-4.71,0-7.14,2-7.57,6.54h-3.24c.27-5.95,4.32-9.35,11.18-9.35,6.27,0,10.22,2.75,10.22,8v15.14c0,1.67-.06,2.81,1.84,2.81a4,4,0,0,0,1.29-.16Zm-14-13c-3.51.48-8.27,1.29-8.27,5.83,0,3.25,2.49,5.3,6.38,5.3,5.08,0,9.46-3.24,9.46-8.54v-4.51c-1.08,1.14-3.84,1.41-7.57,1.9Z" transform="translate(-290.68 -325.23)"/><path class="cls-3" d="M1193.31,452.24v-8.87h-23.08V415.54h3.41v24.92h15.83V415.54h3.41v24.92h3.83v11.78Z" transform="translate(-290.68 -325.23)"/><path class="cls-3" d="M1219.68,443.32V419.54l-15,23.78h-4.21V415.54h3.4v23.78l15-23.78h4.21v27.78Z" transform="translate(-290.68 -325.23)"/><path class="cls-3" d="M1247.56,443.32V431.65h-6.91l-9.79,11.67h-4.43l10.33-11.78c-4.92-.32-8.27-3.19-8.27-8s3.29-8,8.43-8h14v27.78Zm-9.83-24.91c-3.73,0-5.84,2-5.84,5.19s2.11,5.18,5.84,5.18h9.83V418.41Z" transform="translate(-290.68 -325.23)"/><path class="cls-3" d="M982.38,508.17V484.39l-15,23.78h-4.21V480.39h3.4v23.78l15-23.78h4.21v27.78Z" transform="translate(-290.68 -325.23)"/><path class="cls-3" d="M1011.38,508.17V495.09H995.51v13.08h-3.4V480.39h3.4v11.85h15.87V480.39h3.4v27.78Z" transform="translate(-290.68 -325.23)"/><path class="cls-3" d="M1031.67,483.24v24.91h-3.41V483.24h-10.32v-2.87h24v2.87Z" transform="translate(-290.68 -325.23)"/><path class="cls-3" d="M1055.45,509.09c-7.73,0-12.76-5.67-12.76-14.48s5.24-15,12.7-15c8.22,0,12.22,6.81,12.22,14.48v1h-21.46c0,5.84,2.7,11.25,9.4,11.25,4.44,0,7.41-2.49,8.49-7.3h3.3C1066.15,505.24,1062,509.09,1055.45,509.09Zm-.17-26.64c-6,0-8.48,4.7-9.13,9.89h18c-.38-6.16-3.73-9.89-8.92-9.89Z" transform="translate(-290.68 -325.23)"/><path class="cls-3" d="M1075.49,485.74a10.26,10.26,0,0,1,10-6.16c7.57,0,12.54,5.89,12.54,14.81S1093,509,1085.55,509c-4.49,0-8-2-9.84-6v15.51h-3.33V480.39h3.08Zm.11,8.6c0,7.29,3.68,11.83,9.51,11.83s9.41-4.64,9.41-11.78-3.68-12-9.51-12S1075.6,486.88,1075.6,494.34Z" transform="translate(-290.68 -325.23)"/><path class="cls-3" d="M1122.46,508.17V495.09h-15.84v13.08h-3.4V480.39h3.4v11.85h15.84V480.39h3.4v27.78Z" transform="translate(-290.68 -325.23)"/><path class="cls-3" d="M1143.53,509.09c-7.73,0-12.75-5.67-12.75-14.48s5.24-15,12.7-15c8.21,0,12.21,6.81,12.21,14.48v1h-21.45c0,5.84,2.7,11.25,9.4,11.25,4.43,0,7.41-2.49,8.49-7.3h3.25C1154.23,505.24,1150.07,509.09,1143.53,509.09Zm-.16-26.64c-6,0-8.48,4.7-9.13,9.89h18c-.38-6.16-3.73-9.89-8.91-9.89Z" transform="translate(-290.68 -325.23)"/><path class="cls-3" d="M1169.85,483.24v24.91h-3.4V483.24h-10.33v-2.87h24v2.87Z" transform="translate(-290.68 -325.23)"/><path class="cls-3" d="M1194.38,495h-13.57v-3.3h13.57Z" transform="translate(-290.68 -325.23)"/><path class="cls-3" d="M1204.06,485.74a10.24,10.24,0,0,1,9.94-6.16c7.57,0,12.54,5.89,12.54,14.81s-5,14.65-12.43,14.65c-4.48,0-7.94-2-9.84-6v15.51H1201V480.39h3.08Zm.11,8.6c0,7.29,3.67,11.83,9.51,11.83,5.67,0,9.4-4.64,9.4-11.78s-3.67-12-9.51-12S1204.17,486.88,1204.17,494.34Z" transform="translate(-290.68 -325.23)"/><path class="cls-3" d="M1256.21,508a7.53,7.53,0,0,1-2.7.43c-3.3,0-3.62-2.54-3.62-5.08a11.66,11.66,0,0,1-10.49,5.57c-5.67,0-9.08-2.92-9.08-7.78,0-5.08,3.46-7.89,10.32-8.6,4.38-.43,6.76-.54,8.11-1.46.7-.48,1-1.24,1-2.64,0-4.6-2.81-6-7.24-6-4.7,0-7.13,2-7.56,6.54h-3.25c.27-6,4.33-9.35,11.19-9.35,6.27,0,10.22,2.75,10.22,8v15.13c0,1.67-.06,2.81,1.83,2.81a4.11,4.11,0,0,0,1.3-.16Zm-14-13c-3.52.48-8.27,1.29-8.27,5.83,0,3.25,2.49,5.3,6.38,5.3,5.08,0,9.45-3.24,9.45-8.54V493c-1.13,1.2-3.88,1.46-7.61,1.95Z" transform="translate(-290.68 -325.23)"/><path class="cls-3" d="M1269.61,479.58c5.73,0,10.32,2.06,10.32,7.52a6.28,6.28,0,0,1-4.48,6.16v.1a6.2,6.2,0,0,1,5.4,6.54c0,6.06-5.29,9.08-11.18,9.08-7.3,0-11.14-3.73-11.52-9.51h3.41c.54,4,2.7,6.65,8.16,6.65,6.16,0,7.57-3.24,7.57-6.11s-1.68-5-6-5h-4.65v-2.6h3.84c3.24,0,5.89-1.78,5.89-5.08,0-2.05-1-4.86-6.86-4.86-5.08,0-7.19,2.54-7.52,6h-3.35C1259.23,481.64,1264.1,479.58,1269.61,479.58Z" transform="translate(-290.68 -325.23)"/><path class="cls-3" d="M1289.38,485.74a10.24,10.24,0,0,1,9.94-6.16c7.57,0,12.54,5.89,12.54,14.81s-5,14.65-12.43,14.65c-4.49,0-8-2-9.84-6v15.51h-3.29V480.39h3.08Zm.1,8.6c0,7.29,3.68,11.83,9.52,11.83,5.67,0,9.4-4.64,9.4-11.78s-3.68-12-9.51-12-9.45,4.49-9.45,11.95Z" transform="translate(-290.68 -325.23)"/><path class="cls-3" d="M1341.49,508a7.58,7.58,0,0,1-2.71.43c-3.29,0-3.62-2.54-3.62-5.08a11.64,11.64,0,0,1-10.48,5.57c-5.68,0-9.08-2.92-9.08-7.78,0-5.08,3.46-7.89,10.32-8.6,4.38-.43,6.76-.54,8.11-1.46.7-.48,1-1.24,1-2.64,0-4.6-2.81-6-7.24-6-4.7,0-7.13,2-7.57,6.54H1317c.27-6,4.32-9.35,11.19-9.35,6.27,0,10.21,2.75,10.21,8v15.13c0,1.67,0,2.81,1.84,2.81a4.11,4.11,0,0,0,1.3-.16Zm-14.06-13c-3.51.48-8.26,1.29-8.26,5.83,0,3.25,2.48,5.3,6.37,5.3,5.08,0,9.46-3.24,9.46-8.54V493c-1.08,1.2-3.84,1.46-7.57,1.95Z" transform="translate(-290.68 -325.23)"/><path class="cls-3" d="M1357.16,509c-10.22,0-12.92-8.21-12.92-16.8,0-5.36.76-12,3.46-16.11,2.49-3.84,5.89-5.35,11.19-5.68l2.59-.16c2.87-.16,3.57-.54,4-1.46h3.78c-.59,3.3-2.7,4.17-7.51,4.49l-4.11.27c-6.27.43-9.45,4.43-10.64,13h.16a11.44,11.44,0,0,1,10.32-6.29c7.46,0,12.59,5.46,12.59,14.27S1364.89,509,1357.16,509Zm.16-25.88c-5.73,0-9.68,4.43-9.68,11.4s4,11.62,9.52,11.62,9.51-4.76,9.51-11.62-4-11.4-9.35-11.4Z" transform="translate(-290.68 -325.23)"/><path class="cls-3" d="M1400.12,494.39c0,9-5,14.59-13.08,14.59s-13.24-5.72-13.24-14.7,5.19-14.7,13.24-14.7S1400.12,485.31,1400.12,494.39Zm-22.86-.11c0,7.3,3.73,11.89,9.84,11.89,5.89,0,9.62-4.59,9.62-11.83s-3.79-11.89-9.73-11.89-9.73,4.65-9.73,11.79Z" transform="translate(-290.68 -325.23)"/><path class="cls-3" d="M1414.77,483.24v24.91h-3.39V483.24h-10.32v-2.87h24v2.87Z" transform="translate(-290.68 -325.23)"/><path class="cls-3" d="M1436.11,496.61c-5.62,0-8.81-2.49-8.81-9v-7.25h3.41V488c0,5.41,3.4,5.52,6.11,5.52a28,28,0,0,0,8.81-1.68V480.39h3.4v27.78h-3.4V494.93A31.51,31.51,0,0,1,1436.11,496.61Z" transform="translate(-290.68 -325.23)"/><path class="cls-3" d="M1474.48,508.17V484.39l-15,23.78h-4.22V480.39h3.41v23.78l15-23.78h4.22v27.78Z" transform="translate(-290.68 -325.23)"/><path class="cls-3" d="M1508.38,508.17h-4.27l-10.73-14.64-5.68,5.24v9.4h-3.4V480.39h3.4v14.22l15.46-14.22h4.54l-11.82,10.85Z" transform="translate(-290.68 -325.23)"/><path class="cls-3" d="M1536.25,494.39c0,9-5,14.59-13.08,14.59s-13.24-5.72-13.24-14.7,5.19-14.7,13.24-14.7S1536.25,485.31,1536.25,494.39Zm-22.87-.15c0,7.3,3.73,11.89,9.84,11.89,5.89,0,9.62-4.59,9.62-11.83s-3.79-11.89-9.73-11.89S1513.38,487.1,1513.38,494.24Z" transform="translate(-290.68 -325.23)"/><path class="cls-3" d="M1554.38,508.17h-13V480.39h13c5.67,0,8.91,2.33,8.91,6.6a6.21,6.21,0,0,1-4.81,6.37v.11c3.68.65,5.9,2.92,5.9,6.92C1564.38,505.42,1560.79,508.17,1554.38,508.17Zm-.4-24.93h-9.24v9.08H1554c3.84,0,5.89-1.68,5.89-4.49C1559.87,484.83,1557.92,483.24,1554,483.24Zm0,11.73h-9.24v10.32H1554c4.75,0,7-1.79,7-5.3,0-3.17-2.35-5-7-5Z" transform="translate(-290.68 -325.23)"/></svg>