<svg xmlns="http://www.w3.org/2000/svg" viewBox="0 0 2047.28 604.65"><defs><style>.cls-1{fill:#fff;}</style></defs><title>interfax</title><g id="Layer_2" data-name="Layer 2"><g id="Layer_1-2" data-name="Layer 1"><path class="cls-1" d="M12.15,520.87H38.08v83.78H12.15Zm85.69,0h24.27l31.45,46.31V520.87H178v83.78H153.55l-31.29-46.07v46.07H97.84Zm132.41,0H309v20.74H282.59v63H256.67v-63H230.25Zm131.39,0H431v17.94H387.59v13.27h40.34v17.08H387.59v16.46h44.67v19H361.65Zm125.91,83.78V520.87h43.21c8,0,14.14.65,18.36,2.06a19.49,19.49,0,0,1,10.28,7.63,23,23,0,0,1,3.86,13.58,22.22,22.22,0,0,1-11.16,20.2,31.72,31.72,0,0,1-9.11,3.35,27.12,27.12,0,0,1,6.75,3.07,25.31,25.31,0,0,1,4.12,4.43,31.86,31.86,0,0,1,3.61,5.21l12.66,24.27H540.87L526.95,579c-1.76-3.35-3.35-5.49-4.74-6.49a10.9,10.9,0,0,0-6.4-1.93h-2.28v34Zm26-49.89h11a39.27,39.27,0,0,0,6.91-1.12,6.88,6.88,0,0,0,4.21-2.61,7.69,7.69,0,0,0,1.68-4.84,7.58,7.58,0,0,0-2.61-6.2c-1.7-1.45-5-2.17-9.71-2.17H513.52Zm105.8-33.89h64.06v18.05H645.31v14.53h32.59v16.92H645.31v34.27h-26Zm159.47,70H749.47l-4.15,13.79H718.89l31.46-83.78h28.38l31.37,83.78H783Zm-5.5-18.17-9.07-30.13L755,572.69Zm80.35-51.82h28.52L897,546.65l14.43-25.78H939.7l-26.08,40.56,28.56,43.22H913l-16.48-26.93-16.7,26.93H850.93l29-43.67ZM2044.45,264.48l-56.78,10q-2.87-16.94-13.2-25.46c-6.77-5.7-15.66-8.59-26.65-8.59-14.45,0-26,5-34.68,15.05s-13,26.71-13,50.12q0,39.17,13.15,55.22c8.78,10.78,20.48,16.11,35.23,16.11q16.5,0,27.09-9.47c7-6.35,12-17.31,14.88-32.85l56.78,9.48q-8.87,39.71-34,60c-16.7,13.52-39.19,20.26-67.26,20.26-32,0-57.43-10.12-76.44-30.39s-28.48-48.29-28.48-84.15q0-54.44,28.6-84.72t77.34-30.28c26.7,0,47.77,5.73,63.59,17.2C2026.29,223.52,2037.68,241,2044.45,264.48ZM1718.18,419V324.27c8.45,0,14.85,1.84,19.08,5.45s9.32,11.82,15.16,24.55L1778.09,419h61.54l-28.73-61.92c-.82-1.53-1.6-3-2.24-4.32q-18.78-39.94-46-47.52c12.56-4.67,22.18-17.12,28.91-37.18,4.88-15,9.46-23.94,13.67-27q6.32-4.3,29.12-4.32l-.22-38.55q-16.24-1-22.71-1c-14.22,0-25.65,3-34.45,9.09s-16.76,19.82-24.13,41.39q-8.4,24.28-14.34,31.53c-4,4.77-10.65,7.73-20.31,8.83V198.91h-57.89V419Zm-155.29,0H1628V310.87c0-35.63,2.2-59-12.7-82s-44.4-32.13-65.25-32.13H1430.85c-11.16.46-8.54-13-7.65-15.67,28.19-106.56,51-137.92,89.55-134.76,16.6,2.23,26.88,2.71,34.51,12.08,6.26,7.61,8.47,8.51,20.58-9.85,7.55-12.54,13.42-22.37,17.91-30,4-7.18,14.34-16.57-.9-18.35-183.15-4-185.8,68.51-248.45,187.61-6.73,11.18-13.93,10.72-35,10.72h-61.31c-82.88,0-125.86,64.91-130.73,101.19-4.06,21.94-6.28,40.75,4.49,64,8.5,17.45,29.06,41.19,59.53,54.6a11.61,11.61,0,0,0,13.34-3.13c9-8.06,36.81-32.65,44.84-39,4.9-4.49-.9-7.13-4.49-7.61-51.48-6.23-70.26-20.15-79.27-54.16-2.69-25.52,9.4-82.39,101.65-83.31,37.14.93,67.22-3.54,53.27,29.61-50.13,124.43-61.78,147.25-114.13,248C1156.87,555.32,1117.5,562,1053,541.89c-16.81-5.25-22,6.34-24.33,11.31-3.39,7.41-9.42,20.93-11.72,25.67-3.57,7.33-.66,9.83,4.51,9.78,90-.9,179.26-18.11,247.73-96,64.08-81.89,78.85-147.71,120.9-231,6.81-14.77,16.68-28.19,33.71-28.19h101.08c32.32,0,38,13.42,38,30.88-23.25-7.16-43-10.32-70.69-7.16-59.59,6.25-97.2,30.46-99.85,84.18.47,40.29,39.36,81.94,107.87,80.57,28.42,1.34,47.58-2.66,62.67-18.38Zm-111.5-79.92c-1.35-42.11,65.42-63.59,111.5-39.84v78.92C1511.9,399.42,1454.13,380.61,1451.4,339.09ZM1064.33,223.15q-26.62-30-64.64-30a76.65,76.65,0,0,0-39.81,10.62,84.26,84.26,0,0,0-28.4,27V198.74h-54v302h57.89V390.85q16.33,17.51,31,24.66a73.77,73.77,0,0,0,32.87,7.21q38,0,64.86-30.49c17.77-20.35,26.8-48.84,26.8-85.55C1090.9,271,1082,243.15,1064.33,223.15Zm-45.88,137.58c-9,10.9-20.09,16.29-33.53,16.29-13.95,0-25.77-5.91-35.56-17.75s-14.55-30.13-14.55-55c0-21.61,4.66-38,14-48.93s20.91-16.52,35.07-16.52q20.25,0,34,16.84c9.23,11.2,13.77,28.38,13.77,51.54C1031.73,332,1027.35,349.87,1018.45,360.73ZM808.56,346.91s-10.26,22.6-30.28,32.58c-7.43,3.71-16.81,5.58-27.78,5.58-19.39,0-34.31-7.26-45.47-22.19a75.52,75.52,0,0,1-14.65-36.34h166s7-59.75-23-98c-20.29-25.82-47.48-39.75-82.92-39.75-36.36,0-65.6,12.66-87,37.58-19.66,22.78-29.59,51.27-29.59,84.71,0,32.54,9.91,60.7,29.59,83.77,21.63,25.56,51,38.54,87,38.54,25.32,0,47.58-7,66.24-20.6,34.06-24.94,47.34-65.88,47.34-65.88ZM711.48,252c10.86-10,23.76-14.87,39.44-14.87s28.34,5.5,38.25,16.89c6.16,7.2,9.4,15.42,11.39,24.18H695C698.54,267.89,703.81,259.11,711.48,252ZM566.66,198.91H448.86v68.84l58.91-22.65V419.25h58.89V245.1l58.95,22.65V198.91Zm-337.71,0h58v81.55h83V198.91h58V419h-58V327.24h-83V419h-58ZM148.23,385.79V419h54.58V198.91H143.9V299.27q0,36.59-4.51,50.16a41.33,41.33,0,0,1-16.64,21.83,47.72,47.72,0,0,1-27.43,8.23c-8,0-14.77-1.91-20.44-5.76a32.64,32.64,0,0,1-12.31-16.16c-2.42-6.9-3.71-22.2-3.71-45.79V198.91H0v137q0,25.27,3.22,38.82A64.39,64.39,0,0,0,14.73,399c5.58,7.11,13.69,13,24.5,17.61a90.69,90.69,0,0,0,35.64,6.83Q119,423.39,148.23,385.79Z"/></g></g></svg>