<svg id="Слой_1" data-name="Слой 1" xmlns="http://www.w3.org/2000/svg" viewBox="0 0 483.66 62.87"><defs><style>.cls-1,.cls-2,.cls-3{fill:#fff;}.cls-2,.cls-3{isolation:isolate;}.cls-2{font-size:8.22px;font-family:Tahoma-Bold, Tahoma;font-weight:700;}.cls-3{font-size:7.3px;font-family:Tahoma, Tahoma;}</style></defs><title>kdelo</title><path class="cls-1" d="M484,7.47h-1.21l.93-1.86h0ZM484.43,5V4.87l-.09-.09h-.93s-.1,0-.1.09a.09.09,0,0,1-.09.09l-2.05,3.81a.32.32,0,0,1-.09.19v.09a.09.09,0,0,1,.09.1h.75a.09.09,0,0,0,.09-.1c0-.09,0-.09.09-.09l.47-.84h1.58l.09.84v.09h.93V8.77ZM479.59,8.4h-1.76l.18-.18c.1-.1.1-.19.19-.28s.09-.19.18-.37.1-.28.19-.47.19-.46.28-.65.19-.56.28-.93h1Zm1.3.19V8.5l-.09-.1h-.37L481,5.05V4.87a.36.36,0,0,0-.19-.09h-2.23c-.09,0-.19,0-.19.09a.31.31,0,0,0-.09.18,10.54,10.54,0,0,1-.28,1,4.64,4.64,0,0,1-.28.74,1.36,1.36,0,0,0-.18.56c-.1.19-.1.28-.19.37s-.09.19-.18.28-.1.19-.19.28h-.28l-.09.09L476.34,10v.1h.74V10l.19-1h2.88L480,10v.1h.75V10Zm-5.39-1a1.74,1.74,0,0,1-.28.46l-.37.37a1.11,1.11,0,0,1-.56.1,1.13,1.13,0,0,1-.56-.1l-.27-.28c-.1-.09-.1-.28-.1-.46a1.69,1.69,0,0,1,.1-.65,1.36,1.36,0,0,1,.18-.56,2.15,2.15,0,0,1,.28-.47l.37-.37a1,1,0,0,1,.56-.09,1.22,1.22,0,0,1,.56.09l.28.28a.72.72,0,0,1,.09.47,1.89,1.89,0,0,1-.09.65,1.43,1.43,0,0,1-.19.56m1.12-1.68a.87.87,0,0,0-.28-.65c-.09-.19-.28-.28-.56-.37a2.68,2.68,0,0,0-.84-.09A2.85,2.85,0,0,0,474,5a2,2,0,0,0-.74.47,4.75,4.75,0,0,0-.56.74,2.82,2.82,0,0,0-.28.93,4.27,4.27,0,0,0-.09,1,.82.82,0,0,0,.28.65c.09.19.28.28.56.38a2.61,2.61,0,0,0,.83.09,2.56,2.56,0,0,0,.93-.19,2.11,2.11,0,0,0,.75-.46,6.36,6.36,0,0,0,.56-.75,2.68,2.68,0,0,0,.27-.93,1.34,1.34,0,0,0,.1-1m-4-1h0l-2.14-.09c-.09,0-.19,0-.19.09s-.09.09-.09.18L469.55,9v.09h.74V9l.65-3.53h1.49l.1-.1V5.05c.18,0,.18-.09.09-.18M467.78,5V4.87l-.09-.09H464.9l-.09.09a.09.09,0,0,1-.1.09v.47c0,.09,0,.09.1.09h1.86l-2.14,3.35v.18h.93l.09-.09,2.05-3.25.09-.1a.09.09,0,0,1,.09-.09V5m-5,1.86c-.09,0-.28.09-.37.09h-.28c-.09,0-.09-.09-.19-.09s-.09-.09-.09-.18V6.36c0-.1.09-.19.09-.28s.1-.19.19-.28l.19-.19c.09,0,.18-.09.28-.09a.33.33,0,0,1,.27.09c.1,0,.1.1.19.19s.09.18.09.37a1.22,1.22,0,0,1-.09.56.47.47,0,0,0-.28.09m1.3-.65V5.71c0-.19-.09-.28-.09-.38s-.09-.18-.19-.28a.47.47,0,0,0-.37-.18,1,1,0,0,0-.56-.09,1.44,1.44,0,0,0-.65.09l-.55.28a1,1,0,0,0-.38.46,1.36,1.36,0,0,0-.18.56v.56a.49.49,0,0,0,.18.37,1.38,1.38,0,0,0,.38.28,1.18,1.18,0,0,0,.55.09.72.72,0,0,0,.47-.09c.18-.09.28-.09.37-.19,0,.19-.09.28-.19.47a1.31,1.31,0,0,1-.27.37,1.38,1.38,0,0,1-.38.28.85.85,0,0,1-.46.09h-.28c-.09,0-.19,0-.19-.09s-.09,0-.18-.09h-.19v.65L461,9c.1,0,.1,0,.19.09a.33.33,0,0,1,.28.1h.28a1.66,1.66,0,0,0,.74-.1l.56-.28a.85.85,0,0,0,.37-.46l.28-.56a1.33,1.33,0,0,0,.19-.56,1.18,1.18,0,0,0,.09-.55,1.05,1.05,0,0,1,.09-.47m-4.83.65c-.1,0-.28.09-.37.09h-.28c-.1,0-.1-.09-.19-.09s-.09-.09-.09-.18V6.36c0-.1.09-.19.09-.28s.09-.19.19-.28l.18-.19c.1,0,.19-.09.28-.09a.35.35,0,0,1,.28.09c.09,0,.09.1.19.19s.09.18.09.37a1.22,1.22,0,0,1-.09.56.47.47,0,0,0-.28.09m1.3-.65V5.71c0-.19-.09-.28-.09-.38s-.1-.18-.19-.28a.49.49,0,0,0-.37-.18,1,1,0,0,0-.56-.09,1.42,1.42,0,0,0-.65.09l-.56.28a.94.94,0,0,0-.37.46,1.38,1.38,0,0,0-.19.56v.56a.5.5,0,0,0,.19.37,1.31,1.31,0,0,0,.37.28,1.22,1.22,0,0,0,.56.09.69.69,0,0,0,.46-.09c.19-.09.28-.09.38-.19,0,.19-.1.28-.19.47A1.31,1.31,0,0,1,459,8a1.18,1.18,0,0,1-.37.28.88.88,0,0,1-.47.09h-.27c-.1,0-.19,0-.19-.09s-.09,0-.19-.09h-.18v.65l.09.09c.09,0,.09,0,.19.09a.34.34,0,0,1,.28.1h.27a1.73,1.73,0,0,0,.75-.1l.56-.28a.9.9,0,0,0,.37-.46l.28-.56a1.32,1.32,0,0,0,.18-.56,1.08,1.08,0,0,0,.1-.55,1.05,1.05,0,0,1,.09-.47m-4,2.42V8.4h-.84l.65-3.53V4.78h-.74l-1,.55a.1.1,0,0,0-.1.1l-.09.09V6h.19l.74-.37-.46,2.79h-.93l-.1.1v.65h2.61l.09-.1a.09.09,0,0,1,.09-.09V8.77c-.18-.09-.09-.09-.09-.18m-5-.28V8.12h-.09a.1.1,0,0,0-.1.1c-.09,0-.09.09-.18.09s-.19.09-.28.09-.28.1-.37.1a.8.8,0,0,1-.47-.1l-.28-.28c-.09-.09-.09-.28-.18-.46V7a1.71,1.71,0,0,1,.18-.65,1.93,1.93,0,0,1,.28-.47c.09-.09.28-.18.37-.28a.88.88,0,0,1,.47-.09c.18,0,.28,0,.37.09s.19.1.28.1.09.09.18.09l.1.09h.09L452,5.8V5.15l-.09-.1L451.79,5c-.1,0-.19-.09-.28-.09s-.19-.09-.28-.09h-.37A2.81,2.81,0,0,0,450,5a3,3,0,0,0-.74.47,4.75,4.75,0,0,0-.56.74,1.84,1.84,0,0,0-.28,1,1.63,1.63,0,0,0,0,.93.82.82,0,0,0,.28.65c.09.19.28.28.56.38a1.83,1.83,0,0,0,.74.09h.47c.09,0,.27-.09.37-.09s.18-.1.28-.1.09-.09.18-.09l.1-.09V8.5a.31.31,0,0,0,.09-.19m-6.14-1.58h-.46c-.19,0-.28,0-.38-.09a.31.31,0,0,1-.18-.1c-.09-.09-.09-.09-.09-.18V6.08a.34.34,0,0,1,.09-.28.2.2,0,0,1,.18-.19.36.36,0,0,1,.28-.09h.93Zm1.12-1.68V4.87a.36.36,0,0,0-.19-.09h-1a2.16,2.16,0,0,0-.84.09l-.56.28c-.18.09-.28.28-.37.37a1.36,1.36,0,0,0-.18.56v.37c0,.09.09.19.09.28s.09.18.18.18.19.1.38.19a.32.32,0,0,0-.19.09c-.09,0-.09.1-.19.19s-.09.19-.18.19-.09.18-.19.27l-.46.84c0,.09-.1.09-.1.19v.18h.84A.09.09,0,0,0,443.6,9l.1-.09.46-.93c.1-.1.1-.19.19-.28s.09-.19.18-.19.1-.09.19-.09h.56L445,9v.09h.74V9Zm-4.28,3.26V8.12h-.09a.1.1,0,0,0-.1.1c-.09,0-.09.09-.18.09s-.19.09-.28.09-.28.1-.37.1a.8.8,0,0,1-.47-.1l-.28-.28c-.09-.09-.09-.28-.18-.46V7a1.71,1.71,0,0,1,.18-.65,2.31,2.31,0,0,1,.28-.47c.09-.09.28-.18.37-.28a.88.88,0,0,1,.47-.09c.18,0,.28,0,.37.09s.19.1.28.1.09.09.19.09l.09.09h.09l.09-.09V5.15l-.09-.1A.31.31,0,0,0,442.4,5c-.1,0-.19-.09-.28-.09s-.19-.09-.28-.09h-.37a2.81,2.81,0,0,0-.84.18,3.09,3.09,0,0,0-.75.47,4.74,4.74,0,0,0-.55.74,1.84,1.84,0,0,0-.28,1,1.47,1.47,0,0,0,0,.93.82.82,0,0,0,.28.65c.09.19.28.28.55.38a1.91,1.91,0,0,0,.75.09h.46c.1,0,.28-.09.38-.09s.18-.1.27-.1.1-.09.19-.09l.09-.09V8.5c.19-.1.19-.19.19-.19M439.42,5V4.78h-3.26l-.09.09v.65h1.21l-.65,3.53v.1h.84v-.1l.65-3.53h1.21l.09-.09V5m-4.37,3.63V8.4h-1.67l.18-1.21H435l.09-.09V6.45h-1.4l.19-1h1.67l.1-.1V4.68h-2.23c-.1,0-.19,0-.19.1s-.09.09-.09.18l-.65,3.81V9a.31.31,0,0,0,.18.09h2.23L435,9V8.68c.09,0,.09,0,.09-.09m-4.37-1.12h-1.21l.93-1.86h0ZM431.14,5V4.87l-.09-.09c-.09-.1-.09,0-.19,0h-.74c-.09,0-.09,0-.09.09a.09.09,0,0,1-.1.09l-2,3.81a.32.32,0,0,1-.09.19v.09a.09.09,0,0,1,.09.1h.74a.1.1,0,0,0,.1-.1.09.09,0,0,1,.09-.09l.46-.84h1.58L431,9v.09h.93V8.77ZM426.21,8.4h-1.76l.18-.18c.1-.1.1-.19.19-.28s.09-.19.19-.37.09-.28.18-.47.19-.46.28-.65.19-.56.28-.93h1Zm1.4.19V8.5l-.09-.1h-.38l.56-3.35V4.87a.31.31,0,0,0-.18-.09h-2.24c-.09,0-.18,0-.18.09a.31.31,0,0,0-.09.18c-.1.38-.19.75-.28,1s-.19.56-.28.74a1.25,1.25,0,0,0-.19.56c-.09.19-.09.28-.18.37s-.1.19-.19.28-.09.19-.19.28h-.28l-.09.09L423.05,10v.1h.75V10L424,9h2.89l-.19,1v.1h.74V10ZM423,7.47c0-.09-.09-.18-.09-.28s-.19-.18-.28-.18-.19-.1-.37-.1h0c.09,0,.27-.09.37-.09s.18-.09.28-.18.18-.19.18-.28a.55.55,0,0,0,.1-.38V5.52a.73.73,0,0,0-.19-.37.47.47,0,0,0-.37-.19,1.22,1.22,0,0,0-.56-.09h-.47a.58.58,0,0,0-.37.09c-.09,0-.18.09-.28.09s-.09.1-.18.1-.1,0-.1.09v.65h.1c.09,0,.09-.09.18-.09s.19-.09.28-.09h.65a.32.32,0,0,1,.19.09.31.31,0,0,1,.09.18v.19c0,.09-.09.19-.09.28l-.19.19a.34.34,0,0,1-.28.09h-.93l-.09.09v.65h.93c.09,0,.19.1.28.1s.09.09.09.18V8c0,.09-.09.19-.09.28l-.19.19a.33.33,0,0,1-.27.09h-.75c-.09,0-.18-.09-.28-.09s-.09-.1-.18-.1H420a.09.09,0,0,0-.09.1.28.28,0,0,1-.09.18v.47a.09.09,0,0,1,.09.09c.09,0,.09.09.19.09s.18.1.28.1h.37a1.89,1.89,0,0,0,.74-.1,2.42,2.42,0,0,0,.56-.28c.19-.09.28-.28.46-.37a1.21,1.21,0,0,0,.19-.56c.37-.37.37-.55.28-.65m-3.07-2.6h0c0-.09,0-.09-.09-.09h-.65l-.1.09L417.19,7.1c-.09.09-.18.19-.18.28s-.09.19-.19.28h0a.33.33,0,0,1,.1-.28V7.19l.37-2.32V4.78h-.84v.09L415.71,9v.09h.74l.09-.09,1.86-2.23.1-.09c0-.1.09-.1.09-.19l.09-.09.09-.1h0c0,.1,0,.1-.09.19a.35.35,0,0,1-.09.28l-.37,2.32v.1h.83v-.1Z" transform="translate(-8.11 -3.38)"/><path class="cls-1" d="M341,9.8a1.82,1.82,0,0,0-.28-.47,2.05,2.05,0,0,0-.46-.37,2.15,2.15,0,0,1-.47-.28c-.18-.09-.37-.09-.46-.18s-.28-.1-.47-.19a1.48,1.48,0,0,0-.28-.19.34.34,0,0,1-.09-.28.33.33,0,0,1,.09-.27c0-.1.1-.1.19-.19a.35.35,0,0,1,.28-.09h.37a1.22,1.22,0,0,1,.56.09.45.45,0,0,1,.37.19c.09.09.19.09.28.18s.09.09.19.09h.09l.09-.09v-1a.09.09,0,0,0-.09-.09.31.31,0,0,0-.19-.1c-.09,0-.18-.09-.37-.09a4.16,4.16,0,0,0-.46-.09h-.47a3,3,0,0,0-.93.09,1.84,1.84,0,0,0-.74.37,2.59,2.59,0,0,0-.47.56,1.79,1.79,0,0,0-.18.74,1.4,1.4,0,0,0,.09.65,1.93,1.93,0,0,0,.28.47,2.05,2.05,0,0,0,.46.37c.19.09.28.19.47.28s.37.09.46.19.28.09.47.18l.28.28a.48.48,0,0,1,0,.56.21.21,0,0,1-.19.19.34.34,0,0,1-.28.09h-.37a1,1,0,0,1-.56-.09c-.18-.1-.37-.1-.46-.19s-.28-.09-.37-.19a.31.31,0,0,0-.19-.09h-.09s-.1,0-.1.09v.84a.35.35,0,0,0,.1.19l.18.18c.1.1.19.1.37.19a.88.88,0,0,0,.47.09c.19,0,.37.09.56.09a3,3,0,0,0,.93-.09,1.71,1.71,0,0,0,1.21-1,2.81,2.81,0,0,0,.18-.84.94.94,0,0,0,0-.74m-15.34,0a2.15,2.15,0,0,0-.28-.47,1.92,1.92,0,0,0-.47-.37,2.05,2.05,0,0,1-.46-.28c-.19-.09-.37-.09-.47-.18s-.27-.1-.46-.19a1.48,1.48,0,0,0-.28-.19.34.34,0,0,1-.09-.28.33.33,0,0,1,.09-.27c0-.1.09-.1.19-.19a.34.34,0,0,1,.28-.09h.37a1.24,1.24,0,0,1,.56.09.48.48,0,0,1,.37.19c.09.09.18.09.28.18s.09.09.18.09h.1l.09-.09v-1a.09.09,0,0,0-.09-.09.35.35,0,0,0-.19-.1c-.09,0-.19-.09-.37-.09a4.43,4.43,0,0,0-.47-.09h-.46a3,3,0,0,0-.93.09,2,2,0,0,0-.75.37,2.52,2.52,0,0,0-.46.56,1.79,1.79,0,0,0-.19.74,1.27,1.27,0,0,0,.1.65,2,2,0,0,0,.27.47,2.14,2.14,0,0,0,.47.37c.19.09.28.19.46.28s.38.09.47.19.28.09.46.18l.28.28a.44.44,0,0,1,0,.56.2.2,0,0,1-.18.19.36.36,0,0,1-.28.09h-.37c-.19,0-.47,0-.56-.09s-.37-.1-.47-.19-.28-.09-.37-.19a.28.28,0,0,0-.18-.09h-.1a.09.09,0,0,0-.09.09v.84a.36.36,0,0,0,.09.19l.19.18c.09.1.18.1.37.19a.88.88,0,0,0,.47.09c.18,0,.37.09.55.09a2.94,2.94,0,0,0,.93-.09A1.82,1.82,0,0,0,325,12a1.71,1.71,0,0,0,.46-.65,2.55,2.55,0,0,0,.19-.84,1,1,0,0,0,0-.74M306.53,8.68a1.24,1.24,0,0,1,.09-.56c.1-.18.1-.28.19-.46a1.31,1.31,0,0,1,.37-.28,1,1,0,0,1,.56-.09.91.91,0,0,1,.84.37,1.71,1.71,0,0,1,.28,1Zm3.81.19a4.84,4.84,0,0,0-.18-1.12,1.78,1.78,0,0,0-.47-.84,1.34,1.34,0,0,0-.83-.55,4.51,4.51,0,0,0-1.21-.19,4.39,4.39,0,0,0-1.21.19,3.24,3.24,0,0,0-.93.65A2.19,2.19,0,0,0,305,8a5.65,5.65,0,0,0-.19,1.3,6.58,6.58,0,0,0,.19,1.4,1.58,1.58,0,0,0,.56.93,2,2,0,0,0,.93.56,5.67,5.67,0,0,0,1.3.18,1.83,1.83,0,0,0,.74-.09c.28,0,.47-.09.66-.09s.37-.1.46-.19a.29.29,0,0,1,.19-.09l.09-.1v-1a.09.09,0,0,0-.09-.09h-.1a.36.36,0,0,0-.28.09c-.09,0-.18.09-.37.09a1.1,1.1,0,0,1-.56.1c-.18,0-.46.09-.74.09a1.42,1.42,0,0,1-.65-.09,2.64,2.64,0,0,1-.47-.28,2.17,2.17,0,0,1-.27-.47,1.27,1.27,0,0,1-.1-.65h3.35c.19,0,.28,0,.37-.09s.1-.28.1-.47V8.87Zm-16.92-.28a3.55,3.55,0,0,0-.09-1,2,2,0,0,0-.38-.75,1.63,1.63,0,0,0-.65-.46,2.56,2.56,0,0,0-.93-.19,2.07,2.07,0,0,0-1,.28,3.35,3.35,0,0,0-.93.74V6.45l-.09-.09c-.1,0-.1,0-.19-.1h-.65c-.09,0-.19,0-.19.1a.09.09,0,0,0-.09.09v5.77l.09.09a.34.34,0,0,1,.28.09h.75a.36.36,0,0,0,.28-.09.09.09,0,0,0,.09-.09V8.4a4.43,4.43,0,0,1,.65-.65.8.8,0,0,1,.65-.18c.19,0,.28,0,.37.09l.28.28c.1.09.1.28.19.37s.09.37.09.65v3.26l.09.09c.1,0,.1,0,.28.09h.75a.36.36,0,0,0,.28-.09.09.09,0,0,0,.09-.09V8.59ZM276.31,3.94a1.21,1.21,0,0,0-.75-.19,1.47,1.47,0,0,0-.74.19,1.09,1.09,0,0,0-.19.65,1.09,1.09,0,0,0,.19.65,1.2,1.2,0,0,0,.74.19,1.48,1.48,0,0,0,.75-.19,1.1,1.1,0,0,0,.18-.65,1.35,1.35,0,0,0-.18-.65m.09,2.6V6.45l-.09-.09a.33.33,0,0,1-.28-.1h-.74a.32.32,0,0,0-.28.1.09.09,0,0,0-.1.09v5.77l.1.09a.36.36,0,0,1,.28.09H276a.35.35,0,0,0,.28-.09.09.09,0,0,0,.09-.09V6.54ZM263.29,9.8a2.15,2.15,0,0,0-.28-.47,2.05,2.05,0,0,0-.46-.37,1.93,1.93,0,0,1-.47-.28c-.19-.09-.37-.09-.46-.18s-.28-.1-.47-.19a1.48,1.48,0,0,0-.28-.19.34.34,0,0,1-.09-.28.33.33,0,0,1,.09-.27c0-.1.09-.1.19-.19a.34.34,0,0,1,.28-.09h.37a1.24,1.24,0,0,1,.56.09.47.47,0,0,1,.37.19c.09.09.18.09.28.18s.09.09.18.09h.1l.09-.09v-1a.09.09,0,0,0-.09-.09.35.35,0,0,0-.19-.1c-.09,0-.19-.09-.37-.09a4,4,0,0,0-.47-.09h-.46a3,3,0,0,0-.93.09,2,2,0,0,0-.75.37,2.52,2.52,0,0,0-.46.56,1.79,1.79,0,0,0-.19.74,1.27,1.27,0,0,0,.1.65,1.66,1.66,0,0,0,.28.47,1.85,1.85,0,0,0,.46.37c.19.09.28.19.47.28s.37.09.46.19.28.09.47.18.18.19.27.28a.44.44,0,0,1,0,.56.2.2,0,0,1-.18.19.35.35,0,0,1-.28.09h-.37c-.19,0-.47,0-.56-.09s-.37-.1-.47-.19-.27-.09-.37-.19a.28.28,0,0,0-.18-.09h-.1a.09.09,0,0,0-.09.09v.84a.36.36,0,0,0,.09.19l.19.18c.09.1.19.1.37.19a.88.88,0,0,0,.47.09c.18,0,.37.09.55.09a2.9,2.9,0,0,0,.93-.09,1.82,1.82,0,0,0,.75-.37,1.71,1.71,0,0,0,.46-.65,2.55,2.55,0,0,0,.19-.84,1,1,0,0,0,0-.74M247.67,6.45V6.36l-.1-.1c-.09,0-.09,0-.28-.09h-.74a.35.35,0,0,0-.28.09c-.09,0-.09.1-.09.1v3.81a5,5,0,0,1-.65.65A.68.68,0,0,1,245,11c-.19,0-.28,0-.37-.1l-.28-.28c-.09-.09-.09-.27-.19-.37s-.09-.37-.09-.65V6.36l-.09-.1a.34.34,0,0,1-.28-.09h-.75a.36.36,0,0,0-.28.09c-.09,0-.09.1-.09.1V9.89a3.25,3.25,0,0,0,.09,1,2,2,0,0,0,.38.75,4.24,4.24,0,0,0,.65.56,2.85,2.85,0,0,0,.93.18,2.07,2.07,0,0,0,1-.28,3.18,3.18,0,0,0,.93-.74v.74l.09.1c.1,0,.1,0,.19.09h.65c.09,0,.19,0,.19-.09s.09-.1.09-.1V6.45Zm-18.51,3.91c-.09.09-.19.27-.28.37a.71.71,0,0,1-.37.18,1.11,1.11,0,0,1-.56.1h-1.21V8.68h.93a1.91,1.91,0,0,1,.75.09c.18.1.37.1.46.19a1.31,1.31,0,0,1,.28.37.88.88,0,0,1,.09.47,3.55,3.55,0,0,1-.09.56m-.46-3.54a.73.73,0,0,1-.19.37.47.47,0,0,1-.37.19,1.22,1.22,0,0,1-.56.09h-.93V5.33h.84a1.29,1.29,0,0,1,.65.1.49.49,0,0,1,.37.18c.09.1.19.19.19.28a4,4,0,0,1,.09.47c0,.28,0,.37-.09.46m2.13,2.33a1.7,1.7,0,0,0-.37-.56,1.5,1.5,0,0,0-.46-.37,1.28,1.28,0,0,0-.65-.19,2.05,2.05,0,0,0,.46-.28c.19-.09.28-.28.37-.37s.19-.28.19-.47a1.18,1.18,0,0,0,.09-.55,2.79,2.79,0,0,0-.18-.93,1.25,1.25,0,0,0-.56-.65,3.47,3.47,0,0,0-.84-.38,5.46,5.46,0,0,0-1.3-.09h-2.05a.57.57,0,0,0-.37.09.51.51,0,0,0-.18.38v7.06a.51.51,0,0,0,.18.38c.09.09.19.09.37.09h2.14a2.41,2.41,0,0,0,.84-.09,1.75,1.75,0,0,0,.74-.19,4.19,4.19,0,0,0,.65-.28,1.1,1.1,0,0,0,.47-.46,4.32,4.32,0,0,0,.37-.66,2.06,2.06,0,0,0,.09-.74.94.94,0,0,0,0-.74M200.7,6.82c0-.09.1-.18.1-.28s0-.09-.1-.18-.18-.1-.27-.1h-.93c-.1,0-.19,0-.19.1a.31.31,0,0,0-.09.18L198,10.36h0l-1.3-3.72a.31.31,0,0,0-.1-.19.09.09,0,0,0-.09-.09.33.33,0,0,1-.28-.1h-.93c-.09,0-.19.1-.28.1s-.09.09-.09.18a.69.69,0,0,0,.09.37L197,12c0,.09.1.09.1.19s.09.09.18.09l-.74,1.86v.18c0,.1,0,.1.09.1s.1.09.19.09h.37a1.83,1.83,0,0,0,.74-.09c.19,0,.28-.1.28-.19l.65-1.95Zm-16.36-.18V6.36a.1.1,0,0,0-.1-.1c-.09,0-.09,0-.09-.09s-.09,0-.18-.09h-.38a.57.57,0,0,0-.37.09.66.66,0,0,0-.37.19c-.09.09-.28.18-.37.28a1.27,1.27,0,0,0-.37.55V6.45l-.1-.09c-.09,0-.09,0-.18-.1h-.65c-.1,0-.19,0-.19.1a.09.09,0,0,0-.09.09v5.77l.09.09a.35.35,0,0,1,.28.09H182a.34.34,0,0,0,.28-.09.09.09,0,0,0,.09-.09V8.68a1,1,0,0,1,.38-.46l.28-.28c.09-.1.18-.1.27-.19s.19-.09.28-.09h.19c.09,0,.09,0,.19.09s.09,0,.18.09h.19l.09-.09V7.19c0-.18-.09-.46-.09-.55m-19,2a1.24,1.24,0,0,1,.09-.56c.09-.18.09-.28.19-.46a1.18,1.18,0,0,1,.37-.28,1,1,0,0,1,.56-.09.89.89,0,0,1,.83.37,1.65,1.65,0,0,1,.28,1Zm3.9.19a4.84,4.84,0,0,0-.18-1.12,1.87,1.87,0,0,0-.47-.84,1.34,1.34,0,0,0-.84-.55,3.92,3.92,0,0,0-2.41,0,3.11,3.11,0,0,0-.93.65,2.19,2.19,0,0,0-.56,1,5.65,5.65,0,0,0-.19,1.3,6.58,6.58,0,0,0,.19,1.4,1.58,1.58,0,0,0,.56.93,2,2,0,0,0,.93.56,5.59,5.59,0,0,0,1.3.18,1.83,1.83,0,0,0,.74-.09c.28,0,.47-.09.65-.09s.38-.1.47-.19a.28.28,0,0,1,.18-.09l.1-.1v-1a.09.09,0,0,0-.1-.09h-.09a.36.36,0,0,0-.28.09c-.09,0-.18.09-.37.09a1.11,1.11,0,0,1-.56.1c-.18,0-.46.09-.74.09A1.4,1.4,0,0,1,166,11a2.64,2.64,0,0,1-.47-.28,2.64,2.64,0,0,1-.28-.47,1.4,1.4,0,0,1-.09-.65h3.35c.18,0,.28,0,.37-.09a.72.72,0,0,0,.09-.47V8.87Zm-16.92-.28a3.21,3.21,0,0,0-.1-1,1.82,1.82,0,0,0-.37-.75,1.63,1.63,0,0,0-.65-.46,2.6,2.6,0,0,0-.93-.19,2.07,2.07,0,0,0-1,.28,3.35,3.35,0,0,0-.93.74V6.45l-.09-.09c-.1,0-.1,0-.19-.1h-.65c-.09,0-.19,0-.19.1a.09.09,0,0,0-.09.09v5.77l.09.09a.34.34,0,0,1,.28.09h.75a.33.33,0,0,0,.27-.09.09.09,0,0,0,.1-.09V8.4a4,4,0,0,1,.65-.65.79.79,0,0,1,.65-.18c.19,0,.28,0,.37.09l.28.28c.09.09.09.28.19.37s.09.37.09.65v3.26l.09.09c.1,0,.1,0,.28.09H152a.33.33,0,0,0,.27-.09.09.09,0,0,0,.1-.09V8.59Zm-18.51,1.49c-.09.18-.09.46-.28.55a1,1,0,0,1-.46.38,1.42,1.42,0,0,1-.65.09,1.25,1.25,0,0,1-.65-.19.72.72,0,0,1-.38-.37,1.32,1.32,0,0,1-.18-.56c0-.18-.1-.46-.1-.74a1.66,1.66,0,0,1,.1-.74,2.42,2.42,0,0,1,.28-.56.89.89,0,0,1,.46-.37,1.29,1.29,0,0,1,.65-.1,1.35,1.35,0,0,1,.65.19.72.72,0,0,1,.38.37,1.36,1.36,0,0,1,.18.56c0,.18.09.46.09.74a2.15,2.15,0,0,1-.09.75m1.58-2.14a1.55,1.55,0,0,0-.56-.93,1.83,1.83,0,0,0-.93-.56,5.56,5.56,0,0,0-1.3-.19,5.65,5.65,0,0,0-1.3.19,2.45,2.45,0,0,0-.93.65,2.28,2.28,0,0,0-.56,1,5.76,5.76,0,0,0-.18,1.31,5.67,5.67,0,0,0,.18,1.3,1.63,1.63,0,0,0,.56.93,2,2,0,0,0,.93.56,5.67,5.67,0,0,0,1.3.18,5.59,5.59,0,0,0,1.3-.18,2.32,2.32,0,0,0,.93-.66,2.14,2.14,0,0,0,.56-1,5.15,5.15,0,0,0,.19-1.3c-.09-.56-.09-.93-.19-1.3M118,3.94a1.2,1.2,0,0,0-.74-.19,1.51,1.51,0,0,0-.75.19,1.1,1.1,0,0,0-.18.65,1.1,1.1,0,0,0,.18.65,1.26,1.26,0,0,0,.75.19,1.44,1.44,0,0,0,.74-.19,1,1,0,0,0,.19-.65.76.76,0,0,0-.19-.65m.1,2.6V6.45l-.1-.09a.34.34,0,0,1-.28-.1H117a.33.33,0,0,0-.28.1.09.09,0,0,0-.09.09v5.77l.09.09a.35.35,0,0,1,.28.09h.74a.34.34,0,0,0,.28-.09.09.09,0,0,0,.1-.09V6.54ZM105.2,11.19V11s0-.1-.09-.1h-.19a.09.09,0,0,0-.09.1c-.1,0-.1,0-.19.09h-.18a.53.53,0,0,1-.47-.19,1.35,1.35,0,0,1-.19-.65V7.57H105a.2.2,0,0,0,.19-.19,4,4,0,0,0,.09-.47V6.64c0-.1,0-.19-.09-.19a.09.09,0,0,0-.09-.09H103.8V5.05L103.71,5c-.09,0-.09,0-.28-.09h-.74a.35.35,0,0,0-.28.09.09.09,0,0,0-.09.09V6.36h-.75l-.09.09c0,.09,0,.09-.09.19v.27a.72.72,0,0,0,.09.47.2.2,0,0,0,.19.19h.65v2.88a3,3,0,0,0,.09.93,1.54,1.54,0,0,0,.37.65,1.81,1.81,0,0,0,.56.37,2.13,2.13,0,0,0,.84.09h.37a.36.36,0,0,0,.28-.09c.09,0,.18-.09.28-.09s.09-.09.18-.09a.35.35,0,0,0,.1-.19v-.47c-.19-.18-.19-.27-.19-.37m-16.46-.56a2.33,2.33,0,0,1-.56.47,1.35,1.35,0,0,1-.65.19,1.38,1.38,0,0,1-.65-.19c-.19-.09-.19-.28-.19-.56a.52.52,0,0,1,.1-.37c.09-.09.09-.19.28-.28s.27-.09.46-.19.37-.09.65-.09h.56Zm1.49-2.32c0-.37-.1-.74-.1-1a1.54,1.54,0,0,0-.46-.65,2,2,0,0,0-.74-.38,4,4,0,0,0-1.12-.09,2.06,2.06,0,0,0-.74.09,1.83,1.83,0,0,0-.66.19c-.18.09-.37.09-.55.19a1.07,1.07,0,0,0-.28.18c-.1.09-.1.09-.1.19v.56c0,.09,0,.18.1.18a.09.09,0,0,0,.09.09h.09A.34.34,0,0,0,86,7.75c.1-.09.28-.09.37-.18s.38-.1.56-.19a1.91,1.91,0,0,1,.75-.09.7.7,0,0,1,.46.09c.09,0,.28.09.28.19s.09.18.19.37a4.16,4.16,0,0,1,.09.46v.37h-.56a5.32,5.32,0,0,0-1.3.1,2.67,2.67,0,0,0-.93.37,1.56,1.56,0,0,0-.56.56,2.82,2.82,0,0,0-.18.83,1.84,1.84,0,0,0,.18.75,2.54,2.54,0,0,0,.47.56,1.48,1.48,0,0,0,.65.37,2.64,2.64,0,0,0,.83.09,4,4,0,0,0,1-.18,2.33,2.33,0,0,0,.74-.56v.46c0,.1,0,.1.09.1a.36.36,0,0,0,.19.09h.74c.1,0,.19,0,.19-.09l.09-.1V8.31Zm-16,2.88V11s0-.1-.09-.1H74a.09.09,0,0,0-.09.1c-.09,0-.09,0-.19.09a.12.12,0,0,1-.18,0,.55.55,0,0,1-.47-.19,1.35,1.35,0,0,1-.18-.65V7.57h1.21a.2.2,0,0,0,.18-.19,3.62,3.62,0,0,0,.1-.47V6.64c0-.1,0-.19-.1-.19a.09.09,0,0,0-.09-.09h-1.3V5.05L72.74,5c-.09,0-.09,0-.27-.09h-.75a.36.36,0,0,0-.28.09.09.09,0,0,0-.09.09V6.36h-.74l-.1.09c0,.09,0,.09-.09.19v.27a.72.72,0,0,0,.09.47.21.21,0,0,0,.19.19h.65v2.88a3,3,0,0,0,.09.93,1.65,1.65,0,0,0,.37.65,1.93,1.93,0,0,0,.56.37,2.16,2.16,0,0,0,.84.09h.37a.35.35,0,0,0,.28-.09c.09,0,.19-.09.28-.09s.09-.09.19-.09a.36.36,0,0,0,.09-.19v-.47c-.19-.18-.19-.27-.19-.37M59.45,9a1.56,1.56,0,0,0-.38-.65,2.55,2.55,0,0,0-.55-.47c-.19-.09-.47-.27-.65-.37s-.47-.18-.66-.28l-.55-.28a.72.72,0,0,1-.38-.37.72.72,0,0,1-.18-.46.55.55,0,0,1,.09-.37c0-.1.09-.19.19-.28s.18-.1.37-.19a4.16,4.16,0,0,1,.46-.09,1.67,1.67,0,0,1,.66.09c.18.09.37.09.46.19s.28.09.37.18a.3.3,0,0,0,.19.1H59l.09-.1v-1A.09.09,0,0,0,59,4.5a.94.94,0,0,0-.28-.19c-.18-.09-.28-.09-.46-.19A1.22,1.22,0,0,0,57.68,4h-.56a3.14,3.14,0,0,0-1,.19,2.52,2.52,0,0,0-.84.46,1.51,1.51,0,0,0-.56.75,1.89,1.89,0,0,0-.18,1,1.94,1.94,0,0,0,.18.84,1.56,1.56,0,0,0,.38.65,2.49,2.49,0,0,0,.55.46,3.86,3.86,0,0,0,.65.37c.19.1.47.19.66.28l.55.28a.8.8,0,0,1,.38.37.74.74,0,0,1,.18.47.83.83,0,0,1-.09.46c-.09.1-.19.28-.28.28a.66.66,0,0,1-.37.19,1.22,1.22,0,0,1-.56.09,2.68,2.68,0,0,1-.84-.09,1.94,1.94,0,0,0-.56-.19c-.18-.09-.27-.18-.37-.18a.32.32,0,0,0-.28-.1h-.09l-.09.1v.93c0,.09.09.18.09.28s.19.09.28.18.28.1.46.19a6.53,6.53,0,0,0,.66.18c.27,0,.46.1.74.1a4.15,4.15,0,0,0,1.12-.19,3,3,0,0,0,.93-.46,2.19,2.19,0,0,0,.65-.84A2,2,0,0,0,59.73,10a7.5,7.5,0,0,1-.28-1" transform="translate(-8.11 -3.38)"/><path class="cls-1" d="M484,7.47h-1.21l.93-1.86h0ZM484.43,5V4.87l-.09-.09h-.93s-.1,0-.1.09a.09.09,0,0,1-.09.09l-2.05,3.81a.32.32,0,0,1-.09.19v.09a.09.09,0,0,1,.09.1h.75a.09.09,0,0,0,.09-.1c0-.09,0-.09.09-.09l.47-.84h1.58l.09.84v.09h.93V8.77ZM479.59,8.4h-1.76l.18-.18c.1-.1.1-.19.19-.28s.09-.19.18-.37.1-.28.19-.47.19-.46.28-.65.19-.56.28-.93h1Zm1.3.19V8.5l-.09-.1h-.37L481,5.05V4.87a.36.36,0,0,0-.19-.09h-2.23c-.09,0-.19,0-.19.09a.31.31,0,0,0-.09.18,10.54,10.54,0,0,1-.28,1,4.64,4.64,0,0,1-.28.74,1.36,1.36,0,0,0-.18.56c-.1.19-.1.28-.19.37s-.09.19-.18.28-.1.19-.19.28h-.28l-.09.09L476.34,10v.1h.74V10l.19-1h2.88L480,10v.1h.75V10Zm-5.39-1a1.74,1.74,0,0,1-.28.46l-.37.37a1.11,1.11,0,0,1-.56.1,1.13,1.13,0,0,1-.56-.1l-.27-.28c-.1-.09-.1-.28-.1-.46a1.69,1.69,0,0,1,.1-.65,1.36,1.36,0,0,1,.18-.56,2.15,2.15,0,0,1,.28-.47l.37-.37a1,1,0,0,1,.56-.09,1.22,1.22,0,0,1,.56.09l.28.28a.72.72,0,0,1,.09.47,1.89,1.89,0,0,1-.09.65,1.43,1.43,0,0,1-.19.56m1.12-1.68a.87.87,0,0,0-.28-.65c-.09-.19-.28-.28-.56-.37a2.68,2.68,0,0,0-.84-.09A2.85,2.85,0,0,0,474,5a2,2,0,0,0-.74.47,4.75,4.75,0,0,0-.56.74,2.82,2.82,0,0,0-.28.93,4.27,4.27,0,0,0-.09,1,.82.82,0,0,0,.28.65c.09.19.28.28.56.38a2.61,2.61,0,0,0,.83.09,2.56,2.56,0,0,0,.93-.19,2.11,2.11,0,0,0,.75-.46,6.36,6.36,0,0,0,.56-.75,2.68,2.68,0,0,0,.27-.93,1.34,1.34,0,0,0,.1-1m-4-1h0l-2.14-.09c-.09,0-.19,0-.19.09s-.09.09-.09.18L469.55,9v.09h.74V9l.65-3.53h1.49l.1-.1V5.05c.18,0,.18-.09.09-.18M467.78,5V4.87l-.09-.09H464.9l-.09.09a.09.09,0,0,1-.1.09v.47c0,.09,0,.09.1.09h1.86l-2.14,3.35v.18h.93l.09-.09,2.05-3.25.09-.1a.09.09,0,0,1,.09-.09V5m-5,1.86c-.09,0-.28.09-.37.09h-.28c-.09,0-.09-.09-.19-.09s-.09-.09-.09-.18V6.36c0-.1.09-.19.09-.28s.1-.19.19-.28l.19-.19c.09,0,.18-.09.28-.09a.33.33,0,0,1,.27.09c.1,0,.1.1.19.19s.09.18.09.37a1.22,1.22,0,0,1-.09.56.47.47,0,0,0-.28.09m1.3-.65V5.71c0-.19-.09-.28-.09-.38s-.09-.18-.19-.28a.47.47,0,0,0-.37-.18,1,1,0,0,0-.56-.09,1.44,1.44,0,0,0-.65.09l-.55.28a1,1,0,0,0-.38.46,1.36,1.36,0,0,0-.18.56v.56a.49.49,0,0,0,.18.37,1.38,1.38,0,0,0,.38.28,1.18,1.18,0,0,0,.55.09.72.72,0,0,0,.47-.09c.18-.09.28-.09.37-.19,0,.19-.09.28-.19.47a1.31,1.31,0,0,1-.27.37,1.38,1.38,0,0,1-.38.28.85.85,0,0,1-.46.09h-.28c-.09,0-.19,0-.19-.09s-.09,0-.18-.09h-.19v.65L461,9c.1,0,.1,0,.19.09a.33.33,0,0,1,.28.1h.28a1.66,1.66,0,0,0,.74-.1l.56-.28a.85.85,0,0,0,.37-.46l.28-.56a1.33,1.33,0,0,0,.19-.56,1.18,1.18,0,0,0,.09-.55,1.05,1.05,0,0,1,.09-.47m-4.83.65c-.1,0-.28.09-.37.09h-.28c-.1,0-.1-.09-.19-.09s-.09-.09-.09-.18V6.36c0-.1.09-.19.09-.28s.09-.19.19-.28l.18-.19c.1,0,.19-.09.28-.09a.35.35,0,0,1,.28.09c.09,0,.09.1.19.19s.09.18.09.37a1.22,1.22,0,0,1-.09.56.47.47,0,0,0-.28.09m1.3-.65V5.71c0-.19-.09-.28-.09-.38s-.1-.18-.19-.28a.49.49,0,0,0-.37-.18,1,1,0,0,0-.56-.09,1.42,1.42,0,0,0-.65.09l-.56.28a.94.94,0,0,0-.37.46,1.38,1.38,0,0,0-.19.56v.56a.5.5,0,0,0,.19.37,1.31,1.31,0,0,0,.37.28,1.22,1.22,0,0,0,.56.09.69.69,0,0,0,.46-.09c.19-.09.28-.09.38-.19,0,.19-.1.28-.19.47A1.31,1.31,0,0,1,459,8a1.18,1.18,0,0,1-.37.28.88.88,0,0,1-.47.09h-.27c-.1,0-.19,0-.19-.09s-.09,0-.19-.09h-.18v.65l.09.09c.09,0,.09,0,.19.09a.34.34,0,0,1,.28.1h.27a1.73,1.73,0,0,0,.75-.1l.56-.28a.9.9,0,0,0,.37-.46l.28-.56a1.32,1.32,0,0,0,.18-.56,1.08,1.08,0,0,0,.1-.55,1.05,1.05,0,0,1,.09-.47m-4,2.42V8.4h-.84l.65-3.53V4.78h-.74l-1,.55a.1.1,0,0,0-.1.1l-.09.09V6h.19l.74-.37-.46,2.79h-.93l-.1.1v.65h2.61l.09-.1a.09.09,0,0,1,.09-.09V8.77c-.18-.09-.09-.09-.09-.18m-5-.28V8.12h-.09a.1.1,0,0,0-.1.1c-.09,0-.09.09-.18.09s-.19.09-.28.09-.28.1-.37.1a.8.8,0,0,1-.47-.1l-.28-.28c-.09-.09-.09-.28-.18-.46V7a1.71,1.71,0,0,1,.18-.65,1.93,1.93,0,0,1,.28-.47c.09-.09.28-.18.37-.28a.88.88,0,0,1,.47-.09c.18,0,.28,0,.37.09s.19.1.28.1.09.09.18.09l.1.09h.09L452,5.8V5.15l-.09-.1L451.79,5c-.1,0-.19-.09-.28-.09s-.19-.09-.28-.09h-.37A2.81,2.81,0,0,0,450,5a3,3,0,0,0-.74.47,4.75,4.75,0,0,0-.56.74,1.84,1.84,0,0,0-.28,1,1.63,1.63,0,0,0,0,.93.82.82,0,0,0,.28.65c.09.19.28.28.56.38a1.83,1.83,0,0,0,.74.09h.47c.09,0,.27-.09.37-.09s.18-.1.28-.1.09-.09.18-.09l.1-.09V8.5a.31.31,0,0,0,.09-.19m-6.14-1.58h-.46c-.19,0-.28,0-.38-.09a.31.31,0,0,1-.18-.1c-.09-.09-.09-.09-.09-.18V6.08a.34.34,0,0,1,.09-.28.2.2,0,0,1,.18-.19.36.36,0,0,1,.28-.09h.93Zm1.12-1.68V4.87a.36.36,0,0,0-.19-.09h-1a2.16,2.16,0,0,0-.84.09l-.56.28c-.18.09-.28.28-.37.37a1.36,1.36,0,0,0-.18.56v.37c0,.09.09.19.09.28s.09.18.18.18.19.1.38.19a.32.32,0,0,0-.19.09c-.09,0-.09.1-.19.19s-.09.19-.18.19-.09.18-.19.27l-.46.84c0,.09-.1.09-.1.19v.18h.84A.09.09,0,0,0,443.6,9l.1-.09.46-.93c.1-.1.1-.19.19-.28s.09-.19.18-.19.1-.09.19-.09h.56L445,9v.09h.74V9Zm-4.28,3.26V8.12h-.09a.1.1,0,0,0-.1.1c-.09,0-.09.09-.18.09s-.19.09-.28.09-.28.1-.37.1a.8.8,0,0,1-.47-.1l-.28-.28c-.09-.09-.09-.28-.18-.46V7a1.71,1.71,0,0,1,.18-.65,2.31,2.31,0,0,1,.28-.47c.09-.09.28-.18.37-.28a.88.88,0,0,1,.47-.09c.18,0,.28,0,.37.09s.19.1.28.1.09.09.19.09l.09.09h.09l.09-.09V5.15l-.09-.1A.31.31,0,0,0,442.4,5c-.1,0-.19-.09-.28-.09s-.19-.09-.28-.09h-.37a2.81,2.81,0,0,0-.84.18,3.09,3.09,0,0,0-.75.47,4.74,4.74,0,0,0-.55.74,1.84,1.84,0,0,0-.28,1,1.47,1.47,0,0,0,0,.93.82.82,0,0,0,.28.65c.09.19.28.28.55.38a1.91,1.91,0,0,0,.75.09h.46c.1,0,.28-.09.38-.09s.18-.1.27-.1.1-.09.19-.09l.09-.09V8.5c.19-.1.19-.19.19-.19M439.42,5V4.78h-3.26l-.09.09v.65h1.21l-.65,3.53v.1h.84v-.1l.65-3.53h1.21l.09-.09V5m-4.37,3.63V8.4h-1.67l.18-1.21H435l.09-.09V6.45h-1.4l.19-1h1.67l.1-.1V4.68h-2.23c-.1,0-.19,0-.19.1s-.09.09-.09.18l-.65,3.81V9a.31.31,0,0,0,.18.09h2.23L435,9V8.68c.09,0,.09,0,.09-.09m-4.37-1.12h-1.21l.93-1.86h0ZM431.14,5V4.87l-.09-.09c-.09-.1-.09,0-.19,0h-.74c-.09,0-.09,0-.09.09a.09.09,0,0,1-.1.09l-2,3.81a.32.32,0,0,1-.09.19v.09a.09.09,0,0,1,.09.1h.74a.1.1,0,0,0,.1-.1.09.09,0,0,1,.09-.09l.46-.84h1.58L431,9v.09h.93V8.77ZM426.21,8.4h-1.76l.18-.18c.1-.1.1-.19.19-.28s.09-.19.19-.37.09-.28.18-.47.19-.46.28-.65.19-.56.28-.93h1Zm1.4.19V8.5l-.09-.1h-.38l.56-3.35V4.87a.31.31,0,0,0-.18-.09h-2.24c-.09,0-.18,0-.18.09a.31.31,0,0,0-.09.18c-.1.38-.19.75-.28,1s-.19.56-.28.74a1.25,1.25,0,0,0-.19.56c-.09.19-.09.28-.18.37s-.1.19-.19.28-.09.19-.19.28h-.28l-.09.09L423.05,10v.1h.75V10L424,9h2.89l-.19,1v.1h.74V10ZM423,7.47c0-.09-.09-.18-.09-.28s-.19-.18-.28-.18-.19-.1-.37-.1h0c.09,0,.27-.09.37-.09s.18-.09.28-.18.18-.19.18-.28a.55.55,0,0,0,.1-.38V5.52a.73.73,0,0,0-.19-.37.47.47,0,0,0-.37-.19,1.22,1.22,0,0,0-.56-.09h-.47a.58.58,0,0,0-.37.09c-.09,0-.18.09-.28.09s-.09.1-.18.1-.1,0-.1.09v.65h.1c.09,0,.09-.09.18-.09s.19-.09.28-.09h.65a.32.32,0,0,1,.19.09.31.31,0,0,1,.09.18v.19c0,.09-.09.19-.09.28l-.19.19a.34.34,0,0,1-.28.09h-.93l-.09.09v.65h.93c.09,0,.19.1.28.1s.09.09.09.18V8c0,.09-.09.19-.09.28l-.19.19a.33.33,0,0,1-.27.09h-.75c-.09,0-.18-.09-.28-.09s-.09-.1-.18-.1H420a.09.09,0,0,0-.09.1.28.28,0,0,1-.09.18v.47a.09.09,0,0,1,.09.09c.09,0,.09.09.19.09s.18.1.28.1h.37a1.89,1.89,0,0,0,.74-.1,2.42,2.42,0,0,0,.56-.28c.19-.09.28-.28.46-.37a1.21,1.21,0,0,0,.19-.56c.37-.37.37-.55.28-.65m-3.07-2.6h0c0-.09,0-.09-.09-.09h-.65l-.1.09L417.19,7.1c-.09.09-.18.19-.18.28s-.09.19-.19.28h0a.33.33,0,0,1,.1-.28V7.19l.37-2.32V4.78h-.84v.09L415.71,9v.09h.74l.09-.09,1.86-2.23.1-.09c0-.1.09-.1.09-.19l.09-.09.09-.1h0c0,.1,0,.1-.09.19a.35.35,0,0,1-.09.28l-.37,2.32v.1h.83v-.1Z" transform="translate(-8.11 -3.38)"/><path class="cls-1" d="M341,9.8a1.82,1.82,0,0,0-.28-.47,2.05,2.05,0,0,0-.46-.37,2.15,2.15,0,0,1-.47-.28c-.18-.09-.37-.09-.46-.18s-.28-.1-.47-.19a1.48,1.48,0,0,0-.28-.19.34.34,0,0,1-.09-.28.33.33,0,0,1,.09-.27c0-.1.1-.1.19-.19a.35.35,0,0,1,.28-.09h.37a1.22,1.22,0,0,1,.56.09.45.45,0,0,1,.37.19c.09.09.19.09.28.18s.09.09.19.09h.09l.09-.09v-1a.09.09,0,0,0-.09-.09.31.31,0,0,0-.19-.1c-.09,0-.18-.09-.37-.09a4.16,4.16,0,0,0-.46-.09h-.47a3,3,0,0,0-.93.09,1.84,1.84,0,0,0-.74.37,2.59,2.59,0,0,0-.47.56,1.79,1.79,0,0,0-.18.74,1.4,1.4,0,0,0,.09.65,1.93,1.93,0,0,0,.28.47,2.05,2.05,0,0,0,.46.37c.19.09.28.19.47.28s.37.09.46.19.28.09.47.18l.28.28a.48.48,0,0,1,0,.56.21.21,0,0,1-.19.19.34.34,0,0,1-.28.09h-.37a1,1,0,0,1-.56-.09c-.18-.1-.37-.1-.46-.19s-.28-.09-.37-.19a.31.31,0,0,0-.19-.09h-.09s-.1,0-.1.09v.84a.35.35,0,0,0,.1.19l.18.18c.1.1.19.1.37.19a.88.88,0,0,0,.47.09c.19,0,.37.09.56.09a3,3,0,0,0,.93-.09,1.71,1.71,0,0,0,1.21-1,2.81,2.81,0,0,0,.18-.84.94.94,0,0,0,0-.74m-15.34,0a2.15,2.15,0,0,0-.28-.47,1.92,1.92,0,0,0-.47-.37,2.05,2.05,0,0,1-.46-.28c-.19-.09-.37-.09-.47-.18s-.27-.1-.46-.19a1.48,1.48,0,0,0-.28-.19.34.34,0,0,1-.09-.28.33.33,0,0,1,.09-.27c0-.1.09-.1.19-.19a.34.34,0,0,1,.28-.09h.37a1.24,1.24,0,0,1,.56.09.48.48,0,0,1,.37.19c.09.09.18.09.28.18s.09.09.18.09h.1l.09-.09v-1a.09.09,0,0,0-.09-.09.35.35,0,0,0-.19-.1c-.09,0-.19-.09-.37-.09a4.43,4.43,0,0,0-.47-.09h-.46a3,3,0,0,0-.93.09,2,2,0,0,0-.75.37,2.52,2.52,0,0,0-.46.56,1.79,1.79,0,0,0-.19.74,1.27,1.27,0,0,0,.1.65,2,2,0,0,0,.27.47,2.14,2.14,0,0,0,.47.37c.19.09.28.19.46.28s.38.09.47.19.28.09.46.18l.28.28a.44.44,0,0,1,0,.56.2.2,0,0,1-.18.19.36.36,0,0,1-.28.09h-.37c-.19,0-.47,0-.56-.09s-.37-.1-.47-.19-.28-.09-.37-.19a.28.28,0,0,0-.18-.09h-.1a.09.09,0,0,0-.09.09v.84a.36.36,0,0,0,.09.19l.19.18c.09.1.18.1.37.19a.88.88,0,0,0,.47.09c.18,0,.37.09.55.09a2.94,2.94,0,0,0,.93-.09A1.82,1.82,0,0,0,325,12a1.71,1.71,0,0,0,.46-.65,2.55,2.55,0,0,0,.19-.84,1,1,0,0,0,0-.74M306.53,8.68a1.24,1.24,0,0,1,.09-.56c.1-.18.1-.28.19-.46a1.31,1.31,0,0,1,.37-.28,1,1,0,0,1,.56-.09.91.91,0,0,1,.84.37,1.71,1.71,0,0,1,.28,1Zm3.81.19a4.84,4.84,0,0,0-.18-1.12,1.78,1.78,0,0,0-.47-.84,1.34,1.34,0,0,0-.83-.55,4.51,4.51,0,0,0-1.21-.19,4.39,4.39,0,0,0-1.21.19,3.24,3.24,0,0,0-.93.65A2.19,2.19,0,0,0,305,8a5.65,5.65,0,0,0-.19,1.3,6.58,6.58,0,0,0,.19,1.4,1.58,1.58,0,0,0,.56.93,2,2,0,0,0,.93.56,5.67,5.67,0,0,0,1.3.18,1.83,1.83,0,0,0,.74-.09c.28,0,.47-.09.66-.09s.37-.1.46-.19a.29.29,0,0,1,.19-.09l.09-.1v-1a.09.09,0,0,0-.09-.09h-.1a.36.36,0,0,0-.28.09c-.09,0-.18.09-.37.09a1.1,1.1,0,0,1-.56.1c-.18,0-.46.09-.74.09a1.42,1.42,0,0,1-.65-.09,2.64,2.64,0,0,1-.47-.28,2.17,2.17,0,0,1-.27-.47,1.27,1.27,0,0,1-.1-.65h3.35c.19,0,.28,0,.37-.09s.1-.28.1-.47V8.87Zm-16.92-.28a3.55,3.55,0,0,0-.09-1,2,2,0,0,0-.38-.75,1.63,1.63,0,0,0-.65-.46,2.56,2.56,0,0,0-.93-.19,2.07,2.07,0,0,0-1,.28,3.35,3.35,0,0,0-.93.74V6.45l-.09-.09c-.1,0-.1,0-.19-.1h-.65c-.09,0-.19,0-.19.1a.09.09,0,0,0-.09.09v5.77l.09.09a.34.34,0,0,1,.28.09h.75a.36.36,0,0,0,.28-.09.09.09,0,0,0,.09-.09V8.4a4.43,4.43,0,0,1,.65-.65.8.8,0,0,1,.65-.18c.19,0,.28,0,.37.09l.28.28c.1.09.1.28.19.37s.09.37.09.65v3.26l.09.09c.1,0,.1,0,.28.09h.75a.36.36,0,0,0,.28-.09.09.09,0,0,0,.09-.09V8.59ZM276.31,3.94a1.21,1.21,0,0,0-.75-.19,1.47,1.47,0,0,0-.74.19,1.09,1.09,0,0,0-.19.65,1.09,1.09,0,0,0,.19.65,1.2,1.2,0,0,0,.74.19,1.48,1.48,0,0,0,.75-.19,1.1,1.1,0,0,0,.18-.65,1.35,1.35,0,0,0-.18-.65m.09,2.6V6.45l-.09-.09a.33.33,0,0,1-.28-.1h-.74a.32.32,0,0,0-.28.1.09.09,0,0,0-.1.09v5.77l.1.09a.36.36,0,0,1,.28.09H276a.35.35,0,0,0,.28-.09.09.09,0,0,0,.09-.09V6.54ZM263.29,9.8a2.15,2.15,0,0,0-.28-.47,2.05,2.05,0,0,0-.46-.37,1.93,1.93,0,0,1-.47-.28c-.19-.09-.37-.09-.46-.18s-.28-.1-.47-.19a1.48,1.48,0,0,0-.28-.19.34.34,0,0,1-.09-.28.33.33,0,0,1,.09-.27c0-.1.09-.1.19-.19a.34.34,0,0,1,.28-.09h.37a1.24,1.24,0,0,1,.56.09.47.47,0,0,1,.37.19c.09.09.18.09.28.18s.09.09.18.09h.1l.09-.09v-1a.09.09,0,0,0-.09-.09.35.35,0,0,0-.19-.1c-.09,0-.19-.09-.37-.09a4,4,0,0,0-.47-.09h-.46a3,3,0,0,0-.93.09,2,2,0,0,0-.75.37,2.52,2.52,0,0,0-.46.56,1.79,1.79,0,0,0-.19.74,1.27,1.27,0,0,0,.1.65,1.66,1.66,0,0,0,.28.47,1.85,1.85,0,0,0,.46.37c.19.09.28.19.47.28s.37.09.46.19.28.09.47.18.18.19.27.28a.44.44,0,0,1,0,.56.2.2,0,0,1-.18.19.35.35,0,0,1-.28.09h-.37c-.19,0-.47,0-.56-.09s-.37-.1-.47-.19-.27-.09-.37-.19a.28.28,0,0,0-.18-.09h-.1a.09.09,0,0,0-.09.09v.84a.36.36,0,0,0,.09.19l.19.18c.09.1.19.1.37.19a.88.88,0,0,0,.47.09c.18,0,.37.09.55.09a2.9,2.9,0,0,0,.93-.09,1.82,1.82,0,0,0,.75-.37,1.71,1.71,0,0,0,.46-.65,2.55,2.55,0,0,0,.19-.84,1,1,0,0,0,0-.74M247.67,6.45V6.36l-.1-.1c-.09,0-.09,0-.28-.09h-.74a.35.35,0,0,0-.28.09c-.09,0-.09.1-.09.1v3.81a5,5,0,0,1-.65.65A.68.68,0,0,1,245,11c-.19,0-.28,0-.37-.1l-.28-.28c-.09-.09-.09-.27-.19-.37s-.09-.37-.09-.65V6.36l-.09-.1a.34.34,0,0,1-.28-.09h-.75a.36.36,0,0,0-.28.09c-.09,0-.09.1-.09.1V9.89a3.25,3.25,0,0,0,.09,1,2,2,0,0,0,.38.75,4.24,4.24,0,0,0,.65.56,2.85,2.85,0,0,0,.93.18,2.07,2.07,0,0,0,1-.28,3.18,3.18,0,0,0,.93-.74v.74l.09.1c.1,0,.1,0,.19.09h.65c.09,0,.19,0,.19-.09s.09-.1.09-.1V6.45Zm-18.51,3.91c-.09.09-.19.27-.28.37a.71.71,0,0,1-.37.18,1.11,1.11,0,0,1-.56.1h-1.21V8.68h.93a1.91,1.91,0,0,1,.75.09c.18.1.37.1.46.19a1.31,1.31,0,0,1,.28.37.88.88,0,0,1,.09.47,3.55,3.55,0,0,1-.09.56m-.46-3.54a.73.73,0,0,1-.19.37.47.47,0,0,1-.37.19,1.22,1.22,0,0,1-.56.09h-.93V5.33h.84a1.29,1.29,0,0,1,.65.1.49.49,0,0,1,.37.18c.09.1.19.19.19.28a4,4,0,0,1,.09.47c0,.28,0,.37-.09.46m2.13,2.33a1.7,1.7,0,0,0-.37-.56,1.5,1.5,0,0,0-.46-.37,1.28,1.28,0,0,0-.65-.19,2.05,2.05,0,0,0,.46-.28c.19-.09.28-.28.37-.37s.19-.28.19-.47a1.18,1.18,0,0,0,.09-.55,2.79,2.79,0,0,0-.18-.93,1.25,1.25,0,0,0-.56-.65,3.47,3.47,0,0,0-.84-.38,5.46,5.46,0,0,0-1.3-.09h-2.05a.57.57,0,0,0-.37.09.51.51,0,0,0-.18.38v7.06a.51.51,0,0,0,.18.38c.09.09.19.09.37.09h2.14a2.41,2.41,0,0,0,.84-.09,1.75,1.75,0,0,0,.74-.19,4.19,4.19,0,0,0,.65-.28,1.1,1.1,0,0,0,.47-.46,4.32,4.32,0,0,0,.37-.66,2.06,2.06,0,0,0,.09-.74.94.94,0,0,0,0-.74M200.7,6.82c0-.09.1-.18.1-.28s0-.09-.1-.18-.18-.1-.27-.1h-.93c-.1,0-.19,0-.19.1a.31.31,0,0,0-.09.18L198,10.36h0l-1.3-3.72a.31.31,0,0,0-.1-.19.09.09,0,0,0-.09-.09.33.33,0,0,1-.28-.1h-.93c-.09,0-.19.1-.28.1s-.09.09-.09.18a.69.69,0,0,0,.09.37L197,12c0,.09.1.09.1.19s.09.09.18.09l-.74,1.86v.18c0,.1,0,.1.09.1s.1.09.19.09h.37a1.83,1.83,0,0,0,.74-.09c.19,0,.28-.1.28-.19l.65-1.95Zm-16.36-.18V6.36a.1.1,0,0,0-.1-.1c-.09,0-.09,0-.09-.09s-.09,0-.18-.09h-.38a.57.57,0,0,0-.37.09.66.66,0,0,0-.37.19c-.09.09-.28.18-.37.28a1.27,1.27,0,0,0-.37.55V6.45l-.1-.09c-.09,0-.09,0-.18-.1h-.65c-.1,0-.19,0-.19.1a.09.09,0,0,0-.09.09v5.77l.09.09a.35.35,0,0,1,.28.09H182a.34.34,0,0,0,.28-.09.09.09,0,0,0,.09-.09V8.68a1,1,0,0,1,.38-.46l.28-.28c.09-.1.18-.1.27-.19s.19-.09.28-.09h.19c.09,0,.09,0,.19.09s.09,0,.18.09h.19l.09-.09V7.19c0-.18-.09-.46-.09-.55m-19,2a1.24,1.24,0,0,1,.09-.56c.09-.18.09-.28.19-.46a1.18,1.18,0,0,1,.37-.28,1,1,0,0,1,.56-.09.89.89,0,0,1,.83.37,1.65,1.65,0,0,1,.28,1Zm3.9.19a4.84,4.84,0,0,0-.18-1.12,1.87,1.87,0,0,0-.47-.84,1.34,1.34,0,0,0-.84-.55,3.92,3.92,0,0,0-2.41,0,3.11,3.11,0,0,0-.93.65,2.19,2.19,0,0,0-.56,1,5.65,5.65,0,0,0-.19,1.3,6.58,6.58,0,0,0,.19,1.4,1.58,1.58,0,0,0,.56.93,2,2,0,0,0,.93.56,5.59,5.59,0,0,0,1.3.18,1.83,1.83,0,0,0,.74-.09c.28,0,.47-.09.65-.09s.38-.1.47-.19a.28.28,0,0,1,.18-.09l.1-.1v-1a.09.09,0,0,0-.1-.09h-.09a.36.36,0,0,0-.28.09c-.09,0-.18.09-.37.09a1.11,1.11,0,0,1-.56.1c-.18,0-.46.09-.74.09A1.4,1.4,0,0,1,166,11a2.64,2.64,0,0,1-.47-.28,2.64,2.64,0,0,1-.28-.47,1.4,1.4,0,0,1-.09-.65h3.35c.18,0,.28,0,.37-.09a.72.72,0,0,0,.09-.47V8.87Zm-16.92-.28a3.21,3.21,0,0,0-.1-1,1.82,1.82,0,0,0-.37-.75,1.63,1.63,0,0,0-.65-.46,2.6,2.6,0,0,0-.93-.19,2.07,2.07,0,0,0-1,.28,3.35,3.35,0,0,0-.93.74V6.45l-.09-.09c-.1,0-.1,0-.19-.1h-.65c-.09,0-.19,0-.19.1a.09.09,0,0,0-.09.09v5.77l.09.09a.34.34,0,0,1,.28.09h.75a.33.33,0,0,0,.27-.09.09.09,0,0,0,.1-.09V8.4a4,4,0,0,1,.65-.65.79.79,0,0,1,.65-.18c.19,0,.28,0,.37.09l.28.28c.09.09.09.28.19.37s.09.37.09.65v3.26l.09.09c.1,0,.1,0,.28.09H152a.33.33,0,0,0,.27-.09.09.09,0,0,0,.1-.09V8.59Zm-18.51,1.49c-.09.18-.09.46-.28.55a1,1,0,0,1-.46.38,1.42,1.42,0,0,1-.65.09,1.25,1.25,0,0,1-.65-.19.72.72,0,0,1-.38-.37,1.32,1.32,0,0,1-.18-.56c0-.18-.1-.46-.1-.74a1.66,1.66,0,0,1,.1-.74,2.42,2.42,0,0,1,.28-.56.89.89,0,0,1,.46-.37,1.29,1.29,0,0,1,.65-.1,1.35,1.35,0,0,1,.65.19.72.72,0,0,1,.38.37,1.36,1.36,0,0,1,.18.56c0,.18.09.46.09.74a2.15,2.15,0,0,1-.09.75m1.58-2.14a1.55,1.55,0,0,0-.56-.93,1.83,1.83,0,0,0-.93-.56,5.56,5.56,0,0,0-1.3-.19,5.65,5.65,0,0,0-1.3.19,2.45,2.45,0,0,0-.93.65,2.28,2.28,0,0,0-.56,1,5.76,5.76,0,0,0-.18,1.31,5.67,5.67,0,0,0,.18,1.3,1.63,1.63,0,0,0,.56.93,2,2,0,0,0,.93.56,5.67,5.67,0,0,0,1.3.18,5.59,5.59,0,0,0,1.3-.18,2.32,2.32,0,0,0,.93-.66,2.14,2.14,0,0,0,.56-1,5.15,5.15,0,0,0,.19-1.3c-.09-.56-.09-.93-.19-1.3M118,3.94a1.2,1.2,0,0,0-.74-.19,1.51,1.51,0,0,0-.75.19,1.1,1.1,0,0,0-.18.65,1.1,1.1,0,0,0,.18.65,1.26,1.26,0,0,0,.75.19,1.44,1.44,0,0,0,.74-.19,1,1,0,0,0,.19-.65.76.76,0,0,0-.19-.65m.1,2.6V6.45l-.1-.09a.34.34,0,0,1-.28-.1H117a.33.33,0,0,0-.28.1.09.09,0,0,0-.09.09v5.77l.09.09a.35.35,0,0,1,.28.09h.74a.34.34,0,0,0,.28-.09.09.09,0,0,0,.1-.09V6.54ZM105.2,11.19V11s0-.1-.09-.1h-.19a.09.09,0,0,0-.09.1c-.1,0-.1,0-.19.09h-.18a.53.53,0,0,1-.47-.19,1.35,1.35,0,0,1-.19-.65V7.57H105a.2.2,0,0,0,.19-.19,4,4,0,0,0,.09-.47V6.64c0-.1,0-.19-.09-.19a.09.09,0,0,0-.09-.09H103.8V5.05L103.71,5c-.09,0-.09,0-.28-.09h-.74a.35.35,0,0,0-.28.09.09.09,0,0,0-.09.09V6.36h-.75l-.09.09c0,.09,0,.09-.09.19v.27a.72.72,0,0,0,.09.47.2.2,0,0,0,.19.19h.65v2.88a3,3,0,0,0,.09.93,1.54,1.54,0,0,0,.37.65,1.81,1.81,0,0,0,.56.37,2.13,2.13,0,0,0,.84.09h.37a.36.36,0,0,0,.28-.09c.09,0,.18-.09.28-.09s.09-.09.18-.09a.35.35,0,0,0,.1-.19v-.47c-.19-.18-.19-.27-.19-.37m-16.46-.56a2.33,2.33,0,0,1-.56.47,1.35,1.35,0,0,1-.65.19,1.38,1.38,0,0,1-.65-.19c-.19-.09-.19-.28-.19-.56a.52.52,0,0,1,.1-.37c.09-.09.09-.19.28-.28s.27-.09.46-.19.37-.09.65-.09h.56Zm1.49-2.32c0-.37-.1-.74-.1-1a1.54,1.54,0,0,0-.46-.65,2,2,0,0,0-.74-.38,4,4,0,0,0-1.12-.09,2.06,2.06,0,0,0-.74.09,1.83,1.83,0,0,0-.66.19c-.18.09-.37.09-.55.19a1.07,1.07,0,0,0-.28.18c-.1.09-.1.09-.1.19v.56c0,.09,0,.18.1.18a.09.09,0,0,0,.09.09h.09A.34.34,0,0,0,86,7.75c.1-.09.28-.09.37-.18s.38-.1.56-.19a1.91,1.91,0,0,1,.75-.09.7.7,0,0,1,.46.09c.09,0,.28.09.28.19s.09.18.19.37a4.16,4.16,0,0,1,.09.46v.37h-.56a5.32,5.32,0,0,0-1.3.1,2.67,2.67,0,0,0-.93.37,1.56,1.56,0,0,0-.56.56,2.82,2.82,0,0,0-.18.83,1.84,1.84,0,0,0,.18.75,2.54,2.54,0,0,0,.47.56,1.48,1.48,0,0,0,.65.37,2.64,2.64,0,0,0,.83.09,4,4,0,0,0,1-.18,2.33,2.33,0,0,0,.74-.56v.46c0,.1,0,.1.09.1a.36.36,0,0,0,.19.09h.74c.1,0,.19,0,.19-.09l.09-.1V8.31Zm-16,2.88V11s0-.1-.09-.1H74a.09.09,0,0,0-.09.1c-.09,0-.09,0-.19.09a.12.12,0,0,1-.18,0,.55.55,0,0,1-.47-.19,1.35,1.35,0,0,1-.18-.65V7.57h1.21a.2.2,0,0,0,.18-.19,3.62,3.62,0,0,0,.1-.47V6.64c0-.1,0-.19-.1-.19a.09.09,0,0,0-.09-.09h-1.3V5.05L72.74,5c-.09,0-.09,0-.27-.09h-.75a.36.36,0,0,0-.28.09.09.09,0,0,0-.09.09V6.36h-.74l-.1.09c0,.09,0,.09-.09.19v.27a.72.72,0,0,0,.09.47.21.21,0,0,0,.19.19h.65v2.88a3,3,0,0,0,.09.93,1.65,1.65,0,0,0,.37.65,1.93,1.93,0,0,0,.56.37,2.16,2.16,0,0,0,.84.09h.37a.35.35,0,0,0,.28-.09c.09,0,.19-.09.28-.09s.09-.09.19-.09a.36.36,0,0,0,.09-.19v-.47c-.19-.18-.19-.27-.19-.37M59.45,9a1.56,1.56,0,0,0-.38-.65,2.55,2.55,0,0,0-.55-.47c-.19-.09-.47-.27-.65-.37s-.47-.18-.66-.28l-.55-.28a.72.72,0,0,1-.38-.37.72.72,0,0,1-.18-.46.55.55,0,0,1,.09-.37c0-.1.09-.19.19-.28s.18-.1.37-.19a4.16,4.16,0,0,1,.46-.09,1.67,1.67,0,0,1,.66.09c.18.09.37.09.46.19s.28.09.37.18a.3.3,0,0,0,.19.1H59l.09-.1v-1A.09.09,0,0,0,59,4.5a.94.94,0,0,0-.28-.19c-.18-.09-.28-.09-.46-.19A1.22,1.22,0,0,0,57.68,4h-.56a3.14,3.14,0,0,0-1,.19,2.52,2.52,0,0,0-.84.46,1.51,1.51,0,0,0-.56.75,1.89,1.89,0,0,0-.18,1,1.94,1.94,0,0,0,.18.84,1.56,1.56,0,0,0,.38.65,2.49,2.49,0,0,0,.55.46,3.86,3.86,0,0,0,.65.37c.19.1.47.19.66.28l.55.28a.8.8,0,0,1,.38.37.74.74,0,0,1,.18.47.83.83,0,0,1-.09.46c-.09.1-.19.28-.28.28a.66.66,0,0,1-.37.19,1.22,1.22,0,0,1-.56.09,2.68,2.68,0,0,1-.84-.09,1.94,1.94,0,0,0-.56-.19c-.18-.09-.27-.18-.37-.18a.32.32,0,0,0-.28-.1h-.09l-.09.1v.93c0,.09.09.18.09.28s.19.09.28.18.28.1.46.19a6.53,6.53,0,0,0,.66.18c.27,0,.46.1.74.1a4.15,4.15,0,0,0,1.12-.19,3,3,0,0,0,.93-.46,2.19,2.19,0,0,0,.65-.84A2,2,0,0,0,59.73,10a7.5,7.5,0,0,1-.28-1" transform="translate(-8.11 -3.38)"/><path class="cls-1" d="M42.24,4.4,26.15,24.58,41.5,45.32H30.71L16.76,24.58,31.55,4.4ZM16.39,45.23H8.11V4.31h8.28Z" transform="translate(-8.11 -3.38)"/><path class="cls-1" d="M60.93,39.93V33.79H51.45c-2,0-3.16.93-3.16,3.07a2.88,2.88,0,0,0,3.16,3h9.48Zm6.61,5.3H51.36a11.05,11.05,0,0,1-6.7-1.77c-1.77-1.39-2.6-3.44-2.6-6.32A8.94,8.94,0,0,1,44,31.09c1.58-1.67,3.91-2.51,7.07-2.51h9.85V28c0-3.44-1.48-4.92-5.48-4.92H43.36V17.79H57.59c2.79,0,4.83.47,6.23,1.49,2.51,1.77,3.72,5.3,3.72,10.6Z" transform="translate(-8.11 -3.38)"/><polygon class="cls-1" points="89 41.85 81.83 41.85 81.83 29.85 71.05 29.85 71.05 41.85 63.89 41.85 63.89 14.23 71.05 14.23 71.05 23.99 81.83 23.99 81.83 14.23 89 14.23 89 41.85"/><path class="cls-1" d="M111.15,45.23c-7.07,0-10.41-3.07-10.41-10.6V17.7h7.16V35.37c0,2.7,1.11,4,3.44,4H118V17.7h7.16V39.37a2.89,2.89,0,0,1,2.7,3v8h-6.6v-4c0-.65-.84-1-1.49-1h-8.65Z" transform="translate(-8.11 -3.38)"/><path class="cls-1" d="M150.77,28.49a4.18,4.18,0,0,0-1.86-3.81A6.46,6.46,0,0,0,145,23.56c-3.81,0-5.58,1.49-5.58,4.93Zm5.95,5.95H139.51c0,3.63,2.05,4.93,6.33,4.93h9.86v5.86h-10c-4.55,0-8-1.3-10.32-4-2.05-2.42-3.16-5.86-3.16-10.14a13.4,13.4,0,0,1,3.35-9.48,12.24,12.24,0,0,1,9.57-3.91c4.1,0,7.26,1.4,9.21,4.19,1.67,2.32,2.42,5.39,2.42,9.2v3.35Z" transform="translate(-8.11 -3.38)"/><path class="cls-1" d="M183.69,45.23h-7.16V23.65h-4.1c-3,0-4.09,1.12-4.09,5.86v5.3c0,3.16-.74,5.58-2.32,7.35-1.77,2-4.56,3-8.37,3V39.28a5.58,5.58,0,0,0,2.42-.47,2.71,2.71,0,0,0,1-2.42l.09-8.46c0-3.35.75-5.86,2.23-7.53,1.68-1.86,4.56-2.79,8.47-2.79h11.81V45.23Z" transform="translate(-8.11 -3.38)"/><path class="cls-1" d="M205.35,30.26v-6.7h-8.46c-2.42,0-3.72,1.12-3.72,3.35,0,2,1.58,3.25,3.72,3.25h8.46Zm6.61,15h-6.61v-9h-6.69c-2.7,0-3.81,1.67-3.81,4.09v4.93h-7.26V40.3a7.2,7.2,0,0,1,1.3-4.37,7.19,7.19,0,0,1,2.24-1.68,7,7,0,0,1-3.35-3.62,11.11,11.11,0,0,1-.65-4.28c0-5.67,4.09-8.74,9.85-8.74h15.07V45.23Z" transform="translate(-8.11 -3.38)"/><path class="cls-1" d="M235.3,31.37c0-4.93-2.42-7.72-6.88-7.72h-4.93V39.46h4.37c5-.09,7.44-2.69,7.44-8.09m7.34.56c0,4.09-1,7.35-3.16,9.67s-5.39,3.72-9.58,3.72h-6.32V55.64h-7.16V17.79h14.14c7.62-.09,12.08,5.12,12.08,14.14" transform="translate(-8.11 -3.38)"/><path class="cls-1" d="M268.12,45.23h-9.76c-4.84,0-8.46-1.3-10.69-3.91-2-2.32-3-5.58-3-9.95s.93-7.53,2.79-9.76q3.35-3.91,10.88-3.91h9.76v5.86h-8.55c-5.3,0-7.63,2.23-7.63,7.81,0,5.4,2.33,7.91,8.37,7.91H268v5.95Z" transform="translate(-8.11 -3.38)"/><path class="cls-1" d="M292.4,45.23h-7.16V38.81c0-3.25-1.21-4.37-4-4.37H278V45.23h-7.16V17.7H278V29.14h1.21l5.12-11.44h8l-7,11.44a5.89,5.89,0,0,1,5.21,2.79,11.49,11.49,0,0,1,1.67,6.51v6.79Z" transform="translate(-8.11 -3.38)"/><path class="cls-1" d="M314.53,31.46c0-5.57-2.14-8.27-6.42-8.27S301.6,26,301.6,31.65c0,5.49,2.23,8.28,6.51,8.28s6.42-2.89,6.42-8.47m7.35.38c0,4.27-1.21,7.62-3.72,10.13S312.3,45.69,308,45.69c-8.56,0-13.58-5.11-13.58-14.32a13.9,13.9,0,0,1,3.72-10.13,13.5,13.5,0,0,1,9.95-3.82c4.56,0,8,1.4,10.32,4s3.45,5.95,3.45,10.42" transform="translate(-8.11 -3.38)"/><path class="cls-1" d="M342.43,28.49a4.18,4.18,0,0,0-1.86-3.81,6.46,6.46,0,0,0-3.91-1.12c-3.81,0-5.58,1.49-5.58,4.93Zm5.86,5.95H331.08c0,3.63,2.05,4.93,6.33,4.93h9.85v5.86h-10c-4.56,0-8-1.3-10.32-4-2-2.42-3.16-5.86-3.16-10.14a13.43,13.43,0,0,1,3.34-9.48,12.26,12.26,0,0,1,9.58-3.91c4.09,0,7.25,1.4,9.21,4.19,1.67,2.32,2.42,5.39,2.42,9.2Z" transform="translate(-8.11 -3.38)"/><path class="cls-1" d="M398.32,37.14V10.82s-3.91-.09-7.82,0c-4.83.09-4.83,5.86-4.83,5.86v6.14a69.31,69.31,0,0,1-.56,8.74c-.37,2.88-.84,4.74-1.58,5.67h14.79Zm11.9,14.6h-7.63V46.06A1.59,1.59,0,0,0,401,44.39H380.18a1.73,1.73,0,0,0-1.67,1.67v5.68h-7.63V41.42a4.71,4.71,0,0,1,4.47-4.28c1.67-3.72,2.51-8.93,2.51-14.32V14.08S377,3.38,388.92,3.38h17.77V37c1.86,0,3.62,2,3.62,4.28V51.74Z" transform="translate(-8.11 -3.38)"/><path class="cls-1" d="M428.82,27.65A4.19,4.19,0,0,0,427,23.84a6.51,6.51,0,0,0-3.91-1.12c-3.81,0-5.58,1.49-5.58,4.93Zm5.95,6h-17.2c0,3.63,2,4.93,6.32,4.93h9.86v5.86H423.7c-4.55,0-8-1.3-10.32-4-2-2.42-3.16-5.86-3.16-10.13a13.45,13.45,0,0,1,3.35-9.49,12.28,12.28,0,0,1,9.58-3.91c4.09,0,7.25,1.4,9.2,4.19,1.68,2.32,2.42,5.39,2.42,9.21Z" transform="translate(-8.11 -3.38)"/><path class="cls-1" d="M461.83,44.39h-7.16V22.82h-4.09c-3,0-4.09,1.11-4.09,5.86V34c0,3.16-.75,5.58-2.33,7.34-1.76,2-4.55,3-8.37,3V38.44a5.26,5.26,0,0,0,2.42-.47,2.69,2.69,0,0,0,1-2.41l.1-8.47q0-5,2.23-7.53c1.67-1.86,4.56-2.79,8.46-2.79h11.81Z" transform="translate(-8.11 -3.38)"/><path class="cls-1" d="M484.43,30.63c0-5.58-2.14-8.28-6.42-8.28s-6.51,2.79-6.51,8.46c0,5.49,2.23,8.28,6.51,8.28s6.42-2.88,6.42-8.46m7.35.37c0,4.28-1.21,7.63-3.72,10.14s-5.86,3.72-10.14,3.72c-8.56,0-13.58-5.12-13.58-14.32a13.91,13.91,0,0,1,3.72-10.14A13.53,13.53,0,0,1,478,16.59c4.56,0,8,1.39,10.32,4,2.33,2.42,3.45,6,3.45,10.42" transform="translate(-8.11 -3.38)"/><text class="cls-2" transform="translate(384.17 61.1)"> </text><text class="cls-3" transform="translate(457.51 60.38)"> </text></svg>