<?xml version="1.0" encoding="utf-8"?>
<!-- Generator: Adobe Illustrator 22.1.0, SVG Export Plug-In . SVG Version: 6.00 Build 0)  -->
<svg version="1.1" id="Слой_1" xmlns="http://www.w3.org/2000/svg" xmlns:xlink="http://www.w3.org/1999/xlink" x="0px" y="0px"
	 viewBox="0 0 175.5 175.5" style="enable-background:new 0 0 175.5 175.5;" xml:space="preserve">
<style type="text/css">
	.st0{fill:#0A0028;}
	.st1{fill:#FFFFFF;}
	.st2{fill:#0A0028;stroke:#0A0028;stroke-miterlimit:10;}
</style>
<path class="st0" d="M122.2,1.2h47.6c2.5,0,4.6,2,4.6,4.6v47.6c0,2.5-2,4.6-4.6,4.6h-47.6c-2.5,0-4.6-2-4.6-4.6V5.8
	C117.6,3.2,119.6,1.2,122.2,1.2z"/>
<path class="st1" d="M122.2,0h47.6c1.6,0,3,0.6,4.1,1.7l0,0l0,0c1.1,1.1,1.7,2.5,1.7,4.1v47.6c0,1.6-0.6,3-1.7,4.1l0,0
	c-1.1,1.1-2.5,1.7-4.1,1.7h-47.6c-1.6,0-3-0.6-4.1-1.7c-1.1-1.1-1.7-2.5-1.7-4.1V5.8c0-1.6,0.6-3,1.7-4.1l0,0
	C119.2,0.6,120.6,0,122.2,0z M169.8,2.3h-47.6c-1,0-1.8,0.4-2.4,1l0,0c-0.6,0.6-1,1.5-1,2.4v47.6c0,1,0.4,1.8,1,2.4
	c0.6,0.6,1.5,1,2.4,1h47.6c1,0,1.8-0.4,2.4-1l0,0c0.6-0.6,1-1.5,1-2.4V5.8c0-1-0.4-1.8-1-2.4l0,0C171.6,2.7,170.7,2.3,169.8,2.3z"/>
<path class="st1" d="M116.4,64.6c-3.1,0-5.6-2.5-5.5-5.6V27.6v-22c0-3.1-2.5-5.6-5.5-5.6H5.6C2.5,0,0,2.5,0,5.6v164.3
	c0,3.1,2.5,5.6,5.5,5.6h164.4c3.1,0,5.5-2.5,5.5-5.6V70.2c0-3.1-2.5-5.6-5.5-5.6h-26.1H116.4L116.4,64.6L116.4,64.6z"/>
<polygon class="st2" points="144.9,73.4 105.7,160.6 87.1,160.6 48.4,73.4 75.5,73.4 96.6,118.3 118.8,73.4 "/>
<path class="st2" d="M47.4,25v107.8H23V25H47.4z M103.6,25l-28,48.3H48.4L76,25H103.6L103.6,25L103.6,25z"/>
<path class="st1" d="M127.8,35.6h11.9v-12h-11.9C127.8,23.6,127.8,35.6,127.8,35.6z M140,39.9h-12.4v-4.1h-4.1V7.1h4.3v12.2H140v4.1
	h4.1v12.4H140V39.9L140,39.9z M164.4,52.1H152v-4.3h12.2v-12h-3.8v4.1H152v-4.1h-4V19.3h4.3v16.3h7.9v-4.1h4.1V19.3h4.3V48h-4.1v4.1
	H164.4z"/>
</svg>
