<?xml version="1.0" encoding="utf-8"?>
<!-- Generator: Adobe Illustrator 22.1.0, SVG Export Plug-In . SVG Version: 6.00 Build 0)  -->
<svg version="1.1" id="Слой_1" xmlns="http://www.w3.org/2000/svg" xmlns:xlink="http://www.w3.org/1999/xlink" x="0px" y="0px"
	 viewBox="0 0 700 165" style="enable-background:new 0 0 700 165;" xml:space="preserve">
<style type="text/css">
	.st0{fill:#FFFFFF;}
</style>
<g>
	<path class="st0" d="M58.6,0.2c1.5,0.2,3.1,0.3,4.6,0.6c3.3,0.5,6.6,1.1,10,1.7V3c-3-0.2-5.9-0.2-8.9,0
		c-8.9,0.8-17.1,5.3-22.5,12.5c-4.7,6.1-7.5,13.4-8.1,21c-0.5,7.1,0.1,14.2,1.8,21.1c3,13.1,9.1,24.8,17.1,35.5
		C63.8,108,78.1,120.2,94.5,129c2.7,1.4,5.4,2.8,8.4,4.3c-2.3,0.7-4.4,1.4-6.5,2c-7.5,2-15.2,2.9-23,2.6
		c-25.7-1.1-46.1-11.8-60-33.7C7.6,95,3.6,84.8,1.8,74.1C1.2,71,1,67.8,0.6,64.7c-0.1-0.4-0.2-0.8-0.3-1.1c0-3,0-6.1,0-9.1
		c0.2-1.2,0.4-2.4,0.5-3.6c0.7-7.7,2.8-15.1,6.3-21.9C15.7,12.5,29.1,3,47.6,0.8c1.3-0.2,2.5-0.3,3.8-0.5H58.6z"/>
	<path class="st0" d="M41.7,33.2c0.6-3.7,1.8-7.2,3.7-10.5C51.2,13.2,60,9.1,71,9.4c7.2,0.2,13.5,3.1,19.1,7.3
		c5,3.7,9.7,7.9,14.4,11.9c6.6,5.6,13.3,11.1,21.3,14.8c4.6,2.3,9.7,3.4,14.9,3.4c3.1-0.1,6.1-0.7,9-1.8l1.9-0.7
		c-4.5,5.5-9.9,10.3-15.9,14.3c-5.3,3.4-11.2,5.7-17.4,6.6c-8.6,1.3-17.4,0.1-25.4-3.5c-6.8-2.9-12.8-7.1-18.7-11.3
		c-4.5-3.2-9.1-6.4-13.7-9.4C54.8,37.2,48.4,34.5,41.7,33.2z"/>
	<path class="st0" d="M173,0.2c1,0.2,2,0.4,2.9,0.5c5.1,0.7,10,2.1,14.7,4.2c6.5,2.9,12.2,7.2,16.9,12.5c3.8,4.3,7,9.3,9.2,14.6
		c2,4.9,3.5,9.9,4.2,15.2c0.7,5.2,1,10.4,0.7,15.6c0,0.9-0.2,1.8-0.6,2.6c-0.2-1.2-0.4-2.4-0.5-3.5c-0.9-7.9-3.7-15.4-8.2-22
		c-4.3-6.4-10.6-11.1-17.9-13.5c-4-1.4-8.3-1.9-12.5-1.6c-5,0.4-9.9,2-14.1,4.6c-4,2.4-8,4.9-12.2,7.1c-4.2,2.3-9,3.6-13.8,3.7
		c-4.1-0.1-8.1-1-11.8-2.7c-5.1-2.4-9.8-5.4-14.1-8.9c-1.7-1.3-3.2-2.8-4.8-4.2c4.7-4.9,10-9.1,15.8-12.6c5.5-3.4,11.3-6,17.4-8
		c4.1-1.3,8.4-2.3,12.7-2.8c1.4-0.2,2.8-0.3,4.2-0.5c0.2,0,0.3-0.2,0.5-0.3L173,0.2z"/>
	<path class="st0" d="M40.9,138c4.1,1.4,8.3,2.9,12.6,4.2c5.5,1.6,11.2,2.5,16.9,2.9c20.2,1.5,38.8-3.5,56.4-13.2
		c17.1-9.3,31.6-22.6,42.6-38.7c8.1-11.6,13.8-24.6,16.9-38.4c1.5-6.5,2.3-13.2,2.2-19.9c0-0.4,0-0.7,0-1.1c0-0.1,0.1-0.3,0.2-0.4
		c2.3,0.1,4.6,0.7,6.7,1.7c6.2,2.8,10.6,7.5,14,13.2c3.7,6.1,5.9,12.9,6.7,20c0.9,8.3,0.1,16.7-2.5,24.7
		c-2.9,9.5-7.9,17.8-13.8,25.7c-8.7,11.6-19.5,21.3-31.8,28.8c-11.3,6.9-23.8,11.7-36.9,14.2c-8.5,1.6-17.2,2.3-25.9,1.8
		c-11.2-0.6-22.3-3-32.8-7.1c-11.4-4.4-22-10.6-31.5-18.4C40.9,138,40.8,137.9,40.9,138z"/>
	<path class="st0" d="M319.7,79.6c0,15.7,0,31.4,0,47.2c0,2.5-0.6,3-3,3h-10c-2.2,0-2.9-0.6-2.9-2.8c0-26.8,0-53.7,0-80.5
		c0-2.8-0.4-3.2-3.3-3.2c-4.2,0-8.3-0.1-12.5,0.2c-6.4,0.4-10.5,5-10.7,11.4c-0.1,7.5,0,15-0.3,22.4c-0.3,10-0.7,20.1-3.2,29.9
		c-1.1,4.8-3.2,9.4-6.1,13.4c-3.3,4.2-7.7,7.4-12.7,9.3c-1.7,0.7-3.5,1.3-5.3,1.9c-1,0.4-2.2,0-2.6-1c0,0,0-0.1,0-0.1
		c-1.4-2.7-2.8-5.5-4.1-8.3c-0.5-0.8-0.3-2,0.6-2.5c0.1-0.1,0.2-0.1,0.3-0.1c1.7-1,3.4-2,5.1-2.9c5.7-3.2,8.7-8.3,10.3-14.4
		c1.4-4.9,2.1-10,2.3-15.1c0.2-10.4,0.2-20.8,0.3-31.2c0-4.5,0.9-8.9,2.7-12.9c3-6.4,8.2-10.2,14.9-12.2c4.4-1.2,8.9-1.7,13.4-1.6
		c7.9,0,15.8,0,23.8,0c2.4,0,3,0.6,3,3C319.7,48.1,319.7,63.9,319.7,79.6z"/>
	<path class="st0" d="M392.1,103.9c0,7.7,0,15.3,0,23c0,2.2-0.6,2.9-2.8,2.9h-8.5c-1.9,0-2.6-0.6-2.8-2.5c-0.2-1.7-1.6-2.2-3.3-1.4
		c-2.4,1.4-4.8,2.6-7.4,3.6c-7.7,2.8-16.2,1.8-23.1-2.5c-6-3.7-8.9-9.4-9.8-16.2c-0.5-3.5-0.5-7,0.2-10.5c1.5-7.2,5.8-12,12.5-14.7
		c4.8-1.8,9.8-2.7,14.9-2.7c4.3-0.1,8.6,0,13,0c2.2,0,3-0.8,3-3.1c-0.2-4.4-3-8.3-7.1-9.9c-4.3-1.6-8.7-1.4-13.1-0.8
		c-4.5,0.7-8.9,1.9-13.1,3.6c-1.7,0.7-2.6,0.3-3.3-1.4c-0.9-2.1-1.7-4.3-2.6-6.4c-0.7-1.8-0.3-2.6,1.5-3.4c7-3.1,14.4-5.1,22-5.7
		c5.9-0.4,11.8,0.2,17.2,2.9c7.4,3.7,11.1,10,12.3,17.9c0.3,2.4,0.5,4.8,0.5,7.2C392.2,90.5,392.1,97.2,392.1,103.9z M377.9,103.1
		L377.9,103.1c0.1-1.2,0.1-2.3,0.1-3.5c-0.1-2.7-1.6-4.2-4.4-4.2c-4.1,0-8.2,0-12.2,0c-1.2,0-2.3,0.1-3.5,0.2
		c-6.9,0.9-11,6.3-10,13.2c0.8,5.8,5.8,10.2,11.7,10.2c4.9,0,9.6-1.6,13.5-4.6c2.6-1.8,4.5-4.1,4.8-7.3
		C378.1,105.9,378,104.5,377.9,103.1L377.9,103.1z"/>
	<path class="st0" d="M409.2,93.9c0-11.1,0-22.2,0-33.2c0-2,0.5-2.6,2.5-2.6c3.2,0,6.5,0,9.7,0c1.8,0,2.4,0.6,2.4,2.4
		c0,12.2,0,24.5,0,36.7c0,0.4,0,0.7,0,1.1c0,0.9,0.3,1.8,1.3,2c0.9,0.3,1.9-0.1,2.4-0.9c1.8-2.5,3.5-5,5.3-7.5
		c7.4-10.4,14.8-20.8,22.2-31.3c1-1.6,2.8-2.5,4.7-2.4c2.1,0,4.2,0,6.2,0c1.5,0,2.1,0.6,2.2,2.1c0,0.3,0,0.6,0,1
		c0,21.8,0,43.7,0,65.5c0,0.5,0,1-0.1,1.4c0,0.9-0.8,1.7-1.7,1.6c0,0,0,0,0,0c-3.6,0-7.1,0.1-10.7,0c-1.6,0-2.3-0.9-2.3-2.8
		c0-12.1,0-24.2,0-36.2c0-1.2,0.2-2.4-1.2-2.9c-1.1-0.4-1.8,0.1-3,1.7c-9.1,12.7-18.1,25.3-27.1,38c-1,1.6-2.8,2.5-4.7,2.4
		c-1.9-0.1-3.8,0-5.8,0s-2.5-0.5-2.5-2.5C409.2,116.2,409.2,105,409.2,93.9z"/>
	<path class="st0" d="M438.1,50.1c-7.1-0.3-13.2-3.3-17.1-10c-1.5-2.7-2.3-5.6-2.5-8.7c-0.2-0.9,0.4-1.7,1.3-1.9c0.2,0,0.3,0,0.5,0
		c1.8-0.1,3.6,0,5.4,0c0.9,0,1.7,0.6,1.9,1.5c1.6,5.2,5.3,7.8,10.7,8.1c4.9,0.4,9.5-2.6,11.1-7.2c0.8-2.4,0.9-2.4,3.4-2.4
		c1.4,0,2.7,0,4.1,0s1.9,0.7,1.8,2c-0.7,7.4-4,13.1-10.8,16.5C444.9,49.5,441.5,50.2,438.1,50.1z"/>
	<path class="st0" d="M485.9,94c0-11,0-22,0-33c0-2.4,0.5-2.8,2.9-2.8h9.5c2.5,0,2.9,0.4,2.9,2.8c0,8,0,16,0,24
		c0,2.2,0.5,2.7,2.7,2.7c1.5,0,3-0.1,4.6,0c4,0.2,7-1.6,9.2-4.7c1.4-1.9,2.7-4,3.7-6.1c2.8-5.4,5.4-10.9,8-16.3
		c0.5-1.6,2.1-2.7,3.8-2.4c3.2,0.2,6.3,0,9.5,0c2.3,0,3,1.1,2,3.1c-3.6,7.3-7.2,14.7-11,22c-1.6,3.2-4.1,5.8-7.1,7.6
		c-1,0.4-1.4,1.5-1,2.5c0.2,0.5,0.6,0.8,1,1c3.8,2.2,6.8,5.6,8.6,9.7c3.8,7.7,7.5,15.3,11.3,23c0.8,1.7,0.1,2.8-1.7,2.8
		c-3.8,0-7.6,0-11.4,0c-1.2,0.1-2.4-0.6-2.8-1.8c-3-6.1-6-12.3-9.1-18.4c-1.3-2.8-3.2-5.3-5.6-7.2c-1.8-1.4-4.1-2.3-6.4-2.4
		c-2.1-0.1-4.2-0.1-6.2-0.1c-1-0.1-1.9,0.6-2,1.6c0,0.1,0,0.3,0,0.4c0,1,0,1.9,0,2.9c0,7.5,0,15,0,22.4c0,2-0.5,2.5-2.6,2.5h-10.4
		c-1.8,0-2.4-0.6-2.4-2.4C485.9,116.3,485.9,105.1,485.9,94z"/>
	<path class="st0" d="M617.5,94c0,11,0,22.1,0,33.1c0,2.2-0.5,2.6-2.7,2.6h-10.3c-1.6,0-2.2-0.5-2.2-2.1c-0.1-3.2,0-6.5,0-9.7
		c0-5.4,0-10.9,0-16.3c0-1.9-0.5-2.4-2.4-2.4h-23.2c-1.9,0-2.5,0.6-2.5,2.5c0,8.5,0,17,0,25.4c0,2.2-0.4,2.6-2.7,2.6h-9.7
		c-2.4,0-2.8-0.4-2.8-2.9c0-13.7,0-27.4,0-41.2c0-8.3,0-16.6,0-24.8c0-2.4,0.4-2.8,2.9-2.8h9.8c2,0,2.5,0.5,2.5,2.5
		c0,7.8,0,15.5,0,23.3c0,2.4,0.5,2.9,2.9,2.9h22.6c2.3,0,2.7-0.4,2.7-2.8c0-7.5,0-15,0-22.5c0-0.6,0-1.1,0.1-1.7
		c0.1-0.9,0.8-1.6,1.7-1.6c3.9,0,7.8,0,11.6,0c1.3,0,1.8,0.8,1.8,2.3c0,10.9,0,21.8,0,32.6C617.5,93.4,617.5,93.7,617.5,94z"/>
	<path class="st0" d="M694.3,128.2c-0.5,1.4-1.5,1.7-2.8,1.7c-3-0.1-6,0-9,0c-2.4,0-3-0.7-3-3.1c0-12.1,0-24.2,0-36.4
		c0-1,0-2.1-1.2-2.5s-2,0.2-2.7,1.2c-5.7,7.9-11.5,15.9-17.2,23.9c-3.5,4.9-7,9.7-10.4,14.6c-0.9,1.5-2.5,2.3-4.2,2.2
		c-2.1-0.1-4.2,0-6.2,0c-1.7,0-2.2-0.5-2.2-2.2c0-22.4,0-44.9,0-67.3c0-1.5,0.5-2.1,2.1-2.2c3.5,0,7,0,10.4,0c1.5,0,2.1,0.7,2.1,2.4
		c0,12.4,0,24.8,0,37.2c0,0.6,0,1.1,0.2,1.7c0.6,1.4,2.5,1.4,3.5,0c2.5-3.5,5-7,7.5-10.6c6.6-9.3,13.2-18.7,19.9-28
		c1.1-1.8,3.2-2.8,5.3-2.7c1.8,0,3.5,0.1,5.3,0c1.3-0.1,2.4,0.3,2.8,1.7L694.3,128.2z"/>
</g>
</svg>
