<svg xmlns="http://www.w3.org/2000/svg" viewBox="0 0 48 48"><defs><style>.cls-1{fill:#fff;}</style></defs><title>logo</title><g id="Layer_2" data-name="Layer 2"><g id="Layer_1-2" data-name="Layer 1"><path class="cls-1" d="M24,0A24,24,0,1,0,48,24,24,24,0,0,0,24,0Zm0,46A22,22,0,1,1,46,24,22,22,0,0,1,24,46Z"/><path class="cls-1" d="M24,6.2A17.8,17.8,0,1,0,41.8,24,17.8,17.8,0,0,0,24,6.2Zm0,32.46A14.66,14.66,0,1,1,38.66,24,14.66,14.66,0,0,1,24,38.66Z"/><circle class="cls-1" cx="24" cy="24" r="10"/></g></g></svg>