<?xml version="1.0" encoding="UTF-8"?>
<svg width="23px" height="23px" viewBox="0 0 23 23" version="1.1" xmlns="http://www.w3.org/2000/svg" xmlns:xlink="http://www.w3.org/1999/xlink">
    <!-- Generator: Sketch 49.1 (51147) - http://www.bohemiancoding.com/sketch -->
    <title>logo</title>
    <desc>Created with Sketch.</desc>
    <defs></defs>
    <g id="intercom" stroke="none" stroke-width="1" fill="none" fill-rule="evenodd">
        <g id="Medium-≥768px" transform="translate(-523.000000, -3122.000000)" fill="#B300FF" fill-rule="nonzero">
            <g id="medium" transform="translate(-385.000000, 0.000000)">
                <g id="screen-02" transform="translate(385.000000, 401.000000)">
                    <g id="logo" transform="translate(523.000000, 2721.000000)">
                        <path d="M11.5,23 C5.14872538,23 0,17.8512746 0,11.5 C0,5.14872538 5.14872538,0 11.5,0 C17.8512746,0 23,5.14872538 23,11.5 C23,17.8512746 17.8512746,23 11.5,23 Z M11.5,22.5 C17.5751322,22.5 22.5,17.5751322 22.5,11.5 C22.5,5.42486775 17.5751322,0.5 11.5,0.5 C5.42486775,0.5 0.5,5.42486775 0.5,11.5 C0.5,17.5751322 5.42486775,22.5 11.5,22.5 Z" id="Oval"></path>
                        <path d="M11.5,20 C6.80557963,20 3,16.1944204 3,11.5 C3,6.80557963 6.80557963,3 11.5,3 C16.1944204,3 20,6.80557963 20,11.5 C20,16.1944204 16.1944204,20 11.5,20 Z M11.5,18.5 C15.3659932,18.5 18.5,15.3659932 18.5,11.5 C18.5,7.63400675 15.3659932,4.5 11.5,4.5 C7.63400675,4.5 4.5,7.63400675 4.5,11.5 C4.5,15.3659932 7.63400675,18.5 11.5,18.5 Z" id="Oval"></path>
                        <circle id="Oval" cx="11.5" cy="11.5" r="4.5"></circle>
                    </g>
                </g>
            </g>
        </g>
    </g>
</svg>