<svg id="Layer_1" data-name="Layer 1" xmlns="http://www.w3.org/2000/svg" viewBox="0 0 243.04 243.04"><defs><style>.cls-1{fill:#fff;}</style></defs><title>moikrug-rabota-s-sfere-it</title><path class="cls-1" d="M288.32,439.61a2.41,2.41,0,0,0,.65-.36,1.73,1.73,0,0,0,.48-.53,1.21,1.21,0,0,0,.18-.64,1.31,1.31,0,0,0-.52-1.2,3.55,3.55,0,0,0-1.81-.33l-1.08,0-.77,0v3.13h2.11A2.48,2.48,0,0,0,288.32,439.61Z" transform="translate(-174.57 -298.42)"/><path class="cls-1" d="M287.35,441.05h-1.9v3.47q.41,0,.81.06c.27,0,.58,0,.94,0a4.42,4.42,0,0,0,2.14-.4,1.5,1.5,0,0,0,.7-1.41,1.55,1.55,0,0,0-.59-1.25A3.37,3.37,0,0,0,287.35,441.05Z" transform="translate(-174.57 -298.42)"/><path class="cls-1" d="M316.88,436.44h-.47a2.43,2.43,0,0,0-.5.1v8.18a3.14,3.14,0,0,0,.48.06H317a2.28,2.28,0,0,0,2.08-1.14,6.33,6.33,0,0,0,.7-3.3,5.53,5.53,0,0,0-.63-2.87A2.43,2.43,0,0,0,316.88,436.44Z" transform="translate(-174.57 -298.42)"/><path class="cls-1" d="M271.75,441.09a11.2,11.2,0,0,0-1.3.08,4,4,0,0,0-1.12.28,1.86,1.86,0,0,0-.77.56,1.33,1.33,0,0,0-.29.89,1.57,1.57,0,0,0,.53,1.24,2,2,0,0,0,1.38.49,3.31,3.31,0,0,0,1.08-.17,2.86,2.86,0,0,0,.82-.41,2.46,2.46,0,0,0,.57-.54,2.54,2.54,0,0,0,.33-.59v-1.78l-.61,0Z" transform="translate(-174.57 -298.42)"/><path class="cls-1" d="M328.44,410.18a3.17,3.17,0,0,0,0-6.33,2.32,2.32,0,0,0-2.54,1v4.08A3.28,3.28,0,0,0,328.44,410.18Z" transform="translate(-174.57 -298.42)"/><path class="cls-1" d="M229.78,441.09a11.24,11.24,0,0,0-1.31.08,4.08,4.08,0,0,0-1.12.28,1.86,1.86,0,0,0-.77.56,1.38,1.38,0,0,0-.29.89,1.58,1.58,0,0,0,.54,1.24,2,2,0,0,0,1.38.49,3.2,3.2,0,0,0,1.07-.17,2.74,2.74,0,0,0,.82-.41,2.46,2.46,0,0,0,.57-.54,2.54,2.54,0,0,0,.33-.59v-1.78l-.61,0Z" transform="translate(-174.57 -298.42)"/><path class="cls-1" d="M253.92,437.67a2.64,2.64,0,0,0-.9-.89,2.57,2.57,0,0,0-1.36-.34q-2.92,0-2.93,4.14a7.33,7.33,0,0,0,.16,1.57,4.17,4.17,0,0,0,.51,1.31,2.7,2.7,0,0,0,.9.91,2.57,2.57,0,0,0,1.36.34q2.93,0,2.93-4.13a7.55,7.55,0,0,0-.16-1.6A4.17,4.17,0,0,0,253.92,437.67Z" transform="translate(-174.57 -298.42)"/><path class="cls-1" d="M220.48,432.92a3.56,3.56,0,0,0-1.23-.51,6.48,6.48,0,0,0-1.38-.15l-1.08,0a3.87,3.87,0,0,0-.82.11v6.25a1.24,1.24,0,0,0,.35.05l.49,0h.84a7.22,7.22,0,0,0,1.46-.14,3.78,3.78,0,0,0,1.3-.5,2.71,2.71,0,0,0,.94-1,3.67,3.67,0,0,0,.35-1.7,3,3,0,0,0-.33-1.47A2.71,2.71,0,0,0,220.48,432.92Z" transform="translate(-174.57 -298.42)"/><path class="cls-1" d="M256.81,406.88a3.17,3.17,0,1,0-3.17,3.16A3.28,3.28,0,0,0,256.81,406.88Z" transform="translate(-174.57 -298.42)"/><path class="cls-1" d="M242.42,437.79a2.26,2.26,0,0,0-.82-.78,2.42,2.42,0,0,0-1.18-.27,2.88,2.88,0,0,0-2.46,1,4.62,4.62,0,0,0-.77,2.88,6.75,6.75,0,0,0,.17,1.57,4.26,4.26,0,0,0,.53,1.33,2.58,2.58,0,0,0,.91.89,2.63,2.63,0,0,0,1.32.32,2.47,2.47,0,0,0,2.2-1.06,5.7,5.7,0,0,0,.72-3.16,7.09,7.09,0,0,0-.15-1.51A3.45,3.45,0,0,0,242.42,437.79Z" transform="translate(-174.57 -298.42)"/><path class="cls-1" d="M313.28,436.44a2.47,2.47,0,0,0-2.08,1,5.36,5.36,0,0,0-.74,3.14,8.12,8.12,0,0,0,.16,1.68,4.61,4.61,0,0,0,.5,1.34,2.68,2.68,0,0,0,.88.89,2.45,2.45,0,0,0,1.24.31l.51,0,.56-.09v-8.16l-.48-.07Z" transform="translate(-174.57 -298.42)"/><path class="cls-1" d="M341.55,437.51a2.41,2.41,0,0,0-.86-.79,2.88,2.88,0,0,0-1.31-.28,2.49,2.49,0,0,0-1.73.57,3.2,3.2,0,0,0-.9,1.74v5.34a3,3,0,0,0,.89.46,4.28,4.28,0,0,0,1.31.16,2.84,2.84,0,0,0,2.36-1.11,5.19,5.19,0,0,0,.87-3.26,7.84,7.84,0,0,0-.15-1.6A3.44,3.44,0,0,0,341.55,437.51Z" transform="translate(-174.57 -298.42)"/><path class="cls-1" d="M350.84,436.44a2.93,2.93,0,0,0-2,.67,3.33,3.33,0,0,0-.92,2.28h5.34a3.34,3.34,0,0,0-.62-2.29A2.33,2.33,0,0,0,350.84,436.44Z" transform="translate(-174.57 -298.42)"/><path class="cls-1" d="M296.09,298.42A121.52,121.52,0,1,0,417.61,419.94,121.52,121.52,0,0,0,296.09,298.42ZM270.19,390a12.11,12.11,0,0,0,5.21,1.42,11.47,11.47,0,0,0,5.21-1.42l1.87,3.79a14.92,14.92,0,0,1-14.5,0ZM223.1,437.67a4.47,4.47,0,0,1-1.31,1.54,5.37,5.37,0,0,1-1.88.85,9.21,9.21,0,0,1-2.17.26h-.87l-.53,0a3.34,3.34,0,0,1-.37,0V446h-1.79V431a10.61,10.61,0,0,1,1.77-.26c.63,0,1.26-.07,1.87-.07a10.8,10.8,0,0,1,2,.2,5.37,5.37,0,0,1,1.86.71,4,4,0,0,1,1.37,1.42,4.52,4.52,0,0,1,.53,2.3A5,5,0,0,1,223.1,437.67Zm8.55,8.33-.45-1.5h-.11a4.15,4.15,0,0,1-.48.59,3.44,3.44,0,0,1-.7.52,4.53,4.53,0,0,1-2.18.52,3.78,3.78,0,0,1-1.28-.21,2.91,2.91,0,0,1-1-.62,2.71,2.71,0,0,1-.68-.95,3.06,3.06,0,0,1-.25-1.27,3,3,0,0,1,.39-1.59,2.8,2.8,0,0,1,1.09-1,5.35,5.35,0,0,1,1.68-.54,13,13,0,0,1,2.16-.16h.59a3.9,3.9,0,0,1,.59,0,10.09,10.09,0,0,0,.07-1.16,2.35,2.35,0,0,0-.47-1.66,2.47,2.47,0,0,0-1.73-.47,7.43,7.43,0,0,0-.78.05c-.28,0-.57.09-.86.16a6.39,6.39,0,0,0-.84.24,4.17,4.17,0,0,0-.7.32l-.54-1.31a6.22,6.22,0,0,1,1.9-.73,10.62,10.62,0,0,1,2.28-.24,4.48,4.48,0,0,1,1.79.3,2.44,2.44,0,0,1,1,.79,2.81,2.81,0,0,1,.47,1.06,5.81,5.81,0,0,1,.12,1.17q0,1.29-.06,2.52c-.05.81-.07,1.59-.07,2.32a14.44,14.44,0,0,0,.07,1.51,7.28,7.28,0,0,0,.23,1.31Zm-3.06-36.12h-2.84l-5.07-8.51V416h-7.09V390.5h7.58l6,9.92,6-9.92h7.58v25.38h-7.09V401.37Zm15,34.85a4.23,4.23,0,0,1-3.45,1.49,4.12,4.12,0,0,1-3.56-1.64,8.86,8.86,0,0,1-1.18-5.15,23.67,23.67,0,0,1,.18-3.16,9.49,9.49,0,0,1,.54-2.22,4.51,4.51,0,0,1,.86-1.44,3.86,3.86,0,0,1,1.14-.85,4.91,4.91,0,0,1,1.39-.44c.5-.09,1-.16,1.62-.22a13.67,13.67,0,0,0,1.75-.25,2.12,2.12,0,0,0,1-.5l.19,1.55a2.17,2.17,0,0,1-.47.32,2.89,2.89,0,0,1-.63.22l-.87.15c-.34,0-.73.08-1.17.1a11.21,11.21,0,0,0-1.63.23,2.74,2.74,0,0,0-1.21.62,3.14,3.14,0,0,0-.79,1.32,9,9,0,0,0-.4,2.25H237a4.16,4.16,0,0,1,1.57-1.45,5,5,0,0,1,2.16-.42,3.73,3.73,0,0,1,3.05,1.29,5.87,5.87,0,0,1,1.06,3.81A6.68,6.68,0,0,1,243.59,444.73Zm.29-37.85a9.63,9.63,0,1,1,19.25,0,9.7,9.7,0,0,1-9.62,9.63A9.56,9.56,0,0,1,243.88,406.88Zm11.28,37.89a4.33,4.33,0,0,1-3.5,1.45,5.08,5.08,0,0,1-2.1-.4,3.81,3.81,0,0,1-1.48-1.14,5.14,5.14,0,0,1-.86-1.79,9.2,9.2,0,0,1-.28-2.31,6.36,6.36,0,0,1,1.22-4.19,4.31,4.31,0,0,1,3.5-1.46,5.24,5.24,0,0,1,2.1.4,3.9,3.9,0,0,1,1.48,1.14,5.14,5.14,0,0,1,.86,1.79,9.28,9.28,0,0,1,.28,2.32A6.38,6.38,0,0,1,255.16,444.77Zm10.43-8.07h-3.36V446h-1.72V436.7h-3.36v-1.51h8.44Zm8,9.3-.45-1.5h-.11a3.64,3.64,0,0,1-.49.59,3,3,0,0,1-.7.52,4.49,4.49,0,0,1-.94.37,4.6,4.6,0,0,1-1.23.15,3.78,3.78,0,0,1-1.28-.21,3,3,0,0,1-1-.62,2.82,2.82,0,0,1-.67-.95,3.06,3.06,0,0,1-.25-1.27,3,3,0,0,1,.39-1.59,2.77,2.77,0,0,1,1.08-1,5.53,5.53,0,0,1,1.68-.54,13.23,13.23,0,0,1,2.17-.16h.59a4,4,0,0,1,.59,0,10.09,10.09,0,0,0,.07-1.16,2.3,2.3,0,0,0-.48-1.66,2.44,2.44,0,0,0-1.72-.47,7.61,7.61,0,0,0-.79.05c-.28,0-.56.09-.86.16a7.41,7.41,0,0,0-.84.24,4.58,4.58,0,0,0-.7.32l-.54-1.31a6.28,6.28,0,0,1,1.91-.73,10.46,10.46,0,0,1,2.27-.24,4.5,4.5,0,0,1,1.8.3,2.41,2.41,0,0,1,1,.79,2.68,2.68,0,0,1,.48,1.06,5.81,5.81,0,0,1,.12,1.17c0,.86,0,1.7-.07,2.52s-.06,1.59-.06,2.32c0,.53,0,1,.06,1.51a7.27,7.27,0,0,0,.24,1.31Zm-1.2-30.12h-6.79V397.75h6.79v8.5l6-8.5h6.79v18.13h-6.79v-8.51Zm18.13,29.48a7,7,0,0,1-3.62.75c-.6,0-1.16,0-1.68-.05l-1.53-.12V435.21l1.58-.1c.55-.05,1.24-.07,2.06-.07a5.42,5.42,0,0,1,3.06.66,2.29,2.29,0,0,1,.92,2,2.79,2.79,0,0,1-.44,1.48,2.59,2.59,0,0,1-1.45,1.06v.09a2.91,2.91,0,0,1,1.79.88,2.71,2.71,0,0,1,.51,1.72A2.66,2.66,0,0,1,290.56,445.36Zm28.55-47.61h6.79v2.37a5.28,5.28,0,0,1,4.75-2.83c5.37,0,8.2,4.25,8.2,9.62s-2.83,9.63-8.2,9.63a5.53,5.53,0,0,1-4.75-2.84v9.76h-6.79Zm-21.92,0H304v8.94l5.5-8.94h7.09l-5.84,9,6.3,9.16h-7.25L304,406.8v9.08h-6.79ZM306,446a6.61,6.61,0,0,1-1.85.25,4.93,4.93,0,0,1-2.11-.4,3.51,3.51,0,0,1-1.41-1.14,4.89,4.89,0,0,1-.8-1.79,10.29,10.29,0,0,1-.25-2.31,6.42,6.42,0,0,1,1.21-4.19,4.25,4.25,0,0,1,3.47-1.46,8.63,8.63,0,0,1,1.75.16,5.63,5.63,0,0,1,1.31.47l-.5,1.48a5.16,5.16,0,0,0-1.1-.44,5.3,5.3,0,0,0-1.29-.16q-3.06,0-3.06,4.14a7.24,7.24,0,0,0,.16,1.56,3.94,3.94,0,0,0,.54,1.31,2.82,2.82,0,0,0,1,.92,3.08,3.08,0,0,0,1.52.34,3.79,3.79,0,0,0,1.39-.24,3.73,3.73,0,0,0,1-.53l.56,1.31A4.51,4.51,0,0,1,306,446Zm15.15-3.16a5.3,5.3,0,0,1-.85,1.84,3.87,3.87,0,0,1-1.36,1.16,4.12,4.12,0,0,1-1.87.41l-.57,0a2.26,2.26,0,0,1-.61-.12v4.2h-1.64v-4.22a3.2,3.2,0,0,1-.76.15l-.72,0a3.57,3.57,0,0,1-3-1.38,7,7,0,0,1-1.06-4.26,6.35,6.35,0,0,1,1.17-4.16,4.12,4.12,0,0,1,3.36-1.4,5.12,5.12,0,0,1,1,.09v-4.23h1.64v4.25c.26-.05.49-.07.69-.09l.58,0a4,4,0,0,1,3.21,1.24,6.2,6.2,0,0,1,1.08,4.1A9.24,9.24,0,0,1,321.19,442.81Zm11-2.06h-6.91a6.58,6.58,0,0,0,.19,1.68,3.34,3.34,0,0,0,.6,1.24,2.66,2.66,0,0,0,1.07.77,4.57,4.57,0,0,0,3.07,0,3.12,3.12,0,0,0,1.1-.6l.64,1.25a4.93,4.93,0,0,1-1.62.82,7.12,7.12,0,0,1-2.08.3,5.16,5.16,0,0,1-2.13-.4,3.77,3.77,0,0,1-1.49-1.14,4.84,4.84,0,0,1-.86-1.78,8.73,8.73,0,0,1-.28-2.32,6.3,6.3,0,0,1,1.23-4.2,4.34,4.34,0,0,1,3.51-1.45,7.33,7.33,0,0,1,1.46.16,3.24,3.24,0,0,1,1.31.62A3.19,3.19,0,0,1,332,437a5.36,5.36,0,0,1,.37,2.19A10.25,10.25,0,0,1,332.19,440.75Zm11.42,2.06a5.34,5.34,0,0,1-1,1.84,4.37,4.37,0,0,1-1.56,1.16,5,5,0,0,1-2,.41,5.9,5.9,0,0,1-1.26-.1,4.73,4.73,0,0,1-1-.33v4.48H335V435.19h1.19l.32,1.29h.08a3.4,3.4,0,0,1,1.29-1.15,4.52,4.52,0,0,1,5,.87,6.49,6.49,0,0,1,1.06,4.16A7.79,7.79,0,0,1,343.61,442.81Zm11.17-2.06h-6.91a6.58,6.58,0,0,0,.19,1.68,3.2,3.2,0,0,0,.61,1.24,2.63,2.63,0,0,0,1.06.77,4.57,4.57,0,0,0,3.07,0,3.12,3.12,0,0,0,1.1-.6l.64,1.25a4.93,4.93,0,0,1-1.62.82,7.07,7.07,0,0,1-2.08.3,5.16,5.16,0,0,1-2.13-.4,3.84,3.84,0,0,1-1.49-1.14,5,5,0,0,1-.86-1.78,8.73,8.73,0,0,1-.28-2.32,6.3,6.3,0,0,1,1.23-4.2,4.37,4.37,0,0,1,3.51-1.45,7.25,7.25,0,0,1,1.46.16,3.35,3.35,0,0,1,1.32.62,3.17,3.17,0,0,1,.94,1.28,5.36,5.36,0,0,1,.37,2.19A10.25,10.25,0,0,1,354.78,440.75Zm-4.29-17.45H343.7l3.16-7.42-7.58-18.13h7.25l3.79,9.92,4.26-9.92h7.25Zm13.09-25.55h14.83v6.16h-8v12h-6.79ZM365.74,446H364V430.88h1.78Zm13.81-13.48h-4.7V446h-1.78V432.48h-4.7v-1.6h11.18Z" transform="translate(-174.57 -298.42)"/><path class="cls-1" d="M328.25,436.44a3,3,0,0,0-2,.67,3.33,3.33,0,0,0-.91,2.28h5.34a3.28,3.28,0,0,0-.63-2.29A2.29,2.29,0,0,0,328.25,436.44Z" transform="translate(-174.57 -298.42)"/></svg>