<?xml version="1.0" encoding="utf-8"?>
<!-- Generator: Adobe Illustrator 22.1.0, SVG Export Plug-In . SVG Version: 6.00 Build 0)  -->
<svg version="1.1" id="Слой_1" xmlns="http://www.w3.org/2000/svg" xmlns:xlink="http://www.w3.org/1999/xlink" x="0px" y="0px"
	 viewBox="0 0 1148.1 221.3" style="enable-background:new 0 0 1148.1 221.3;" xml:space="preserve">
<style type="text/css">
	.st0{fill:#FFFFFF;}
</style>
<title>oborotru</title>
<g>
	<path class="st0" d="M215.6,63.9c-0.3,1.3-0.6,3.4-1.2,5.5c-13.4,44.9-26.8,89.8-40.2,134.6c-3.4,11.4-11.3,15.7-22.5,12.4
		c-45.1-13.4-90.1-26.8-135.2-40.3C6.2,173,1.5,164.6,4.6,154.4C18.1,109,31.7,63.7,45.3,18.4C48.5,7.8,56.7,3.7,67.5,6.9
		c39,11.6,78,23.2,117,34.9c6.4,1.9,12.8,3.7,19.1,5.7C210.8,49.7,215.7,56.3,215.6,63.9z M179.8,64
		c-28.7-39.5-79.1-45.9-112.3-26.2c-36,21.4-51.7,63.7-37.8,102.8c11.2,31.5,44.9,62.4,94.1,54.7c35.5-5.5,67.3-38.3,69.2-72.3h-5.4
		c-9.8,0-19.7,0.2-29.5-0.1c-4.6-0.2-6.8,1-8.3,5.8c-8.8,28.2-44.1,38.9-67.2,20.3c-16.2-13-18.8-30.7-15.1-49.8
		c3.2-17,17.9-30.7,34.2-32.9c20.4-2.7,36.8,5.2,45.5,21.6c1.8,3.5,2,5.9-1.2,8.6c-2.7,2.2-5,5-7.8,7.9c0.7,0.3,1.4,0.6,2.2,0.8
		c16.3-0.1,32.6-0.4,49-0.4c3.8,0,3.8-2.1,3.8-4.8c0-15.2,0-30.3,0-45.5c-0.2-1.7-0.4-3.5-0.7-5.2L179.8,64z"/>
	<path class="st0" d="M328.9,0c44.7-0.1,80.2,36.2,81.3,80.8c1.1,47.8-38.6,83.4-80.2,83.7c-47.8,0.4-82.6-39.9-82.7-81.5
		C247.1,35.5,285.5-0.6,328.9,0z M380.8,82.6c-0.1-1.3-0.2-2.8-0.3-4.3c-1.5-38.6-44.9-62.7-77.9-42.9
		c-18.7,11.2-26.3,28.6-25.7,50.1c0.8,32.4,31.8,56.6,63.4,49.3C364.3,129.3,380.2,108.9,380.8,82.6z"/>
	<path class="st0" d="M454,148.6v11.1h-28.5c0-1.9,0-3.7,0-5.5c0-40.7,0-81.3-0.1-121.9c-0.2-3.1,1.1-6.2,3.4-8.3
		c8.1-7.5,16.1-15.2,25-23.6v56.1c1.6-0.8,2.7-1.1,3.5-1.7c28.2-25.3,73.7-12.8,84.9,26.9c7.4,26.3,3.3,50.7-18.7,69.5
		c-19.2,16.4-45.4,16.5-65.1,0.6C457.4,150.9,456.2,150.1,454,148.6z M452.9,102.3c0,1.2,0,2.3,0,3.5c0.5,20.4,18.5,34.7,38.5,30.8
		c15.5-3.1,26.3-18,25.5-35.2c-0.7-13.7-6-24.6-18.9-30.5C475.8,60.7,452.9,76.8,452.9,102.3L452.9,102.3z"/>
	<path class="st0" d="M865.4,102.7c0.7,32.2-26.3,60.7-61.4,60.7c-30.3,0-60.6-26.6-59.7-61.9c0.8-32.5,27.6-60,59.9-60
		c33.6-0.2,61,26.8,61.2,60.3C865.4,102.2,865.4,102.4,865.4,102.7z M772.9,95.7c0,22.8,8.1,35.2,21.6,39.6
		c14.6,4.9,30.7-1.3,38.1-14.9c8-14.5,4.8-35-7.3-44.7c-10.5-8.4-22.3-9.6-34.2-4.1C778.4,77.6,773,88.6,772.9,95.7L772.9,95.7z"/>
	<path class="st0" d="M674.4,111.4c-1.9,25.1-24.5,48-50.3,51.5c-30.1,4.1-57.4-12-66.9-39.5c-9.8-28.6,1.1-58.5,26.9-73.9
		c23.6-14.1,59.5-10.4,81,18.4l9.2-8.6v37.4H637c1.1-1.3,1.8-2.6,2.9-3.3c4.7-3.3,3.9-6.8,1.1-10.9c-7.2-10.8-20.3-16.1-33.7-13.2
		c-12.4,2.7-22.9,13.4-24.1,26.2c-0.7,6.7-0.2,13.5,1.5,20.1c3.6,12.9,15.3,20.8,28.9,21.1c14,0.2,26-7.5,30.4-20.6
		c1.4-4,3.2-4.9,7-4.8C658.7,111.6,666.3,111.4,674.4,111.4z"/>
	<path class="st0" d="M1046.5,44.5c8.6,0,16.4,0.2,24.2-0.1c4-0.2,4.7,1.5,4.7,5c-0.1,16-0.2,32,0,48c0,7.6,0.5,15.3,1.6,22.8
		c1.8,10.7,10.2,17,21,16.7c11.2-0.4,19.4-7.1,20.3-18c1-12.1,0.9-24.2,1.1-36.4c0.2-12.4,0-24.9,0-37.6h28.2
		c0.1,1.7,0.3,3.3,0.3,4.9c0,17.7,0.3,35.3-0.1,53c-0.1,9-1.1,17.9-2.9,26.7c-4,18.7-20.2,32.5-39.3,33.4
		c-8.1,0.4-16.4,0.3-24.3-1.4c-17.6-3.6-31.4-18.5-32.7-36.6c-1.6-22.7-1.6-45.5-2.2-68.3C1046.4,52.7,1046.5,48.9,1046.5,44.5z"/>
	<path class="st0" d="M912,159.9h-28.5v-5.6c0-26.5-0.1-53,0.1-79.5c0-4.8-1.5-6.2-6-5.8c-2.8,0.3-5.6,0.1-8.8,0.1V44.6h14.6
		c0-4.9-0.1-9.4,0.1-13.8c0.1-1.5,0.4-3.6,1.4-4.5c8.6-7.8,17.3-15.4,26.9-23.9v42.1c4.9,0,9.3,0.1,13.8,0c2.9-0.1,3.9,1,3.8,3.8
		c-0.1,5.7-0.1,11.3,0,17c0.1,3.2-1.4,3.9-4.3,3.9c-4.1,0-10.3-1.1-11.9,1c-2.2,3-1.3,8.5-1.3,12.9c-0.1,23.7,0,47.3,0,71
		C912,156,912,157.9,912,159.9z"/>
	<path class="st0" d="M683.6,160.1V44.6c7.2,0,14.1-0.2,21,0.2c1,0,2.5,2.2,2.6,3.6c0.4,3,0.1,6.1,0.1,10.3
		c14.1-16.8,24.5-20.4,37.4-13.7c-1.4,3.9-2.7,7.9-4.2,11.9s-2.9,7.8-4.2,11.5c-0.6,0.1-1,0.3-1.2,0.2c-11.1-3.2-18.2,0.2-20.8,11.7
		c-1.8,8.3-2.7,16.7-2.8,25.2c-0.4,16.5-0.2,33,0,49.4c0,4.1-1.2,5.6-5.4,5.4C698.8,159.9,691.5,160.1,683.6,160.1z"/>
	<path class="st0" d="M1032.9,68.8c-12-3.9-19.2-0.6-21.7,11.3c-2.1,9.5-2.7,19.4-3,29.2c-0.5,15.7-0.1,31.3-0.1,47
		c0,1-0.2,2-0.3,3.8c-8.5,0-16.9,0.1-25.3-0.2c-0.9,0-2.3-2.9-2.3-4.4c-0.2-11-0.1-22-0.1-33c0-24,0.1-48-0.1-72
		c0-4.9,1.4-6.4,6.2-6c5.6,0.4,11.3,0.1,17.6,0.1l0.8,14.2c9.2-14.7,20.7-20.5,37.2-14.3L1032.9,68.8z"/>
	<path class="st0" d="M219.1,75.2c0,14.6,0,29.2,0,43.9c0,27.5-0.4,54.9,0.2,82.4c0.2,11-8.5,20.5-20,19.8
		c-10.1-0.7-20.2-0.1-30.6-0.6c7.9-4.7,10-12.5,12.3-20.4c12.1-41.1,24.3-82.1,36.6-123.1c0.2-0.6,0.5-1.2,0.8-1.8L219.1,75.2z"/>
	<path class="st0" d="M0.5,170c4.7,7.8,11.1,10.3,17.9,12.3c41.4,12.3,82.8,24.6,124.1,37c1.3,0.3,2.5,0.9,3.5,1.7H62.2
		c-15,0-30,0.1-45,0c-7.9-0.1-15.9-5.7-16.5-13.3C-0.1,195.8,0.5,183.6,0.5,170z"/>
	<path class="st0" d="M219.1,52.3c-4.7-6.8-11.7-9.3-19-11.4C158.8,28.6,117.6,16.3,76.4,4c-1.1-0.3-2.2-0.7-4.6-1.6
		C74.5,2.2,75.9,2,77.2,2c40.2,0,80.3,0.3,120.5-0.2c13.4-0.1,22.4,8.5,21.5,21.4C218.6,32.9,219.1,42.6,219.1,52.3z"/>
	<path class="st0" d="M0,147.3c0-1.6,0-3.3,0-4.9c0-39.6,0-79.3,0-118.9C0,8.8,6.7,2,21.3,2c9.5,0,19,0,28.9,0
		C35.5,16.5,35,36.2,29.3,53.6c-9.9,30.3-18.4,61.1-27.5,91.6c-0.3,0.8-0.6,1.5-0.9,2.2L0,147.3z"/>
	<path class="st0" d="M951,163.1c-9.2,0-16.6-7.4-16.5-16.3c0.3-9.1,7.7-16.3,16.8-16.3c8.8-0.1,16.1,7,16.1,15.9c0,0.2,0,0.4,0,0.7
		C967.3,156.7,960.7,163.1,951,163.1z"/>
</g>
</svg>
