<svg id="Слой_1" data-name="Слой 1" xmlns="http://www.w3.org/2000/svg" xmlns:xlink="http://www.w3.org/1999/xlink" viewBox="0 0 1696.67 1775.9"><defs><style>.cls-1{fill:none;}.cls-2{clip-path:url(#clip-path);}.cls-3{fill:#fff;}</style><clipPath id="clip-path" transform="translate(249.01 -5.59)"><polygon class="cls-1" points="587.87 996.84 1392.21 1194.23 1438.51 1938.95 -228.2 1947.44 -181.9 1185.75 148.62 1104.64 587.87 996.84"/></clipPath></defs><title>water</title><g class="cls-2"><polygon class="cls-3" points="0 901.24 0 502.66 1664.35 900.31 1664.35 1298.87 0 901.24"/><polygon class="cls-3" points="1696.67 892.75 1696.67 494.18 80.79 891.82 80.79 1290.39 1696.67 892.75"/></g><rect class="cls-1" x="267.76" width="1131.11" height="1775.9"/><path class="cls-3" d="M167.21,739.63v-5h3a80.59,80.59,0,0,0,10.71.83,67.81,67.81,0,0,0,11.06-.83h3v5c-2.67,0-4.61.51-5.87,1.54s-1.88,3-1.88,5.91v59.07c0,2.67.65,4.63,1.93,5.75s3.25,1.67,5.82,1.67v5h-3a74.22,74.22,0,0,0-21.77,0h-3v-5c3.25-.29,5.22-1.08,6-2.42a10,10,0,0,0,1.11-5V747.08c0-3-.49-4.85-1.56-5.76S169.87,739.87,167.21,739.63Zm67.16,76.86-9,3.39c-2.69,1.08-6.2-.37-10.43-4.27a77.64,77.64,0,0,1-12.27-15,173.8,173.8,0,0,1-10.13-17.58c-2.8-5.66-4.2-9.3-4.2-11a3.82,3.82,0,0,1,.65-1.86,21.52,21.52,0,0,1,3.88-4.09c2.57-2.7,6.17-6.71,10.7-12s7-8.79,7.44-10.45.11-3-1-3.57a7.3,7.3,0,0,1-1.68-.36,45.66,45.66,0,0,0-5.43-.11v-5H206a63.88,63.88,0,0,0,10.64.83,74.61,74.61,0,0,0,11.6-.83h3.09v5c-.08.09-.28.11-.68.11a20.71,20.71,0,0,1-2.3.47c-2.35.6-5.12,2.33-8.29,5.12a10,10,0,0,1-.8.81c-.28.32-.57.63-.85.94q-8.62,9.66-19.38,21.2c5.73,10,11.71,19.74,17.83,29.19s10.67,14.35,13.7,14.81a9.49,9.49,0,0,0,3.77-.55Z" transform="translate(249.01 -5.59)"/><path class="cls-3" d="M259.49,801.72l31.94-67.11a22.42,22.42,0,0,0,7,1.06,24.68,24.68,0,0,0,7-1.06h3.29v5a8.27,8.27,0,0,1-1.17.34c-.61,0-1.43.13-2.49.24a4.64,4.64,0,0,0-3.3,2.92,11.36,11.36,0,0,0-.64,2.31,3.59,3.59,0,0,1-.07.87,4.3,4.3,0,0,0-.06.77V806c0,2.66.61,4.51,1.88,5.6s3.19,1.73,5.85,2v5H305.4a80.73,80.73,0,0,0-22.71,0h-3.07v-5c5.59,0,8.4-2.48,8.4-7.56V754.3l-30.77,64.29a35.3,35.3,0,0,0-14.69,0h-3.22v-5a2.84,2.84,0,0,1,.44-.15,1.32,1.32,0,0,1,.44-.08,6.25,6.25,0,0,0,1.15-.29,4,4,0,0,1,.94-.16,6,6,0,0,0,3.23-2.44,10.83,10.83,0,0,0,.77-4.44V747.08a11.07,11.07,0,0,0-.71-4.54c-.47-1-1.57-1.77-3.29-2.33a20.93,20.93,0,0,0-2.09-.24c0-.07-.31-.18-.88-.34v-5h3.22a80.1,80.1,0,0,0,10.62.83,65,65,0,0,0,10.82-.83h3.32v5a10.14,10.14,0,0,0-5.87,1.88c-1.33,1.09-2,2.94-2,5.57Z" transform="translate(249.01 -5.59)"/><path class="cls-3" d="M375,756.5h-5c-4.92-11.08-11.11-16.34-18.56-15.7-5.31.23-9.83,3.18-13.5,8.84s-5.59,13.83-5.67,24.46c-.05,12,2.07,21.18,6.38,27.73s9.2,9.93,14.64,10.24c3.65.17,7.07-1.27,10.3-4.31s5.94-8,8.07-14.78h5.13a167.55,167.55,0,0,0-4.48,22.57,30.64,30.64,0,0,1-7.82,3.34,40.13,40.13,0,0,1-9.73,1.33c-7.84.25-14.58-1.48-20.26-5.14A34.88,34.88,0,0,1,321.54,800a53.17,53.17,0,0,1-4.63-21.5,56.78,56.78,0,0,1,2.51-18A43.63,43.63,0,0,1,327.28,746a36.85,36.85,0,0,1,12.25-9.6A34.5,34.5,0,0,1,354.6,733a38.31,38.31,0,0,1,16.83,3.84C372.47,744.13,373.66,750.71,375,756.5Z" transform="translate(249.01 -5.59)"/><path class="cls-3" d="M416.47,755l-14.61,51.14a13.88,13.88,0,0,0-.71,3.82c.57,2.41,2.79,3.6,6.69,3.6v5h-3.09a53.81,53.81,0,0,0-18.17,0h-3.2v-5a.87.87,0,0,0,.68-.23,7.5,7.5,0,0,0,1.1-.29,3.23,3.23,0,0,1,1-.16,7.66,7.66,0,0,0,4-2.39,13.08,13.08,0,0,0,2.32-4.35l25.77-73.51c.52-1.46,1.3-2.24,2.34-2.24s1.75.78,2.24,2.24l21,73.51a10.43,10.43,0,0,0,2.62,4.86,11.38,11.38,0,0,0,5.11,2.56v5h-3.3a64.21,64.21,0,0,0-20.24,0h-3.2v-5a1,1,0,0,0,.78-.23,6.66,6.66,0,0,0,2-.45c1.7-.7,2.62-1.67,2.77-2.92,0-.22-.15-1.51-.42-3.82Z" transform="translate(249.01 -5.59)"/><path class="cls-3" d="M458.85,778.17a54.61,54.61,0,0,1,4.53-22.89,40.79,40.79,0,0,1,12.17-15.93c5.08-3.91,10.38-6.06,15.91-6.37a26.83,26.83,0,0,1,12.61,2.29,31.9,31.9,0,0,1,11.23,8,40.65,40.65,0,0,1,7.87,13.19,52,52,0,0,1,3.16,17.78A56.17,56.17,0,0,1,522,797.1,41.51,41.51,0,0,1,510,813.52a29.5,29.5,0,0,1-17.07,6.7,27,27,0,0,1-13-2.56,30.86,30.86,0,0,1-11-8.68,41,41,0,0,1-7.37-13.7A55.37,55.37,0,0,1,458.85,778.17Zm15.45-7a93.5,93.5,0,0,0,1.3,20.19A36.78,36.78,0,0,0,480.17,804a18.8,18.8,0,0,0,6.62,6.62,12.44,12.44,0,0,0,6.91,1.76c4.32-.39,8.31-3.16,12-8.27S511,789.6,510.83,776a71.24,71.24,0,0,0-2.61-19.15c-1.55-5.22-3.74-9.19-6.46-11.93a14,14,0,0,0-9.29-4.32c-4.42-.13-8.46,2.19-12.12,7.07S474.68,760.32,474.3,771.21Z" transform="translate(249.01 -5.59)"/><path class="cls-3" d="M571,771.44a33,33,0,0,1,12.2,7.74q4.63,4.82,5.28,13.68a26.64,26.64,0,0,1-2,11.72,21.79,21.79,0,0,1-8.08,10c-3.82,2.69-8.82,4-15.08,4-1.12,0-2.59-.06-4.45-.23s-3.7-.26-5.54-.41-3.3-.18-4.42-.18a80.2,80.2,0,0,0-11.19.82h-3.18v-5c2.79-.23,4.79-.85,5.94-1.84s1.77-2.93,1.77-5.72V748.13c0-3-.47-5-1.47-6.28s-3.06-2-6.24-2.22v-5h3.18c1.23-.07,2.83-.13,4.89-.14s4-.13,5.76-.2c3.07-.14,5.76-.27,8-.41s4.23-.11,5.78-.06a30.65,30.65,0,0,1,14.48,3.78c4.71,2.54,7.12,7.71,7.18,15.55.11,5-1.13,9-3.66,12.07A18.26,18.26,0,0,1,571,771.44Zm-15.91-1.76A13,13,0,0,0,565.92,767c3.11-2.53,4.55-6.51,4.31-12-.39-10.4-5.41-14.87-15.15-13.4Zm0,6.27v28.2c0,5.2,2.56,7.81,7.75,7.81a9.7,9.7,0,0,0,8.16-4.44c2.17-3,3.25-6.9,3.25-11.87q-.09-8.16-3.35-12.58a15.47,15.47,0,0,0-7.51-5.87A22.06,22.06,0,0,0,555.08,776Z" transform="translate(249.01 -5.59)"/><path class="cls-3" d="M598.08,778.17a54.47,54.47,0,0,1,4.59-22.89,40.42,40.42,0,0,1,12.17-15.93c5.1-3.91,10.42-6.06,15.94-6.37a26.83,26.83,0,0,1,12.59,2.29,32,32,0,0,1,11.22,8,40.51,40.51,0,0,1,7.89,13.19,50.18,50.18,0,0,1,3.11,17.78,55.51,55.51,0,0,1-4.28,22.88,41.1,41.1,0,0,1-12,16.42,29.63,29.63,0,0,1-17.07,6.7,27,27,0,0,1-13-2.56,31.32,31.32,0,0,1-11-8.68,42.14,42.14,0,0,1-7.37-13.7A56.89,56.89,0,0,1,598.08,778.17Zm15.5-7a94.23,94.23,0,0,0,1.29,20.19A37.16,37.16,0,0,0,619.48,804a18.68,18.68,0,0,0,6.6,6.62,12.5,12.5,0,0,0,6.91,1.76c4.34-.39,8.36-3.16,12-8.27s5.39-14.55,5.18-28.2a71.58,71.58,0,0,0-2.63-19.15c-1.54-5.22-3.73-9.19-6.48-11.93a13.73,13.73,0,0,0-9.26-4.32c-4.43-.13-8.45,2.19-12.13,7.07S614,760.32,613.58,771.21Z" transform="translate(249.01 -5.59)"/><path class="cls-3" d="M732,844h-5.52a62.17,62.17,0,0,0,1.45-14.3c-.2-4.74-1.37-7.76-3.38-9.09a12.7,12.7,0,0,0-7.13-2H689.62a11.08,11.08,0,0,0-6.83,2.21c-2,1.49-3.36,4.79-4.12,9.9a77,77,0,0,0-1,8,22.32,22.32,0,0,0-.26,2.51c0,.6-.15,1.52-.28,2.74H672l-2.28-30.4a9.9,9.9,0,0,1,.17-2.31c.16-.46.63-.71,1.45-.71a13.11,13.11,0,0,1,2.1.6h1.23c2.34,0,5-4.36,7.73-13.08l21.8-67.19c.66-1.9,1.64-2.91,2.88-2.91s2.12,1,2.67,2.91l20.1,75.71a17.5,17.5,0,0,0,1.45,3.91,1.87,1.87,0,0,0,2.31,1,2.56,2.56,0,0,0,1-.27,2.5,2.5,0,0,1,1.1-.29c1.77-.34,2.75.65,2.89,2.89a10.63,10.63,0,0,1,.21,3.6,32.57,32.57,0,0,1-.89,4.34c-.44,1.7-.77,3-1,3.94-.47,1.58-.78,2.82-1,3.81s-.47,1.9-.71,2.89-.51,2.22-1,3.79C733.6,839.05,732.83,841.65,732,844Zm-15.18-33.42L702.12,753.6l-13.38,50.78a21.71,21.71,0,0,0-.66,3.27c0,1.93,1.35,2.9,4.1,2.9Z" transform="translate(249.01 -5.59)"/><path class="cls-3" d="M803.82,756.5h-5c-5-11.08-11.17-16.34-18.6-15.7-5.27.23-9.77,3.18-13.45,8.84s-5.6,13.83-5.68,24.46c-.08,12,2,21.18,6.36,27.73s9.2,9.93,14.64,10.24q5.43.25,10.34-4.31c3.23-3,5.93-8,8.05-14.78h5.11a170.78,170.78,0,0,0-4.43,22.57,32.7,32.7,0,0,1-7.86,3.34,40.47,40.47,0,0,1-9.72,1.33c-7.83.25-14.62-1.48-20.28-5.14a34.93,34.93,0,0,1-13-15.05,54,54,0,0,1-4.62-21.5,56.49,56.49,0,0,1,2.53-18A43.47,43.47,0,0,1,756.12,746a36.42,36.42,0,0,1,12.24-9.6A34.49,34.49,0,0,1,783.45,733a38.55,38.55,0,0,1,16.81,3.84C801.28,744.13,802.43,750.71,803.82,756.5Z" transform="translate(249.01 -5.59)"/><path class="cls-3" d="M813.21,739.63v-5h3a80.84,80.84,0,0,0,10.71.83,68,68,0,0,0,11.1-.83h3v5q-4,0-5.87,1.54c-1.26,1-1.9,3-1.9,5.91v59.07c0,2.67.67,4.63,1.95,5.75s3.26,1.67,5.82,1.67v5h-3a74.49,74.49,0,0,0-21.81,0h-3v-5c3.25-.29,5.21-1.08,6-2.42a10.2,10.2,0,0,0,1.08-5V747.08c0-3-.48-4.85-1.51-5.76S815.88,739.87,813.21,739.63Zm67.13,76.86-9,3.39c-2.72,1.08-6.19-.37-10.46-4.27a78.34,78.34,0,0,1-12.25-15,170.4,170.4,0,0,1-10.15-17.58c-2.81-5.66-4.16-9.3-4.16-11a4,4,0,0,1,.63-1.86,21.42,21.42,0,0,1,3.86-4.09q3.89-4,10.7-12c4.55-5.33,7-8.79,7.45-10.45s.11-3-1-3.57a8.13,8.13,0,0,1-1.71-.36,45.31,45.31,0,0,0-5.41-.11v-5H852a64.43,64.43,0,0,0,10.65.83,73.45,73.45,0,0,0,11.56-.83h3.13v5c0,.09-.27.11-.68.11a19.39,19.39,0,0,1-2.27.47c-2.37.6-5.16,2.33-8.34,5.12-.18.25-.48.52-.74.81s-.61.63-.86.94q-8.7,9.66-19.38,21.2c5.71,10,11.67,19.74,17.78,29.19s10.72,14.35,13.71,14.81a9.42,9.42,0,0,0,3.76-.55Z" transform="translate(249.01 -5.59)"/><path class="cls-3" d="M928,789.71H906.69c-.17.65-.27,1.17-.38,1.69s-.23,1-.37,1.46c-.9,3.12-1.52,5.47-1.93,7.1-1,4-1.34,6.76-1,8.16.14,2.17,1.53,3.76,4.11,4.77a3.33,3.33,0,0,1,.81.16,9.49,9.49,0,0,0,1.09.29,1.87,1.87,0,0,1,.61.08l.38.15v5h-3.15a58.92,58.92,0,0,0-19,0h-3.33v-5a15.13,15.13,0,0,0,5.45-2.24,12.34,12.34,0,0,0,3.34-5l26.2-75.8a3.53,3.53,0,0,1,2.66-2.57c1.23-.21,2.05.5,2.56,2.11l22.78,76.26.78,1.67a9.77,9.77,0,0,0,.88,2.08,9.67,9.67,0,0,0,6,3.61v4.89h-3.79a72.49,72.49,0,0,0-21.11,0H927v-5a9.11,9.11,0,0,0,4.32-.94,3.13,3.13,0,0,0,2-2.54,6.16,6.16,0,0,0-.58-3.75Zm-2.18-7.91-8-28.08-9.09,28.08Z" transform="translate(249.01 -5.59)"/><path class="cls-3" d="M957.46,817.19V812a2.49,2.49,0,0,1,.68.23,6.37,6.37,0,0,0,1.38.41,3,3,0,0,0,1.6-.18c1.54-.31,3.6-1.87,6.06-4.71a72.19,72.19,0,0,0,7-9.38c2.19-3.42,4.4-7.16,6.64-11.25s3.82-7.07,4.72-9a20.71,20.71,0,0,1-12.71-6.24q-5.1-5.27-5-14.13a27.76,27.76,0,0,1,2.75-12.18q2.68-5.64,9.76-9.24t19.1-3.29c1,0,2.25,0,3.83.13s3.41.18,5.64.35c6.05.45,10.43.86,13.14,1.15v5l-1.64.34a8.94,8.94,0,0,0-1.12.07,5.12,5.12,0,0,1-1,.06,4.41,4.41,0,0,0-2.87,1.45c-.74.82-1.1,2.52-1.1,5.08l-.11,59.85c0,5.2,2.63,7.65,7.84,7.32v4.79h-4a70.46,70.46,0,0,0-20.81,0h-3.63v-5a9.35,9.35,0,0,0,5.61-1.84c1.33-1.1,2-3,2-5.58V748.6c0-3.09-.38-5.26-1.11-6.46s-2.84-1.62-6.28-1.22c-2.38,0-5,1.11-7.68,3.37s-4,6.46-3.74,12.57c.22,5.84,2,10.25,5.36,13.34a16.06,16.06,0,0,0,11.7,4.39v2.9c-3.93,7.45-6.46,12.38-7.66,14.77S990,795.93,990,796a50.5,50.5,0,0,1-5.11,9.33c-3.22,5.65-6,9.58-8.11,11.76s-4.26,3.26-6.23,3.26a36.56,36.56,0,0,1-5.78-1.14Z" transform="translate(249.01 -5.59)"/><path class="cls-3" d="M383.88,975.85h-4.43a45.49,45.49,0,0,0,1-11.53c-.06-4.51-.72-7.84-2-10a8.12,8.12,0,0,0-4.41-4,19.77,19.77,0,0,0-7.19-.22c-3,.34-4.94.54-5.67.54H345.4a49.75,49.75,0,0,1-5.68-.46,53.37,53.37,0,0,0-7.25-.48,58.27,58.27,0,0,0-9.12.94h-3.09v-5c2.67-.37,4.58-1.08,5.71-2.11s1.71-2.81,1.71-5.47V879.17q0-4.18-1.76-5.63a10.34,10.34,0,0,0-5.66-1.82v-5h3.09a99.65,99.65,0,0,0,11.21.82,69,69,0,0,0,10.84-.82h3.28v5c-2.7.16-4.73.73-6,1.75s-2,2.91-2,5.7v57.08c0,4.5,4.69,6.76,14,6.76q13.18,0,13.19-6.88v-57c0-2.68-.63-4.56-1.85-5.52a11.31,11.31,0,0,0-5.67-1.93v-5h3.09a90.68,90.68,0,0,0,10.84.82,78,78,0,0,0,11.3-.82h3.19v5a10.33,10.33,0,0,0-5.88,1.87c-1.32,1.09-2,2.95-2,5.58v60.28a8.8,8.8,0,0,0,.21,2.11A2.16,2.16,0,0,0,382,943a2.7,2.7,0,0,0,2.12.17c1-.2,1.64-.31,1.79-.31,1.87-.39,3.18.69,3.84,3.28.61,3.1.16,7.75-1.33,14A147.34,147.34,0,0,1,383.88,975.85Z" transform="translate(249.01 -5.59)"/><path class="cls-3" d="M447.59,927.74h4.67l-4.67,23H426.13q-2.56,0-7.23-.46a82.7,82.7,0,0,0-9-.48,77.3,77.3,0,0,0-10.78.94h-3.22v-5c5.52,0,8.3-2.52,8.3-7.58V879.17c0-2.79-.71-4.72-2.11-5.82a10,10,0,0,0-6.19-1.63v-5h3.22a128.09,128.09,0,0,0,20.12.82c4.78-.16,10.59-.63,17.42-1.34s9.89-1.12,9.21-1.12c.38,8.69.92,15.9,1.68,21.67h-3.54a2.93,2.93,0,0,0-.33-1.28,15,15,0,0,1-.53-1.41c-.3-.76-.65-1.58-1-2.43a8.43,8.43,0,0,0-1.19-2.11c-1.53-1.69-4.05-2.85-7.67-3.43a129.7,129.7,0,0,0-16.27-1.1v28.75c5.76.17,10-.49,12.82-1.9s4.1-4.7,4.1-9.75h4a116.89,116.89,0,0,0-1,15.17,122,122,0,0,0,1,15.35h-4c-.43-5.58-2-9.19-4.67-10.8s-6.74-2.28-12.25-1.89v28a5,5,0,0,0,1.17,3.73,7.19,7.19,0,0,0,3.72,1.39,21.68,21.68,0,0,0,4,.12c1.76-.07,3.1-.12,4-.12a51.69,51.69,0,0,0,6.74-.59Q445.4,940.46,447.59,927.74Z" transform="translate(249.01 -5.59)"/><path class="cls-3" d="M491.65,887.09l-14.6,51.14a12.88,12.88,0,0,0-.66,3.84c.53,2.41,2.68,3.6,6.66,3.6v5h-3.16a54.09,54.09,0,0,0-18.13,0h-3.22v-5a.81.81,0,0,0,.69-.23,6.53,6.53,0,0,0,1.09-.29,3.72,3.72,0,0,1,1-.18,7.73,7.73,0,0,0,4-2.36,12.44,12.44,0,0,0,2.32-4.38l25.79-73.52c.5-1.43,1.28-2.19,2.32-2.19s1.77.76,2.22,2.19l21,73.52a10.48,10.48,0,0,0,2.59,4.9,12,12,0,0,0,5.16,2.54v5h-3.36a63,63,0,0,0-20.23,0h-3.21v-5c.41,0,.65,0,.79-.23a6,6,0,0,0,2-.47c1.74-.69,2.65-1.65,2.78-2.9,0-.24-.13-1.53-.44-3.84Z" transform="translate(249.01 -5.59)"/><path class="cls-3" d="M584,927.74h4.64l-4.64,23H562.55c-1.71,0-4.11-.15-7.23-.46a84.18,84.18,0,0,0-9-.48,78.3,78.3,0,0,0-10.81.94h-3.22v-5c5.55,0,8.3-2.52,8.3-7.58V879.17c0-2.79-.68-4.72-2.08-5.82a10.1,10.1,0,0,0-6.22-1.63v-5h3.22a128.21,128.21,0,0,0,20.13.82c4.78-.16,10.62-.63,17.44-1.34s9.88-1.12,9.21-1.12c.4,8.69.95,15.9,1.69,21.67h-3.56a2.55,2.55,0,0,0-.32-1.28c-.24-.47-.41-.93-.6-1.41a21.36,21.36,0,0,0-1-2.43,7.15,7.15,0,0,0-1.22-2.11c-1.46-1.69-4-2.85-7.6-3.43a131,131,0,0,0-16.29-1.1v28.75c5.78.17,10-.49,12.77-1.9s4.16-4.7,4.16-9.75h4a116.9,116.9,0,0,0-1,15.17,121.93,121.93,0,0,0,1,15.35h-4c-.44-5.58-2-9.19-4.71-10.8s-6.74-2.28-12.22-1.89v28c0,1.78.38,3,1.19,3.73a7,7,0,0,0,3.67,1.39,22,22,0,0,0,4,.12c1.77-.07,3.12-.12,4-.12a51.29,51.29,0,0,0,6.74-.59Q581.79,940.46,584,927.74Z" transform="translate(249.01 -5.59)"/><path class="cls-3" d="M644.79,885.48h-5.13a18.26,18.26,0,0,0-2.9-7.28,9.08,9.08,0,0,0-4.39-3.2,21.78,21.78,0,0,0-6.59-.84c-2.67,0-5.69.08-9,.14v27.57a50.54,50.54,0,0,1,12.28-1.26c6.88.29,11.94,2.65,15.27,7s5,9.9,5,16.6a32.74,32.74,0,0,1-2.56,12.92,21.62,21.62,0,0,1-8.08,9.78c-3.67,2.52-8.33,3.74-14,3.74-1.05,0-3-.1-5.79-.32s-4.67-.31-5.81-.39-2.16-.09-3.2-.09a63.76,63.76,0,0,0-10.32.67H596v-4.9c2.63-.23,4.59-.89,5.87-2s1.84-3,1.84-5.76V879.75c0-2.71-.63-4.6-1.95-5.71a10,10,0,0,0-5.76-1.85v-5.46h3.61a149.81,149.81,0,0,0,17.77,1,119.82,119.82,0,0,0,24.89-2.66Zm-28,22.68v29.25c0,4.12,2.2,6.15,6.54,6.15a10.44,10.44,0,0,0,8.34-4.22c2.32-2.84,3.47-6.94,3.38-12.29-.22-9.33-2.48-15-6.68-17S620.22,907.48,616.78,908.16Z" transform="translate(249.01 -5.59)"/><path class="cls-3" d="M678,910.26v27.83a8.17,8.17,0,0,0,.09,1.76,7.41,7.41,0,0,0,.32,2.22c.74,2.2,3.15,3.37,7.21,3.6v5h-3.31a74,74,0,0,0-21.94,0h-3.28v-5a11.62,11.62,0,0,0,5.92-1.92c1.21-1,1.8-2.83,1.8-5.66V879.17q0-4.18-1.87-5.63a11.29,11.29,0,0,0-5.85-1.82v-5h3.28a96.61,96.61,0,0,0,11,.82,71.33,71.33,0,0,0,11-.82h3.31v5c-4.06.31-6.47,1.49-7.21,3.49a7.48,7.48,0,0,0-.32,2.21,10.17,10.17,0,0,0-.09,1.75v23.08c1.21,0,2.4,0,3.47,0s2.41.14,4,.28c1.29,0,2.41,0,3.31,0s1.83.06,2.83.06,2.11,0,3-.06,2,0,3.33,0c1.67-.14,3-.25,4-.28s2.25,0,3.51,0V879.17q0-4.18-1.88-5.63a11,11,0,0,0-5.84-1.82v-5H701a98.64,98.64,0,0,0,11,.82,68.78,68.78,0,0,0,10.87-.82h3.33v5a13.34,13.34,0,0,0-4.26.95,5.42,5.42,0,0,0-2.51,2.2,8.73,8.73,0,0,0-.88,4.3v58.92c0,2.74.61,4.6,1.76,5.61s3.16,1.69,5.89,2v5h-3.33a73,73,0,0,0-21.79,0h-3.3v-5c2.73-.28,4.69-.94,5.89-1.92s1.83-2.83,1.83-5.66V910.26a128.29,128.29,0,0,1-27.52,0Z" transform="translate(249.01 -5.59)"/><path class="cls-3" d="M775,921.79H753.66c-.18.64-.3,1.2-.43,1.68s-.27,1-.36,1.47c-.92,3.13-1.53,5.46-1.89,7.13-1.05,4-1.36,6.75-1,8.12.1,2.2,1.49,3.78,4,4.78a3.52,3.52,0,0,1,.84.18,10.49,10.49,0,0,0,1.07.29,2.24,2.24,0,0,1,.6.06,2,2,0,0,0,.36.17v5h-3.07a59.49,59.49,0,0,0-19,0h-3.36v-5a15.33,15.33,0,0,0,5.44-2.24,12.75,12.75,0,0,0,3.33-5l26.22-75.82a3.5,3.5,0,0,1,2.66-2.55c1.25-.24,2.12.45,2.53,2.08l22.82,76.29.75,1.64a15.11,15.11,0,0,0,.86,2.09,9.78,9.78,0,0,0,6,3.61v4.9h-3.78a73.54,73.54,0,0,0-21.16,0H774v-5a9.58,9.58,0,0,0,4.3-.91,3.1,3.1,0,0,0,2-2.57,6.51,6.51,0,0,0-.54-3.73Zm-2.24-7.92-7.94-28.06-9.1,28.06Z" transform="translate(249.01 -5.59)"/><path class="cls-3" d="M804.37,949.3v-5.24a2.28,2.28,0,0,1,.68.22,8.07,8.07,0,0,0,1.41.39,2.22,2.22,0,0,0,1.58-.17c1.57-.29,3.59-1.87,6.1-4.69a74,74,0,0,0,7-9.41c2.18-3.4,4.38-7.15,6.63-11.19s3.81-7.12,4.72-9.05a20.53,20.53,0,0,1-12.67-6.24c-3.44-3.52-5.11-8.25-5-14.13a27.67,27.67,0,0,1,2.74-12.19c1.76-3.75,5.05-6.84,9.78-9.25s11.08-3.5,19-3.26c1.06,0,2.35,0,3.9.09s3.39.21,5.66.36c6,.47,10.42.87,13.13,1.19v5l-1.64.37a8.57,8.57,0,0,0-1.11,0,6.16,6.16,0,0,1-1,.06,4.44,4.44,0,0,0-2.87,1.46c-.74.8-1.1,2.5-1.1,5.06l-.13,59.87c0,5.19,2.6,7.64,7.86,7.32v4.8h-4a71.14,71.14,0,0,0-20.81,0h-3.65v-5a9.45,9.45,0,0,0,5.64-1.85c1.36-1.1,2-3,2-5.59V880.7c0-3.13-.37-5.24-1.14-6.46s-2.84-1.63-6.3-1.22c-2.35,0-4.9,1.11-7.62,3.36s-4,6.46-3.77,12.58c.22,5.81,2,10.27,5.37,13.34a16,16,0,0,0,11.69,4.38v2.89q-5.85,11.2-7.65,14.78c-1.2,2.42-1.8,3.66-1.9,3.75a55.36,55.36,0,0,1-5.06,9.31c-3.27,5.67-6,9.59-8.15,11.77s-4.25,3.27-6.24,3.27a35.87,35.87,0,0,1-5.75-1.19Z" transform="translate(249.01 -5.59)"/></svg>