<svg id="Layer_1" data-name="Layer 1" xmlns="http://www.w3.org/2000/svg" viewBox="0 0 713 226.51"><defs><style>.cls-1{fill:#151624;}.cls-2{fill:#fff;}</style></defs><title>pr_news</title><rect class="cls-1" width="713" height="226.51"/><rect class="cls-2" x="251.76" y="9" width="453.73" height="207.61"/><path class="cls-2" d="M68.46,314.86q0,17,3.3,22t14.92,5v6.49H30.86v-6.49q11.82,0,15.12-5.14t3.29-21.88V237.61q0-17-3.29-22t-15.12-5v-6.5H98.11q18.42,0,30.24,9.07,13.38,10.23,13.38,28.38,0,21.68-17.64,31.34-13.95,7.67-38.77,7.68H68.46Zm0-40.8h7.36q21.92,0,32-5.91,13.58-7.89,13.58-27.8,0-15.18-9.5-22.86-8.53-6.88-24.23-6.9-12.8,0-16.48,5.91-2.72,4.35-2.71,18.33Z" transform="translate(-20 -166.19)"/><path class="cls-2" d="M175.29,278.25v36.87q0,17,3.2,22t14.31,5v6.5H139.15v-6.5q11.11,0,14.3-5.13t3.21-21.88V238.24q0-15.77-1.7-19.71-3.21-7.68-15.81-7.69v-6.5h55.34q20.32,0,33.31,7.29,16.95,9.47,16.95,28.78,0,14.39-10.92,24.62a43.62,43.62,0,0,1-24.45,11.44l25.19,47.13q5.46,9.86,6.6,11.43,5.27,7.1,17.32,7.1v6.5H227.25l-38.59-70.38Zm0-6.5h9.79q16.18,0,27.1-7.1,12.8-8.46,12.8-24.24,0-13.8-10.35-22.07-9.4-7.5-23.15-7.5-10.92,0-13.93,5.14c-1.5,2.49-2.26,8-2.26,16.34Z" transform="translate(-20 -166.19)"/><path class="cls-1" d="M403.66,311.85V237.78q0-16.78-3.08-21.91c-2.07-3.43-6.83-5.14-14.32-5.14v-6.49h43.41v6.49c-7.22,0-11.94,1.75-14.12,5.23s-3.28,10.74-3.28,21.77V348.52h-6.36l-81-120.06V315q0,17,3.18,22t14.41,5l-.19,6.52h-43.6V342q11.24,0,14.41-5.11T316.28,315V237.73q0-16.54-3.27-21.77c-2.19-3.48-6.95-5.23-14.32-5.23v-6.49l32.56,0Z" transform="translate(-20 -166.19)"/><path class="cls-1" d="M436.27,292.51q0,18.53,5.65,31.14,7.56,16.77,23.39,16.75a32.77,32.77,0,0,0,17.26-4.83,44.33,44.33,0,0,0,13.67-13.1l3.2,3.15a50.49,50.49,0,0,1-15.74,16.95,37,37,0,0,1-20.85,6.31,42.07,42.07,0,0,1-32.52-14.49q-13.12-14.5-13.1-35a55.74,55.74,0,0,1,11.69-35.07q12.46-16.17,31.48-16.17,17.16,0,28.47,13.2a46.25,46.25,0,0,1,11.33,31.15ZM481.16,285c.12-1.58.17-2.77.17-3.55q0-10.65-4.89-18.13a18.23,18.23,0,0,0-16.22-8.68q-11.12,0-17.53,10A37.18,37.18,0,0,0,437.23,285Z" transform="translate(-20 -166.19)"/><path class="cls-1" d="M543.83,348.19h-5l-25.17-71q-3.8-10.65-5.53-13.39a13.57,13.57,0,0,0-12-6.32V251.8h38.91v5.72a12.63,12.63,0,0,0-6,1.38,4.59,4.59,0,0,0-2.59,4.33,13.68,13.68,0,0,0,.39,3.17,34.82,34.82,0,0,0,1.32,4.13l16.56,49.52,17.51-48.57c-1.63-4.84-3.66-8.39-6.06-10.61s-5.83-3.35-10.26-3.35V251.8h40.62v5.72a26.46,26.46,0,0,0-7.43.89,4,4,0,0,0-3,4.22,14.27,14.27,0,0,0,.49,3.55A41.07,41.07,0,0,0,578,270.7l16.33,47.87,17.4-47.84a16.8,16.8,0,0,0,.53-3.93c0-2.76-.67-4.77-2-6a10.79,10.79,0,0,0-5-2.56,31,31,0,0,0-7-.69V251.8h37.76v5.72q-7.25,0-12,7.09c-1.81,2.63-3.83,7.23-6.12,13.81L593.8,348.19h-5.72l-21.36-62.67Z" transform="translate(-20 -166.19)"/><path class="cls-1" d="M702.29,278.85l-4.5,2.57q-9.37-12.59-15.55-18.1-9.75-8.65-20-8.66a15.65,15.65,0,0,0-10.31,3.75,12,12,0,0,0-4.49,9.65q0,9.46,15.17,15.78,14.07,5.71,28.31,11.23,15.33,8.65,15.35,24.05a27.67,27.67,0,0,1-9.36,21.08q-9.37,8.69-21.18,8.68a25.67,25.67,0,0,1-6.37-.78q-3.93-1.39-5.8-2c-1.26-.39-2.47-.78-3.66-1.19a11.37,11.37,0,0,0-3.47-.58,14.06,14.06,0,0,0-5.62,1.19,18.72,18.72,0,0,0-5.25,3.34l-11.6-33.51L638,313.2a68.83,68.83,0,0,0,16.68,19.12q12.36,10.05,22.1,10.06a16.35,16.35,0,0,0,11.52-4.64,15.09,15.09,0,0,0,5-11.52q0-10.28-15-16.37-14.05-5.13-28.11-10.45Q635,291.33,635,276.14a25.79,25.79,0,0,1,8.89-20,29.87,29.87,0,0,1,20.52-8,44.88,44.88,0,0,1,9.75,1.57,44.32,44.32,0,0,0,8.8,1.58c3.12,0,5.92-1.53,8.43-4.59Z" transform="translate(-20 -166.19)"/></svg>