<?xml version="1.0" encoding="utf-8"?>
<!-- Generator: Adobe Illustrator 22.1.0, SVG Export Plug-In . SVG Version: 6.00 Build 0)  -->
<svg version="1.1" id="Layer_1" xmlns="http://www.w3.org/2000/svg" xmlns:xlink="http://www.w3.org/1999/xlink" x="0px" y="0px"
	 viewBox="0 0 255.1 88.1" style="enable-background:new 0 0 255.1 88.1;" xml:space="preserve">
<style type="text/css">
	.st0{fill:#75549E;}
	.st1{fill:#FFFFFF;}
	.st2{fill:#161627;}
</style>
<g>
	<path class="st0" d="M249.2,43.6c0,22.4-18.2,40.6-40.7,40.6c-22.5,0-40.6-18.2-40.6-40.6c0-22.4,18.2-40.7,40.6-40.7
		C231,2.9,249.2,21.1,249.2,43.6z"/>
	<path class="st1" d="M248.8,42.5c0,21.7-17.6,39.4-39.4,39.4c-21.7,0-39.4-17.6-39.4-39.4c0-21.7,17.6-39.4,39.4-39.4
		C231.2,3.2,248.8,20.8,248.8,42.5z"/>
	<path class="st1" d="M22.6,55h-1.8V31.2H6.1V55H4.3V29.5h18.3V55z"/>
	<path class="st1" d="M43.9,36.9c0,2.5-0.8,4.4-2.5,5.7c-1.7,1.3-4,2-7.1,2h-3.9V55h-1.8V29.5h6.2C40.9,29.5,43.9,32,43.9,36.9z
		 M30.3,43h3.5c2.9,0,4.9-0.5,6.2-1.4c1.3-0.9,1.9-2.5,1.9-4.6c0-2-0.6-3.4-1.8-4.4c-1.2-0.9-3.1-1.4-5.6-1.4h-4.2V43z"/>
	<path class="st1" d="M60.5,46H50.1l-3.6,9h-2l10.3-25.6H56L66,55h-2L60.5,46z M50.8,44.4h9.1l-3.5-9.2c-0.3-0.7-0.6-1.7-1-3
		c-0.3,1.1-0.7,2.1-1,3L50.8,44.4z"/>
	<path class="st1" d="M85.2,55h-2.4L70.2,42v13h-1.8V29.5h1.8v12.3l12.3-12.3h2.4L72.4,41.9L85.2,55z"/>
	<path class="st1" d="M94.2,55h-1.8V31.2h-8.3v-1.7h18.4v1.7h-8.3V55z"/>
	<path class="st1" d="M105,29.5h1.7v16.7c0,1.2,0,3.2-0.1,6h0.1l15.1-22.6h1.8V55h-1.7V38.5c0-1.9,0.1-3.9,0.2-6.1h-0.1L106.8,55
		H105V29.5z"/>
	<path class="st1" d="M146.3,55h-2.4l-12.6-13v13h-1.8V29.5h1.8v12.3l12.3-12.3h2.4l-12.3,12.3L146.3,55z"/>
	<path class="st1" d="M160.9,46h-10.4l-3.6,9h-2l10.3-25.6h1.1l10,25.6h-2L160.9,46z M151.2,44.4h9.1l-3.5-9.2c-0.3-0.7-0.6-1.7-1-3
		c-0.3,1.1-0.7,2.1-1,3L151.2,44.4z"/>
	<path class="st2" d="M187.7,30.8c-3.2,0-5.7,1-7.5,3.1c-1.8,2-2.8,4.8-2.8,8.4c0,3.6,0.9,6.5,2.6,8.5c1.7,2,4.2,3,7.4,3
		c2.1,0,4.1-0.3,5.9-0.8v1.6c-1.7,0.6-3.8,0.9-6.3,0.9c-3.6,0-6.4-1.2-8.5-3.5c-2.1-2.3-3.1-5.5-3.1-9.7c0-2.6,0.5-4.9,1.5-6.9
		c1-2,2.4-3.5,4.2-4.6c1.8-1.1,4-1.6,6.4-1.6c2.5,0,4.7,0.5,6.7,1.4l-0.7,1.6C191.7,31.2,189.8,30.8,187.7,30.8z"/>
	<path class="st2" d="M199.6,43.9V55h-1.8V29.5h6.1c3.2,0,5.5,0.6,7,1.8c1.5,1.2,2.3,2.9,2.3,5.3c0,1.7-0.5,3.1-1.4,4.3
		c-0.9,1.2-2.3,2-4.1,2.5l6.9,11.6h-2.1l-6.6-11.1H199.6z M199.6,42.4h4.9c2.2,0,3.8-0.5,5-1.4c1.2-1,1.8-2.4,1.8-4.2
		c0-1.9-0.6-3.4-1.7-4.2c-1.2-0.9-3.1-1.3-5.7-1.3h-4.2V42.4z"/>
	<path class="st2" d="M229,55l-9.5-23.5h-0.1c0.1,1.4,0.1,2.9,0.1,4.4V55h-1.7V29.5h2.8l9,22.4h0.1l9-22.4h2.7V55h-1.8V35.7
		c0-1.3,0.1-2.7,0.2-4.2h-0.1L230.1,55H229z"/>
	<g>
		<path class="st1" d="M7.6,65c-0.8,0-1.4-0.3-1.7-0.9h0l0,0.4c0,0.2,0,0.5,0,0.8v2H5.4v-7.5h0.4l0.1,0.7h0c0.4-0.6,0.9-0.8,1.7-0.8
			c0.7,0,1.2,0.2,1.6,0.7c0.4,0.5,0.5,1.1,0.5,2c0,0.8-0.2,1.5-0.6,2C8.8,64.7,8.3,65,7.6,65z M7.6,64.5c0.5,0,0.9-0.2,1.2-0.6
			c0.3-0.4,0.4-0.9,0.4-1.6c0-1.5-0.5-2.3-1.6-2.3c-0.6,0-1,0.2-1.3,0.5c-0.3,0.3-0.4,0.9-0.4,1.6v0.2c0,0.8,0.1,1.4,0.4,1.7
			C6.5,64.4,7,64.5,7.6,64.5z"/>
		<path class="st1" d="M13.9,64.9l-0.1-0.8h0c-0.3,0.3-0.5,0.6-0.8,0.7c-0.3,0.1-0.6,0.2-1,0.2c-0.5,0-0.9-0.1-1.2-0.4
			c-0.3-0.3-0.4-0.6-0.4-1.1c0-0.5,0.2-0.9,0.6-1.2c0.4-0.3,1-0.4,1.8-0.4l1,0v-0.3c0-0.5-0.1-0.9-0.3-1.1c-0.2-0.2-0.5-0.4-1-0.4
			c-0.5,0-1,0.1-1.5,0.4L10.9,60c0.6-0.3,1.1-0.4,1.7-0.4c0.6,0,1,0.1,1.3,0.4c0.3,0.3,0.4,0.7,0.4,1.4v3.4H13.9z M12.1,64.5
			c0.5,0,1-0.2,1.3-0.5c0.3-0.3,0.5-0.7,0.5-1.3v-0.5l-0.9,0c-0.7,0-1.2,0.1-1.5,0.3c-0.3,0.2-0.5,0.5-0.5,0.9
			c0,0.3,0.1,0.6,0.3,0.7C11.4,64.5,11.7,64.5,12.1,64.5z"/>
		<path class="st1" d="M17.7,65c-0.7,0-1.3-0.2-1.7-0.7c-0.4-0.5-0.6-1.1-0.6-1.9c0-0.9,0.2-1.5,0.6-2c0.4-0.5,1-0.7,1.8-0.7
			c0.4,0,0.9,0.1,1.3,0.2l-0.1,0.4c-0.4-0.1-0.8-0.2-1.2-0.2c-0.6,0-1.1,0.2-1.4,0.6c-0.3,0.4-0.5,1-0.5,1.7c0,0.7,0.2,1.2,0.5,1.6
			c0.3,0.4,0.8,0.6,1.4,0.6c0.5,0,0.9-0.1,1.3-0.3v0.4C18.6,64.9,18.2,65,17.7,65z"/>
		<path class="st1" d="M21.9,65c-0.7,0-1.3-0.2-1.7-0.7c-0.4-0.5-0.6-1.1-0.6-1.9c0-0.9,0.2-1.5,0.6-2c0.4-0.5,1-0.7,1.8-0.7
			c0.4,0,0.9,0.1,1.3,0.2l-0.1,0.4c-0.4-0.1-0.8-0.2-1.2-0.2c-0.6,0-1.1,0.2-1.4,0.6s-0.5,1-0.5,1.7c0,0.7,0.2,1.2,0.5,1.6
			c0.3,0.4,0.8,0.6,1.4,0.6c0.5,0,0.9-0.1,1.3-0.3v0.4C22.9,64.9,22.5,65,21.9,65z"/>
		<path class="st1" d="M26.9,59.7h0.6l-2.3,2.5l2.5,2.7h-0.6l-2.4-2.6v2.6h-0.5v-5.1h0.5v2.5L26.9,59.7z"/>
		<path class="st1" d="M31.4,64.9l-0.1-0.8h0c-0.3,0.3-0.5,0.6-0.8,0.7c-0.3,0.1-0.6,0.2-1,0.2c-0.5,0-0.9-0.1-1.2-0.4
			c-0.3-0.3-0.4-0.6-0.4-1.1c0-0.5,0.2-0.9,0.6-1.2c0.4-0.3,1-0.4,1.8-0.4l1,0v-0.3c0-0.5-0.1-0.9-0.3-1.1c-0.2-0.2-0.5-0.4-1-0.4
			c-0.5,0-1,0.1-1.5,0.4L28.4,60c0.6-0.3,1.1-0.4,1.7-0.4c0.6,0,1,0.1,1.3,0.4c0.3,0.3,0.4,0.7,0.4,1.4v3.4H31.4z M29.5,64.5
			c0.5,0,1-0.2,1.3-0.5c0.3-0.3,0.5-0.7,0.5-1.3v-0.5l-0.9,0c-0.7,0-1.2,0.1-1.5,0.3c-0.3,0.2-0.5,0.5-0.5,0.9
			c0,0.3,0.1,0.6,0.3,0.7C28.9,64.5,29.1,64.5,29.5,64.5z"/>
		<path class="st1" d="M34,61.9c0.9,0,1.4-0.3,1.4-1c0-0.3-0.1-0.5-0.3-0.7c-0.2-0.2-0.5-0.2-0.9-0.2c-0.3,0-0.5,0-0.7,0.1
			c-0.2,0.1-0.5,0.1-0.7,0.3L32.6,60c0.5-0.2,1.1-0.4,1.6-0.4c0.6,0,1,0.1,1.3,0.4c0.3,0.2,0.4,0.6,0.4,1c0,0.6-0.3,1-0.9,1.1v0
			c0.4,0.1,0.7,0.3,0.8,0.5c0.2,0.2,0.3,0.5,0.3,0.8c0,0.5-0.2,0.9-0.5,1.1c-0.3,0.3-0.8,0.4-1.4,0.4c-0.3,0-0.6,0-0.9-0.1
			c-0.3-0.1-0.5-0.2-0.7-0.3v-0.5c0.3,0.2,0.6,0.3,0.8,0.3c0.2,0.1,0.5,0.1,0.8,0.1c0.5,0,0.8-0.1,1.1-0.3c0.3-0.2,0.4-0.5,0.4-0.8
			c0-0.4-0.1-0.6-0.4-0.8c-0.2-0.2-0.6-0.3-1.1-0.3h-0.7v-0.4H34z"/>
		<path class="st1" d="M37.6,61.9h1.6c1.2,0,1.8,0.5,1.8,1.4c0,0.5-0.2,0.9-0.5,1.1c-0.3,0.3-0.8,0.4-1.5,0.4h-2v-5.1h0.5V61.9z
			 M37.6,62.3v2.1h1.6c0.4,0,0.8-0.1,1-0.3c0.2-0.2,0.4-0.5,0.4-0.8c0-0.3-0.1-0.6-0.3-0.7c-0.2-0.2-0.6-0.2-1.1-0.2H37.6z
			 M42.4,64.9h-0.5v-5.1h0.5V64.9z"/>
		<path class="st1" d="M47.7,61c0,0.3-0.1,0.6-0.2,0.8c-0.2,0.2-0.4,0.3-0.8,0.4v0c0.4,0,0.7,0.2,0.9,0.4c0.2,0.2,0.3,0.5,0.3,0.8
			c0,0.5-0.2,0.9-0.5,1.1c-0.3,0.3-0.8,0.4-1.4,0.4h-2.2v-5.1h2.2c0.6,0,1,0.1,1.3,0.3C47.6,60.3,47.7,60.6,47.7,61z M47.2,61
			c0-0.3-0.1-0.5-0.3-0.6c-0.2-0.1-0.5-0.2-1-0.2h-1.7v1.8h1.6c0.5,0,0.8-0.1,1-0.2C47.1,61.6,47.2,61.3,47.2,61z M47.4,63.3
			c0-0.6-0.5-0.9-1.5-0.9h-1.7v2.1H46C46.9,64.4,47.4,64.1,47.4,63.3z"/>
		<path class="st1" d="M52,64.9l-0.1-0.8h0c-0.3,0.3-0.5,0.6-0.8,0.7c-0.3,0.1-0.6,0.2-1,0.2c-0.5,0-0.9-0.1-1.2-0.4
			c-0.3-0.3-0.4-0.6-0.4-1.1c0-0.5,0.2-0.9,0.6-1.2c0.4-0.3,1-0.4,1.8-0.4l1,0v-0.3c0-0.5-0.1-0.9-0.3-1.1c-0.2-0.2-0.5-0.4-1-0.4
			c-0.5,0-1,0.1-1.5,0.4L49,60c0.6-0.3,1.1-0.4,1.7-0.4c0.6,0,1,0.1,1.3,0.4c0.3,0.3,0.4,0.7,0.4,1.4v3.4H52z M50.1,64.5
			c0.5,0,1-0.2,1.3-0.5c0.3-0.3,0.5-0.7,0.5-1.3v-0.5l-0.9,0c-0.7,0-1.2,0.1-1.5,0.3c-0.3,0.2-0.5,0.5-0.5,0.9
			c0,0.3,0.1,0.6,0.3,0.7C49.5,64.5,49.8,64.5,50.1,64.5z"/>
		<path class="st1" d="M55.8,65c-0.7,0-1.3-0.2-1.7-0.7c-0.4-0.5-0.6-1.1-0.6-1.9c0-0.8,0.2-1.5,0.6-2c0.4-0.5,0.9-0.7,1.6-0.7
			c0.6,0,1.1,0.2,1.4,0.6s0.5,1,0.5,1.7v0.4h-3.7c0,0.7,0.2,1.2,0.5,1.6c0.3,0.4,0.8,0.6,1.4,0.6c0.3,0,0.6,0,0.8-0.1
			c0.2,0,0.5-0.1,0.8-0.3v0.4c-0.3,0.1-0.6,0.2-0.8,0.3C56.4,64.9,56.1,65,55.8,65z M55.6,60c-0.5,0-0.9,0.2-1.2,0.5
			c-0.3,0.3-0.5,0.8-0.5,1.4h3.2c0-0.6-0.1-1.1-0.4-1.4C56.5,60.2,56.1,60,55.6,60z"/>
		<path class="st1" d="M61.1,64.4l0.3-0.8l1.5-3.8h0.6v5.1h-0.4v-4.6c-0.1,0.2-0.1,0.4-0.2,0.6c-0.1,0.2-0.6,1.5-1.5,4h-0.4
			l-1.4-3.6c-0.1-0.1-0.1-0.3-0.2-0.5c-0.1-0.2-0.1-0.3-0.2-0.5v4.6h-0.4v-5.1h0.6l1.5,3.8C60.9,63.8,61,64.1,61.1,64.4z"/>
		<path class="st1" d="M65.4,63.7l0.1,0.1c-0.2,0.8-0.5,1.6-0.8,2.3h-0.3c0.2-0.9,0.4-1.7,0.5-2.4H65.4z"/>
		<path class="st1" d="M71.6,59.7h0.6l-2.3,2.5l2.5,2.7h-0.6l-2.4-2.6v2.6h-0.5v-5.1h0.5v2.5L71.6,59.7z"/>
		<path class="st1" d="M76,64.9l-0.1-0.8h0c-0.3,0.3-0.5,0.6-0.8,0.7c-0.3,0.1-0.6,0.2-1,0.2c-0.5,0-0.9-0.1-1.2-0.4
			c-0.3-0.3-0.4-0.6-0.4-1.1c0-0.5,0.2-0.9,0.6-1.2c0.4-0.3,1-0.4,1.8-0.4l1,0v-0.3c0-0.5-0.1-0.9-0.3-1.1c-0.2-0.2-0.5-0.4-1-0.4
			c-0.5,0-1,0.1-1.5,0.4L73,60c0.6-0.3,1.1-0.4,1.7-0.4c0.6,0,1,0.1,1.3,0.4c0.3,0.3,0.4,0.7,0.4,1.4v3.4H76z M74.1,64.5
			c0.5,0,1-0.2,1.3-0.5c0.3-0.3,0.5-0.7,0.5-1.3v-0.5l-0.9,0c-0.7,0-1.2,0.1-1.5,0.3c-0.3,0.2-0.5,0.5-0.5,0.9
			c0,0.3,0.1,0.6,0.3,0.7C73.5,64.5,73.8,64.5,74.1,64.5z"/>
		<path class="st1" d="M80.5,59.7h0.6l-2.3,2.5l2.5,2.7h-0.6l-2.4-2.6v2.6h-0.5v-5.1h0.5v2.5L80.5,59.7z"/>
		<path class="st1" d="M85,61.9c0.9,0,1.4-0.3,1.4-1c0-0.3-0.1-0.5-0.3-0.7c-0.2-0.2-0.5-0.2-0.9-0.2c-0.3,0-0.5,0-0.7,0.1
			c-0.2,0.1-0.5,0.1-0.7,0.3L83.5,60c0.5-0.2,1.1-0.4,1.6-0.4c0.6,0,1,0.1,1.3,0.4s0.4,0.6,0.4,1c0,0.6-0.3,1-0.9,1.1v0
			c0.4,0.1,0.7,0.3,0.8,0.5c0.2,0.2,0.3,0.5,0.3,0.8c0,0.5-0.2,0.9-0.5,1.1c-0.3,0.3-0.8,0.4-1.5,0.4c-0.3,0-0.6,0-0.9-0.1
			c-0.3-0.1-0.5-0.2-0.7-0.3v-0.5c0.3,0.2,0.6,0.3,0.8,0.3c0.2,0.1,0.5,0.1,0.8,0.1c0.5,0,0.8-0.1,1.1-0.3c0.3-0.2,0.4-0.5,0.4-0.8
			c0-0.4-0.1-0.6-0.4-0.8c-0.2-0.2-0.6-0.3-1.1-0.3h-0.7v-0.4H85z"/>
		<path class="st1" d="M91.2,64.9L91,64.1h0c-0.3,0.3-0.5,0.6-0.8,0.7c-0.3,0.1-0.6,0.2-1,0.2c-0.5,0-0.9-0.1-1.2-0.4
			c-0.3-0.3-0.4-0.6-0.4-1.1c0-0.5,0.2-0.9,0.6-1.2c0.4-0.3,1-0.4,1.8-0.4l1,0v-0.3c0-0.5-0.1-0.9-0.3-1.1c-0.2-0.2-0.5-0.4-1-0.4
			c-0.5,0-1,0.1-1.5,0.4L88.2,60c0.6-0.3,1.1-0.4,1.7-0.4c0.6,0,1,0.1,1.3,0.4c0.3,0.3,0.4,0.7,0.4,1.4v3.4H91.2z M89.3,64.5
			c0.5,0,1-0.2,1.3-0.5c0.3-0.3,0.5-0.7,0.5-1.3v-0.5l-0.9,0c-0.7,0-1.2,0.1-1.5,0.3c-0.3,0.2-0.5,0.5-0.5,0.9
			c0,0.3,0.1,0.6,0.3,0.7C88.6,64.5,88.9,64.5,89.3,64.5z"/>
		<path class="st1" d="M95,65c-0.8,0-1.4-0.3-1.7-0.9h0l0,0.4c0,0.2,0,0.5,0,0.8v2h-0.5v-7.5h0.4l0.1,0.7h0c0.4-0.6,0.9-0.8,1.7-0.8
			c0.7,0,1.2,0.2,1.6,0.7c0.4,0.5,0.5,1.1,0.5,2c0,0.8-0.2,1.5-0.6,2C96.2,64.7,95.7,65,95,65z M95,64.5c0.5,0,0.9-0.2,1.2-0.6
			c0.3-0.4,0.4-0.9,0.4-1.6c0-1.5-0.5-2.3-1.6-2.3c-0.6,0-1,0.2-1.3,0.5c-0.3,0.3-0.4,0.9-0.4,1.6v0.2c0,0.8,0.1,1.4,0.4,1.7
			C94,64.4,94.4,64.5,95,64.5z"/>
		<path class="st1" d="M101.4,64.9l-0.1-0.8h0c-0.3,0.3-0.5,0.6-0.8,0.7c-0.3,0.1-0.6,0.2-1,0.2c-0.5,0-0.9-0.1-1.2-0.4
			c-0.3-0.3-0.4-0.6-0.4-1.1c0-0.5,0.2-0.9,0.6-1.2c0.4-0.3,1-0.4,1.8-0.4l1,0v-0.3c0-0.5-0.1-0.9-0.3-1.1c-0.2-0.2-0.5-0.4-1-0.4
			c-0.5,0-1,0.1-1.5,0.4L98.4,60c0.6-0.3,1.1-0.4,1.7-0.4c0.6,0,1,0.1,1.3,0.4c0.3,0.3,0.4,0.7,0.4,1.4v3.4H101.4z M99.5,64.5
			c0.5,0,1-0.2,1.3-0.5c0.3-0.3,0.5-0.7,0.5-1.3v-0.5l-0.9,0c-0.7,0-1.2,0.1-1.5,0.3c-0.3,0.2-0.5,0.5-0.5,0.9
			c0,0.3,0.1,0.6,0.3,0.7C98.9,64.5,99.1,64.5,99.5,64.5z"/>
		<path class="st1" d="M102.8,61.8c0-2.2,0.6-3.5,1.9-3.8c0.4-0.1,0.9-0.2,1.3-0.3c0.4-0.1,0.8-0.1,1.1-0.2l0.1,0.4l-0.6,0.1
			c-0.9,0.2-1.6,0.3-1.9,0.4c-0.4,0.1-0.8,0.4-1,0.9c-0.2,0.5-0.4,1.1-0.4,1.9h0c0.3-0.4,0.7-0.7,1-0.9c0.3-0.2,0.6-0.3,1-0.3
			c0.6,0,1.1,0.2,1.4,0.6c0.3,0.4,0.5,1,0.5,1.7c0,0.8-0.2,1.4-0.6,1.9c-0.4,0.4-0.9,0.7-1.6,0.7c-0.7,0-1.3-0.3-1.6-0.8
			C103,63.6,102.8,62.8,102.8,61.8z M105,64.5c0.5,0,1-0.2,1.2-0.5c0.3-0.4,0.4-0.9,0.4-1.6c0-0.6-0.1-1.1-0.4-1.4
			c-0.3-0.3-0.6-0.5-1.1-0.5c-0.4,0-0.7,0.1-1.1,0.3c-0.3,0.2-0.6,0.5-0.9,1c0,0.6,0.1,1.1,0.2,1.5c0.1,0.4,0.3,0.7,0.6,0.9
			C104.3,64.4,104.7,64.5,105,64.5z"/>
		<path class="st1" d="M112.5,62.3c0,0.8-0.2,1.5-0.6,2c-0.4,0.5-1,0.7-1.7,0.7c-0.5,0-0.8-0.1-1.2-0.3c-0.3-0.2-0.6-0.5-0.8-0.9
			c-0.2-0.4-0.3-0.9-0.3-1.4c0-0.8,0.2-1.5,0.6-2c0.4-0.5,1-0.7,1.7-0.7c0.7,0,1.3,0.2,1.7,0.7C112.3,60.8,112.5,61.5,112.5,62.3z
			 M108.5,62.3c0,0.7,0.2,1.3,0.5,1.7c0.3,0.4,0.7,0.6,1.3,0.6c0.6,0,1-0.2,1.3-0.6c0.3-0.4,0.5-0.9,0.5-1.7c0-0.7-0.2-1.3-0.5-1.7
			c-0.3-0.4-0.8-0.6-1.3-0.6c-0.6,0-1,0.2-1.3,0.6C108.6,61,108.5,61.6,108.5,62.3z"/>
		<path class="st1" d="M116.9,60.1h-1.7v4.7h-0.5v-4.7H113v-0.4h3.9V60.1z"/>
		<path class="st1" d="M120.7,64.9l-0.1-0.8h0c-0.3,0.3-0.5,0.6-0.8,0.7c-0.3,0.1-0.6,0.2-1,0.2c-0.5,0-0.9-0.1-1.2-0.4
			c-0.3-0.3-0.4-0.6-0.4-1.1c0-0.5,0.2-0.9,0.6-1.2c0.4-0.3,1-0.4,1.8-0.4l1,0v-0.3c0-0.5-0.1-0.9-0.3-1.1c-0.2-0.2-0.5-0.4-1-0.4
			c-0.5,0-1,0.1-1.5,0.4l-0.2-0.4c0.6-0.3,1.1-0.4,1.7-0.4c0.6,0,1,0.1,1.3,0.4c0.3,0.3,0.4,0.7,0.4,1.4v3.4H120.7z M118.8,64.5
			c0.5,0,1-0.2,1.3-0.5c0.3-0.3,0.5-0.7,0.5-1.3v-0.5l-0.9,0c-0.7,0-1.2,0.1-1.5,0.3c-0.3,0.2-0.5,0.5-0.5,0.9
			c0,0.3,0.1,0.6,0.3,0.7C118.2,64.5,118.5,64.5,118.8,64.5z"/>
		<path class="st1" d="M125.7,60.1H124v4.7h-0.5v-4.7h-1.8v-0.4h3.9V60.1z"/>
		<path class="st1" d="M126.8,61.9h1.8c1.2,0,1.8,0.5,1.8,1.4c0,0.5-0.2,0.9-0.5,1.1c-0.3,0.3-0.8,0.4-1.5,0.4h-2.1v-5.1h0.5V61.9z
			 M126.8,62.3v2.1h1.7c0.4,0,0.8-0.1,1-0.3c0.2-0.2,0.4-0.5,0.4-0.8c0-0.3-0.1-0.6-0.3-0.7c-0.2-0.2-0.6-0.2-1.1-0.2H126.8z"/>
		<path class="st1" d="M133.5,61.8c0-2.2,0.6-3.5,1.9-3.8c0.4-0.1,0.9-0.2,1.3-0.3c0.4-0.1,0.8-0.1,1.1-0.2l0.1,0.4l-0.6,0.1
			c-0.9,0.2-1.6,0.3-1.9,0.4c-0.4,0.1-0.8,0.4-1,0.9c-0.2,0.5-0.4,1.1-0.4,1.9h0c0.3-0.4,0.7-0.7,1-0.9c0.3-0.2,0.6-0.3,1-0.3
			c0.6,0,1.1,0.2,1.4,0.6c0.3,0.4,0.5,1,0.5,1.7c0,0.8-0.2,1.4-0.6,1.9c-0.4,0.4-0.9,0.7-1.6,0.7c-0.7,0-1.3-0.3-1.6-0.8
			C133.6,63.6,133.5,62.8,133.5,61.8z M135.7,64.5c0.5,0,1-0.2,1.2-0.5c0.3-0.4,0.4-0.9,0.4-1.6c0-0.6-0.1-1.1-0.4-1.4
			c-0.3-0.3-0.6-0.5-1.1-0.5c-0.4,0-0.7,0.1-1.1,0.3c-0.3,0.2-0.6,0.5-0.9,1c0,0.6,0.1,1.1,0.2,1.5c0.1,0.4,0.3,0.7,0.6,0.9
			C135,64.4,135.3,64.5,135.7,64.5z"/>
		<path class="st1" d="M143.2,62.3c0,0.8-0.2,1.5-0.6,2c-0.4,0.5-1,0.7-1.7,0.7c-0.5,0-0.8-0.1-1.2-0.3c-0.3-0.2-0.6-0.5-0.8-0.9
			c-0.2-0.4-0.3-0.9-0.3-1.4c0-0.8,0.2-1.5,0.6-2c0.4-0.5,1-0.7,1.7-0.7c0.7,0,1.3,0.2,1.7,0.7C143,60.8,143.2,61.5,143.2,62.3z
			 M139.2,62.3c0,0.7,0.2,1.3,0.5,1.7c0.3,0.4,0.7,0.6,1.3,0.6c0.6,0,1-0.2,1.3-0.6c0.3-0.4,0.5-0.9,0.5-1.7c0-0.7-0.2-1.3-0.5-1.7
			c-0.3-0.4-0.8-0.6-1.3-0.6c-0.6,0-1,0.2-1.3,0.6C139.3,61,139.2,61.6,139.2,62.3z"/>
		<path class="st1" d="M147.9,64.9h-0.5v-4.7h-1.8c-0.1,1.2-0.2,2.2-0.3,2.9c-0.1,0.7-0.3,1.1-0.5,1.4c-0.2,0.3-0.5,0.5-0.8,0.5
			c-0.1,0-0.2,0-0.3,0v-0.4c0.1,0,0.1,0,0.3,0c0.4,0,0.6-0.4,0.9-1.1c0.2-0.8,0.4-2,0.5-3.6h2.7V64.9z"/>
		<path class="st1" d="M149.7,61.9h1.8c1.2,0,1.8,0.5,1.8,1.4c0,0.5-0.2,0.9-0.5,1.1c-0.3,0.3-0.8,0.4-1.5,0.4h-2.1v-5.1h0.5V61.9z
			 M149.7,62.3v2.1h1.7c0.4,0,0.8-0.1,1-0.3c0.2-0.2,0.4-0.5,0.4-0.8c0-0.3-0.1-0.6-0.3-0.7c-0.2-0.2-0.6-0.2-1.1-0.2H149.7z"/>
		<path class="st1" d="M157.9,64.4h2.6v-4.7h0.5v5.1h-6.5v-5.1h0.5v4.7h2.6v-4.7h0.5V64.4z"/>
		<path class="st1" d="M164.4,65c-0.7,0-1.3-0.2-1.7-0.7c-0.4-0.5-0.6-1.1-0.6-1.9c0-0.8,0.2-1.5,0.6-2c0.4-0.5,0.9-0.7,1.6-0.7
			c0.6,0,1.1,0.2,1.4,0.6c0.4,0.4,0.5,1,0.5,1.7v0.4h-3.7c0,0.7,0.2,1.2,0.5,1.6c0.3,0.4,0.8,0.6,1.4,0.6c0.3,0,0.6,0,0.8-0.1
			c0.2,0,0.5-0.1,0.8-0.3v0.4c-0.3,0.1-0.6,0.2-0.8,0.3C165,64.9,164.7,65,164.4,65z M164.3,60c-0.5,0-0.9,0.2-1.2,0.5
			c-0.3,0.3-0.5,0.8-0.5,1.4h3.2c0-0.6-0.1-1.1-0.4-1.4C165.1,60.2,164.7,60,164.3,60z"/>
	</g>
</g>
</svg>
