<svg id="Слой_1" data-name="Слой 1" xmlns="http://www.w3.org/2000/svg" viewBox="0 0 856 150.01"><defs><style>.cls-1{fill:#fff;}.cls-2{fill:#0a0028;}.cls-3{fill:#fefefe;}</style></defs><title>pro-business</title><path class="cls-1" d="M81,90H397V240H81Z" transform="translate(-81 -90)"/><path class="cls-2" d="M397,90q270,0,540,0Q937,165,937,240q-270,.1-540,0Z" transform="translate(-81 -90)"/><path class="cls-2" d="M201.06,112.36a156.08,156.08,0,0,1,40.66-1.78c10,1,20.41,4.83,26.43,13.27,5.74,7.39,6.52,17.22,5.73,26.22a31.92,31.92,0,0,1-12.16,22.65c-11.27,8.83-26.42,8.95-40,8q0,18.19,0,36.4c-6.89.13-13.79,0-20.68,0C201,182.21,200.93,147.28,201.06,112.36Z" transform="translate(-81 -90)"/><path class="cls-2" d="M316.41,110.69c10.62-1.49,22.07-1.11,31.68,4.15,8.38,4.39,14.6,12.19,18,20.91,4.72,12,5.26,25.12,4.45,37.84-1.1,12.35-4.8,25.19-13.83,34.15-7.91,8.13-19.58,11.68-30.74,11.27-12.07.45-24.66-4-32.46-13.54-9.31-11.21-11.79-26.32-12-40.47,0-14,2.23-29,11.1-40.34A37.83,37.83,0,0,1,316.41,110.69Z" transform="translate(-81 -90)"/><path class="cls-3" d="M599.3,116a75.66,75.66,0,0,1,42.58-4.91c8.75,1.51,17.58,6.54,20.91,15.16,3,8.52,2,18.65-3.53,26-3,4.19-7.78,6.31-12.23,8.55,5,1.67,10.2,3.38,13.9,7.29,6,5.86,7.45,14.84,6.61,22.86a28.66,28.66,0,0,1-12.8,20.78c-7.57,5-16.72,7-25.68,7.29-10.91.26-22-1-32.17-5.18A141,141,0,0,1,602,196c10.8,4,23,7,34.33,3.29,8.14-2.61,12.06-13,7.9-20.4-3-5.18-9.37-6.49-14.82-7.2-5.76-.64-11.56-.61-17.34-.75q-.15-8.46,0-16.91c8.8-.27,18.7.87,26.19-4.77,5.4-3.54,5.78-11.77,2.13-16.66-4.17-4.34-10.78-4.66-16.43-4.52-6.82.12-13.12,2.85-19.52,4.84C602.76,127.28,601,121.66,599.3,116Z" transform="translate(-81 -90)"/><path class="cls-3" d="M853.23,127.23c7.2-9.87,18.93-15.76,31-16.92,10.57-.89,21.48-.11,31.48,3.66-1.3,5.63-2.65,11.25-4,16.87-8.88-2.55-18.44-4-27.54-1.75-8.52,2.17-15.11,9.38-17.43,17.73-2.83,9.3-2.82,19.3-1.41,28.85,1.51,9,6.25,18.07,14.71,22.23,10.33,5.08,22.86,3.47,32.89-1.57,1.53,5.48,3,11,4.15,16.55-7.43,4.72-16.45,5.78-25.05,6.11-11.87.43-24.53-2.36-33.48-10.58-10.48-9.38-15-23.71-15.71-37.42C841.84,155.87,843.89,139.67,853.23,127.23Z" transform="translate(-81 -90)"/><path class="cls-2" d="M108,112q39,0,77.93,0,0,52.56,0,105.11-10.36,0-20.73,0,0-43.49,0-87H128.7q-.06,43.47,0,86.93c-6.89.14-13.79.06-20.68.06Q108,164.56,108,112Z" transform="translate(-81 -90)"/><path class="cls-3" d="M424,112c21.57,0,43.14-.17,64.71.07,0,5.93,0,11.86,0,17.79-14.66.36-29.32,0-44,.17-.25,7.33-.28,14.67,0,22,11.76-1.52,24.25-2,35.37,2.78,8.27,3.52,14,11.6,15.5,20.35,1.73,10.56.57,22.42-6.51,30.92s-18.39,11.95-29.07,12.72a186.08,186.08,0,0,1-35.91-2.14C423.8,181.81,424.06,146.92,424,112Z" transform="translate(-81 -90)"/><path class="cls-3" d="M506,112c6.88-.05,13.77-.16,20.65.11-.1,18,0,35.93,0,53.9,0,5.75-1.14,11.42-1.32,17.17,4-5.32,5.88-11.81,9.71-17.21,12.47-17.92,24.8-35.93,37.24-53.87,5.2-.24,10.41-.21,15.62,0q0,52.42,0,104.86c-6.93.16-13.85.17-20.77,0-.07-17.65,0-35.3,0-52.95-.08-6.17,1-12.29.87-18.46-3.65,5.36-5.65,11.65-9.44,16.93-12.26,18.14-24.64,36.21-36.81,54.41-5.22.29-10.45.25-15.67.1Q505.94,164.5,506,112Z" transform="translate(-81 -90)"/><path class="cls-3" d="M678,112c6.88,0,13.76-.15,20.64.12,0,14.27-.23,28.54.08,42.81q19.08.1,38.17,0c.13-14.3-.09-28.61.09-42.91,6.88-.05,13.77-.16,20.66.11q-.15,52.35,0,104.72c-6.89.31-13.78.21-20.66.11-.19-14.63.06-29.26-.1-43.89-12.72-.09-25.44-.07-38.16,0-.32,14.59-.09,29.19-.09,43.79-6.87.31-13.75.21-20.63.11Q677.94,164.51,678,112Z" transform="translate(-81 -90)"/><path class="cls-3" d="M773,112q31.08-.09,62.18,0,.35,9,0,17.92c-13.82.21-27.64-.05-41.45.11q-.39,12.43,0,24.88c12.63.2,25.28-.18,37.91.19q-.06,8.85,0,17.72c-12.63.44-25.27,0-37.9.21-.27,8.62-.24,17.25,0,25.88,14.07.14,28.14-.06,42.21.08q.19,9,0,17.94-31.46.17-62.93,0Q772.92,164.51,773,112Z" transform="translate(-81 -90)"/><path class="cls-1" d="M221.73,127.85c7.68-.88,16.11-1.66,23.14,2.25,8.64,5.1,9.28,17.5,4.83,25.59-4.39,7.42-13.95,8.36-21.74,8.22-2-.32-4.53.22-6.2-1.12C221.58,151.15,221.69,139.49,221.73,127.85Z" transform="translate(-81 -90)"/><path class="cls-1" d="M321.42,128.65c5.67-1.1,12.06-.49,16.72,3.21,5.28,4.06,7.89,10.58,9.33,16.9a82.6,82.6,0,0,1,.51,30.11c-1,6-3,12.22-7.53,16.58-5.28,5.22-13.51,6.49-20.48,4.52-5.92-1.78-10.28-6.81-12.59-12.38-4.19-9.94-4.24-21-3.6-31.6.63-6.49,1.88-13.19,5.46-18.77A19,19,0,0,1,321.42,128.65Z" transform="translate(-81 -90)"/><path class="cls-2" d="M444.85,169c6.77-1.14,13.89-1.56,20.51.59a13.35,13.35,0,0,1,8.78,10.46c1.2,6.27.3,13.8-5.12,17.91-6.91,5.24-16.2,4.27-24.27,3.21C444.58,190.46,444.41,179.73,444.85,169Z" transform="translate(-81 -90)"/></svg>