<svg xmlns="http://www.w3.org/2000/svg" width="200" height="56" viewBox="0 0 114 56">
  <path fill="#FFF" d="M99.3372442,23.7484311 L99.1863574,24.5028649 L96.3195089,54.3784447 L93,21.1833561 L95.1878581,21.0324693 C95.7779216,20.9964663 96.3259004,20.7148571 96.6986821,20.2560489 C97.0714637,19.7972407 97.234935,19.2032191 97.1493861,18.618281 L96.9230559,16.5058663 C96.8601727,15.9129124 97.0420294,15.3199809 97.4265524,14.86425 C97.8110754,14.4085191 98.3649475,14.1294756 98.9600273,14.091678 L113.973261,12.9600273 C115.139363,12.8553303 116.20321,13.6290376 116.462892,14.7706685 L100.167121,23.2957708 L99.3372442,23.7484311 Z M134.871078,7 L165.878308,19.5236016 L162.257026,57.1698499 L150.110641,58.1506139 L131.098909,59.6594816 L97.3002729,62.3 L100.921555,24.6537517 L134.871078,7 Z M115.934789,32.575307 C117.443656,32.575307 118.575307,33.4806276 118.575307,34.9140518 C118.578309,35.5955491 118.293132,36.2465693 117.790162,36.7064272 C117.287192,37.166285 116.61329,37.3921377 115.934789,37.3282401 L111.936289,37.3282401 L111.936289,32.575307 L115.934789,32.575307 Z M119.027967,46.9849932 L119.027967,47.0604366 L123.403683,47.0604366 L119.027967,40.2705321 C120.914052,39.8178718 122.498363,38.3090041 122.498363,34.9894952 C122.498363,31.6699864 120.235061,29.2557981 116.538336,29.2557981 L108.239563,29.2557981 L108.239563,46.9849932 L112.011733,46.9849932 L112.011733,40.647749 L115.180355,40.647749 L119.027967,46.9849932 Z M138.26603,32.575307 L138.190587,32.575307 L138.190587,29.2557981 L125.666985,29.2557981 L125.666985,46.9849932 L138.190587,46.9849932 L138.190587,43.6654843 L129.439154,43.6654843 L129.439154,39.666985 L137.285266,39.666985 L137.285266,36.3474761 L129.439154,36.3474761 L129.439154,32.575307 L138.26603,32.575307 Z M157.353206,43.9672578 L157.277763,43.9672578 L157.277763,37.4036835 L148.828104,37.4036835 L148.828104,40.7231924 L153.505593,40.7231924 L153.505593,42.5338336 C152.449195,43.4197911 151.112124,43.9011367 149.733424,43.8918145 C148.205904,43.9150467 146.737363,43.3027471 145.678789,42.2012577 C144.620215,41.0997682 144.066728,39.6080662 144.150614,38.0826739 C144.066728,36.5572817 144.620215,35.0655796 145.678789,33.9640902 C146.737363,32.8626008 148.205904,32.2503012 149.733424,32.2735334 C151.447106,32.2865236 153.037492,33.1669161 153.958254,34.6122783 L157.126876,32.8770805 C155.594357,30.314521 152.793223,28.7840045 149.808868,28.8785812 C144.603274,28.8785812 140.378445,32.4998636 140.378445,38.0826739 C140.378445,43.6654843 144.603274,47.2867667 149.808868,47.2867667 C152.691194,47.3523553 155.454253,46.1366091 157.353206,43.9672578 Z M166.557299,45.174352 C166.557299,43.9660313 167.536836,42.9864939 168.745157,42.9864939 C169.953478,42.9864939 170.933015,43.9660313 170.933015,45.174352 C170.89391,46.3660992 169.936904,47.3231052 168.745157,47.3622101 C167.55341,47.3231052 166.596404,46.3660992 166.557299,45.174352 Z M184.663711,46.9849932 L180.438881,40.647749 L177.647476,40.647749 L177.647476,46.9849932 L173.875307,46.9849932 L173.875307,29.2557981 L182.174079,29.2557981 C185.870805,29.2557981 188.134106,31.6699864 188.134106,34.9894952 C188.134106,38.3090041 186.172578,39.8178718 184.286494,40.2705321 L189.039427,47.0604366 L184.663711,47.0604366 L184.663711,46.9849932 Z M184.286494,34.9894952 C184.289496,34.3079979 184.004318,33.6569777 183.501349,33.1971199 C182.998379,32.737262 182.324477,32.5114094 181.645975,32.575307 L177.647476,32.575307 L177.647476,37.3282401 L181.645975,37.3282401 C182.316625,37.4155291 182.992226,37.2082287 183.498501,36.7598136 C184.004776,36.3113985 184.292151,35.6657782 184.286494,34.9894952 Z M191.000955,39.8933151 L191.000955,29.2557981 L194.848568,29.2557981 L194.848568,39.8178718 C194.848568,42.3075034 195.904775,43.9672578 198.620737,43.9672578 C201.336698,43.9672578 202.392906,42.23206 202.392906,39.8178718 L202.392906,29.2557981 L206.240518,29.2557981 L206.240518,39.8933151 C206.240518,44.3444748 203.977217,47.2867667 198.620737,47.2867667 C193.264256,47.2867667 191.000955,44.2690314 191.000955,39.8933151 Z" transform="translate(-93 -7)"/>
</svg>
