<svg xmlns="http://www.w3.org/2000/svg" viewBox="0 0 390.95 314.99"><defs><style>.cls-1{fill:#fff;}</style></defs><title>retail finance</title><g id="Layer_2" data-name="Layer 2"><g id="Layer_1-2" data-name="Layer 1"><path class="cls-1" d="M165.45,184.26c-7.62,0-13.74,1-18.36,3.69a21.42,21.42,0,0,0-10.16,13.85h16.36a8,8,0,0,1,3.73-4.27,14.56,14.56,0,0,1,7.73-1.73c1.73,0,6.12.12,8.31,2.65,1.62,1.85,1.73,5.31,1.73,6.93v1.27l-5.54.23c-4.73.23-15.24,1.15-21.7,3.81-10,4.16-12.58,11.2-12.58,17.09a16.94,16.94,0,0,0,6,13.16c3.81,3.12,9.35,4.5,14.78,4.5,12.24,0,17.55-6.58,19.74-10.5v9.35h15.93V208.85c0-4.39.23-9.47-2.08-14.2C185,185.53,175.15,184.26,165.45,184.26Zm9.35,34.86c0,6.69-2.77,10.16-3.12,10.5a13.28,13.28,0,0,1-9.81,4.27,10.57,10.57,0,0,1-6.35-1.85,6.3,6.3,0,0,1-2.54-5.2,8.3,8.3,0,0,1,1.85-5.31c3.23-4,9-4.62,14.78-5.08l5.19-.46ZM0,244.29H18.47V210.12H46.25V196.73H18.47V179.65H73.76V165.1H0Zm56.56,0h17.2V185.42H56.56ZM243.1,188.65c-3-2.77-8.2-4.39-13.28-4.39a21.24,21.24,0,0,0-10.16,2.43,20.39,20.39,0,0,0-7.85,8h-.23v-9.23h-16v58.87h17.2V210.12c0-2.89.35-8.08,3.81-11.43a9.75,9.75,0,0,1,6.81-2.89c3.23,0,5.08,1.27,5.89,2.19,2,2.31,2.08,6.12,2.08,8.77v37.52h17.2v-41C248.53,200.66,248.3,193.38,243.1,188.65Zm-116.8,0c-3-2.77-8.2-4.39-13.28-4.39a21.24,21.24,0,0,0-10.16,2.43,20.39,20.39,0,0,0-7.85,8h-.23v-9.23h-16v58.87h17.2V210.12c0-2.89.35-8.08,3.81-11.43a9.75,9.75,0,0,1,6.81-2.89c3.23,0,5.08,1.27,5.89,2.19,2,2.31,2.08,6.12,2.08,8.77v37.52h17.2v-41C131.73,200.66,131.5,193.38,126.31,188.65Zm162.58,40.59c-2.08,3.06-4.16,3.74-7.16,3.74-2.77,0-5.54-.68-7.85-4.53-1.62-2.72-2.54-6.68-2.54-14.16,0-8.95,1.38-12.46,2.42-14.16a9.4,9.4,0,0,1,7.85-4.53,9.25,9.25,0,0,1,7.39,3.74,14,14,0,0,1,2.15,7.27h15.52c-.69-5.78-3.36-12.49-7.63-16.34s-11-6-17.66-6a28.59,28.59,0,0,0-18.7,6.8c-4.5,4-9.35,11.44-9.35,23.34,0,9.86,3.46,18,8.66,22.88,3,2.83,9.12,7,19,7,8.89,0,14.54-3.29,17.78-6,4.16-3.63,7.17-10.06,8-16.52H291.32A14,14,0,0,1,288.89,229.24Zm55.51-45c-5.19,0-12.58.79-19.39,6.46-4.62,3.85-10.39,11-10.39,23.67,0,10.87,4.39,17.89,8.43,21.86,4.39,4.3,11.54,8,21.24,8h7.33V229.86h-6.53c-5.54,0-8.77-1-10.51-4.3a13.85,13.85,0,0,1-2-7.88h40.75v-2.95c0-9.74-3.23-16.65-6.81-20.84C362.64,189.25,355.6,184.26,344.4,184.26ZM355.71,208H332.62a13,13,0,0,1,3.23-8.83,12.18,12.18,0,0,1,8.77-3.62,10.4,10.4,0,0,1,8.77,4.3A13.71,13.71,0,0,1,355.71,208Zm1.71,36.24h16V229.86h-16ZM113.8,137.42h13.62l28.82,31.17h52V154.15H189.66c-5.54,0-8.77-1-10.5-4.3a13.85,13.85,0,0,1-2-7.88h40.75V139c0-9.74-3.23-16.65-6.81-20.84-3.93-4.64-11-9.63-22.16-9.63-5.19,0-12.58.79-19.39,6.46-4.62,3.85-10.39,11-10.39,23.67A32.83,32.83,0,0,0,162,152.55l-17-18.59c8.43-3.35,14-9.48,14-19.75a20.58,20.58,0,0,0-7.16-16C147.62,94.4,140.35,92,131.11,92H95.33v76.61H113.8Zm66.62-13.91a12.18,12.18,0,0,1,8.77-3.62,10.4,10.4,0,0,1,8.77,4.3,13.71,13.71,0,0,1,2.31,8.16H177.19A13,13,0,0,1,180.42,123.51ZM113.8,105.83h14c2.31,0,13,0,13,8.85s-9.92,8.89-13.38,8.89H113.8ZM339.31,89.4v79.19h31.22v-12.9h-14V89.4Zm-97.74,64.3c-1.85-2-1.85-4.5-1.85-6.58V127.74H252V113.41H239.72V90.55l-17.2,15.12v41.91c0,5.66-.23,11.43,4.15,16,3.81,4,9.58,5,13.85,5h12.58V155.43h-6.23A7.07,7.07,0,0,1,241.57,153.7Zm92.36,14.89V111.44h-17.2v57.14Zm-47.93-60c-7.62,0-13.74,1-18.35,3.69a21.41,21.41,0,0,0-10.16,13.85h16.36a8,8,0,0,1,3.73-4.27,14.56,14.56,0,0,1,7.73-1.73c1.73,0,6.12.12,8.31,2.66,1.62,1.85,1.73,5.31,1.73,6.93V131l-5.54.23c-4.73.23-15.24,1.15-21.7,3.81-10,4.16-12.58,11.2-12.58,17.08a16.94,16.94,0,0,0,6,13.16c3.81,3.12,9.35,4.5,14.78,4.5,12.24,0,17.55-6.58,19.74-10.51v9.35H312V133.15c0-4.39.23-9.47-2.08-14.2C305.51,109.83,295.7,108.56,286,108.56Zm9.35,34.86c0,6.7-2.77,10.16-3.12,10.5a13.28,13.28,0,0,1-9.81,4.27,10.56,10.56,0,0,1-6.35-1.85,6.29,6.29,0,0,1-2.54-5.19,8.3,8.3,0,0,1,1.85-5.31c3.23-4,9-4.62,14.78-5.08l5.19-.46Zm38.81-53H316.5v13.51h17.66ZM239.38,79.19H252V66h-6.23a7.07,7.07,0,0,1-5.31-1.73c-1.85-2-1.85-4.5-1.85-6.58V38.35H250.8V24H238.57V1.15l-17.2,15.12V58.18c0,5.66-.23,11.43,4.15,16C229.33,78.27,235.1,79.19,239.38,79.19ZM274.14,45c0-3.93,1-7.85,2.65-10.16a9.83,9.83,0,0,1,8.43-4.16A6.67,6.67,0,0,1,291,33.25c.58.92,1.73,3,1.73,8.43V79.19h17.2V40.06c0-5-.46-11.78-4.85-16.16-3.12-3.23-8.54-4.73-13.51-4.73a19.71,19.71,0,0,0-12.24,4,21.38,21.38,0,0,0-5.19,5.54V0h-17.2V79.19h17.2ZM215.92,24H202.45V38.35h13.47Zm150.64,4.78c-3.92-4.64-11-9.63-22.16-9.63-5.2,0-12.58.79-19.39,6.46-4.62,3.85-10.39,11-10.39,23.67,0,10.87,4.39,17.9,8.43,21.86,4.39,4.3,11.54,8,21.24,8h19.26V64.76H345.09c-5.54,0-8.77-1-10.5-4.3a13.86,13.86,0,0,1-2-7.88h40.75V49.63C373.37,39.89,370.14,33,366.56,28.79ZM355.71,42.95H332.62a13,13,0,0,1,3.23-8.83,12.18,12.18,0,0,1,8.77-3.62,10.4,10.4,0,0,1,8.77,4.3A13.7,13.7,0,0,1,355.71,42.95Z"/><path class="cls-1" d="M364.47,296a3.92,3.92,0,0,0-.87,2.5,3,3,0,0,0,1.2,2.45,5,5,0,0,0,3,.87,6.27,6.27,0,0,0,4.63-2,7.61,7.61,0,0,0,1.47-5v-1.47l-2.45.22C368.72,293.79,366,294.07,364.47,296ZM254,280.41c0-4.41-5.34-4.4-6.49-4.4h-7v8.83h6.78C249,284.84,254,284.82,254,280.41ZM206.49,261l24.84,24.84V269.11h17.81c4.6,0,8.22,1.21,10.34,3.1a10.24,10.24,0,0,1,3.56,8c0,5.11-2.76,8.16-7,9.83l10.2,11.18a15.42,15.42,0,0,1-.49-4.24v-18h8.11v16.72c0,1,0,3,.93,4.19a3.37,3.37,0,0,0,2.78,1.25,4.56,4.56,0,0,0,3.65-1.85,7.16,7.16,0,0,0,1.25-4.52V278.93h8.11V306.7h-7.51v-5H283a8.69,8.69,0,0,1-8.33,5.5h-13l-14.34-15.51h-6.78v3.33L260.45,315H390.95V261ZM338.69,304.9c-2.51,1.74-6.1,2.34-9.37,2.34-2.61,0-6.37-.38-9.42-2.56a10.58,10.58,0,0,1-2.83-3.21,8.73,8.73,0,0,1-2.91,3.43c-2.5,1.74-6.1,2.34-9.37,2.34-2.61,0-6.37-.38-9.42-2.56a12.43,12.43,0,0,1-4.14-6.07h6.86a19.47,19.47,0,0,0,1.9,2.21,8.35,8.35,0,0,0,4.85,1.42,9.26,9.26,0,0,0,4.14-.87,2.35,2.35,0,0,0,1.14-2.12c0-2.12-2.23-2.5-3.87-2.78l-4-.65c-2.34-.38-5.12-1-7.08-2.72a7.69,7.69,0,0,1-2.61-5.88,8.3,8.3,0,0,1,3.76-6.81c2.5-1.69,5.83-2,8.44-2s5.77.27,8.55,2.45a8.51,8.51,0,0,1,3.16,5.27H310a17,17,0,0,0-1.69-1.63,5.64,5.64,0,0,0-3.81-1.09,6.18,6.18,0,0,0-3,.54,2.55,2.55,0,0,0-1.47,2.23c0,1.85,2.07,2.34,3.54,2.56l4.57.65c2.29.33,5.39,1,7.46,3a7.61,7.61,0,0,1,2.18,5.55c0,.22,0,.42,0,.62h4.86a19.6,19.6,0,0,0,1.9,2.21,8.35,8.35,0,0,0,4.85,1.42,9.27,9.27,0,0,0,4.14-.87,2.35,2.35,0,0,0,1.14-2.12c0-2.12-2.23-2.5-3.87-2.78l-4-.65c-2.34-.38-5.12-1-7.08-2.72a7.69,7.69,0,0,1-2.61-5.88,8.3,8.3,0,0,1,3.76-6.81c2.51-1.69,5.83-2,8.44-2s5.77.27,8.55,2.45a8.51,8.51,0,0,1,3.16,5.27h-6.48a17.11,17.11,0,0,0-1.69-1.63,5.64,5.64,0,0,0-3.81-1.09,6.17,6.17,0,0,0-3,.54,2.55,2.55,0,0,0-1.47,2.23c0,1.85,2.07,2.34,3.54,2.56l4.57.65c2.29.33,5.39,1,7.46,3a7.61,7.61,0,0,1,2.18,5.55A8.27,8.27,0,0,1,338.69,304.9Zm14.24,1.8h-8.11V278.93h8.11Zm.11-31.31h-8.33V269H353Zm21.62,31.31a27.15,27.15,0,0,1-.43-4.41c-1,1.85-3.54,5-9.31,5a11.16,11.16,0,0,1-7-2.12,8,8,0,0,1-2.83-6.21c0-2.78,1.2-6.1,5.93-8.06,3-1.25,8-1.69,10.24-1.8l2.61-.11v-.6a5.4,5.4,0,0,0-.82-3.27c-1-1.2-3.1-1.25-3.92-1.25a6.88,6.88,0,0,0-3.65.82,4.33,4.33,0,0,0-2,2.83l-7.51-.82a10.1,10.1,0,0,1,4.79-6.53c2.18-1.25,5.06-1.74,8.66-1.74,4.57,0,9.2.6,11.27,4.9,1.09,2.23,1,4.63,1,6.7v10.72a21.82,21.82,0,0,0,.82,6Z"/></g></g></svg>