<svg id="Layer_1" data-name="Layer 1" xmlns="http://www.w3.org/2000/svg" viewBox="0 0 584.11 309.68"><defs><style>.cls-1{fill:#fff;}.cls-2{fill:#0d0a29;}</style></defs><title>RL_site_OK</title><path class="cls-1" d="M449.2,60.05l11.6-13.44L450.12,34.43h4l10.3,12.06V34.43h3.19V46.49l10.33-12.06h4L471.21,46.61l11.64,13.44h-4l-9.73-11.52-1.53,1.76v9.76h-3.19V50.29l-1.54-1.76-9.72,11.52Z" transform="translate(-43.57 -10.56)"/><path class="cls-1" d="M487.91,58.48l1.34-2.54a4.9,4.9,0,0,0,3.5,1.73c2,0,2.88-1,4.3-3.65l.46-.88-9.83-18.71h3.65l8,15.86,8-15.86H511L499.86,55.52c-1.62,3-3.31,5-7,5A6.56,6.56,0,0,1,487.91,58.48Z" transform="translate(-43.57 -10.56)"/><path class="cls-1" d="M518.24,60.05V34.43h10.29c5.16,0,8,3.53,8,7.72s-2.95,7.72-8,7.72h-7.1V60.05Zm15-17.9a4.76,4.76,0,0,0-5.11-4.88h-6.72V47h6.72A4.76,4.76,0,0,0,533.26,42.15Z" transform="translate(-43.57 -10.56)"/><path class="cls-1" d="M562.82,60.05V48.3h-15V60.05h-3.18V34.43h3.18v11h15v-11H566V60.05Z" transform="translate(-43.57 -10.56)"/><path class="cls-1" d="M594.15,60.05l-2.26-5.68H579.13l-2.27,5.68h-3.65l10.3-25.62h4L597.8,60.05Zm-8.64-22.32-5.46,13.79h10.88Z" transform="translate(-43.57 -10.56)"/><path class="cls-1" d="M603.24,57.67c3.07,0,4.8-1.69,5.88-10.37l1.57-12.87h15.68V60.05h-3.2V37.27h-9.64l-1.27,10.26c-1.38,11.26-4.45,13-9,13Z" transform="translate(-43.57 -10.56)"/><path class="cls-1" d="M271.48,300.1l-8.6-13.4h-6.72v13.4H252V266.38h13.55c6.17,0,10.56,3.94,10.56,10.16s-4.14,9.41-8.74,9.81l9.1,13.75Zm.25-23.56c0-3.79-2.73-6.42-6.73-6.42h-8.84V283H265C269,283,271.73,280.34,271.73,276.54Z" transform="translate(-43.57 -10.56)"/><path class="cls-1" d="M281.13,287.86c0-7.07,5.06-12.79,12-12.79,7.38,0,11.73,5.77,11.73,13.11v.95H285.12c.31,4.6,3.54,8.44,8.81,8.44a10.7,10.7,0,0,0,7.53-3.08l1.81,2.47a13.24,13.24,0,0,1-9.7,3.75C286.33,300.71,281.13,295.5,281.13,287.86Zm12-9.64c-5.2,0-7.78,4.4-8,8.13h16C301.1,282.71,298.67,278.22,293.11,278.22Z" transform="translate(-43.57 -10.56)"/><path class="cls-1" d="M311.77,295V279h-4v-3.34h4V269h3.79v6.68h4.95V279h-4.95v15.16c0,1.83.81,3.14,2.48,3.14a3.66,3.66,0,0,0,2.57-1l1.12,2.83a6.19,6.19,0,0,1-4.55,1.57C313.59,300.71,311.77,298.63,311.77,295Z" transform="translate(-43.57 -10.56)"/><path class="cls-1" d="M341.13,300.1v-2.78a10.53,10.53,0,0,1-8.07,3.39c-4.15,0-8.55-2.79-8.55-8.09,0-5.46,4.4-8,8.55-8a10.16,10.16,0,0,1,8.07,3.34v-4.4c0-3.29-2.62-5.15-6.16-5.15a9.63,9.63,0,0,0-7.47,3.39l-1.78-2.64a12.77,12.77,0,0,1,9.76-4.05c5.16,0,9.45,2.33,9.45,8.25V300.1Zm0-5.16v-4.59a8.12,8.12,0,0,0-6.72-3c-3.53,0-6,2.22-6,5.36s2.47,5.31,6,5.31A8.15,8.15,0,0,0,341.13,294.94Z" transform="translate(-43.57 -10.56)"/><path class="cls-1" d="M351.86,269.66a2.55,2.55,0,1,1,5.1,0,2.55,2.55,0,0,1-5.1,0Zm.66,30.44V275.68h3.79V300.1Z" transform="translate(-43.57 -10.56)"/><path class="cls-1" d="M363.9,300.1V266.38h3.78V300.1Z" transform="translate(-43.57 -10.56)"/><path class="cls-1" d="M373,289.53v-3.32h12.14v3.32Z" transform="translate(-43.57 -10.56)"/><path class="cls-1" d="M390.59,300.1V266.38h4.19v30h15.68v3.75Z" transform="translate(-43.57 -10.56)"/><path class="cls-1" d="M414.81,287.86c0-7.07,4.65-12.79,12.08-12.79S439,280.79,439,287.86s-4.65,12.85-12.08,12.85S414.81,294.94,414.81,287.86Zm20.17,0c0-4.94-2.88-9.39-8.09-9.39s-8.14,4.45-8.14,9.39,2.93,9.46,8.14,9.46S435,292.87,435,287.86Z" transform="translate(-43.57 -10.56)"/><path class="cls-1" d="M444.38,306.22a5.7,5.7,0,0,0,2.08.4c1.66,0,2.79-.55,3.64-2.58l1.61-3.69-10.2-24.67h4.08l8.13,20,8.1-20H466l-12.25,29.38a7.23,7.23,0,0,1-7.16,4.95,12.36,12.36,0,0,1-2.78-.36Z" transform="translate(-43.57 -10.56)"/><path class="cls-1" d="M485.17,300.1v-2.78a10.53,10.53,0,0,1-8.07,3.39c-4.15,0-8.55-2.79-8.55-8.09,0-5.46,4.4-8,8.55-8a10.15,10.15,0,0,1,8.07,3.34v-4.4c0-3.29-2.62-5.15-6.16-5.15a9.65,9.65,0,0,0-7.48,3.39l-1.76-2.64a12.71,12.71,0,0,1,9.75-4.05c5.15,0,9.46,2.33,9.46,8.25V300.1Zm0-5.16v-4.59a8.13,8.13,0,0,0-6.72-3c-3.53,0-6,2.22-6,5.36s2.48,5.31,6,5.31A8.16,8.16,0,0,0,485.17,294.94Z" transform="translate(-43.57 -10.56)"/><path class="cls-1" d="M496.56,300.1V266.38h3.79V300.1Z" transform="translate(-43.57 -10.56)"/><path class="cls-1" d="M508.7,295V279h-4.06v-3.34h4.06V269h3.79v6.68h5V279h-5v15.16c0,1.83.8,3.14,2.47,3.14a3.64,3.64,0,0,0,2.57-1l1.12,2.83a6.19,6.19,0,0,1-4.55,1.57C510.52,300.71,508.7,298.63,508.7,295Z" transform="translate(-43.57 -10.56)"/><path class="cls-1" d="M522,306.22a5.65,5.65,0,0,0,2.07.4c1.67,0,2.79-.55,3.64-2.58l1.62-3.69-10.21-24.67h4.09l8.14,20,8.09-20h4.14l-12.23,29.38a7.27,7.27,0,0,1-7.18,4.95,12.51,12.51,0,0,1-2.78-.36Z" transform="translate(-43.57 -10.56)"/><path class="cls-1" d="M546.81,297.83a2.78,2.78,0,1,1,2.79,2.77A2.82,2.82,0,0,1,546.81,297.83Z" transform="translate(-43.57 -10.56)"/><path class="cls-1" d="M557.78,287.86c0-7.07,4.65-12.79,12.08-12.79S582,280.79,582,287.86s-4.66,12.85-12.09,12.85S557.78,294.94,557.78,287.86Zm20.18,0c0-4.94-2.89-9.39-8.1-9.39s-8.13,4.45-8.13,9.39,2.93,9.46,8.13,9.46S578,292.87,578,287.86Z" transform="translate(-43.57 -10.56)"/><path class="cls-1" d="M588.12,300.1V275.68h3.79v3.95a10.38,10.38,0,0,1,8.13-4.46v3.9a6.61,6.61,0,0,0-1.5-.15,9,9,0,0,0-6.63,3.89V300.1Z" transform="translate(-43.57 -10.56)"/><path class="cls-1" d="M604.75,306.37l1.92-2.83c2,2.43,4.45,3.34,7.94,3.34,4,0,7.83-2,7.83-7.34v-3.48a10.22,10.22,0,0,1-8.19,4.35c-6.36,0-10.86-4.76-10.86-12.64s4.44-12.7,10.86-12.7a10.09,10.09,0,0,1,8.19,4.31v-3.7h3.8v23.71c0,8.09-5.66,10.62-11.63,10.62C610.47,310,607.63,309.2,604.75,306.37Zm17.69-13.29V282.41a9,9,0,0,0-7.27-3.94c-4.91,0-7.84,3.89-7.84,9.3s2.93,9.3,7.84,9.3A9,9,0,0,0,622.44,293.08Z" transform="translate(-43.57 -10.56)"/><path class="cls-1" d="M439.55,152.49c4-3.18,7.34-7.49,7.34-12.69,0-4.23-2.35-7.78-6.9-7.78l-.44,0v-6.82a26.66,26.66,0,0,1,4.66-.43c7.46,0,12.89,4.57,12.89,12.34,0,9.47-9.35,17.09-17.55,22Zm0,54.18a37.81,37.81,0,0,0,18.22-7.86,32.21,32.21,0,0,0,20,7.57c2.55,0,5.23-.22,7.79-.34,2.32-3.57,6.77-8.11,10.89-11.56l-1.67-3.77c-4.33,3.22-6.12,4.33-9.22,4.33a33.41,33.41,0,0,1-17.8-5.67c4.57-5.66,7.57-12.23,7.57-17.78a24.49,24.49,0,0,0-.33-4.45c4.11,0,11.11.56,16.56,1.11a73.56,73.56,0,0,1,2-9.45H456.88a39.89,39.89,0,0,1-3.33,7.67c4.44,0,7.88.23,10.43.45a19.43,19.43,0,0,1,2.46,9c0,3.77-1.78,7.66-3.68,10.54a117.59,117.59,0,0,1-23.21-25v21a138.64,138.64,0,0,0,13.22,12.92,17.22,17.22,0,0,1-10.67,3.44,19.73,19.73,0,0,1-2.55-.16Zm-7.34-65.21c0,4.67,2,9.68,3.89,13.46a34.41,34.41,0,0,0,3.45-2.43v6.66l-1.12.65c.37.55.74,1.09,1.12,1.63v21a118.21,118.21,0,0,1-12.35-16.86c-4.44,4-6,7.1-6,12.44,0,10.26,8.4,19.27,18.34,20.62v8a35,35,0,0,1-5.11.38c-14,0-27.24-7.57-27.24-22.79,0-11.9,8.46-18.22,18.23-23-2.55-5.9-4.22-10.67-4.22-15.45,0-3.56.89-6.44,6.33-12.22l4-4.45c1.9-2.12,4.93-3.32,8-3.91V132c-5.54.18-7.34,4.12-7.34,9.42" transform="translate(-43.57 -10.56)"/><path class="cls-1" d="M307.8,135.31a17.83,17.83,0,0,1,3.44,1.09c1,.44,2,.89,2.94,1.33v3.19H288.32v-3.19a21.23,21.23,0,0,1,3.53-1.56,31.2,31.2,0,0,1,3.35-.88V87.77a25.16,25.16,0,0,1-6.88-2.43V82.15h8.9c1.12,0,2.39,0,3.82-.09s2.92-.12,4.49-.21l4.79-.25c1.62-.08,3.18-.12,4.7-.12a32.71,32.71,0,0,1,8.52,1,19.4,19.4,0,0,1,6.71,3.17A14.31,14.31,0,0,1,334.62,91a16.5,16.5,0,0,1,1.56,7.38,16.05,16.05,0,0,1-2.94,10,17.73,17.73,0,0,1-8.06,5.82q3.35,5.25,7.13,10.71t8,10.56l4,2.66v2.86h-14l-3.61-2.75a52.42,52.42,0,0,1-6.85-10.64q-3-6-5.24-11.88h-6.8ZM312,86.93a14.22,14.22,0,0,0-4.22.51v23.42h5a10,10,0,0,0,7.34-3.06q3-3.08,3-9.11a14.86,14.86,0,0,0-.85-5.33A9.5,9.5,0,0,0,320,89.71a9.21,9.21,0,0,0-3.54-2.1A13.88,13.88,0,0,0,312,86.93Z" transform="translate(-43.57 -10.56)"/><path class="cls-1" d="M399.39,82.15q-.17,3.78-.59,7.81t-1.09,7.55h-3.44l-3.86-9.9h-15.7v20.57H385l3.69-6.47h2.69a90.59,90.59,0,0,1,.42,9.15q0,5-.42,9.4h-2.69L385,113.63H374.71v21.83h16.37l4.45-10.66H399c.22,1.06.45,2.27.67,3.61s.41,2.73.55,4.16.25,2.87.34,4.32.12,2.8.12,4H355.23v-3.19a29.14,29.14,0,0,1,3.19-1.43,21.11,21.11,0,0,1,3.69-1V87.77a28.45,28.45,0,0,1-3.56-1,17.34,17.34,0,0,1-3.32-1.47V82.15Z" transform="translate(-43.57 -10.56)"/><path class="cls-1" d="M455.06,140.92H426.18v-3.19c1.12-.45,2.39-.91,3.82-1.39a27.46,27.46,0,0,1,4.32-1.05V87.61h-9.74L419.21,102h-3.45c-.22-1.12-.44-2.54-.66-4.28s-.42-3.53-.59-5.37-.31-3.68-.42-5.5-.17-3.37-.17-4.66H467.4c0,1.34-.06,2.91-.16,4.7s-.26,3.61-.43,5.46-.36,3.62-.58,5.33-.45,3.15-.68,4.32H462l-5.37-14.35h-9.75v47.68c1.46.28,2.9.62,4.33,1a20.71,20.71,0,0,1,3.82,1.43Z" transform="translate(-43.57 -10.56)"/><path class="cls-1" d="M490.24,140.92H469.5v-3.19a18.32,18.32,0,0,1,2.9-1.47,19.65,19.65,0,0,1,3.06-1l21.66-54.15h6.22l21.07,54.15a22.36,22.36,0,0,1,3.36,1,14.06,14.06,0,0,1,2.93,1.47v3.19H504.42v-3.19c1.07-.5,2.22-1,3.45-1.43a25.78,25.78,0,0,1,3.53-1L506.52,122H487.89l-5,13.34a20.19,20.19,0,0,1,7.31,2.44Zm-.34-24.43h14.86l-5.46-16-1.59-7.22h-.17l-1.84,7.39Z" transform="translate(-43.57 -10.56)"/><path class="cls-1" d="M567.81,140.92H541.62v-3.19a21.94,21.94,0,0,1,6.8-2.44V87.77a17.48,17.48,0,0,1-3.52-.92,19.65,19.65,0,0,1-3.28-1.51V82.15h26.19v3.19a17.09,17.09,0,0,1-3.31,1.55,18.9,18.9,0,0,1-3.48.88v47.52a33.59,33.59,0,0,1,3.48.93,14.93,14.93,0,0,1,3.31,1.51Z" transform="translate(-43.57 -10.56)"/><path class="cls-1" d="M580.41,82.15H608v3.19A22,22,0,0,1,604,86.89a25.26,25.26,0,0,1-4.15.88v47.69h16.2l5.62-15h3.45c.22,1.29.43,2.8.63,4.54s.35,3.55.46,5.45.19,3.78.25,5.63.06,3.47,0,4.87H580.41v-3.19a25.91,25.91,0,0,1,3.65-1.6,21.19,21.19,0,0,1,3.23-.84V87.77a18.25,18.25,0,0,1-6.88-2.43Z" transform="translate(-43.57 -10.56)"/><path class="cls-1" d="M205.87,186.33h27.54v3.19a22,22,0,0,1-3.91,1.55,26.4,26.4,0,0,1-4.15.89v47.68h16.2l5.62-15h3.45c.22,1.29.43,2.8.63,4.54s.35,3.55.46,5.46.19,3.77.25,5.62.06,3.47,0,4.87H205.87v-3.19a27.12,27.12,0,0,1,3.65-1.6,20,20,0,0,1,3.23-.83V192a18.25,18.25,0,0,1-6.88-2.44Z" transform="translate(-43.57 -10.56)"/><path class="cls-1" d="M263.13,215.72A38.52,38.52,0,0,1,265,203.58a27.16,27.16,0,0,1,5.46-9.65,24.64,24.64,0,0,1,8.9-6.34,33.78,33.78,0,0,1,24.35,0,24.4,24.4,0,0,1,8.86,6.34,27.68,27.68,0,0,1,5.41,9.65,40.72,40.72,0,0,1,0,24.27,27.68,27.68,0,0,1-5.41,9.65,24.4,24.4,0,0,1-8.86,6.34,33.78,33.78,0,0,1-24.35,0,24.64,24.64,0,0,1-8.9-6.34,27.16,27.16,0,0,1-5.46-9.65A38.5,38.5,0,0,1,263.13,215.72Zm14.27,0a55.08,55.08,0,0,0,.84,9.94,26.57,26.57,0,0,0,2.64,7.9,14.45,14.45,0,0,0,4.62,5.2,11.85,11.85,0,0,0,6.76,1.89,9.94,9.94,0,0,0,6.13-1.89,13.8,13.8,0,0,0,4.11-5.2,27.88,27.88,0,0,0,2.31-7.9,64,64,0,0,0,.72-9.94,58.14,58.14,0,0,0-.8-9.95,27.07,27.07,0,0,0-2.52-7.9,13.8,13.8,0,0,0-4.53-5.2,12,12,0,0,0-6.85-1.89,10.7,10.7,0,0,0-6.46,1.89,13.16,13.16,0,0,0-4.16,5.2,27.23,27.23,0,0,0-2.18,7.9A73.07,73.07,0,0,0,277.4,215.72Z" transform="translate(-43.57 -10.56)"/><path class="cls-1" d="M365.22,186.33h20.57v3.19A31.66,31.66,0,0,1,383,191a12.43,12.43,0,0,1-3.15,1L363.54,220.5v19a11.1,11.1,0,0,1,3.32.87,29.17,29.17,0,0,1,3.06,1.56v3.19H344.06v-3.19a30,30,0,0,1,3.19-1.43,20.35,20.35,0,0,1,3.7-1V220.59L334,192a19,19,0,0,1-3.65-1,31.1,31.1,0,0,1-3.15-1.43v-3.19h27.53v3.19a26.72,26.72,0,0,1-2.68,1.34,17.94,17.94,0,0,1-3.53,1.1l12,22.49L371.94,192a26.92,26.92,0,0,1-3.7-1.1,25.36,25.36,0,0,1-3-1.34Z" transform="translate(-43.57 -10.56)"/><path class="cls-1" d="M406.53,245.1H385.79v-3.19a18.32,18.32,0,0,1,2.9-1.47,18.58,18.58,0,0,1,3.06-1l21.67-54.16h6.21l21.07,54.16a21.2,21.2,0,0,1,3.36,1,14.4,14.4,0,0,1,2.94,1.47v3.19H420.72v-3.19c1.06-.5,2.21-1,3.44-1.43a24.7,24.7,0,0,1,3.53-1l-4.87-13.35H404.18l-5,13.35a20,20,0,0,1,7.31,2.43Zm-.34-24.43h14.86l-5.45-16-1.6-7.22h-.17L412,204.8Z" transform="translate(-43.57 -10.56)"/><path class="cls-1" d="M457.07,186.33h27.54v3.19a21.57,21.57,0,0,1-3.9,1.55,26.52,26.52,0,0,1-4.16.89v47.68h16.21l5.62-15h3.44c.23,1.29.44,2.8.63,4.54s.35,3.55.47,5.46.19,3.77.25,5.62.05,3.47,0,4.87h-46.1v-3.19a27.78,27.78,0,0,1,3.66-1.6,19.47,19.47,0,0,1,3.23-.83V192a18.3,18.3,0,0,1-6.89-2.44Z" transform="translate(-43.57 -10.56)"/><path class="cls-1" d="M547.08,245.1H518.2v-3.19c1.11-.45,2.39-.91,3.81-1.39a26.48,26.48,0,0,1,4.33-1V191.79H516.6l-5.38,14.35h-3.44c-.22-1.12-.45-2.54-.67-4.28s-.42-3.53-.59-5.37-.3-3.68-.42-5.5-.17-3.37-.17-4.66h53.49c0,1.34-.06,2.91-.17,4.7s-.25,3.61-.42,5.46-.36,3.62-.59,5.33-.45,3.15-.67,4.32H554l-5.37-14.35h-9.74v47.69c1.46.27,2.9.61,4.32,1a21.1,21.1,0,0,1,3.83,1.43Z" transform="translate(-43.57 -10.56)"/><path class="cls-1" d="M607.11,186.33h20.57v3.19c-.85.5-1.78,1-2.82,1.47a12.19,12.19,0,0,1-3.15,1L605.43,220.5v19a11,11,0,0,1,3.31.87,28.4,28.4,0,0,1,3.07,1.56v3.19H586v-3.19a29.14,29.14,0,0,1,3.19-1.43,20,20,0,0,1,3.69-1V220.59l-17-28.63a19.21,19.21,0,0,1-3.65-1,31.1,31.1,0,0,1-3.15-1.43v-3.19h27.54v3.19a27.84,27.84,0,0,1-2.68,1.34,18.15,18.15,0,0,1-3.53,1.1l12,22.49L613.82,192a26.78,26.78,0,0,1-3.69-1.1,24,24,0,0,1-3-1.34Z" transform="translate(-43.57 -10.56)"/><polygon class="cls-1" points="114.78 74.92 0 74.92 0 162.96 114.78 74.92"/><path class="cls-1" d="M220.27,72.47h-2a59.92,59.92,0,0,0-119.84,0h-2a61.92,61.92,0,0,1,123.84,0Z" transform="translate(-43.57 -10.56)"/><path class="cls-1" d="M207.09,189.9v-3.19h23.07L267.26,159V81.29H192.74L51.16,189.74V320.23L214,198.79v-6.45A18.13,18.13,0,0,1,207.09,189.9Z" transform="translate(-43.57 -10.56)"/><path class="cls-2" d="M205.06,186.29v3.54a20.09,20.09,0,0,0,7.63,2.7v7.15l18.07-13.39Z" transform="translate(-43.57 -10.56)"/></svg>