<?xml version="1.0" encoding="UTF-8"?>
<svg width="120px" height="14px" viewBox="0 0 120 14" version="1.1" xmlns="http://www.w3.org/2000/svg" xmlns:xlink="http://www.w3.org/1999/xlink">
    <!-- Generator: Sketch 51.2 (57519) - http://www.bohemiancoding.com/sketch -->
    <title>robot_calls copy</title>
    <desc>Created with Sketch.</desc>
    <defs></defs>
    <g id="New_1" stroke="none" stroke-width="1" fill="none" fill-rule="evenodd">
        <g id="rc_main" transform="translate(-59.000000, -156.000000)" fill="#FFFFFF">
            <g id="Bitmap-+-Bitmap-+-robot_calls-+-+7-495-108_0_108-+-Group-2-+-Робот-обзвонит-10-00-+-задаст-голосом-ваш-в-+-Group-+-автоматизация-общени-Mask">
                <path d="M62.8828125,163.75 L61.21875,163.75 L61.21875,168 L59.0234375,168 L59.0234375,156.625 L62.8359375,156.625 C63.466149,156.625 64.0364558,156.699218 64.546875,156.847656 C65.0572942,156.996094 65.4934878,157.21354 65.8554688,157.5 C66.2174497,157.78646 66.4960928,158.143227 66.6914062,158.570312 C66.8867197,158.997398 66.984375,159.492185 66.984375,160.054688 C66.984375,160.46094 66.9361984,160.826821 66.8398438,161.152344 C66.7434891,161.477866 66.6054696,161.76953 66.4257812,162.027344 C66.2460929,162.285158 66.0299492,162.510416 65.7773438,162.703125 C65.5247383,162.895834 65.2421891,163.062499 64.9296875,163.203125 L67.375,167.898438 L67.375,168 L65.0234375,168 L62.8828125,163.75 Z M61.21875,161.96875 L62.84375,161.96875 C63.4635448,161.96875 63.9414046,161.811199 64.2773438,161.496094 C64.6132829,161.180988 64.78125,160.750003 64.78125,160.203125 C64.78125,159.635414 64.6171891,159.194012 64.2890625,158.878906 C63.9609359,158.563801 63.4765657,158.40625 62.8359375,158.40625 L61.21875,158.40625 L61.21875,161.96875 Z M78.0625,163.148438 C78.0625,163.877608 77.9661468,164.549476 77.7734375,165.164062 C77.5807282,165.778649 77.3020852,166.307289 76.9375,166.75 C76.5729148,167.192711 76.1289089,167.537759 75.6054688,167.785156 C75.0820286,168.032553 74.4921908,168.15625 73.8359375,168.15625 C73.1796842,168.15625 72.5963567,168.032553 72.0859375,167.785156 C71.5755183,167.537759 71.1458351,167.191408 70.796875,166.746094 C70.4479149,166.300779 70.1822926,165.772138 70,165.160156 C69.8177074,164.548174 69.7265625,163.877608 69.7265625,163.148438 L69.7265625,161.492188 C69.7265625,160.763017 69.8177074,160.091149 70,159.476562 C70.1822926,158.861976 70.4479149,158.332033 70.796875,157.886719 C71.1458351,157.441404 71.5742162,157.093751 72.0820312,156.84375 C72.5898463,156.593749 73.1718717,156.46875 73.828125,156.46875 C74.4895866,156.46875 75.0820286,156.593749 75.6054688,156.84375 C76.1289089,157.093751 76.5729148,157.441404 76.9375,157.886719 C77.3020852,158.332033 77.5807282,158.861976 77.7734375,159.476562 C77.9661468,160.091149 78.0625,160.763017 78.0625,161.492188 L78.0625,163.148438 Z M75.8359375,161.476562 C75.8359375,161.013019 75.7981775,160.585939 75.7226562,160.195312 C75.647135,159.804686 75.5286466,159.468751 75.3671875,159.1875 C75.2057284,158.906249 74.9986992,158.686199 74.7460938,158.527344 C74.4934883,158.368489 74.1875018,158.289062 73.828125,158.289062 C73.4739566,158.289062 73.1770845,158.368489 72.9375,158.527344 C72.6979155,158.686199 72.5052091,158.906249 72.359375,159.1875 C72.2135409,159.468751 72.1093753,159.804686 72.046875,160.195312 C71.9843747,160.585939 71.953125,161.013019 71.953125,161.476562 L71.953125,163.148438 C71.953125,163.606773 71.9843747,164.031248 72.046875,164.421875 C72.1093753,164.812502 72.2135409,165.15104 72.359375,165.4375 C72.5052091,165.72396 72.6979155,165.947916 72.9375,166.109375 C73.1770845,166.270834 73.4765607,166.351562 73.8359375,166.351562 C74.1901059,166.351562 74.4934883,166.270834 74.7460938,166.109375 C74.9986992,165.947916 75.2044263,165.725262 75.3632812,165.441406 C75.5221362,165.157551 75.6406246,164.820314 75.71875,164.429688 C75.7968754,164.039061 75.8359375,163.611981 75.8359375,163.148438 L75.8359375,161.476562 Z M81.2109375,168 L81.2109375,156.625 L85.03125,156.625 C85.6510448,156.625 86.2148412,156.687499 86.7226562,156.8125 C87.2304713,156.937501 87.6640607,157.127603 88.0234375,157.382812 C88.3828143,157.638022 88.6601553,157.960936 88.8554688,158.351562 C89.0507822,158.742189 89.1484375,159.203122 89.1484375,159.734375 C89.1432291,160.265628 89.0013035,160.742185 88.7226562,161.164062 C88.444009,161.58594 88.0338569,161.906249 87.4921875,162.125 C87.8203141,162.208334 88.1041655,162.333333 88.34375,162.5 C88.5833345,162.666667 88.7825513,162.86328 88.9414062,163.089844 C89.1002612,163.316407 89.2174475,163.563801 89.2929688,163.832031 C89.36849,164.100262 89.40625,164.377603 89.40625,164.664062 C89.40625,165.21094 89.3125009,165.692706 89.125,166.109375 C88.9374991,166.526044 88.6692726,166.874999 88.3203125,167.15625 C87.9713524,167.437501 87.5468775,167.648437 87.046875,167.789062 C86.5468725,167.929688 85.9843781,168 85.359375,168 L81.2109375,168 Z M83.4140625,162.984375 L83.4140625,166.226562 L85.3671875,166.226562 C85.9661488,166.221354 86.4231755,166.07422 86.7382812,165.785156 C87.053387,165.496092 87.2109375,165.11719 87.2109375,164.648438 C87.2161459,164.127602 87.0755223,163.721356 86.7890625,163.429688 C86.5026027,163.138019 86.0598988,162.989583 85.4609375,162.984375 L83.4140625,162.984375 Z M83.4140625,161.398438 L85.046875,161.398438 C85.656253,161.393229 86.1249984,161.265626 86.453125,161.015625 C86.7812516,160.765624 86.9479166,160.39844 86.953125,159.914062 C86.953125,159.38281 86.7890641,159.001303 86.4609375,158.769531 C86.1328109,158.537759 85.6588573,158.419271 85.0390625,158.414062 L83.4140625,158.414062 L83.4140625,161.398438 Z M100.265625,163.148438 C100.265625,163.877608 100.169272,164.549476 99.9765625,165.164062 C99.7838532,165.778649 99.5052102,166.307289 99.140625,166.75 C98.7760398,167.192711 98.3320339,167.537759 97.8085938,167.785156 C97.2851536,168.032553 96.6953158,168.15625 96.0390625,168.15625 C95.3828092,168.15625 94.7994817,168.032553 94.2890625,167.785156 C93.7786433,167.537759 93.3489601,167.191408 93,166.746094 C92.6510399,166.300779 92.3854176,165.772138 92.203125,165.160156 C92.0208324,164.548174 91.9296875,163.877608 91.9296875,163.148438 L91.9296875,161.492188 C91.9296875,160.763017 92.0208324,160.091149 92.203125,159.476562 C92.3854176,158.861976 92.6510399,158.332033 93,157.886719 C93.3489601,157.441404 93.7773412,157.093751 94.2851562,156.84375 C94.7929713,156.593749 95.3749967,156.46875 96.03125,156.46875 C96.6927116,156.46875 97.2851536,156.593749 97.8085938,156.84375 C98.3320339,157.093751 98.7760398,157.441404 99.140625,157.886719 C99.5052102,158.332033 99.7838532,158.861976 99.9765625,159.476562 C100.169272,160.091149 100.265625,160.763017 100.265625,161.492188 L100.265625,163.148438 Z M98.0390625,161.476562 C98.0390625,161.013019 98.0013025,160.585939 97.9257812,160.195312 C97.85026,159.804686 97.7317716,159.468751 97.5703125,159.1875 C97.4088534,158.906249 97.2018242,158.686199 96.9492188,158.527344 C96.6966133,158.368489 96.3906268,158.289062 96.03125,158.289062 C95.6770816,158.289062 95.3802095,158.368489 95.140625,158.527344 C94.9010405,158.686199 94.7083341,158.906249 94.5625,159.1875 C94.4166659,159.468751 94.3125003,159.804686 94.25,160.195312 C94.1874997,160.585939 94.15625,161.013019 94.15625,161.476562 L94.15625,163.148438 C94.15625,163.606773 94.1874997,164.031248 94.25,164.421875 C94.3125003,164.812502 94.4166659,165.15104 94.5625,165.4375 C94.7083341,165.72396 94.9010405,165.947916 95.140625,166.109375 C95.3802095,166.270834 95.6796857,166.351562 96.0390625,166.351562 C96.3932309,166.351562 96.6966133,166.270834 96.9492188,166.109375 C97.2018242,165.947916 97.4075513,165.725262 97.5664062,165.441406 C97.7252612,165.157551 97.8437496,164.820314 97.921875,164.429688 C98.0000004,164.039061 98.0390625,163.611981 98.0390625,163.148438 L98.0390625,161.476562 Z M111.789062,158.414062 L108.28125,158.414062 L108.28125,168 L106.078125,168 L106.078125,158.414062 L102.617188,158.414062 L102.617188,156.625 L111.789062,156.625 L111.789062,158.414062 Z M121.789062,169.695312 L114.664062,169.695312 L114.664062,168 L121.789062,168 L121.789062,169.695312 Z M133.53125,164.4375 C133.494791,165.01042 133.371095,165.526039 133.160156,165.984375 C132.949218,166.442711 132.666668,166.833332 132.3125,167.15625 C131.958332,167.479168 131.536461,167.727864 131.046875,167.902344 C130.557289,168.076824 130.015628,168.164062 129.421875,168.164062 C128.749997,168.164062 128.153648,168.040366 127.632812,167.792969 C127.111977,167.545572 126.674481,167.199221 126.320312,166.753906 C125.966144,166.308592 125.695313,165.773441 125.507812,165.148438 C125.320312,164.523434 125.226562,163.835941 125.226562,163.085938 L125.226562,161.554688 C125.226562,160.799475 125.32552,160.109378 125.523438,159.484375 C125.721355,158.859372 126.002602,158.322919 126.367188,157.875 C126.731773,157.427081 127.173174,157.079428 127.691406,156.832031 C128.209638,156.584634 128.791663,156.460938 129.4375,156.460938 C130.062503,156.460938 130.618487,156.549478 131.105469,156.726562 C131.59245,156.903647 132.007811,157.156248 132.351562,157.484375 C132.695314,157.812502 132.966145,158.213539 133.164062,158.6875 C133.36198,159.161461 133.486979,159.69531 133.539062,160.289062 L131.351562,160.289062 C131.330729,159.950519 131.279948,159.653647 131.199219,159.398438 C131.118489,159.143228 131.001303,158.93099 130.847656,158.761719 C130.69401,158.592447 130.501303,158.464844 130.269531,158.378906 C130.037759,158.292968 129.760418,158.25 129.4375,158.25 C129.098957,158.25 128.804689,158.322916 128.554688,158.46875 C128.304686,158.614584 128.097657,158.828124 127.933594,159.109375 C127.76953,159.390626 127.648438,159.735675 127.570312,160.144531 C127.492187,160.553387 127.453125,161.018227 127.453125,161.539062 L127.453125,163.085938 C127.453125,164.205735 127.610676,165.033851 127.925781,165.570312 C128.240887,166.106774 128.73958,166.375 129.421875,166.375 C129.994795,166.375 130.447915,166.222658 130.78125,165.917969 C131.114585,165.61328 131.299479,165.119795 131.335938,164.4375 L133.53125,164.4375 Z M142.328125,165.625 L138.914062,165.625 L138.242188,168 L135.929688,168 L139.65625,156.625 L141.648438,156.625 L145.304688,168 L142.992188,168 L142.328125,165.625 Z M139.453125,163.757812 L141.8125,163.757812 L140.648438,159.570312 L139.453125,163.757812 Z M150.1875,166.226562 L155.515625,166.226562 L155.515625,168 L147.984375,168 L147.984375,156.625 L150.1875,156.625 L150.1875,166.226562 Z M161.289062,166.226562 L166.617188,166.226562 L166.617188,168 L159.085938,168 L159.085938,156.625 L161.289062,156.625 L161.289062,166.226562 Z M175.945312,165.03125 C175.945312,164.828124 175.910157,164.638022 175.839844,164.460938 C175.769531,164.283853 175.64974,164.11849 175.480469,163.964844 C175.311197,163.811197 175.089845,163.670574 174.816406,163.542969 C174.542967,163.415364 174.203127,163.296876 173.796875,163.1875 C173.302081,163.052083 172.829429,162.882814 172.378906,162.679688 C171.928383,162.476561 171.531252,162.231772 171.1875,161.945312 C170.843748,161.658853 170.569011,161.325523 170.363281,160.945312 C170.157551,160.565102 170.054688,160.127607 170.054688,159.632812 C170.054688,159.153643 170.156249,158.718752 170.359375,158.328125 C170.562501,157.937498 170.843748,157.604168 171.203125,157.328125 C171.562502,157.052082 171.986977,156.839844 172.476562,156.691406 C172.966148,156.542968 173.497393,156.46875 174.070312,156.46875 C174.664065,156.46875 175.207029,156.554687 175.699219,156.726562 C176.191409,156.898438 176.614582,157.139321 176.96875,157.449219 C177.322918,157.759116 177.598957,158.127602 177.796875,158.554688 C177.994793,158.981773 178.09375,159.450518 178.09375,159.960938 L175.953125,159.960938 C175.942708,159.705728 175.897136,159.471355 175.816406,159.257812 C175.735677,159.04427 175.615886,158.860678 175.457031,158.707031 C175.298176,158.553385 175.100262,158.433594 174.863281,158.347656 C174.626301,158.261718 174.34896,158.21875 174.03125,158.21875 C173.739582,158.21875 173.48047,158.253906 173.253906,158.324219 C173.027343,158.394532 172.835938,158.493489 172.679688,158.621094 C172.523437,158.748699 172.404948,158.899739 172.324219,159.074219 C172.243489,159.248699 172.203125,159.437499 172.203125,159.640625 C172.203125,159.854168 172.25651,160.046874 172.363281,160.21875 C172.470053,160.390626 172.624999,160.545572 172.828125,160.683594 C173.031251,160.821615 173.277342,160.947916 173.566406,161.0625 C173.85547,161.177084 174.18229,161.283854 174.546875,161.382812 C175.067711,161.533855 175.546873,161.718749 175.984375,161.9375 C176.421877,162.156251 176.798176,162.415363 177.113281,162.714844 C177.428387,163.014324 177.673176,163.355467 177.847656,163.738281 C178.022136,164.121096 178.109375,164.546873 178.109375,165.015625 C178.109375,165.515627 178.009116,165.959633 177.808594,166.347656 C177.608072,166.735679 177.330731,167.063801 176.976562,167.332031 C176.622394,167.600262 176.200523,167.803385 175.710938,167.941406 C175.221352,168.079428 174.687503,168.148438 174.109375,168.148438 C173.749998,168.148438 173.391929,168.115886 173.035156,168.050781 C172.678384,167.985677 172.337241,167.885417 172.011719,167.75 C171.686196,167.614583 171.382814,167.445314 171.101562,167.242188 C170.820311,167.039061 170.576824,166.802085 170.371094,166.53125 C170.165364,166.260415 170.003907,165.953127 169.886719,165.609375 C169.769531,165.265623 169.710938,164.885419 169.710938,164.46875 L171.867188,164.46875 C171.877604,164.812502 171.937499,165.10677 172.046875,165.351562 C172.156251,165.596355 172.308593,165.796874 172.503906,165.953125 C172.69922,166.109376 172.933592,166.223958 173.207031,166.296875 C173.48047,166.369792 173.781248,166.40625 174.109375,166.40625 C174.401043,166.40625 174.660155,166.372396 174.886719,166.304688 C175.113282,166.236979 175.304687,166.14323 175.460938,166.023438 C175.617188,165.903645 175.736979,165.759115 175.820312,165.589844 C175.903646,165.420572 175.945312,165.234376 175.945312,165.03125 Z" id="robot_calls-copy"></path>
            </g>
        </g>
    </g>
</svg>