<?xml version="1.0" encoding="utf-8"?>
<!-- Generator: Adobe Illustrator 20.1.0, SVG Export Plug-In . SVG Version: 6.00 Build 0)  -->
<svg version="1.1" id="Слой_1" xmlns="http://www.w3.org/2000/svg" xmlns:xlink="http://www.w3.org/1999/xlink" x="0px" y="0px"
	 viewBox="0 0 242 58" style="enable-background:new 0 0 242 58;" xml:space="preserve">
<style type="text/css">
	.st0{fill:#00A10B;}
</style>
<g>
	<g>
		<g>
			<g>
				<g>
					<path id="SVGID_1_" class="st0" d="M59.5,28.2c0,10.9-8.9,19.8-19.8,19.8s-19.8-8.9-19.8-19.8c0-0.4,0-0.9,0.1-1.3l12,6.9
						l25.3-14.5C58.6,21.9,59.5,25,59.5,28.2z M32,28.8l-11.2-6.4c-0.3,0.7-0.4,1.4-0.5,2.2L32,31.3l24.2-13.9
						c-0.4-0.6-0.8-1.2-1.3-1.8L32,28.8z M53.4,14c-0.6-0.5-1.1-1-1.8-1.5L32,23.8l-9.5-5.5c-0.3,0.6-0.7,1.3-1,1.9l10.4,6L53.4,14z
						 M32,21.3l17.7-10.2c-0.8-0.4-1.5-0.8-2.3-1.2L32,18.9l-6.9-3.9c-0.5,0.5-0.9,1.1-1.3,1.7L32,21.3z"/>
				</g>
			</g>
			<path class="st0" d="M75.2,26.4c-2.3-0.8-4.9-2.1-4.9-5.8c0-3.4,2.3-6,7.9-6c3.2,0,4.9,0.8,5.5,1c-0.1,1.3-0.1,2.6,0,4h-1.2
				l-0.3-1c-0.5-1.5-1.4-2.6-3.8-2.6c-3.1,0-4,1.4-4,3.2c0,1.8,0.9,2.5,2.9,3.4l2.9,1.1c3,1.2,4.6,2.9,4.6,6c0,3-2,6.4-8.2,6.4
				c-3.2,0-5.4-0.7-6-0.9c0.1-1.3,0.1-3,0-4.4h1.3l0.3,1.4c0.4,1.5,1.4,2.6,4.2,2.6c2.6,0,4.2-1.3,4.2-3.6c0-1.8-0.8-2.9-2.6-3.6
				L75.2,26.4z M94.8,15.1c4.1,0,7.6,0.5,7.6,4.7c0,2.9-1.9,4.1-4.2,4.5c2.7,0.2,4.9,2,4.9,5.1c0,5-3.4,6.2-8.6,6.2h-7.8V35
				c1-0.3,1.2-0.5,1.2-1.7V17.4c0-1.1-0.2-1.4-1.2-1.7V15L94.8,15.1L94.8,15.1z M92.4,23.8h1.9c2.3,0,3.6-0.8,3.6-3.6
				s-1.2-3.8-3.4-3.8h-0.8c-1.1,0-1.3,0.3-1.3,1.2C92.4,17.5,92.4,23.8,92.4,23.8z M92.4,25.1v7.5c0,1.3,0.3,1.7,1.8,1.7H95
				c2.3,0,3.7-1.5,3.7-4.7c0-3.1-1.2-4.6-4.4-4.6L92.4,25.1L92.4,25.1z M112.4,16.5c-0.8,0-1,0.3-1,0.9v6.4h2.8
				c1.2,0,2.9-0.1,3.6-0.6v2.6c-0.7-0.5-2.5-0.6-3.6-0.6h-2.8v7.6c0,1.3,0.5,1.7,3.2,1.7h0.6c2.7,0,3.4-0.2,3.9-2.8l0.2-0.8h1.3
				c-0.1,1.6-0.1,3.2,0,4.8h-14.8v-0.7c1-0.3,1.2-0.5,1.2-1.7V17.5c0-1.1-0.2-1.4-1.2-1.7v-0.7h14.3c-0.1,1.5-0.1,2.9,0,4.4H119
				l-0.3-0.8c-0.7-2.1-1.3-2.3-4-2.3L112.4,16.5L112.4,16.5z M140.6,35.7H135c-0.3-1.1-1.9-5.2-2.5-6.7l-1.1-2.8h-2.4v7.1
				c0,1.1,0.2,1.4,1.2,1.7v0.7h-6.7V35c1-0.3,1.2-0.5,1.2-1.7V17.4c0-1.1-0.2-1.4-1.2-1.7V15h8.2c4.4,0,7.5,1.1,7.5,5.4
				c0,3-1.8,4.4-3.6,5.1C135.8,26.4,139,33.2,140.6,35.7z M130.9,24.9c2.9,0,3.7-1.4,3.7-4.3c0-2.9-1.3-4.2-3.3-4.2h-1
				c-0.8,0-1.3,0.2-1.3,1.1v7.4H130.9z M150.5,15.1c4.1,0,7.6,0.5,7.6,4.7c0,2.9-1.9,4.1-4.2,4.5c2.7,0.2,4.9,2,4.9,5.1
				c0,5-3.4,6.2-8.6,6.2h-7.8V35c1-0.3,1.2-0.5,1.2-1.7V17.4c0-1.1-0.2-1.4-1.2-1.7V15L150.5,15.1L150.5,15.1z M148.1,23.8h1.9
				c2.3,0,3.6-0.8,3.6-3.6s-1.2-3.8-3.4-3.8h-0.8c-1.1,0-1.3,0.3-1.3,1.2V23.8z M148.1,25.1v7.5c0,1.3,0.3,1.7,1.8,1.7h0.8
				c2.3,0,3.7-1.5,3.7-4.7c0-3.1-1.2-4.6-4.4-4.6L148.1,25.1L148.1,25.1z M173.9,35.7c-0.2-1.1-0.8-3.2-1.3-4.8l-0.8-2.6h-6.5
				c-0.7,2-1.2,3.7-1.4,4.9c-0.3,1.2-0.4,2-0.4,2.5h-3.8c0.5-0.8,1.4-2.6,2.9-6l3.8-9.3c0.8-2.1,1-2.8,1-3.4c0-0.4-0.1-1-1.2-1.2
				v-0.7h5.9c0.1,0.6,0.2,1.3,0.8,3l4.3,12.3c0.8,2.4,1.8,4.4,2.2,5.2H173.9z M171.2,26.9l-2.8-8.3l-2.9,8.3H171.2z M184,18.8v14.5
				c0,1.1,0.3,1.4,1.4,1.7v0.7h-4.9V35c1.2-0.3,1.4-0.5,1.4-1.7V17.4c0-1.1-0.3-1.5-1.4-1.7V15h6.2c0.4,0.8,1.3,2,3.1,4.7l6.2,8.6
				V17.4c0-1.1-0.3-1.4-1.4-1.7V15h4.9v0.7c-1.2,0.3-1.4,0.5-1.4,1.7v18.4h-1.9L184,18.8z M203.5,17.5c0-1.1-0.2-1.4-1.2-1.7v-0.7
				h6.7v0.7c-1,0.3-1.2,0.5-1.2,1.7v15.9c0,1.1,0.2,1.4,1.2,1.7v0.7h-6.7v-0.7c1-0.3,1.2-0.5,1.2-1.7V17.5z M214.4,26.7
				c1.4,2,4.8,6.5,7.2,9h-6.9c-0.5-1.1-1.3-2.9-3.4-6.1l-3.1-4.7l2.7-3.5c1.6-2.1,3.7-4.9,4.3-6.3h4.8l0,0c-1.9,1.1-5.2,4.4-6.1,5.5
				l-2.2,2.3L214.4,26.7z"/>
		</g>
		<rect x="70.6" y="40.8" class="st0" width="151" height="2"/>
	</g>
</g>
</svg>
