<svg xmlns="http://www.w3.org/2000/svg" viewBox="0 0 143.07 40.49"><defs><style>.cls-1{fill:#fff;}</style></defs><title>Ресурс 2</title><g id="Слой_2" data-name="Слой 2"><g id="Слой_1-2" data-name="Слой 1"><path class="cls-1" d="M28.19,12.05H4.49A9.9,9.9,0,0,1,22.42,8.68L26,6.31A14.17,14.17,0,0,0,.16,12.05a14.19,14.19,0,0,0,0,4.25h23.7A9.9,9.9,0,0,1,5.94,19.68L2.4,22.05A14.17,14.17,0,0,0,28.19,16.3a14.79,14.79,0,0,0,.16-2.12v0A14.65,14.65,0,0,0,28.19,12.05Z"/><path class="cls-1" d="M2.81,40.43H2.34V37.28H.47v3.15H0V36.85H2.81Z"/><path class="cls-1" d="M9.51,36.79a1.62,1.62,0,0,1,1.24.51,2.15,2.15,0,0,1,0,2.68,1.62,1.62,0,0,1-1.24.51A1.61,1.61,0,0,1,8.28,40a2.11,2.11,0,0,1,0-2.68A1.61,1.61,0,0,1,9.51,36.79Zm0,3.3a1.14,1.14,0,0,0,.88-.38,1.55,1.55,0,0,0,.34-1.07,1.52,1.52,0,0,0-.34-1.06,1.11,1.11,0,0,0-.87-.39,1.15,1.15,0,0,0-.89.39,1.52,1.52,0,0,0-.34,1.06,1.5,1.5,0,0,0,.34,1.06A1.12,1.12,0,0,0,9.51,40.09Z"/><path class="cls-1" d="M19,40.43h-.45V37.55l-1.88,2.88h-.48V36.85h.45v2.87l1.87-2.87H19Z"/><path class="cls-1" d="M25.68,40.49a1.52,1.52,0,0,1-1.21-.5,2.21,2.21,0,0,1,0-2.7,1.72,1.72,0,0,1,2.2-.19,1.12,1.12,0,0,1,.46.84h-.48a.71.71,0,0,0-.3-.54,1,1,0,0,0-.67-.21,1.07,1.07,0,0,0-.86.38,1.95,1.95,0,0,0,0,2.14,1.17,1.17,0,0,0,1.53.17.81.81,0,0,0,.3-.58h.48a1.2,1.2,0,0,1-.44.88A1.6,1.6,0,0,1,25.68,40.49Z"/><path class="cls-1" d="M35.05,40.43h-.63l-1.27-1.78-.56.54v1.24h-.47V36.85h.47v1.78l1.75-1.78H35l-1.5,1.47Z"/><path class="cls-1" d="M41.19,36.79a1.61,1.61,0,0,1,1.23.51,2.11,2.11,0,0,1,0,2.68,1.61,1.61,0,0,1-1.23.51A1.64,1.64,0,0,1,40,40a2.11,2.11,0,0,1,0-2.68A1.64,1.64,0,0,1,41.19,36.79Zm0,3.3a1.13,1.13,0,0,0,.88-.38,1.55,1.55,0,0,0,.35-1.07,1.57,1.57,0,0,0-.34-1.06,1.19,1.19,0,0,0-1.76,0A1.52,1.52,0,0,0,40,38.64a1.5,1.5,0,0,0,.35,1.06A1.11,1.11,0,0,0,41.18,40.09Z"/><path class="cls-1" d="M50.55,39.39a.91.91,0,0,1-.34.77,1.56,1.56,0,0,1-1,.27H47.88V36.85h1.27a1.5,1.5,0,0,1,.9.24.84.84,0,0,1-.19,1.44.91.91,0,0,1,.52.32A.87.87,0,0,1,50.55,39.39Zm-2.2-1h.8a1,1,0,0,0,.58-.13.46.46,0,0,0,.18-.41.46.46,0,0,0-.18-.4,1.1,1.1,0,0,0-.63-.13h-.75Zm0,1.66h.86c.57,0,.85-.21.85-.62a.56.56,0,0,0-.19-.47,1.26,1.26,0,0,0-.72-.14h-.8Z"/><path class="cls-1" d="M56,38.35h.79c.94,0,1.41.35,1.41,1a.94.94,0,0,1-.34.77,1.59,1.59,0,0,1-1,.27H55.55V36.85H56ZM56,40h.86c.56,0,.85-.21.85-.62a.56.56,0,0,0-.2-.47,1.24,1.24,0,0,0-.71-.14H56Zm3.14.42h-.48V36.85h.48Z"/><path class="cls-1" d="M67.14,40.43h-.46V37.55l-1.87,2.88h-.48V36.85h.44v2.87l1.88-2.87h.49ZM66.45,36a.68.68,0,0,1-.22.47.86.86,0,0,1-1,0A.68.68,0,0,1,65,36h.3a.43.43,0,0,0,.84,0Z"/><path class="cls-1" d="M81.17,40.43h-.45v-3l-1,3h-.42l-1-3v3h-.45V36.85h.71l1,3,1-3h.71Z"/><path class="cls-1" d="M89.35,40.43h-.53l-.42-1.09H86.9l-.39,1.09H86l1.37-3.58h.51ZM88.26,39l-.63-1.66L87,39Z"/><path class="cls-1" d="M94.19,36.85h1.33a3,3,0,0,1,.74.08.8.8,0,0,1,.47.36,1.14,1.14,0,0,1,.17.61,1,1,0,0,1-.34.82,1.53,1.53,0,0,1-1,.28h-.9v1.43h-.47Zm.47,1.72h.91a1,1,0,0,0,.65-.17.61.61,0,0,0,.19-.49.63.63,0,0,0-.11-.38.46.46,0,0,0-.27-.21,2,2,0,0,0-.47,0h-.9Z"/><path class="cls-1" d="M104.79,40.43h-.63l-1.27-1.78-.56.54v1.24h-.47V36.85h.47v1.78l1.75-1.78h.64l-1.5,1.47Z"/><path class="cls-1" d="M112.3,40.43h-2.67V36.85h2.59v.43H110.1v1.09h2v.43h-2V40h2.2Z"/><path class="cls-1" d="M119.92,37.28h-1.18v3.15h-.48V37.28h-1.17v-.43h2.83Z"/><path class="cls-1" d="M127.63,40.43h-.45V37.55l-1.87,2.88h-.49V36.85h.45v2.87l1.88-2.87h.48Z"/><path class="cls-1" d="M135.6,40.43h-.48V38.75h-1.86v1.68h-.47V36.85h.47v1.47h1.86V36.85h.48Z"/><path class="cls-1" d="M143.07,37.28h-1.84v3.15h-.47V36.85h2.31Z"/><path class="cls-1" d="M84.26,7.31V9.45a5.36,5.36,0,0,1,4.56-2.36c2.83,0,5.5,2.06,5.5,6v8H92.25V13.1A3.8,3.8,0,0,0,88.41,9a4.06,4.06,0,0,0-4.15,4.17V21H82.2V7.31Z"/><path class="cls-1" d="M107.54,17.08h2.25a6.28,6.28,0,0,1-6.26,4.18,6.79,6.79,0,0,1-7-7.09c0-3.93,2.61-7.08,6.81-7.08s6.81,3.15,6.81,7.08V15H98.69a4.77,4.77,0,0,0,4.86,4.39A4.29,4.29,0,0,0,107.54,17.08Zm-8.82-4h9.34a4.71,4.71,0,0,0-9.34,0Z"/><path class="cls-1" d="M120.71,10.08l-3.43,11h-2.36L110.6,7.31h2.2l3.3,11.18,3.49-11.18h2.25l3.49,11.18,3.29-11.18h2.2L126.51,21h-2.36Z"/><path class="cls-1" d="M142.63,11h-2.08c-.17-1.18-1.05-2.15-3.36-2.15-2.13,0-3.26.64-3.26,2,0,3.3,9.14,1.16,9.14,6.32,0,2.66-2.19,4.12-5.6,4.12-3.82,0-5.82-2.12-6-4.53h2.14c.14,1.4,1.18,2.77,3.85,2.77,1.12,0,3.51-.3,3.51-2.17,0-3.43-9.14-1.29-9.14-6.32,0-2.47,1.84-3.92,5.38-3.92S142.39,9,142.63,11Z"/><polygon class="cls-1" points="28.35 14.17 28.35 14.16 28.35 14.18 28.35 14.17"/><path class="cls-1" d="M53.86,14.17a14.79,14.79,0,0,0-.16-2.12,14.18,14.18,0,0,0-28,0,14.19,14.19,0,0,0,0,4.25,14.17,14.17,0,0,0,25.79,5.75c-1.11-.87-2.37-1.58-3.54-2.36A9.91,9.91,0,0,1,30,16.3H53.7A14.82,14.82,0,0,0,53.86,14.17ZM30,12.05a9.91,9.91,0,0,1,19.37,0Z"/><path class="cls-1" d="M65.2,0A14.18,14.18,0,1,0,79.37,14.17,14.18,14.18,0,0,0,65.2,0Zm0,24.1a9.93,9.93,0,1,1,9.92-9.93A9.95,9.95,0,0,1,65.2,24.1Z"/></g></g></svg>