<svg xmlns="http://www.w3.org/2000/svg" viewBox="0 0 441.97 125.02"><defs><style>.cls-1{fill:#fff;}</style></defs><title>skyeng</title><g id="Layer_2" data-name="Layer 2"><g id="Layer_1-2" data-name="Layer 1"><path class="cls-1" d="M5.34,79.42S13,89.82,26.57,89.82c7.67,0,14.51-3.69,14.51-11,0-15.06-38.61-12.32-38.61-34.5C2.47,31.91,13.15,25.74,27,25.74c7,0,20.95,2.74,20.95,12.46v5.88H39.16V40.81c0-5.07-7.4-7-11.92-7-9.58,0-15.33,3.29-15.33,10,0,15.48,38.61,11.92,38.61,34.78,0,11.5-10.41,19.31-24.1,19.31C8.49,97.91,0,85.85,0,85.85Z"/><path class="cls-1" d="M67.77,11.1a2.74,2.74,0,0,0-3-3H59V0h9.72c5.89,0,8.36,2.06,8.36,7.94V53.68h7.12c2.6,0,5.88-.82,7.8-3.29l17.67-23H121L101.18,52.59c-3.42,4.25-5.2,4.93-5.2,4.93v.28s2.05,1,4.24,5.06l12.47,22.32c1.23,2.32,2.6,3,6.3,3h3.7v8.08h-6.43c-6.85,0-8.77-1.1-11.92-6.85L90.64,64.78c-1.5-2.74-4.79-3-7.25-3h-6.3V96.27H67.77V11.1Z"/><path class="cls-1" d="M138.7,116.66c6,0,10.13-4.93,12.74-11.23L155.54,96,131.3,38.61c-1.09-2.46-2.32-3.15-4.79-3.15h-1.37V27.39h4.24c6.16,0,8.08,1.37,10.55,7.53l17.66,43c1.37,3.42,2.46,7.39,2.46,7.39h.28a63.3,63.3,0,0,1,2.32-7.39l17-43c2.33-6.16,4.38-7.53,10.68-7.53h4.24v8.08h-1.37c-2.46,0-3.83.69-4.79,3.15l-29.71,72C155.12,119.4,148.14,125,139,125A20.07,20.07,0,0,1,124,118.3l4.38-6.84C128.42,111.6,132.81,116.66,138.7,116.66Z"/><path class="cls-1" d="M236.59,24.79c20,0,30.95,14.65,30.95,33.14,0,2.06-.42,6.43-.42,6.43h-48.2c1.37,12.32,10.41,18.76,20.95,18.76,11.23,0,19.58-7.8,19.58-7.8l7.26,12.05a42.48,42.48,0,0,1-28.07,10.54c-23.14,0-37.52-16.7-37.52-36.56C201.13,39.85,215.64,24.79,236.59,24.79Zm13.14,27.52c-.28-8.35-6-14.1-13.14-14.1-8.9,0-15.2,5.34-17.12,14.1Z"/><path class="cls-1" d="M284.37,44.23a2.68,2.68,0,0,0-3-3h-5.48V26.43h16c6.16,0,9.17,2.87,9.17,7.81v2.06a19.31,19.31,0,0,1-.27,3h.27c3-5.89,10.54-14.51,24.65-14.51,15.48,0,24.37,8.08,24.37,26.56V78.6a2.75,2.75,0,0,0,3,3h5.48V96.26H342c-6.57,0-9.31-2.74-9.31-9.31v-32c0-8.49-2.19-14.24-11-14.24-9.31,0-16.3,5.89-18.76,14.24a29.51,29.51,0,0,0-1.36,9.31v32H284.37v-52Z"/><path class="cls-1" d="M396.37,24.79c16.16,0,21.49,9.86,21.49,9.86h.28V32.86c0-3.15,2.19-6.43,7.67-6.43H442V41.21h-5.34c-1.78,0-3,1-3,2.74V92c0,24-18.62,33-36.84,33A55.63,55.63,0,0,1,372,119l5.34-13.69A45.05,45.05,0,0,0,396.64,110c10.55,0,19.72-4.52,19.72-17.11V89.55c0-1.64.14-3.7.14-3.7h-.27c-4.11,5.89-10.14,9-19.44,9-20,0-31.36-16.16-31.36-35.33S376.24,24.79,396.37,24.79Zm20.4,34.92c0-15.89-7.94-20.13-17.39-20.13-10.54,0-16.3,7.67-16.3,19.44,0,12.19,6.16,21.23,17.39,21.23C408.83,80.24,416.77,75.45,416.77,59.71Z"/></g></g></svg>