<?xml version="1.0" encoding="utf-8"?>
<!-- Generator: Adobe Illustrator 22.1.0, SVG Export Plug-In . SVG Version: 6.00 Build 0)  -->
<svg version="1.1" id="Слой_1" xmlns="http://www.w3.org/2000/svg" xmlns:xlink="http://www.w3.org/1999/xlink" x="0px" y="0px"
	 viewBox="0 0 159 35" style="enable-background:new 0 0 159 35;" xml:space="preserve">
<style type="text/css">
	.st0{fill:#DADADA;}
	.st1{fill:#9013FE;}
	.st2{fill:#8111E4;}
	.st3{fill:#FFFFFF;}
	.st4{fill:#640DB1;}
	.st5{fill:none;}
</style>
<g>
	<path class="st0" d="M31.5,21.9l-13.2-11l-0.9-0.8c-0.8-0.7-2-0.7-2.8-0.1l-14,10.4C0.2,20.7,0,21.1,0,21.5s0.2,0.9,0.6,1.1l1,0.8
		l13.2,11c0.8,0.7,2,0.7,2.8,0.1l13.9-10.5c0.4-0.3,0.6-0.7,0.6-1.1S31.9,22.1,31.5,21.9"/>
	<path class="st1" d="M31.5,12.3l-13.2-11l-0.9-0.8c-0.8-0.7-2-0.7-2.8-0.1l-14,10.5C0.2,11.1,0,11.6,0,12c0,0.4,0.2,0.9,0.6,1.1
		l1,0.8l13.2,11c0.8,0.7,2,0.7,2.8,0.1l13.9-10.5c0.4-0.3,0.6-0.7,0.6-1.1S31.9,12.6,31.5,12.3"/>
	<path class="st2" d="M24.8,12l-7.4-6.2l-0.5-0.4C16.3,5,15.7,5,15.2,5.3l-7.8,5.9C7.2,11.4,7,11.6,7,11.9c0,0.3,0.1,0.5,0.3,0.6
		l0.5,0.4l7.4,6.2c0.5,0.4,1.1,0.4,1.6,0.1l7.8-5.9c0.2-0.1,0.3-0.4,0.3-0.6S25,12.2,24.8,12"/>
	<path class="st3" d="M54.9,19.8c0,1.1-0.4,2.1-1.3,2.8c-1,0.7-2.2,1.1-3.5,1c-1.3,0-2.5-0.2-3.6-0.8v-2.5c0.7,0.3,1.4,0.6,2.2,0.8
		c0.5,0.2,1.1,0.2,1.6,0.2c0.5,0,1-0.1,1.4-0.4c0.3-0.2,0.5-0.6,0.5-1c0-0.2-0.1-0.5-0.2-0.7c-0.2-0.2-0.4-0.4-0.6-0.6
		c-0.5-0.3-1.1-0.6-1.7-0.9c-0.6-0.3-1.2-0.6-1.8-1.1c-0.4-0.3-0.7-0.7-0.9-1.2c-0.2-0.5-0.4-1.1-0.3-1.6c-0.1-1,0.4-2,1.2-2.7
		c0.9-0.7,2-1.1,3.2-1c0.6,0,1.3,0.1,1.9,0.2c0.7,0.2,1.3,0.4,1.9,0.7L54,13.3c-0.6-0.2-1.1-0.4-1.7-0.6c-0.4-0.1-0.9-0.2-1.3-0.2
		c-0.4,0-0.9,0.1-1.2,0.4c-0.3,0.2-0.4,0.6-0.4,1c0,0.2,0.1,0.4,0.2,0.6c0.1,0.2,0.3,0.4,0.5,0.5c0.6,0.3,1.1,0.6,1.7,0.9
		c0.9,0.4,1.8,1,2.5,1.8C54.7,18.4,55,19.1,54.9,19.8 M65.8,23.5h-2.7v-5.8c0-0.6-0.1-1.1-0.4-1.6c-0.3-0.4-0.7-0.6-1.1-0.5
		c-0.6,0-1.2,0.3-1.5,0.8c-0.4,0.8-0.5,1.7-0.5,2.5v4.7H57v-10h2.1l0.4,1.3h0.1c0.3-0.5,0.7-0.8,1.1-1.1c0.5-0.3,1.1-0.4,1.7-0.4
		c1.2-0.1,2.3,0.4,3,1.5h0.2c0.3-0.5,0.7-0.8,1.2-1.1c0.5-0.3,1.1-0.4,1.7-0.4c0.9-0.1,1.8,0.2,2.5,0.9c0.7,0.8,1,1.8,0.9,2.9v6.5
		h-2.7v-5.9c0-0.6-0.1-1.1-0.4-1.6c-0.3-0.4-0.7-0.6-1.1-0.5c-0.6,0-1.1,0.2-1.5,0.7c-0.4,0.7-0.5,1.5-0.5,2.3L65.8,23.5z M81,23.5
		l-0.5-1.4h-0.1C80,22.6,79.5,23,79,23.3c-0.6,0.2-1.2,0.4-1.9,0.3c-0.8,0.1-1.6-0.2-2.2-0.8c-0.6-0.6-0.9-1.5-0.8-2.3
		c-0.1-0.9,0.3-1.8,1.1-2.3c1-0.6,2.1-0.9,3.3-0.8l1.7,0v-0.4c0.1-0.4-0.1-0.8-0.4-1.1c-0.3-0.3-0.7-0.4-1.1-0.4
		c-1,0-1.9,0.3-2.8,0.7L75,14.2c1.2-0.6,2.5-0.9,3.8-0.9c1.1-0.1,2.2,0.2,3,0.9c0.7,0.7,1.1,1.7,1.1,2.7v6.6L81,23.5z M80.2,18.9h-1
		c-0.6,0-1.2,0.1-1.7,0.4c-0.4,0.3-0.6,0.7-0.6,1.2c0,0.8,0.4,1.1,1.3,1.1c0.5,0,1.1-0.2,1.5-0.5c0.4-0.4,0.6-0.9,0.6-1.5L80.2,18.9
		z M90.6,13.3c0.3,0,0.6,0,0.9,0.1l-0.2,2.6c-0.3-0.1-0.5-0.1-0.8-0.1c-0.7,0-1.4,0.2-2,0.7c-0.5,0.5-0.8,1.2-0.7,1.9v5.1h-2.7v-10
		h2l0.4,1.7h0.1c0.3-0.5,0.7-1,1.2-1.3C89.4,13.5,90,13.3,90.6,13.3 M97.9,21.5c0.6,0,1.1-0.1,1.7-0.3v2c-0.8,0.3-1.6,0.5-2.5,0.5
		c-0.9,0.1-1.7-0.2-2.3-0.8c-0.5-0.7-0.8-1.6-0.7-2.5v-4.8h-1.3v-1.2l1.5-0.9l0.8-2.1h1.7v2.1h2.7v2h-2.7v4.8c0,0.3,0.1,0.6,0.3,0.9
		C97.3,21.3,97.6,21.4,97.9,21.5 M105.6,23.6c-3.1,0-4.6-1.7-4.6-5.1c-0.1-1.4,0.3-2.8,1.2-3.9c0.9-0.9,2.3-1.4,3.6-1.3
		c1.1,0,2.1,0.2,3.1,0.7l-0.8,2.1c-0.4-0.2-0.8-0.3-1.2-0.4c-0.4-0.1-0.7-0.2-1.1-0.2c-1.4,0-2.1,1-2.1,3s0.7,3,2.1,2.9
		c0.5,0,1-0.1,1.4-0.2c0.5-0.2,0.9-0.4,1.3-0.7v2.3c-0.4,0.3-0.9,0.5-1.3,0.6C106.7,23.6,106.1,23.7,105.6,23.6 M117.1,23.5
		l-0.5-1.4h-0.1c-0.4,0.5-0.8,0.9-1.4,1.2c-0.6,0.2-1.2,0.4-1.9,0.3c-0.8,0.1-1.6-0.2-2.2-0.8c-0.6-0.6-0.9-1.5-0.8-2.3
		c-0.1-0.9,0.3-1.8,1.1-2.3c1-0.6,2.1-0.9,3.3-0.8l1.7,0v-0.4c0.1-0.4-0.1-0.8-0.4-1.1c-0.3-0.3-0.7-0.4-1.1-0.4
		c-1,0-1.9,0.3-2.8,0.7l-0.9-1.8c1.2-0.6,2.5-0.9,3.8-0.9c1.1-0.1,2.2,0.2,3,0.9c0.7,0.7,1.1,1.7,1.1,2.7v6.6L117.1,23.5z
		 M116.3,18.9h-1c-0.6,0-1.2,0.1-1.7,0.4c-0.4,0.3-0.6,0.7-0.6,1.2c0,0.8,0.4,1.1,1.3,1.1c0.5,0,1.1-0.2,1.5-0.5
		c0.4-0.4,0.6-0.9,0.6-1.5L116.3,18.9z"/>
	<rect x="121.8" y="9.6" class="st3" width="2.7" height="13.9"/>
	<rect x="127.3" y="9.6" class="st3" width="2.7" height="13.9"/>
	<path class="st3" d="M139.6,20.5c0.1,0.9-0.3,1.8-1.1,2.3c-0.9,0.6-2,0.9-3.1,0.8c-0.6,0-1.2,0-1.8-0.1c-0.5-0.1-1-0.2-1.4-0.4
		v-2.2c0.5,0.3,1.1,0.5,1.7,0.6c0.5,0.1,1.1,0.2,1.6,0.2c1,0,1.5-0.3,1.5-0.9c0-0.2-0.1-0.4-0.2-0.5c-0.2-0.2-0.4-0.3-0.7-0.5
		c-0.3-0.2-0.7-0.4-1.3-0.6c-0.6-0.2-1.1-0.5-1.7-0.9c-0.3-0.2-0.6-0.6-0.8-0.9c-0.2-0.4-0.3-0.9-0.2-1.3c0-0.8,0.3-1.6,1-2.1
		c0.9-0.5,1.9-0.8,2.9-0.7c1.2,0,2.4,0.3,3.5,0.8l-0.8,2c-0.5-0.2-0.9-0.4-1.4-0.5c-0.4-0.1-0.9-0.2-1.3-0.2c-0.8,0-1.2,0.2-1.2,0.6
		c0,0.3,0.2,0.5,0.4,0.6c0.5,0.3,1.1,0.6,1.7,0.8c0.6,0.2,1.2,0.5,1.7,0.9c0.3,0.2,0.6,0.6,0.8,1C139.5,19.7,139.6,20.1,139.6,20.5"
		/>
	<path class="st3" d="M141.9,0h1.8c0.6,0,1.2,0.1,1.8,0.4c0.4,0.3,0.6,0.8,0.6,1.3c0,0.4-0.1,0.7-0.3,1c-0.3,0.3-0.6,0.4-1,0.5
		c0.4,0,0.8,0.2,1.1,0.5c0.3,0.3,0.4,0.7,0.4,1.1c0,0.5-0.2,1.1-0.6,1.4c-0.5,0.4-1.1,0.5-1.7,0.5h-2L141.9,0z M142.3,2.9h1.4
		c0.5,0,0.9-0.1,1.3-0.3c0.3-0.2,0.5-0.6,0.4-1c0.1-0.4-0.1-0.8-0.5-1c-0.4-0.2-0.9-0.3-1.4-0.3h-1.3V2.9z M142.3,3.3v2.8h1.5
		c1.2,0,1.8-0.5,1.8-1.5s-0.6-1.4-1.9-1.4H142.3z M149.4,6.7c-0.6,0-1.2-0.2-1.6-0.7c-0.4-0.5-0.6-1.2-0.6-1.8
		c0-0.7,0.2-1.3,0.6-1.9c0.4-0.5,0.9-0.7,1.5-0.7c0.5,0,1,0.2,1.3,0.6c0.4,0.5,0.5,1.1,0.5,1.6v0.4h-3.5c0,0.6,0.1,1.1,0.5,1.5
		c0.3,0.4,0.8,0.6,1.3,0.5c0.2,0,0.5,0,0.7-0.1c0.3-0.1,0.5-0.1,0.8-0.2v0.4c-0.2,0.1-0.5,0.2-0.8,0.2C150,6.6,149.7,6.7,149.4,6.7
		 M149.3,2c-0.4,0-0.8,0.2-1.1,0.5c-0.3,0.4-0.5,0.9-0.5,1.4h3c0-0.5-0.1-0.9-0.4-1.3C150,2.2,149.7,2,149.3,2 M153.7,6.3
		c0.2,0,0.5,0,0.7-0.1v0.4c-0.2,0.1-0.5,0.1-0.7,0.1c-0.4,0-0.7-0.1-1-0.3c-0.2-0.3-0.3-0.7-0.3-1.1V2.1h-0.7V1.8l0.7-0.2l0.2-1.1
		h0.2v1.2h1.4v0.4h-1.4v3.1c0,0.3,0,0.6,0.2,0.8C153.2,6.2,153.5,6.3,153.7,6.3 M158.5,6.6l-0.1-0.8c-0.2,0.3-0.5,0.5-0.8,0.7
		c-0.3,0.1-0.6,0.2-0.9,0.2c-0.4,0-0.8-0.1-1.1-0.4c-0.3-0.3-0.4-0.6-0.4-1c0-0.5,0.2-0.9,0.6-1.1c0.5-0.3,1.1-0.4,1.7-0.4h0.9V3.4
		c0-0.4-0.1-0.7-0.3-1.1c-0.2-0.3-0.6-0.4-0.9-0.4c-0.5,0-1,0.1-1.4,0.4L155.6,2c0.5-0.2,1-0.4,1.6-0.4c0.4,0,0.9,0.1,1.2,0.4
		c0.3,0.4,0.4,0.8,0.4,1.3v3.2H158.5z M156.7,6.3c0.5,0,0.9-0.1,1.2-0.5c0.3-0.3,0.5-0.8,0.4-1.2V4.1h-0.8c-0.5,0-1,0.1-1.4,0.3
		c-0.3,0.2-0.5,0.5-0.4,0.9c0,0.3,0.1,0.5,0.3,0.7C156.1,6.2,156.4,6.3,156.7,6.3L156.7,6.3z"/>
	<path class="st4" d="M7.4,12.5l0.3,0.2L15.2,7c0.5-0.3,1.1-0.3,1.6,0.1l0.5,0.4l7.2,6l0.3-0.2c0.2-0.1,0.3-0.4,0.3-0.6
		S25,12.2,24.8,12l-7.4-6.2l-0.5-0.4C16.3,5,15.7,5,15.2,5.3l-7.8,5.9C7.2,11.4,7,11.6,7,11.9C7,12.1,7.2,12.3,7.4,12.5"/>
	<rect y="-1" class="st5" width="158.8" height="35"/>
</g>
</svg>
