<?xml version="1.0" encoding="utf-8"?>
<!-- Generator: Adobe Illustrator 22.1.0, SVG Export Plug-In . SVG Version: 6.00 Build 0)  -->
<svg version="1.1" id="Слой_1" xmlns="http://www.w3.org/2000/svg" xmlns:xlink="http://www.w3.org/1999/xlink" x="0px" y="0px"
	 viewBox="0 0 110.2 20" style="enable-background:new 0 0 110.2 20;" xml:space="preserve">
<style type="text/css">
	.st0{fill:#FFFFFF;}
</style>
<path class="st0" d="M11.2,12.9h1.3v2.4h-1.7l-0.4,3.3h-3l0.4-3.3H5.5L5,18.7H2l0.4-3.3H1.1v-2.4h1.6l0.6-4.5H2V6h1.7l0.4-3h3L6.7,6
	H9l0.4-3h3l-0.4,3h1.3v2.4h-1.6L11.2,12.9z M6.4,8.4l-0.6,4.5h2.3l0.6-4.5H6.4z"/>
<path class="st0" d="M23.8,5.5v13.2h-3.8V5.5h-4.2V2.5h12.3l-0.4,2.9H23.8z"/>
<path class="st0" d="M33.4,5.3v3.9h5v2.7h-5v4.1h6.1v2.7h-9.9V2.5h9.9l-0.4,2.7H33.4z"/>
<path class="st0" d="M53.3,3.9l-1.9,2.2C50.6,5.4,49.7,5,48.6,5c-2,0-3.5,1.7-3.5,5.6c0,3.9,1.4,5.5,3.6,5.5c1.3,0,2.2-0.6,3.1-1.3
	l1.7,2.2c-1,1.1-2.8,2.1-5,2.1c-4.4,0-7.4-3-7.4-8.5c0-5.4,3.1-8.4,7.3-8.4C50.6,2.1,52,2.8,53.3,3.9z"/>
<path class="st0" d="M59,11.7v6.9h-3.8V2.5H59v6.2h4.8V2.5h3.8v16.1h-3.8v-6.9H59z"/>
<path class="st0" d="M74.5,12.5v6.2h-3.8V2.5H76c4.4,0,6.6,1.6,6.6,4.9c0,2.1-1,3.4-3.1,4.3l4.1,6.9h-4.3L76,12.5H74.5z M76.1,9.9
	c1.7,0,2.6-0.7,2.6-2.4c0-1.6-0.9-2.2-2.8-2.2h-1.4v4.6H76.1z"/>
<path class="st0" d="M88.9,5.3v3.9h5v2.7h-5v4.1h6.1v2.7H85V2.5h9.9l-0.4,2.7H88.9z"/>
<path class="st0" d="M108.8,3.9l-1.9,2.2C106,5.4,105.1,5,104,5c-2,0-3.5,1.7-3.5,5.6c0,3.9,1.4,5.5,3.6,5.5c1.3,0,2.2-0.6,3.1-1.3
	l1.7,2.2c-1,1.1-2.8,2.1-5,2.1c-4.4,0-7.4-3-7.4-8.5c0-5.4,3.1-8.4,7.3-8.4C106,2.1,107.4,2.8,108.8,3.9z"/>
</svg>
