<?xml version="1.0" encoding="UTF-8"?>
<svg width="22px" height="19px" viewBox="0 0 22 19" version="1.1" xmlns="http://www.w3.org/2000/svg" xmlns:xlink="http://www.w3.org/1999/xlink">
    <!-- Generator: Sketch 48.1 (47250) - http://www.bohemiancoding.com/sketch -->
    <title>telegram_icn</title>
    <desc>Created with Sketch.</desc>
    <defs></defs>
    <g id="Extra-large-+--1920" stroke="none" stroke-width="1" fill="none" fill-rule="evenodd" transform="translate(-1777.000000, -3185.000000)">
        <g id="desktop" transform="translate(-17.000000, 0.000000)" fill="#FFFFFF">
            <g id="screen-03" transform="translate(0.000000, 2009.000000)">
                <g id="footer" transform="translate(201.000000, 1176.000000)">
                    <g id="social-icns" transform="translate(1593.000000, 0.000000)">
                        <path d="M17.7126623,18.9999954 C17.537354,18.9992334 17.3658989,18.9490012 17.2184023,18.8551892 L11.6907606,15.2320385 L8.72520096,17.2932797 C8.48933033,17.4553777 8.18932098,17.4958475 7.91824595,17.402134 C7.6523914,17.3092968 7.44905299,17.0938137 7.37355133,16.8249066 L5.88068457,11.3742018 L0.564868501,9.40983097 C0.234085673,9.2875187 0.0108627758,8.97929818 0,8.62987487 C0.00361300757,8.27948289 0.223825138,7.96711631 0.554781564,7.84292812 L20.7891782,0.0673350342 C20.8787944,0.0294486581 20.97434,0.0071511517 21.0716125,0.00142325098 C21.1085731,-0.000474416994 21.1456082,-0.000474416994 21.1825688,0.00142325098 C21.390038,0.0141382235 21.5863999,0.0986178989 21.7373504,0.240103799 C21.7474373,0.25508375 21.7676112,0.270063701 21.7776981,0.287040978 C21.9026475,0.423628929 21.9803794,0.596086781 21.9996107,0.779382025 C22.0012198,0.82422033 21.9978371,0.869097728 21.9895238,0.913202919 C21.9916343,0.94681264 21.9882279,0.980538849 21.9794369,1.01306926 L18.559965,18.318907 C18.508136,18.5994693 18.3135953,18.833618 18.0455312,18.9380783 C17.9395207,18.9793469 17.8265726,19.0003564 17.7126623,18.9999954 Z M12.1008403,12.8849748 L17.2268908,16 L20,3 L10,11.6104272 L12.0798319,12.8705132 C12.0871015,12.874652 12.0941151,12.8791581 12.1008403,12.8840107 L12.1008403,12.8849748 Z M8,13 L8.63106796,15 L10,14.1812914 L8.2038835,13.1705298 C8.12365471,13.1254354 8.05442041,13.0675272 8,13 Z M3,8.38863662 L6.63558106,9.73529738 C6.89546375,9.82874006 7.09376895,10.0411583 7.16786227,10.3054602 L7.62984218,12 C7.65050598,11.80175 7.74335369,11.6177987 7.89096126,11.482667 L17,3 L3,8.38863662 Z" id="telegram_icn"></path>
                    </g>
                </g>
            </g>
        </g>
    </g>
</svg>