<svg xmlns="http://www.w3.org/2000/svg" viewBox="0 0 735.29 121"><defs><style>.cls-1{fill:#fff;fill-rule:evenodd;}.cls-2{fill:#9d9e9e;}.cls-3{fill:#989898;}.cls-4{fill:#0a0028;}.cls-5{fill:none;stroke:#0a0028;stroke-miterlimit:22.93;stroke-width:0.28px;}</style></defs><title>Ресурс 1</title><g id="Слой_2" data-name="Слой 2"><g id="Layer_1" data-name="Layer 1"><path class="cls-1" d="M260.48,55.31c10.34-22.59,47.9-25.31,60.15-3.26,3.95,7.89,6.43,17.59,4.31,26.2a3.14,3.14,0,0,1-3.43,2.66l-49.59.28c-.53,6.17,1.62,18.26,9.79,22.35,9.77,5.09,20.67,2.82,29.1-1.05,6.7-3.08,10.16-1.88,12.23.16,3.22,3.19,1.41,9.54-9.4,13.46-14.42,5.23-38.95,5.57-50.48-9.35-9.25-15-9.76-35.39-2.68-51.45Zm31.58-5.81c-11.35,0-20.55,8-20.07,21.06h38.57C310.56,57.23,303.41,49.5,292.06,49.5Z" transform="translate(0 -0.25)"/><path class="cls-1" d="M452.59,37c24.88.15,36.34,19.38,36.69,39.29.38,21.19-11.91,43.18-37.45,43.76-27.22.63-38.63-20.76-38-42,.67-20.69,12.74-41.22,38.72-41.06ZM446.39,51c-18,4.35-19.32,27.22-15,41.92,4.09,15.24,26.95,18.51,36.21,6.26,7.07-10.62,7.07-25,2.72-36.75C467.08,52.86,455.65,48.51,446.39,51Z" transform="translate(0 -0.25)"/><path class="cls-1" d="M518.64,35.63c8.27-1.06,17.65,1.38,23.37,5.86,8.63,6.78,2.43,16.49-6.65,11.13-7.4-4.36-20.83-7.31-22.9,3.44-.81,4.19,1.83,9.28,7.31,12.18,7.58,4,16.14,6.39,22.71,12.12a18.26,18.26,0,0,1,6.4,15.29c-.48,15.07-10.82,24.22-32.17,23.41-10.58-.4-21.05-3.6-22.86-12.24-1.1-5.21,4.53-8.91,9.22-5.88,2.82,1.74,7.57,4.89,13.63,5.56,7.82.87,16.27-.73,16.53-10.22.19-7.25-8.76-10.39-14.4-12.79-11-4.67-21.33-7.93-22.47-21.53C495.17,47.7,505.46,37.31,518.64,35.63Z" transform="translate(0 -0.25)"/><path class="cls-1" d="M15.35,40.14c6.83,20,13.44,40.05,20.56,59.81a.05.05,0,0,0,.09,0c7.11-19.76,13.72-39.78,20.55-59.81C57.28,38,62,37,66,37.51c3.41.44,6.35,2,5.91,5l-26.2,74.07c-3.63,4.71-16.09,4.25-19.42,0L0,42.48C-.4,39.53,2.54,38,6,37.51,10,37,14.62,38,15.35,40.14Z" transform="translate(0 -0.25)"/><path class="cls-1" d="M165.89,61.38l.13,57.05c-.44,1.88-4,2.83-7.62,2.82s-7.19-.94-7.62-2.82l.13-57-.13-57.06c.43-1.88,4-2.83,7.62-2.82s7.18.94,7.62,2.82Z" transform="translate(0 -0.25)"/><path class="cls-1" d="M195.83,46.74h0l0,33.79c0,17.5,4.66,24.17,15.32,24.17s19.88-7.17,19.75-23.65c-.11-14.26-.07-20,.14-34.24V39.64c.43-1.88,4-2.84,7.62-2.83s7.18.95,7.62,2.83l0,7.09h0c.4,19.55.36,32.3.31,50.29l.05,20c-.44,1.88-4,2.84-7.62,2.83s-7.19-.95-7.62-2.83v-6.84c-18.83,17.33-47.57,7.54-50.19-14.28-1.35-15.76-.84-25.85-.62-39.8l0-16.43c.44-1.88,4-2.84,7.62-2.83s7.19.95,7.63,2.83Z" transform="translate(0 -0.25)"/><path class="cls-1" d="M86.63,41.76c15.94-7.67,49.25-7.84,50.54,16,1,14.32.7,26.82.56,40.06h0l.05,20c-.44,1.89-4,2.84-7.62,2.83s-7.19-.94-7.62-2.83V113c-10.29,7.22-24.33,9.44-35.77,3.85C72.65,110,71.56,86.89,84.63,78.45c11.43-7.62,25.59-6.26,38.65-6.53.06-7.76.51-14.31-3.06-17.9-8-8-24.5-3.16-31.89.29a5.78,5.78,0,0,1-7.08-2.4c-1.72-3.37.29-7.71,5.38-10.15ZM94.43,88c-6.53,5.44-3.27,17.42,5.17,18.78,9,2.72,16.61-4.08,23.14-9.26V82.81C113.21,83.35,102.32,81.72,94.43,88Z" transform="translate(0 -0.25)"/><path class="cls-1" d="M353.34,46.33C368.57,27.27,402.9,36,403.61,63.48l.05,54c-.44,1.89-4,2.84-7.62,2.83s-7.19-.94-7.62-2.83c0-17.24,0-34.58,0-51.87-2.15-20-25.5-18.53-35-.06l0,51.93c-.43,1.89-4,2.84-7.62,2.83s-7.18-.94-7.62-2.83c0-38.25-.11-76.1-.14-114.29.43-1.88,4-2.83,7.62-2.82s7.18.94,7.62,2.82Z" transform="translate(0 -0.25)"/><path class="cls-1" d="M582.12,38.71H601c1.48.34,2.22,3.15,2.21,6s-.73,5.63-2.21,6c-6.3,0-12.6,0-18.9,0l0,42.17c-.28,18.26,14,9.91,18.54,11.41,1.87.61,3.16,2.59,3.16,5.21,0,7.93-11.39,11.23-21.49,8.94-14.06-3.17-16.45-14.36-16.45-27.64l.08-23.22,0-16.87h-12c-1.48-.34-2.22-3.2-2.21-6s.73-5.62,2.21-6h12l0-19.52c.46-1.88,4.28-2.83,8.11-2.82s7.73.94,8.19,2.82Q582.12,29,582.12,38.71Z" transform="translate(0 -0.25)"/><path class="cls-2" d="M735.29,24.65c.12,7-1.85,14.19-6,19.37a19.67,19.67,0,0,1-15.45,7.67c-.49,0-1,0-1.43,0a18.84,18.84,0,0,1-15.2-7.62c-3.31-4.43-4.94-10.3-5.09-16.3,0-.68,0-1.35,0-2,.2-6.89,2.31-13.76,6.53-18.6A19.71,19.71,0,0,1,714.31.38a19.13,19.13,0,0,1,15,6.59C733.24,11.57,735.18,18.05,735.29,24.65Zm-21.42,26.9c14.51-.37,21.5-13.87,21.28-26.89C735,12.42,728.44.61,714.31.52c-14.76-.1-21.62,12.51-22,25.23C691.92,38.79,698.41,51.93,713.87,51.55Z" transform="translate(0 -0.25)"/><path class="cls-2" d="M735.15,24.66c.22,13-6.77,26.52-21.28,26.89-15.46.38-22-12.76-21.56-25.8C692.69,13,699.55.42,714.31.52,728.44.61,735,12.42,735.15,24.66Zm-6,19.19c4.07-5.13,6-12.23,5.9-19.19-.11-6.54-2-13-6-17.51A18.86,18.86,0,0,0,714.31.66a19.45,19.45,0,0,0-15.4,6.66c-4.18,4.8-6.26,11.6-6.46,18.43,0,.67,0,1.33,0,2,.14,5.94,1.75,11.76,5,16.14a18.57,18.57,0,0,0,15,7.51c.46,0,.93,0,1.41,0A19.41,19.41,0,0,0,729.11,43.85Z" transform="translate(0 -0.25)"/><path class="cls-3" d="M735,24.66c.11,7-1.83,14.06-5.9,19.19a19.41,19.41,0,0,1-15.24,7.55c-.48,0-1,0-1.41,0a18.57,18.57,0,0,1-15-7.51c-3.28-4.38-4.89-10.2-5-16.14,0-.67,0-1.33,0-2,.2-6.83,2.28-13.63,6.46-18.43A19.45,19.45,0,0,1,714.31.66a18.86,18.86,0,0,1,14.74,6.49C733,11.7,734.9,18.12,735,24.66ZM723.69,40.11c4.38-7.26,4.38-17.13,1.68-25.14-2-6.51-9.1-9.49-14.84-7.82-11.13,3-12,18.62-9.28,28.68C703.78,46.25,718,48.49,723.69,40.11Z" transform="translate(0 -0.25)"/><path class="cls-4" d="M725.37,15c2.7,8,2.7,17.88-1.68,25.14-5.74,8.38-19.91,6.14-22.44-4.28-2.7-10.06-1.85-25.7,9.28-28.68C716.27,5.48,723.35,8.46,725.37,15Z" transform="translate(0 -0.25)"/><path class="cls-2" d="M688.73,50.1a.85.85,0,0,1,0,.26.71.71,0,0,1-.27.53,2,2,0,0,1-.63.36,10.57,10.57,0,0,1-3.36.48,6.94,6.94,0,0,1-2.67-.52,2.32,2.32,0,0,1-1.42-1.31c-1.12-3.34-1.94-6.17-2.62-8.56-2.87-10.05-3.48-12.16-16.11-10.94V50.19h0c-.12.5-.63.87-1.34,1.12a9.9,9.9,0,0,1-5.64,0c-.71-.25-1.22-.62-1.34-1.12h0V37.66c0-2.28,0-4.87,0-7.55s0-5.45,0-8.1V1.94c0-.45.35-.78.87-1a8.26,8.26,0,0,1,2.38-.51c1.72-.14,3.77-.18,5.84-.17s4.12.06,5.86.13a38.84,38.84,0,0,1,5.54.53,22.33,22.33,0,0,1,5.06,1.48,13.08,13.08,0,0,1,3.2,1.92,9.76,9.76,0,0,1,2.31,2.79,14.33,14.33,0,0,1,1.6,6.16,13.8,13.8,0,0,1-1.11,6.2,14.19,14.19,0,0,1-5.78,6.23,12.14,12.14,0,0,0-1.35,1c.61.49,1.09.83,1.49,1.13a8.5,8.5,0,0,1,3,3.34c1.23,2.09,4.08,11.4,5.54,16.16.51,1.66.84,2.75.85,2.76l0,0Zm-4.21,1.49c1.89,0,4.47-.41,4.08-1.43-.14-.14-4.77-16.16-6.43-19s-2.09-2.52-4.58-4.53c1.19-1.25,5.07-2.54,7.21-7.27a14.57,14.57,0,0,0-.49-12.23,10.83,10.83,0,0,0-5.44-4.66,28.88,28.88,0,0,0-10.55-2,108.31,108.31,0,0,0-11.68,0c-1.33.11-3.14.47-3.12,1.37V22c0,5.3,0,11.08,0,15.65V50.17c.23.94,2.12,1.42,4,1.42s3.79-.48,4-1.42V30.27c15.89-1.55,13.08,2,19,19.59C680.8,50.8,682.62,51.59,684.52,51.59Z" transform="translate(0 -0.25)"/><path class="cls-2" d="M688.6,50.16c.39,1-2.19,1.43-4.08,1.43s-3.72-.79-3.95-1.73c-5.93-17.56-3.12-21.14-19-19.59v19.9c-.23.94-2.12,1.42-4,1.42s-3.79-.48-4-1.42V37.66c0-4.57,0-10.35,0-15.65V1.94c0-.9,1.79-1.26,3.12-1.37a108.31,108.31,0,0,1,11.68,0,28.88,28.88,0,0,1,10.55,2,10.83,10.83,0,0,1,5.44,4.66,14.57,14.57,0,0,1,.49,12.23c-2.14,4.73-6,6-7.21,7.27,2.49,2,2.95,1.77,4.58,4.53S688.46,50,688.6,50.16Zm-.1.2a.28.28,0,0,0,0-.15h0c-.11-.24-.43-1.31-.9-2.82-1.45-4.75-4.3-14.05-5.52-16.1A8.29,8.29,0,0,0,679.13,28c-.44-.32-1-.7-1.63-1.24l-.12-.09.11-.11A8.53,8.53,0,0,1,679,25.45a13.93,13.93,0,0,0,5.67-6.11,13.64,13.64,0,0,0,1.09-6.07,14.06,14.06,0,0,0-1.57-6A9.49,9.49,0,0,0,682,4.53a12.85,12.85,0,0,0-3.13-1.89,22.14,22.14,0,0,0-5-1.45,39.91,39.91,0,0,0-5.5-.53c-1.74-.07-3.8-.12-5.85-.13s-4.1,0-5.81.18a7.52,7.52,0,0,0-2.29.48c-.43.19-.72.43-.71.75V22c0,2.65,0,5.42,0,8.1s0,5.27,0,7.55V50.15c.1.38.54.69,1.16.91a9.68,9.68,0,0,0,5.44,0c.62-.22,1.06-.53,1.16-.91v-20h.12c13-1.27,13.6.86,16.54,11.13.69,2.39,1.5,5.22,2.62,8.55v0A2.09,2.09,0,0,0,682,51a6.51,6.51,0,0,0,2.55.5,10.23,10.23,0,0,0,3.26-.46,1.6,1.6,0,0,0,.54-.31A.44.44,0,0,0,688.5,50.36Z" transform="translate(0 -0.25)"/><path class="cls-3" d="M688.46,50.21a.28.28,0,0,1,0,.15.44.44,0,0,1-.18.32,1.6,1.6,0,0,1-.54.31,10.23,10.23,0,0,1-3.26.46A6.51,6.51,0,0,1,682,51a2.09,2.09,0,0,1-1.27-1.12v0c-1.12-3.33-1.93-6.16-2.62-8.55-2.94-10.27-3.55-12.4-16.54-11.13h-.12v20c-.1.38-.54.69-1.16.91a9.68,9.68,0,0,1-5.44,0c-.62-.22-1.06-.53-1.16-.91V37.66c0-2.28,0-4.87,0-7.55s0-5.45,0-8.1V1.94c0-.32.28-.56.71-.75a7.52,7.52,0,0,1,2.29-.48c1.71-.14,3.76-.19,5.81-.18s4.11.06,5.85.13a39.91,39.91,0,0,1,5.5.53,22.14,22.14,0,0,1,5,1.45A12.85,12.85,0,0,1,682,4.53a9.49,9.49,0,0,1,2.24,2.71,14.06,14.06,0,0,1,1.57,6,13.64,13.64,0,0,1-1.09,6.07A13.93,13.93,0,0,1,679,25.45a8.53,8.53,0,0,0-1.51,1.13l-.11.11.12.09c.66.54,1.19.92,1.63,1.24a8.29,8.29,0,0,1,2.92,3.26c1.22,2,4.07,11.35,5.52,16.1.47,1.51.79,2.58.9,2.82ZM678.27,15.53a11,11,0,0,0-.21-2.38A7.48,7.48,0,0,0,674.27,8a14.49,14.49,0,0,0-6.79-1.62,26.41,26.41,0,0,0-5.94.57l-.12,0V24.58l.11,0a22.82,22.82,0,0,0,6.27.24,16.61,16.61,0,0,0,5.49-1.36,8.77,8.77,0,0,0,3.49-2.93A9.08,9.08,0,0,0,678.27,15.53Z" transform="translate(0 -0.25)"/><path class="cls-4" d="M678.06,13.15a11,11,0,0,1,.21,2.38,9.08,9.08,0,0,1-1.49,5,8.77,8.77,0,0,1-3.49,2.93,16.61,16.61,0,0,1-5.49,1.36,22.82,22.82,0,0,1-6.27-.24l-.11,0V7l.12,0a26.41,26.41,0,0,1,5.94-.57A14.49,14.49,0,0,1,674.27,8,7.48,7.48,0,0,1,678.06,13.15Zm.06,2.38c.21-8.75-9-10-16.56-8.46v17.4c3.39.7,8.71.35,11.67-1.1A8.33,8.33,0,0,0,678.12,15.53Z" transform="translate(0 -0.25)"/><path class="cls-4" d="M661.56,7.07c7.58-1.57,16.77-.29,16.56,8.46a8.33,8.33,0,0,1-4.89,7.84c-3,1.45-8.28,1.8-11.67,1.1ZM678,15.52a10.49,10.49,0,0,0-.19-2.31,7.24,7.24,0,0,0-3.66-5,14.26,14.26,0,0,0-6.65-1.58,26.82,26.82,0,0,0-5.78.54V24.35a21.88,21.88,0,0,0,6.07.21,16.26,16.26,0,0,0,5.39-1.32,8.57,8.57,0,0,0,3.39-2.84A8.71,8.71,0,0,0,678,15.52Z" transform="translate(0 -0.25)"/><path class="cls-4" d="M677.79,13.21a10.49,10.49,0,0,1,.19,2.31,8.71,8.71,0,0,1-1.43,4.88,8.57,8.57,0,0,1-3.39,2.84,16.26,16.26,0,0,1-5.39,1.32,21.88,21.88,0,0,1-6.07-.21V7.18a26.82,26.82,0,0,1,5.78-.54,14.26,14.26,0,0,1,6.65,1.58A7.24,7.24,0,0,1,677.79,13.21Z" transform="translate(0 -0.25)"/><path class="cls-2" d="M646.7,13a21,21,0,0,1-1.12,9.7,15,15,0,0,1-5.35,6.91c-5.25,3.73-8.78,3.79-14.87,3.89-1.23,0-2.56,0-4,.1V50.17h0v0A1.88,1.88,0,0,1,620,51.32a9.87,9.87,0,0,1-5.63,0c-.71-.25-1.22-.62-1.34-1.12v0h0V2.24c0-.4.31-.71.8-1a6.45,6.45,0,0,1,2.1-.52,86.1,86.1,0,0,1,11-.45,43.47,43.47,0,0,1,8.64,1,16.3,16.3,0,0,1,7.57,3.79A12.26,12.26,0,0,1,646.7,13Zm-6.55,16.5c4.92-3.49,7.13-9.44,6.41-16.49-.71-6.9-5.19-10.17-11.1-11.6C629.83.09,621.71.3,615.92.91c-1.48.16-2.8.6-2.78,1.35V50.17c.23.94,2.13,1.42,4,1.42s3.79-.48,4-1.42V33.5C630,33.16,633.84,34,640.15,29.54Z" transform="translate(0 -0.25)"/><path class="cls-2" d="M646.56,13.05c.72,7.05-1.49,13-6.41,16.49-6.31,4.47-10.12,3.62-19,4V50.17c-.23.94-2.13,1.42-4,1.42s-3.8-.48-4-1.42V2.26c0-.75,1.3-1.19,2.78-1.35,5.79-.61,13.91-.82,19.54.54C641.37,2.88,645.85,6.15,646.56,13.05Zm-1.25,9.59a20.59,20.59,0,0,0,1.11-9.58,12,12,0,0,0-3.56-7.76,15.92,15.92,0,0,0-7.44-3.71,42.76,42.76,0,0,0-8.58-1,85.54,85.54,0,0,0-10.91.45,6.58,6.58,0,0,0-2,.49c-.4.2-.64.44-.64.72V50.15c.11.39.55.69,1.16.91a9.72,9.72,0,0,0,5.45,0c.61-.22,1.05-.52,1.16-.91V33.37h.13c1.53-.06,2.9-.08,4.17-.1,6-.1,9.53-.16,14.71-3.84A14.7,14.7,0,0,0,645.31,22.64Z" transform="translate(0 -0.25)"/><path class="cls-3" d="M646.42,13.06a20.59,20.59,0,0,1-1.11,9.58,14.7,14.7,0,0,1-5.25,6.78c-5.18,3.68-8.67,3.74-14.71,3.84-1.27,0-2.64,0-4.17.1h-.13V50.15c-.11.39-.55.69-1.16.91a9.72,9.72,0,0,1-5.45,0c-.61-.22-1.05-.52-1.16-.91V2.26c0-.28.24-.52.64-.72a6.58,6.58,0,0,1,2-.49A85.54,85.54,0,0,1,626.84.6a42.76,42.76,0,0,1,8.58,1,15.92,15.92,0,0,1,7.44,3.71A12,12,0,0,1,646.42,13.06Zm-7.65,7.27a11.86,11.86,0,0,0,.32-5.32c-.53-3.24-2.32-6.12-4.84-7.3a15.29,15.29,0,0,0-5.54-1.18,36.32,36.32,0,0,0-7.54.48l-.12,0V27.65l.12,0c7.08,1.14,11.76-.21,14.58-2.66A10,10,0,0,0,638.77,20.33Z" transform="translate(0 -0.25)"/><path class="cls-4" d="M639.09,15a11.86,11.86,0,0,1-.32,5.32,10,10,0,0,1-3,4.68c-2.82,2.45-7.5,3.8-14.58,2.66l-.12,0V7l.12,0a36.32,36.32,0,0,1,7.54-.48,15.29,15.29,0,0,1,5.54,1.18C636.77,8.89,638.56,11.77,639.09,15Zm-17.9,12.52c21.53,3.46,20.62-16.12,13-19.69-3.29-1.54-8.64-1.41-13-.69Z" transform="translate(0 -0.25)"/><path class="cls-4" d="M638.81,15.06a11.53,11.53,0,0,1-.31,5.18,9.8,9.8,0,0,1-2.94,4.56c-2.74,2.39-7.31,3.7-14.23,2.61V7.27a35.32,35.32,0,0,1,7.36-.46A14.9,14.9,0,0,1,634.13,8C636.56,9.1,638.3,11.9,638.81,15.06Z" transform="translate(0 -0.25)"/><path class="cls-4" d="M634.19,7.84c7.62,3.57,8.53,23.15-13,19.69V7.15C625.55,6.43,630.9,6.3,634.19,7.84Zm4.31,12.4a11.53,11.53,0,0,0,.31-5.18c-.51-3.16-2.25-6-4.68-7.09a14.9,14.9,0,0,0-5.44-1.16,35.32,35.32,0,0,0-7.36.46V27.41c6.92,1.09,11.49-.22,14.23-2.61A9.8,9.8,0,0,0,638.5,20.24Z" transform="translate(0 -0.25)"/><path class="cls-5" d="M710.53,7.15c5.74-1.67,12.82,1.31,14.84,7.82,2.7,8,2.7,17.88-1.68,25.14-5.74,8.38-19.91,6.14-22.44-4.28C698.55,25.77,699.4,10.13,710.53,7.15Z" transform="translate(0 -0.25)"/></g></g></svg>