<svg id="Layer_1" data-name="Layer 1" xmlns="http://www.w3.org/2000/svg" viewBox="0 0 141.7 141.7"><defs><style>.cls-1{fill:#fff;}</style></defs><title>VK_logo</title><path class="cls-1" d="M163.5,70.9H120c-39.7,0-49.1,9.4-49.1,49.1v43.5c0,39.7,9.4,49.1,49.1,49.1h43.5c39.7,0,49.1-9.4,49.1-49.1V120C212.6,80.3,203.2,70.9,163.5,70.9ZM185.3,172H175c-3.9,0-5.1-3.2-12.1-10.2-6.1-5.9-8.8-6.7-10.3-6.7-2.1,0-2.7.5-2.7,3.5v9.3c0,2.5-.8,4-7.4,4-10.9,0-23-6.6-31.5-18.9-12.8-18-16.3-31.6-16.3-34.3,0-1.5.5-2.9,3.5-2.9h10.4c2.6,0,3.6,1.1,4.6,4,5.1,14.7,13.6,27.6,17.1,27.6,1.3,0,1.9-.6,1.9-3.9V128.3c-.4-7-4.1-7.6-4.1-10.1a2.48,2.48,0,0,1,2.6-2.4h16.2c2.2,0,3,1.2,3,3.8v20.5c0,2.2.9,3,1.6,3,1.3,0,2.4-.8,4.8-3.2,7.4-8.3,12.7-21.1,12.7-21.1a4.56,4.56,0,0,1,4.5-2.9h10.3c3.1,0,3.8,1.6,3.1,3.8-1.3,6-13.9,23.8-13.8,23.8-1.1,1.8-1.5,2.6,0,4.6,1.1,1.5,4.7,4.6,7.1,7.4,4.4,5,7.8,9.2,8.7,12.1S188.3,172,185.3,172Z" transform="translate(-70.9 -70.9)"/></svg>