<svg xmlns="http://www.w3.org/2000/svg" viewBox="0 0 2265.72 545.14"><defs><style>.cls-1{fill:#fff;}</style></defs><title>vox</title><g id="Layer_2" data-name="Layer 2"><g id="Layer_1-2" data-name="Layer 1"><path id="a" class="cls-1" d="M467.37,231.29c23.94,1,42.15,19.22,42.15,42.24a42.94,42.94,0,0,1-42.69,43.18h-.43c-7.64,0-15.32-2.89-21.07-5.76-9.59-4.81-17.24-10.57-22-11.51h-2.86c-3.84,0-7.67,1.92-11.51,3.84a22.87,22.87,0,0,0-7.64,8.65,45.6,45.6,0,0,0-2.89,6.7c-.94,4.81-.94,12.49,0,21.1,2.89,34.56,10.54,77.75,15.35,103.66v1.92A8.22,8.22,0,0,1,406,453h-1.92c-.94-.94-2.86-.94-3.84-.94-8.62-1-18.21-2.89-28.75-4.81Q331.93,440,292,434.75a60.64,60.64,0,0,0-23,0c-8.62,1.92-14.37,6.73-16.29,11.54-1.92,3.84-1.92,8.62-1.92,11.51.94,10.54,17.24,24,17.24,44.13,0,2.89,0,6.73-.94,9.62-2.89,9.59-7.67,18.21-15.35,24s-16.29,9.62-26.8,9.62c-20.13,0-36.42-14.4-41.23-33.59-.94-2.89-.94-6.73-.94-9.62,0-20.13,16.29-33.59,17.24-44.13,1-2.89,0-7.67-1.92-11.51-2.86-3.87-8.62-9.62-16.26-11.54-3.84-.94-13.4-.94-23,0-22,2.89-52.68,7.67-79.51,12.49-9.59,1.92-20.1,2.89-28.75,4.81-7.67,1.92-14.37,2.86-20.1,3.84H27.56A11.24,11.24,0,0,1,17,447.23Q7.11,393.77.73,339.73c-1-8.62-1-16.29,0-21.1a31.28,31.28,0,0,1,10.54-15.35,20.06,20.06,0,0,1,10.54-3.84h2.86c5.79.94,12.49,6.7,22,11.51a38.58,38.58,0,0,0,21.07,5.76A42.94,42.94,0,0,0,110.91,274q0-.21,0-.43c0-24-18.21-42.24-42.15-43.18-6.7,0-12.49,1.92-18.21,4.78C40,239.94,31.37,246.64,24.67,247.61H21.8c-2.86,0-6.7,0-9.59-1.92C8.41,242.8,2.65,237,.73,229.37c-1-3.84-1-13.43,0-23,.94-7.67,1.92-16.32,2.86-24.94Q10,139.53,18,97.91c1-5.76,5.79-9.59,11.51-8.65h.94c17.27,3.84,45.07,8.65,72.84,13.43,20.1,2.89,39.28,5.76,55.55,7.67a60.18,60.18,0,0,0,23,0c8.62-1.92,14.34-6.7,16.26-11.51C200,95,200,90.23,200,87.34c-.94-10.57-17.24-24-17.24-44.16a42.69,42.69,0,0,1,12.46-30.7A42,42,0,0,1,224.93,0,43,43,0,0,1,268,43.18c0,20.16-16.29,33.59-17.24,44.16a79.53,79.53,0,0,0,.94,13.43c2.89,3.84,8.65,9.59,16.29,11.51,3.84,1,13.4,1,23,0,16.29-1.92,35.48-4.78,55.58-7.67,21.1-3.84,42.18-7.67,58.47-10.54H407a8.22,8.22,0,0,1,7.64,7.67v1.92q-7.77,39.63-13.4,79.63c-1,8.65-1.92,17.3-2.89,25a60.51,60.51,0,0,0,0,23c1,1.92,1,2.89,1.92,4.81a20.83,20.83,0,0,0,9.59,10.54,33.43,33.43,0,0,0,9.59,1.95h2.86c7.67,0,15.32-7.7,25.89-12.49a40.28,40.28,0,0,1,19.16-4.81ZM259.43,372.38c1-1-7.67-48.94-8.62-49.91,0,0-10.54-1.92-14.37-1.92-1,1-3.84,0-3.84,0a47.39,47.39,0,0,1-6.7-2.86c-4.81-3.87-9.59-13.46-11.51-22.08a206.48,206.48,0,0,1-1.92-22.08c0-5.76,1-14.4,1.92-22.08,1.92-7.67,6.7-18.24,11.51-22.08a47.39,47.39,0,0,1,6.7-2.86h3.84c2.86.94,14.37-1.92,14.37-1.92,0-1,8.62-49,8.62-49.91-1.92-2.89-6.7-4.81-10.54-5.76a13.4,13.4,0,0,0-5.76-1.92c-5.76-1-15.32,1.92-22,7.67l-2.86,2.86c-8.62,7.7-18.21,23.05-22,34.56-4.78,14.4-8.62,36.48-8.62,60.45v1.92c0,24,3.84,47.05,8.62,60.48,3.84,11.51,14.37,26.86,22,34.53l2.86,2.89c6.7,5.76,16.29,8.65,22,7.67,1-.94,3.84-.94,5.76-1.92A102.36,102.36,0,0,0,259.43,372.38ZM587.5,179.09l50.43,153.67,52.68-153.67h34.72l-71.2,188.75h-33.8L550.72,179.09Zm294.91,91.3q0-26.45-8.47-43-13.43-26.08-46.2-26.1-29.05,0-42.3,22.2t-13.22,53.57q0,30.15,13.22,50.25t42,20.07q31.52,0,43.24-23.87A118.83,118.83,0,0,0,882.41,270.39Zm33.13-.88q0,45.64-22.23,75.4T824.4,374.69q-39,0-61.85-26.34t-22.93-70.74q0-47.6,24.15-75.8t64.87-28.17q36.5,0,61.7,24.3t25.22,71.57Zm19.73-90.42h41.08l43.33,66.45,43.91-66.45,38.58.88-63.65,91.12L1105,367.84h-40.53L1017.59,297l-45.47,70.86h-40.2l66.45-96.75Zm198.46.88H1166V367.84h-32.28Zm0-71H1166v35.93h-32.28ZM1214,179.09h31.37v26.8c7.52-9.29,14.31-16,20.46-20.28a61.58,61.58,0,0,1,35.6-10.75q22.57,0,36.3,11.12,7.77,6.35,14.1,18.67a68.52,68.52,0,0,1,24.85-22.47,69.46,69.46,0,0,1,32.1-7.31q38.05,0,51.8,27.5,7.4,14.8,7.43,39.83V367.84h-33V236.71q0-18.87-9.44-25.89a37.21,37.21,0,0,0-23-7.06,45.68,45.68,0,0,0-32.13,12.52q-13.48,12.52-13.49,41.75V367.84h-32.28V244.66q0-19.23-4.57-28-7.22-13.25-27-13.22-18,0-32.71,13.92t-14.71,50.4v100.1H1214Zm432,93.22q0-22.57-6.52-38.77-12.33-31.2-45.1-31.18-33,0-45.13,32.95-6.53,17.63-6.52,44.77c0,14.56,2.13,27,6.52,37.18q12.33,29.23,45.13,29.24,22.2,0,36.91-18.58T1646,272.31ZM1512.18,180H1543v25a76.75,76.75,0,0,1,20.8-19.92q16-10.6,37.73-10.57,32.07,0,54.45,24.58t22.38,70.23q0,61.67-32.25,88.1a72.78,72.78,0,0,1-47.6,16.75q-21.29,0-35.78-9.35-8.45-5.25-18.85-18.15v96.42h-31.73Zm204.13-71H1748V367.84h-31.73Zm137.47,238.27a72.21,72.21,0,0,0,32.43-7.76q26.45-12.88,26.46-42.12V271.79a54.81,54.81,0,0,1-15,6.15,127.61,127.61,0,0,1-18,3.53l-19.22,2.47q-17.27,2.28-25.89,7.22-14.66,8.31-14.65,26.43c0,9.17,3.35,16.41,10,21.68a37.15,37.15,0,0,0,23.78,7.95Zm43-93.77q10.92-1.42,14.62-9.17c1.4-2.83,2.13-6.88,2.13-12.15q0-16.22-11.57-23.54t-33-7.31q-24.85,0-35.23,13.4-5.85,7.4-7.58,22H1796.5q.91-34.9,22.66-48.54t50.49-13.64q33.35,0,54.12,12.67t20.62,39.47V335.41a13.93,13.93,0,0,0,2,7.92c1.34,2,4.2,3,8.56,3a71.36,71.36,0,0,0,10.38-1.07v23.45a85.61,85.61,0,0,1-11.27,2.62,79.57,79.57,0,0,1-10.57.55c-10.93,0-18.88-3.9-23.81-11.63q-3.88-6.17-5.45-17.45c-6.49,8.47-15.74,15.81-27.86,22a85.87,85.87,0,0,1-40,9.35q-26.27,0-42.91-16a52.9,52.9,0,0,1-16.66-39.89q0-26.27,16.38-40.72t43-17.82Zm99.58-74.37h30.15v26.8q13.38-16.58,28.38-23.81a75.67,75.67,0,0,1,33.29-7.22q40.2,0,54.3,28,7.77,15.35,7.77,43.88V367.84H2118v-119c0-11.54-1.71-20.8-5.12-27.86q-8.45-17.63-30.67-17.6-11.28,0-18.52,2.28a47.51,47.51,0,0,0-22.9,15.5,46.68,46.68,0,0,0-10.32,19.31q-2.38,10-2.38,28.44v98.88h-31.73Zm207.11-52.68h32.07v52.68h30.15V205h-30.15V328.19c0,6.58,2.25,11,6.7,13.22q3.7,1.92,12.33,1.92,5.57,0,11.12-.52v25a75.88,75.88,0,0,1-11.36,2.28,111.39,111.39,0,0,1-12.79.7q-22.2,0-30.15-11.36T2203.5,330V205H2178V179.09h25.55Z"/><path id="a-2" data-name="a" class="cls-1" d="M467.37,231.29c23.94,1,42.15,19.22,42.15,42.24a42.94,42.94,0,0,1-42.69,43.18h-.43c-7.64,0-15.32-2.89-21.07-5.76-9.59-4.81-17.24-10.57-22-11.51h-2.86c-3.84,0-7.67,1.92-11.51,3.84a22.87,22.87,0,0,0-7.64,8.65,45.6,45.6,0,0,0-2.89,6.7c-.94,4.81-.94,12.49,0,21.1,2.89,34.56,10.54,77.75,15.35,103.66v1.92A8.22,8.22,0,0,1,406,453h-1.92c-.94-.94-2.86-.94-3.84-.94-8.62-1-18.21-2.89-28.75-4.81Q331.93,440,292,434.75a60.64,60.64,0,0,0-23,0c-8.62,1.92-14.37,6.73-16.29,11.54-1.92,3.84-1.92,8.62-1.92,11.51.94,10.54,17.24,24,17.24,44.13,0,2.89,0,6.73-.94,9.62-2.89,9.59-7.67,18.21-15.35,24s-16.29,9.62-26.8,9.62c-20.13,0-36.42-14.4-41.23-33.59-.94-2.89-.94-6.73-.94-9.62,0-20.13,16.29-33.59,17.24-44.13,1-2.89,0-7.67-1.92-11.51-2.86-3.87-8.62-9.62-16.26-11.54-3.84-.94-13.4-.94-23,0-22,2.89-52.68,7.67-79.51,12.49-9.59,1.92-20.1,2.89-28.75,4.81-7.67,1.92-14.37,2.86-20.1,3.84H27.56A11.24,11.24,0,0,1,17,447.23Q7.11,393.77.73,339.73c-1-8.62-1-16.29,0-21.1a31.28,31.28,0,0,1,10.54-15.35,20.06,20.06,0,0,1,10.54-3.84h2.86c5.79.94,12.49,6.7,22,11.51a38.58,38.58,0,0,0,21.07,5.76A42.94,42.94,0,0,0,110.91,274q0-.21,0-.43c0-24-18.21-42.24-42.15-43.18-6.7,0-12.49,1.92-18.21,4.78C40,239.94,31.37,246.64,24.67,247.61H21.8c-2.86,0-6.7,0-9.59-1.92C8.41,242.8,2.65,237,.73,229.37c-1-3.84-1-13.43,0-23,.94-7.67,1.92-16.32,2.86-24.94Q10,139.53,18,97.91c1-5.76,5.79-9.59,11.51-8.65h.94c17.27,3.84,45.07,8.65,72.84,13.43,20.1,2.89,39.28,5.76,55.55,7.67a60.18,60.18,0,0,0,23,0c8.62-1.92,14.34-6.7,16.26-11.51C200,95,200,90.23,200,87.34c-.94-10.57-17.24-24-17.24-44.16a42.69,42.69,0,0,1,12.46-30.7A42,42,0,0,1,224.93,0,43,43,0,0,1,268,43.18c0,20.16-16.29,33.59-17.24,44.16a79.53,79.53,0,0,0,.94,13.43c2.89,3.84,8.65,9.59,16.29,11.51,3.84,1,13.4,1,23,0,16.29-1.92,35.48-4.78,55.58-7.67,21.1-3.84,42.18-7.67,58.47-10.54H407a8.22,8.22,0,0,1,7.64,7.67v1.92q-7.77,39.63-13.4,79.63c-1,8.65-1.92,17.3-2.89,25a60.51,60.51,0,0,0,0,23c1,1.92,1,2.89,1.92,4.81a20.83,20.83,0,0,0,9.59,10.54,33.43,33.43,0,0,0,9.59,1.95h2.86c7.67,0,15.32-7.7,25.89-12.49a40.28,40.28,0,0,1,19.16-4.81ZM259.43,372.38c1-1-7.67-48.94-8.62-49.91,0,0-10.54-1.92-14.37-1.92-1,1-3.84,0-3.84,0a47.39,47.39,0,0,1-6.7-2.86c-4.81-3.87-9.59-13.46-11.51-22.08a206.48,206.48,0,0,1-1.92-22.08c0-5.76,1-14.4,1.92-22.08,1.92-7.67,6.7-18.24,11.51-22.08a47.39,47.39,0,0,1,6.7-2.86h3.84c2.86.94,14.37-1.92,14.37-1.92,0-1,8.62-49,8.62-49.91-1.92-2.89-6.7-4.81-10.54-5.76a13.4,13.4,0,0,0-5.76-1.92c-5.76-1-15.32,1.92-22,7.67l-2.86,2.86c-8.62,7.7-18.21,23.05-22,34.56-4.78,14.4-8.62,36.48-8.62,60.45v1.92c0,24,3.84,47.05,8.62,60.48,3.84,11.51,14.37,26.86,22,34.53l2.86,2.89c6.7,5.76,16.29,8.65,22,7.67,1-.94,3.84-.94,5.76-1.92A102.36,102.36,0,0,0,259.43,372.38ZM587.5,179.09l50.43,153.67,52.68-153.67h34.72l-71.2,188.75h-33.8L550.72,179.09Zm294.91,91.3q0-26.45-8.47-43-13.43-26.08-46.2-26.1-29.05,0-42.3,22.2t-13.22,53.57q0,30.15,13.22,50.25t42,20.07q31.52,0,43.24-23.87A118.83,118.83,0,0,0,882.41,270.39Zm33.13-.88q0,45.64-22.23,75.4T824.4,374.69q-39,0-61.85-26.34t-22.93-70.74q0-47.6,24.15-75.8t64.87-28.17q36.5,0,61.7,24.3t25.22,71.57Zm19.73-90.42h41.08l43.33,66.45,43.91-66.45,38.58.88-63.65,91.12L1105,367.84h-40.53L1017.59,297l-45.47,70.86h-40.2l66.45-96.75Zm198.46.88H1166V367.84h-32.28Zm0-71H1166v35.93h-32.28ZM1214,179.09h31.37v26.8c7.52-9.29,14.31-16,20.46-20.28a61.58,61.58,0,0,1,35.6-10.75q22.57,0,36.3,11.12,7.77,6.35,14.1,18.67a68.52,68.52,0,0,1,24.85-22.47,69.46,69.46,0,0,1,32.1-7.31q38.05,0,51.8,27.5,7.4,14.8,7.43,39.83V367.84h-33V236.71q0-18.87-9.44-25.89a37.21,37.21,0,0,0-23-7.06,45.68,45.68,0,0,0-32.13,12.52q-13.48,12.52-13.49,41.75V367.84h-32.28V244.66q0-19.23-4.57-28-7.22-13.25-27-13.22-18,0-32.71,13.92t-14.71,50.4v100.1H1214Zm432,93.22q0-22.57-6.52-38.77-12.33-31.2-45.1-31.18-33,0-45.13,32.95-6.53,17.63-6.52,44.77c0,14.56,2.13,27,6.52,37.18q12.33,29.23,45.13,29.24,22.2,0,36.91-18.58T1646,272.31ZM1512.18,180H1543v25a76.75,76.75,0,0,1,20.8-19.92q16-10.6,37.73-10.57,32.07,0,54.45,24.58t22.38,70.23q0,61.67-32.25,88.1a72.78,72.78,0,0,1-47.6,16.75q-21.29,0-35.78-9.35-8.45-5.25-18.85-18.15v96.42h-31.73Zm204.13-71H1748V367.84h-31.73Zm137.47,238.27a72.21,72.21,0,0,0,32.43-7.76q26.45-12.88,26.46-42.12V271.79a54.81,54.81,0,0,1-15,6.15,127.61,127.61,0,0,1-18,3.53l-19.22,2.47q-17.27,2.28-25.89,7.22-14.66,8.31-14.65,26.43c0,9.17,3.35,16.41,10,21.68a37.15,37.15,0,0,0,23.78,7.95Zm43-93.77q10.92-1.42,14.62-9.17c1.4-2.83,2.13-6.88,2.13-12.15q0-16.22-11.57-23.54t-33-7.31q-24.85,0-35.23,13.4-5.85,7.4-7.58,22H1796.5q.91-34.9,22.66-48.54t50.49-13.64q33.35,0,54.12,12.67t20.62,39.47V335.41a13.93,13.93,0,0,0,2,7.92c1.34,2,4.2,3,8.56,3a71.36,71.36,0,0,0,10.38-1.07v23.45a85.61,85.61,0,0,1-11.27,2.62,79.57,79.57,0,0,1-10.57.55c-10.93,0-18.88-3.9-23.81-11.63q-3.88-6.17-5.45-17.45c-6.49,8.47-15.74,15.81-27.86,22a85.87,85.87,0,0,1-40,9.35q-26.27,0-42.91-16a52.9,52.9,0,0,1-16.66-39.89q0-26.27,16.38-40.72t43-17.82Zm99.58-74.37h30.15v26.8q13.38-16.58,28.38-23.81a75.67,75.67,0,0,1,33.29-7.22q40.2,0,54.3,28,7.77,15.35,7.77,43.88V367.84H2118v-119c0-11.54-1.71-20.8-5.12-27.86q-8.45-17.63-30.67-17.6-11.28,0-18.52,2.28a47.51,47.51,0,0,0-22.9,15.5,46.68,46.68,0,0,0-10.32,19.31q-2.38,10-2.38,28.44v98.88h-31.73Zm207.11-52.68h32.07v52.68h30.15V205h-30.15V328.19c0,6.58,2.25,11,6.7,13.22q3.7,1.92,12.33,1.92,5.57,0,11.12-.52v25a75.88,75.88,0,0,1-11.36,2.28,111.39,111.39,0,0,1-12.79.7q-22.2,0-30.15-11.36T2203.5,330V205H2178V179.09h25.55Z"/></g></g></svg>