<?xml version="1.0" encoding="UTF-8"?>
<svg width="146px" height="40px" viewBox="0 0 146 40" version="1.1" xmlns="http://www.w3.org/2000/svg" xmlns:xlink="http://www.w3.org/1999/xlink">
    <!-- Generator: Sketch 51.2 (57519) - http://www.bohemiancoding.com/sketch -->
    <title>voxbone</title>
    <desc>Created with Sketch.</desc>
    <defs></defs>
    <g id="Page-1" stroke="none" stroke-width="1" fill="none" fill-rule="evenodd">
        <path d="M27.998,0 L39.356,10.55 L0,19.718 L12.326,4.556 L20.563,9.652 L27.998,0 Z M20.245,39.433 L0,19.718 L39.412,28.884 L20.245,39.433 Z M51.099,22.554 L54.541,13.11 L58.284,13.11 L53.126,26.296 L49.031,26.296 L43.819,13.11 L47.683,13.11 L51.099,22.554 Z M65.432,12.757 C69.541,12.757 72.576,15.723 72.576,19.696 C72.576,23.668 69.541,26.635 65.432,26.635 C61.336,26.635 58.316,23.669 58.316,19.696 C58.316,15.723 61.336,12.757 65.432,12.757 Z M65.432,23.329 C67.432,23.329 68.943,21.833 68.943,19.696 C68.943,17.559 67.432,16.063 65.432,16.063 C63.432,16.063 61.935,17.559 61.935,19.696 C61.935,21.833 63.432,23.329 65.432,23.329 Z M86.248,13.11 L81.527,19.587 L86.33,26.296 L82.112,26.296 L79.145,22.104 L76.233,26.296 L72.124,26.296 L76.968,19.601 L72.247,13.11 L76.464,13.11 L79.309,17.206 L82.139,13.11 L86.248,13.11 Z M110.06,12.757 C114.168,12.757 117.204,15.723 117.204,19.696 C117.204,23.668 114.168,26.635 110.06,26.635 C105.964,26.635 102.943,23.669 102.943,19.696 C102.943,15.723 105.964,12.757 110.06,12.757 Z M110.06,23.329 C112.06,23.329 113.57,21.833 113.57,19.696 C113.57,17.559 112.06,16.063 110.06,16.063 C108.06,16.063 106.562,17.559 106.562,19.696 C106.562,21.833 108.06,23.329 110.06,23.329 Z M145.739,19.999 C145.739,20.407 145.712,20.897 145.67,21.196 L136.322,21.196 C136.704,23.101 138.037,23.931 139.711,23.931 C140.854,23.931 142.092,23.468 143.045,22.665 L145.127,24.951 C143.631,26.326 141.725,26.951 139.508,26.951 C135.467,26.951 132.663,24.203 132.663,20.053 C132.663,15.903 135.385,13.073 139.33,13.073 C143.126,13.073 145.724,15.89 145.739,19.999 Z M136.335,18.774 L142.173,18.774 C141.847,17.086 140.826,16.134 139.302,16.134 C137.628,16.134 136.648,17.141 136.335,18.774 Z M131.107,18.251 L131.107,26.598 L127.576,26.598 L127.576,19.387 C127.576,17.493 126.629,16.452 125.019,16.452 C123.503,16.452 122.246,17.438 122.246,19.415 L122.246,26.598 L118.715,26.598 L118.715,13.489 L122.151,13.489 L122.151,15.03 C123.085,13.636 124.519,13.136 126.006,13.136 C128.983,13.137 131.107,15.206 131.107,18.251 Z M95.25,12.751 C98.896,12.751 101.646,15.731 101.646,19.693 C101.646,23.652 98.896,26.631 95.265,26.631 C93.441,26.631 92.175,25.896 91.318,24.835 L91.318,26.29 L87.849,26.29 L87.849,7.995 L91.386,6.077 L91.386,14.48 C92.243,13.446 93.481,12.751 95.25,12.751 Z M94.597,23.325 C96.693,23.325 98,21.704 97.999,19.692 C97.999,17.677 96.693,16.057 94.597,16.057 C92.583,16.057 91.209,17.608 91.209,19.692 C91.209,21.772 92.583,23.325 94.597,23.325 Z" id="voxbone" fill="#FFFFFF" fill-rule="nonzero"></path>
    </g>
</svg>