<?xml version="1.0" encoding="utf-8"?>
<!-- Generator: Adobe Illustrator 22.1.0, SVG Export Plug-In . SVG Version: 6.00 Build 0)  -->
<svg version="1.1" id="Слой_1" xmlns="http://www.w3.org/2000/svg" xmlns:xlink="http://www.w3.org/1999/xlink" x="0px" y="0px"
	 viewBox="0 0 160 37" style="enable-background:new 0 0 160 37;" xml:space="preserve">
<style type="text/css">
	.st0{filter:url(#Adobe_OpacityMaskFilter);}
	.st1{fill:#FFFFFF;}
	.st2{mask:url(#Page_1_Copy_2--mask-2_1_);fill:#FFFFFF;}
</style>
<title>Page 1 Copy 2</title>
<desc>Created with Sketch.</desc>
<g id="Page_1_Copy_2--Page-1">
	<g id="Page_1_Copy_2--s7" transform="translate(-160.000000, -5924.000000)">
		<g id="Page_1_Copy_2--footer" transform="translate(0.000000, 5640.000000)">
			<g id="Page_1_Copy_2--Group-2-Copy" transform="translate(0.000000, 160.000000)">
				<g id="Page_1_Copy_2--Page-1-Copy-2" transform="translate(160.000000, 124.000000)">
					<g id="Page_1_Copy_2--Group-3">
						<g id="Page_1_Copy_2--Clip-2">
						</g>
						<defs>
							<filter id="Adobe_OpacityMaskFilter" filterUnits="userSpaceOnUse" x="0" y="0" width="35" height="37">
								<feColorMatrix  type="matrix" values="1 0 0 0 0  0 1 0 0 0  0 0 1 0 0  0 0 0 1 0"/>
							</filter>
						</defs>
						<mask maskUnits="userSpaceOnUse" x="0" y="0" width="35" height="37" id="Page_1_Copy_2--mask-2_1_">
							<g class="st0">
								<polygon id="Page_1_Copy_2--path-1_1_" class="st1" points="0,0 35,0 35,37 0,37 								"/>
							</g>
						</mask>
						<path id="Page_1_Copy_2--Fill-1" class="st2" d="M14.9,19.4c0.1,0.6,0.4,1.2,0.8,1.5l0,0c0.1,0.1,0.3,0.1,0.4,0.2
							c0,0,0.2,0,0.3,0c0.2,0,1,0.1,1,0.1c0,0.1,0.6,3.2,0.6,3.3c-0.2,0.1-0.5,0.3-0.7,0.4c-0.2,0-0.3,0.1-0.4,0.1
							c-0.4,0.1-1-0.2-1.5-0.5c0,0,0,0,0,0c-0.1-0.1-0.1-0.1-0.2-0.2c-0.6-0.5-1.2-1.5-1.5-2.3c-0.3-0.9-0.6-2.4-0.6-4v-0.1
							c0-1.6,0.3-3.1,0.6-4c0.3-0.7,0.9-1.8,1.5-2.3c0.1-0.1,0.1-0.1,0.2-0.2c0,0,0,0,0,0c0.5-0.3,1.1-0.6,1.5-0.5
							c0.1,0,0.3,0,0.4,0.1c0.3,0.1,0.6,0.2,0.7,0.4c0,0-0.6,3.2-0.6,3.3c0,0-0.8,0.2-1,0.1c-0.1,0-0.3,0-0.3,0
							c-0.2,0-0.3,0.1-0.4,0.2l0,0c-0.3,0.3-0.6,0.9-0.8,1.5c-0.1,0.5-0.1,1.1-0.1,1.4C14.8,18.4,14.8,18.9,14.9,19.4 M32.1,15.7
							L32.1,15.7C32.1,15.7,32.1,15.7,32.1,15.7c-0.5,0-0.9,0.1-1.3,0.3c-0.7,0.3-1.3,0.8-1.8,0.9c-0.1,0-0.1,0-0.2,0v0
							c-0.2,0-0.4,0-0.7-0.2c-0.2-0.1-0.5-0.4-0.7-0.7c0-0.1-0.1-0.2-0.1-0.3c-0.1-0.3-0.1-0.9,0-1.6v0c0.1-0.5,0.1-1.1,0.2-1.7
							c0.3-2,0.7-4,0.9-5.4c0,0,0,0,0,0c0,0,0,0,0,0v0c0,0,0-0.1,0-0.1c0,0,0,0,0,0c0-0.3-0.2-0.5-0.5-0.5c0,0-0.1,0-0.1,0v0
							c-1.1,0.2-2.6,0.5-4,0.7c-1.3,0.2-2.7,0.4-3.8,0.5h0c-0.7,0.1-1.3,0-1.6,0C18,7.4,17.6,7,17.4,6.7c-0.1-0.3-0.2-0.6-0.2-0.8
							c0.1-0.7,1.2-1.6,1.2-3c0-1.6-1.3-2.9-2.9-2.9h0c-0.8,0-1.5,0.3-2.1,0.9c-0.5,0.5-0.9,1.3-0.9,2.1c0,1.3,1.1,2.3,1.2,3
							c0,0.2,0,0.5-0.2,0.8c-0.2,0.3-0.6,0.7-1.1,0.8c-0.3,0.1-0.9,0.1-1.6,0h0C9.8,7.4,8.5,7.2,7.1,7c-1.9-0.3-3.8-0.7-5-0.9
							c0,0,0,0,0,0c0,0-0.1,0-0.1,0C1.7,6,1.3,6.3,1.2,6.7l0,0C1,8,0.6,10.2,0.3,12.3c-0.1,0.6-0.2,1.1-0.2,1.7v0
							c-0.1,0.7,0,1.3,0,1.6c0.1,0.5,0.5,0.9,0.8,1.1c0.2,0.1,0.4,0.1,0.6,0.2c0.1,0,0.1,0,0.2,0c0.5,0,1-0.5,1.7-0.9
							c0.4-0.2,0.8-0.3,1.3-0.3h0h0c1.6,0,2.9,1.3,2.9,2.9c0,1.6-1.3,2.9-2.9,2.9c-0.5,0-1-0.2-1.4-0.4c-0.6-0.3-1.1-0.7-1.5-0.7
							c0,0-0.1,0-0.1,0c-0.1,0-0.1,0-0.2,0c-0.3,0-0.5,0.1-0.7,0.3c-0.3,0.2-0.6,0.6-0.7,1.1c-0.1,0.3,0,0.8,0,1.4v0
							c0.2,2.4,0.8,5.5,1.1,7.3l0,0c0.1,0.3,0.4,0.6,0.7,0.6c0,0,0.1,0,0.1,0h0l0,0c0,0,0,0,0,0c0,0,0,0,0,0c0,0,0,0,0,0
							c0.4-0.1,0.9-0.2,1.4-0.3c0.6-0.1,1.3-0.2,2-0.3c1.9-0.3,3.9-0.6,5.5-0.8h0c0.7-0.1,1.3,0,1.6,0c0.5,0.1,0.9,0.5,1.1,0.8
							c0.1,0.3,0.2,0.6,0.2,0.8c-0.1,0.7-1.2,1.7-1.2,3c0,0.2,0,0.4,0.1,0.7C13,36,14.1,37,15.5,37h0c0.7,0,1.3-0.2,1.8-0.6
							c0.5-0.4,0.9-1,1-1.6c0.1-0.2,0.1-0.4,0.1-0.7c0-1.3-1.1-2.3-1.2-3c0-0.2,0-0.5,0.2-0.8c0.1-0.3,0.6-0.7,1.1-0.8
							c0.3-0.1,0.9-0.1,1.6,0h0c1.5,0.2,3.6,0.5,5.5,0.8c0.7,0.1,1.4,0.2,2,0.3c0.1,0,0.2,0,0.3,0c0,0,0.1,0,0.1,0
							c0.3,0,0.5-0.2,0.5-0.5c0,0,0,0,0-0.1c0,0,0,0,0,0c-0.3-1.8-0.9-4.7-1.1-7v0c0-0.6-0.1-1.1,0-1.4c0-0.2,0.1-0.3,0.2-0.5
							c0.2-0.3,0.4-0.5,0.5-0.6c0.2-0.2,0.5-0.3,0.8-0.3c0.1,0,0.1,0,0.1,0c0,0,0.1,0,0.1,0c0.4,0.1,0.9,0.4,1.5,0.7
							c0.4,0.2,0.9,0.4,1.4,0.4c1.6,0,2.9-1.3,2.9-2.9C35,17,33.7,15.7,32.1,15.7"/>
					</g>
					<path id="Page_1_Copy_2--voximplant" class="st1" d="M46.9,20.7l0.2,1h0.1l0.2-1l2.5-8.4h2.9L48.4,25h-2.5l-4.5-12.7h2.9
						L46.9,20.7z M54.1,18.5c0-1.9,0.5-3.4,1.5-4.6c1-1.2,2.5-1.8,4.3-1.8c1.8,0,3.2,0.6,4.3,1.8c1,1.2,1.6,2.7,1.6,4.6v0.2
						c0,1.9-0.5,3.5-1.6,4.7c-1,1.2-2.4,1.8-4.3,1.8c-1.8,0-3.2-0.6-4.3-1.8c-1-1.2-1.5-2.8-1.5-4.7V18.5z M57,18.8
						c0,1.2,0.2,2.2,0.7,3c0.5,0.8,1.2,1.2,2.2,1.2c1,0,1.7-0.4,2.2-1.2c0.5-0.8,0.8-1.8,0.8-3v-0.2c0-1.2-0.2-2.2-0.8-3
						c-0.5-0.8-1.2-1.2-2.2-1.2c-1,0-1.7,0.4-2.2,1.2c-0.5,0.8-0.7,1.8-0.7,3V18.8z M72.8,16.7l2.3-4.3h3.3l-4,6.3l4.1,6.4h-3.2
						l-2.4-4.5L70.4,25h-3.3l4.1-6.4l-4-6.3h3.2L72.8,16.7z M83.5,25h-2.8V12.3h2.8V25z M83.5,9.2h-2.8V6.7h2.8V9.2z M89.2,12.3
						l0.2,1.7c0.4-0.6,0.9-1.1,1.6-1.4s1.3-0.5,2.2-0.5c0.8,0,1.5,0.2,2.1,0.6s1,0.9,1.3,1.7c0.4-0.7,0.9-1.3,1.5-1.7
						s1.4-0.6,2.2-0.6c1.3,0,2.3,0.4,3,1.3c0.7,0.9,1.1,2.2,1.1,4V25h-2.8v-7.7c0-1.1-0.2-1.8-0.6-2.3s-0.9-0.7-1.7-0.7
						c-0.6,0-1.1,0.2-1.5,0.5s-0.7,0.8-0.9,1.3c0,0.1,0,0.2,0,0.3s0,0.2,0,0.2V25h-2.8v-7.7c0-1-0.2-1.8-0.6-2.2s-0.9-0.7-1.7-0.7
						c-0.6,0-1.1,0.1-1.5,0.3s-0.7,0.5-1,0.9V25h-2.8V12.3H89.2z M118.6,19.1c0,1.8-0.4,3.3-1.3,4.5s-2.1,1.7-3.6,1.7
						c-0.7,0-1.4-0.1-1.9-0.4s-1-0.6-1.4-1.1v6.2h-2.8V12.3h2.4l0.3,1.6c0.4-0.6,0.9-1,1.5-1.4s1.2-0.5,2-0.5c1.6,0,2.8,0.6,3.7,1.9
						s1.3,2.9,1.3,4.9V19.1z M115.8,18.8c0-1.3-0.2-2.4-0.7-3.2s-1.2-1.2-2.2-1.2c-0.6,0-1.1,0.1-1.5,0.4s-0.7,0.6-1,1.1v5.7
						c0.2,0.4,0.6,0.8,1,1s0.9,0.4,1.5,0.4c1,0,1.7-0.4,2.2-1.1s0.7-1.7,0.7-2.8V18.8z M124.1,25h-2.8V6.7h2.8V25z M135,25
						c-0.1-0.3-0.2-0.6-0.3-0.9s-0.1-0.6-0.1-0.9c-0.4,0.6-0.9,1.1-1.5,1.5s-1.3,0.6-2.1,0.6c-1.3,0-2.3-0.3-3-1s-1.1-1.6-1.1-2.8
						c0-1.2,0.5-2.2,1.5-2.9c1-0.7,2.3-1,4.1-1h2.2v-1.1c0-0.7-0.2-1.2-0.6-1.6s-0.9-0.6-1.7-0.6c-0.6,0-1.2,0.2-1.5,0.5
						s-0.6,0.7-0.6,1.2h-2.7l0-0.1c-0.1-1,0.4-1.9,1.3-2.7c0.9-0.8,2.2-1.2,3.7-1.2c1.5,0,2.7,0.4,3.6,1.1s1.4,1.8,1.4,3.2v5.6
						c0,0.5,0,1,0.1,1.5s0.2,1,0.3,1.4H135z M131.5,23c0.7,0,1.4-0.2,1.9-0.5s1-0.8,1.1-1.2v-1.9h-2.3c-0.8,0-1.5,0.2-1.9,0.6
						s-0.7,0.9-0.7,1.4c0,0.5,0.2,0.9,0.5,1.2S130.9,23,131.5,23z M143,12.3l0.2,1.8c0.4-0.6,0.9-1.2,1.6-1.5s1.3-0.5,2.1-0.5
						c1.3,0,2.3,0.4,3.1,1.2s1.1,2,1.1,3.7v8h-2.8v-7.9c0-1-0.2-1.6-0.6-2s-1-0.6-1.8-0.6c-0.6,0-1.1,0.1-1.5,0.4s-0.8,0.6-1.1,1V25
						h-2.8V12.3H143z M157.5,9.2v3.1h2.3v2.1h-2.3v7c0,0.5,0.1,0.9,0.3,1.1s0.5,0.3,0.9,0.3c0.2,0,0.3,0,0.5,0s0.3-0.1,0.4-0.1
						l0.3,2.1c-0.2,0.1-0.5,0.2-0.9,0.3s-0.7,0.1-1,0.1c-1,0-1.9-0.3-2.5-0.9s-0.9-1.6-0.9-2.9v-7h-1.9v-2.1h1.9V9.2H157.5z"/>
				</g>
			</g>
		</g>
	</g>
</g>
</svg>
