<?xml version="1.0" encoding="utf-8"?>
<!-- Generator: Adobe Illustrator 22.1.0, SVG Export Plug-In . SVG Version: 6.00 Build 0)  -->
<svg version="1.1" id="Слой_1" xmlns="http://www.w3.org/2000/svg" xmlns:xlink="http://www.w3.org/1999/xlink" x="0px" y="0px"
	 viewBox="0 0 120 50" style="enable-background:new 0 0 120 50;" xml:space="preserve">
<style type="text/css">
	.st0{fill:#FFFFFF;}
</style>
<g>
	<path class="st0" d="M6.6,12.8v-0.6H7c0.5,0.1,0.9,0.1,1.4,0.1c0.5,0,0.9,0,1.4-0.1h0.4v0.6c-0.3,0-0.6,0.1-0.7,0.2
		c-0.2,0.1-0.2,0.4-0.2,0.8v7.5c0,0.3,0.1,0.6,0.2,0.7s0.4,0.2,0.7,0.2v0.6H9.7c-0.9-0.1-1.9-0.1-2.8,0H6.6v-0.6
		c0.4,0,0.7-0.1,0.8-0.3c0.1-0.2,0.2-0.4,0.1-0.6v-7.5c0-0.4-0.1-0.6-0.2-0.7C7.2,12.9,6.9,12.9,6.6,12.8z M15.2,22.6L14,23.1
		c-0.3,0.1-0.8,0-1.3-0.5c-0.6-0.6-1.1-1.2-1.6-1.9c-0.5-0.7-0.9-1.5-1.3-2.2c-0.4-0.7-0.5-1.2-0.5-1.4c0-0.1,0-0.2,0.1-0.2
		c0.1-0.2,0.3-0.4,0.5-0.5c0.3-0.3,0.8-0.9,1.4-1.5s0.9-1.1,0.9-1.3c0.1-0.2,0-0.4-0.1-0.5c-0.1,0-0.1,0-0.2,0c-0.2,0-0.5,0-0.7,0
		v-0.6h0.4c0.4,0.1,0.9,0.1,1.4,0.1c0.5,0,1,0,1.5-0.1h0.4v0.6c0,0,0,0-0.1,0c-0.1,0-0.2,0-0.3,0.1c-0.3,0.1-0.7,0.3-1.1,0.7
		c0,0-0.1,0.1-0.1,0.1c0,0-0.1,0.1-0.1,0.1c-0.7,0.8-1.6,1.7-2.5,2.7c0.7,1.3,1.5,2.5,2.3,3.7c0.8,1.2,1.4,1.8,1.7,1.9
		c0.2,0,0.3,0,0.5-0.1L15.2,22.6z"/>
	<path class="st0" d="M18.4,20.7l4.1-8.6c0.3,0.1,0.6,0.1,0.9,0.1c0.3,0,0.6,0,0.9-0.1h0.4v0.6c0,0-0.1,0-0.1,0c-0.1,0-0.2,0-0.3,0
		c-0.2,0-0.4,0.2-0.4,0.4c0,0.1-0.1,0.2-0.1,0.3c0,0,0,0.1,0,0.1c0,0,0,0.1,0,0.1v7.5c0,0.3,0.1,0.6,0.2,0.7s0.4,0.2,0.7,0.3v0.6
		h-0.4c-1-0.1-1.9-0.1-2.9,0h-0.4v-0.6c0.7,0,1.1-0.3,1.1-1v-6.6l-3.9,8.2c-0.6-0.1-1.3-0.1-1.9,0h-0.4v-0.6c0,0,0,0,0.1,0
		c0,0,0,0,0.1,0c0.1,0,0.1,0,0.1,0c0,0,0.1,0,0.1,0c0.2-0.1,0.3-0.2,0.4-0.3c0.1-0.2,0.1-0.4,0.1-0.6v-7.5c0-0.2,0-0.4-0.1-0.6
		c-0.1-0.1-0.2-0.2-0.4-0.3c-0.1,0-0.2,0-0.3,0c0,0,0,0-0.1,0v-0.6h0.4c0.4,0.1,0.9,0.1,1.4,0.1c0.5,0,0.9,0,1.4-0.1h0.4v0.6
		c-0.3,0-0.5,0.1-0.7,0.2c-0.2,0.1-0.3,0.4-0.3,0.7L18.4,20.7z"/>
	<path class="st0" d="M33.1,15h-0.6c-0.6-1.4-1.4-2.1-2.4-2c-0.7,0-1.3,0.4-1.7,1.1c-0.5,0.7-0.7,1.8-0.7,3.1c0,1.5,0.3,2.7,0.8,3.5
		c0.6,0.8,1.2,1.3,1.9,1.3c0.5,0,0.9-0.2,1.3-0.6s0.8-1,1-1.9h0.7c-0.3,0.9-0.4,1.9-0.6,2.9c-0.3,0.2-0.6,0.3-1,0.4
		c-0.4,0.1-0.8,0.2-1.2,0.2c-1,0-1.9-0.2-2.6-0.7c-0.7-0.5-1.3-1.1-1.7-1.9c-0.4-0.9-0.6-1.8-0.6-2.7c0-0.8,0.1-1.6,0.3-2.3
		c0.2-0.7,0.6-1.3,1-1.9c0.4-0.5,1-0.9,1.6-1.2c0.6-0.3,1.3-0.4,1.9-0.4c0.7,0,1.5,0.2,2.1,0.5C32.8,13.4,32.9,14.2,33.1,15z"/>
	<path class="st0" d="M38.4,14.8l-1.9,6.5c-0.1,0.2-0.1,0.3-0.1,0.5c0.1,0.3,0.4,0.5,0.9,0.5v0.6h-0.4c-0.8-0.1-1.6-0.1-2.3,0h-0.4
		v-0.6c0,0,0.1,0,0.1,0c0,0,0.1,0,0.1,0c0,0,0.1,0,0.1,0c0.2,0,0.4-0.2,0.5-0.3c0.1-0.2,0.2-0.4,0.3-0.6l3.3-9.4
		c0.1-0.2,0.2-0.3,0.3-0.3c0.1,0,0.2,0.1,0.3,0.3l2.7,9.4c0.1,0.2,0.2,0.4,0.3,0.6c0.2,0.2,0.4,0.3,0.7,0.3v0.6h-0.4
		c-0.9-0.1-1.7-0.1-2.6,0h-0.4v-0.6c0,0,0.1,0,0.1,0c0.1,0,0.2,0,0.3-0.1c0.2-0.1,0.3-0.2,0.4-0.4c0,0,0-0.2-0.1-0.5L38.4,14.8z"/>
	<path class="st0" d="M43.8,17.7c0-1,0.2-2,0.6-2.9c0.3-0.8,0.9-1.5,1.6-2c0.6-0.5,1.3-0.8,2-0.8c0.6,0,1.1,0.1,1.6,0.3
		c0.5,0.2,1,0.6,1.4,1c0.4,0.5,0.8,1.1,1,1.7c0.3,0.7,0.4,1.5,0.4,2.3c0,1-0.2,2-0.6,2.9c-0.3,0.8-0.9,1.5-1.5,2.1
		c-0.6,0.5-1.4,0.8-2.2,0.9c-0.6,0-1.1-0.1-1.7-0.3c-0.5-0.3-1-0.6-1.4-1.1c-0.4-0.5-0.7-1.1-0.9-1.7C43.9,19.2,43.8,18.5,43.8,17.7
		z M45.8,16.8c0,0.9,0,1.7,0.2,2.6c0.1,0.6,0.3,1.1,0.6,1.6c0.2,0.3,0.5,0.6,0.8,0.8c0.3,0.2,0.6,0.2,0.9,0.2c0.6,0,1.1-0.4,1.5-1.1
		c0.5-0.7,0.7-1.9,0.7-3.6c0-0.8-0.1-1.6-0.3-2.4c-0.2-0.7-0.5-1.2-0.8-1.5c-0.3-0.3-0.7-0.5-1.2-0.6c-0.6,0-1.1,0.3-1.5,0.9
		C46.1,14.5,45.8,15.5,45.8,16.8L45.8,16.8z"/>
	<path class="st0" d="M58.1,16.9c0.6,0.2,1.1,0.5,1.6,1c0.4,0.4,0.6,1,0.7,1.7c0,0.5-0.1,1-0.3,1.5c-0.2,0.5-0.6,1-1,1.3
		c-0.5,0.3-1.1,0.5-1.9,0.5c-0.1,0-0.3,0-0.6,0s-0.5,0-0.7-0.1s-0.4,0-0.6,0c-0.5,0-1,0-1.4,0.1h-0.4v-0.6c0.4,0,0.6-0.1,0.8-0.2
		s0.2-0.4,0.2-0.7v-7.4c0-0.4-0.1-0.6-0.2-0.8s-0.4-0.3-0.8-0.3v-0.6h0.4c0.2,0,0.4,0,0.6,0c0.3,0,0.5,0,0.7,0c0.4,0,0.7,0,1-0.1
		c0.3,0,0.5,0,0.7,0c0.6,0,1.3,0.2,1.8,0.5c0.6,0.3,0.9,1,0.9,2c0,0.6-0.1,1.1-0.5,1.5C59,16.5,58.6,16.7,58.1,16.9z M56.1,16.7
		c0.5,0.1,1,0,1.4-0.3c0.4-0.3,0.6-0.8,0.6-1.5c0-1.3-0.7-1.9-1.9-1.7L56.1,16.7z M56.1,17.5v3.6c0,0.7,0.3,1,1,1
		c0.4,0,0.8-0.2,1-0.6c0.3-0.4,0.4-0.9,0.4-1.5c0-0.7-0.2-1.2-0.4-1.6c-0.2-0.3-0.6-0.6-1-0.7C56.8,17.5,56.5,17.5,56.1,17.5
		L56.1,17.5z"/>
	<path class="st0" d="M61.6,17.7c0-1,0.2-2,0.6-2.9c0.3-0.8,0.9-1.5,1.6-2c0.7-0.5,1.3-0.8,2-0.8c0.6,0,1.1,0.1,1.6,0.3
		c0.5,0.2,1,0.6,1.4,1c0.4,0.5,0.8,1.1,1,1.7c0.3,0.7,0.4,1.5,0.4,2.3c0,1-0.2,2-0.5,2.9c-0.3,0.8-0.9,1.5-1.5,2.1
		c-0.6,0.5-1.4,0.8-2.2,0.9c-0.6,0-1.1-0.1-1.7-0.3c-0.5-0.3-1-0.6-1.4-1.1c-0.4-0.5-0.7-1.1-0.9-1.7C61.7,19.2,61.6,18.5,61.6,17.7
		z M63.6,16.8c0,0.9,0,1.7,0.2,2.6c0.1,0.6,0.3,1.1,0.6,1.6c0.2,0.3,0.5,0.6,0.8,0.8c0.3,0.2,0.6,0.2,0.9,0.2c0.6,0,1.1-0.4,1.5-1.1
		c0.5-0.7,0.7-1.9,0.7-3.6c0-0.8-0.1-1.6-0.3-2.4c-0.2-0.7-0.5-1.2-0.8-1.5c-0.3-0.3-0.7-0.5-1.2-0.6c-0.6,0-1.1,0.3-1.5,0.9
		C63.9,14.5,63.6,15.5,63.6,16.8L63.6,16.8z"/>
	<path class="st0" d="M78.7,26.1H78c0.1-0.6,0.2-1.2,0.2-1.8c0-0.6-0.2-1-0.4-1.2c-0.3-0.2-0.6-0.3-0.9-0.3h-3.5
		c-0.3,0-0.6,0.1-0.9,0.3c-0.3,0.2-0.4,0.6-0.5,1.3c-0.1,0.3-0.1,0.7-0.1,1c0,0.1,0,0.2,0,0.3c0,0.1,0,0.2,0,0.3H71l-0.3-3.9
		c0-0.1,0-0.2,0-0.3c0-0.1,0.1-0.1,0.2-0.1c0.1,0,0.2,0,0.3,0.1h0.2c0.3,0,0.6-0.6,1-1.7l2.8-8.6c0.1-0.2,0.2-0.4,0.4-0.4
		c0.2,0,0.3,0.1,0.3,0.4l2.6,9.7c0,0.2,0.1,0.3,0.2,0.5c0.1,0.1,0.2,0.2,0.3,0.1c0,0,0.1,0,0.1,0c0,0,0.1,0,0.1,0
		c0.2,0,0.4,0.1,0.4,0.4c0,0.2,0,0.3,0,0.5c0,0.2-0.1,0.4-0.1,0.6c-0.1,0.2-0.1,0.4-0.1,0.5c-0.1,0.2-0.1,0.4-0.1,0.5
		c0,0.1-0.1,0.2-0.1,0.4c0,0.1-0.1,0.3-0.1,0.5C78.9,25.5,78.8,25.8,78.7,26.1z M76.7,21.9l-1.9-7.3l-1.7,6.5c0,0.1-0.1,0.3-0.1,0.4
		c0,0.2,0.2,0.4,0.5,0.4L76.7,21.9z"/>
	<path class="st0" d="M87.9,15h-0.6c-0.6-1.4-1.4-2.1-2.4-2c-0.7,0-1.2,0.4-1.7,1.1c-0.5,0.7-0.7,1.8-0.7,3.1c0,1.5,0.3,2.7,0.8,3.5
		c0.6,0.8,1.2,1.3,1.9,1.3c0.5,0,0.9-0.2,1.3-0.6c0.4-0.4,0.8-1,1-1.9h0.7c-0.3,0.9-0.4,1.9-0.6,2.9c-0.3,0.2-0.7,0.3-1,0.4
		c-0.4,0.1-0.8,0.2-1.2,0.2c-1,0-1.9-0.2-2.6-0.7c-0.7-0.5-1.3-1.1-1.7-1.9c-0.4-0.9-0.6-1.8-0.6-2.7c0-0.8,0.1-1.6,0.3-2.3
		c0.2-0.7,0.6-1.3,1-1.9c0.4-0.5,1-0.9,1.6-1.2c0.6-0.3,1.3-0.4,1.9-0.4c0.7,0,1.5,0.2,2.1,0.5C87.5,13.4,87.7,14.2,87.9,15z"/>
	<path class="st0" d="M89.1,12.8v-0.6h0.4c0.5,0.1,0.9,0.1,1.4,0.1c0.5,0,0.9,0,1.4-0.1h0.4v0.6c-0.3,0-0.6,0.1-0.7,0.2
		c-0.2,0.1-0.2,0.4-0.2,0.8v7.5c0,0.3,0.1,0.6,0.3,0.7c0.2,0.1,0.4,0.2,0.7,0.2v0.6h-0.4c-0.9-0.1-1.9-0.1-2.8,0h-0.4v-0.6
		c0.4,0,0.7-0.1,0.8-0.3c0.1-0.2,0.1-0.4,0.1-0.6v-7.5c0-0.4-0.1-0.6-0.2-0.7C89.6,12.9,89.4,12.9,89.1,12.8z M97.6,22.6l-1.1,0.4
		c-0.3,0.1-0.8,0-1.3-0.5c-0.6-0.6-1.1-1.2-1.6-1.9c-0.5-0.7-0.9-1.5-1.3-2.2c-0.4-0.7-0.5-1.2-0.5-1.4c0-0.1,0-0.2,0.1-0.2
		c0.1-0.2,0.3-0.4,0.5-0.5c0.3-0.3,0.8-0.9,1.4-1.5c0.6-0.7,0.9-1.1,1-1.3s0-0.4-0.1-0.5c-0.1,0-0.1,0-0.2,0c-0.2,0-0.5,0-0.7,0
		v-0.6H94c0.4,0.1,0.9,0.1,1.4,0.1c0.5,0,1,0,1.5-0.1h0.4v0.6c0,0,0,0-0.1,0c-0.1,0-0.2,0-0.3,0.1c-0.3,0.1-0.7,0.3-1.1,0.7
		c0,0-0.1,0.1-0.1,0.1c0,0-0.1,0.1-0.1,0.1c-0.7,0.8-1.6,1.7-2.5,2.7c0.7,1.3,1.5,2.5,2.3,3.7c0.8,1.2,1.4,1.8,1.8,1.9
		c0.2,0,0.3,0,0.5-0.1L97.6,22.6z"/>
	<path class="st0" d="M103.7,19.2H101c0,0.1,0,0.1,0,0.2c0,0.1,0,0.1,0,0.2c-0.1,0.4-0.2,0.7-0.2,0.9c-0.1,0.5-0.2,0.9-0.1,1
		c0,0.3,0.2,0.5,0.5,0.6c0,0,0.1,0,0.1,0c0,0,0.1,0,0.1,0c0,0,0.1,0,0.1,0l0,0v0.6H101c-0.8-0.1-1.6-0.1-2.4,0h-0.4v-0.6
		c0.2,0,0.5-0.1,0.7-0.3c0.2-0.2,0.3-0.4,0.4-0.6l3.3-9.7c0-0.2,0.2-0.3,0.3-0.3c0.2,0,0.3,0.1,0.3,0.3l2.9,9.7l0.1,0.2
		c0,0.1,0.1,0.2,0.1,0.3c0.2,0.2,0.5,0.4,0.8,0.5v0.6h-0.5c-0.9-0.1-1.8-0.1-2.7,0h-0.4v-0.6c0.2,0,0.4,0,0.6-0.1
		c0.1-0.1,0.2-0.2,0.3-0.3c0-0.2,0-0.3-0.1-0.5L103.7,19.2z M103.4,18.2l-1-3.6l-1.2,3.6H103.4z"/>
	<path class="st0" d="M107.5,22.7v-0.7c0,0,0.1,0,0.1,0c0.1,0,0.1,0,0.2,0.1c0.1,0,0.1,0,0.2,0c0.2,0,0.5-0.2,0.8-0.6
		c0.3-0.4,0.6-0.8,0.9-1.2c0.3-0.4,0.6-0.9,0.8-1.4c0.3-0.5,0.5-0.9,0.6-1.1c-0.6-0.1-1.2-0.3-1.6-0.8c-0.4-0.4-0.6-1-0.6-1.8
		c0-0.5,0.1-1.1,0.4-1.6c0.2-0.5,0.6-0.9,1.2-1.2c0.6-0.3,1.4-0.4,2.4-0.4c0.1,0,0.3,0,0.5,0c0.2,0,0.4,0,0.7,0
		c0.8,0.1,1.3,0.1,1.7,0.1v0.6l-0.2,0c0,0-0.1,0-0.1,0c0,0-0.1,0-0.1,0c-0.1,0-0.3,0.1-0.4,0.2c-0.1,0.1-0.1,0.3-0.1,0.6l0,7.6
		c0,0.7,0.3,1,1,0.9v0.6h-0.5c-0.9-0.1-1.8-0.1-2.7,0h-0.5v-0.6c0.3,0,0.5-0.1,0.7-0.2c0.2-0.1,0.3-0.4,0.3-0.7V14
		c0-0.4,0-0.7-0.1-0.8c-0.1-0.2-0.4-0.2-0.8-0.2c-0.3,0-0.6,0.1-1,0.4c-0.3,0.3-0.5,0.8-0.5,1.6c0,0.7,0.3,1.3,0.7,1.7
		c0.4,0.4,0.9,0.6,1.5,0.6v0.4c-0.5,1-0.8,1.6-1,1.9c-0.2,0.3-0.2,0.5-0.2,0.5c-0.2,0.4-0.4,0.8-0.7,1.2c-0.4,0.7-0.8,1.2-1,1.5
		s-0.5,0.4-0.8,0.4c-0.2,0-0.5-0.1-0.7-0.1L107.5,22.7z"/>
	<path class="st0" d="M34.2,43h-0.6c0.1-0.5,0.1-1,0.1-1.5c0-0.6-0.1-1-0.3-1.3c-0.1-0.2-0.3-0.4-0.6-0.5c-0.3-0.1-0.6-0.1-0.9,0
		c-0.4,0-0.6,0.1-0.7,0.1h-2c-0.2,0-0.5,0-0.7-0.1c-0.3,0-0.6-0.1-0.9-0.1c-0.4,0-0.8,0.1-1.2,0.1h-0.4v-0.6c0.3,0,0.6-0.1,0.7-0.3
		c0.1-0.1,0.2-0.4,0.2-0.7v-7.5c0-0.4-0.1-0.6-0.2-0.7c-0.2-0.1-0.5-0.2-0.7-0.2V29h0.4c0.5,0.1,1,0.1,1.4,0.1c0.5,0,0.9,0,1.4-0.1
		h0.4v0.6c-0.3,0-0.6,0.1-0.8,0.2c-0.2,0.1-0.3,0.4-0.3,0.7v7.3c0,0.6,0.6,0.9,1.8,0.9c1.1,0,1.7-0.3,1.7-0.9v-7.3
		c0-0.3-0.1-0.6-0.2-0.7c-0.2-0.1-0.5-0.2-0.7-0.2V29h0.4c0.5,0.1,0.9,0.1,1.4,0.1c0.5,0,1,0,1.4-0.1h0.4v0.6
		c-0.3,0-0.5,0.1-0.8,0.2c-0.2,0.1-0.3,0.4-0.3,0.7v7.7c0,0.1,0,0.2,0,0.3c0,0.1,0.1,0.1,0.1,0.2c0.1,0,0.2,0.1,0.3,0
		c0.1,0,0.2,0,0.2,0c0.2,0,0.4,0.1,0.5,0.4c0.1,0.4,0,1-0.2,1.8C34.7,41.7,34.5,42.3,34.2,43z"/>
	<path class="st0" d="M42.4,36.8H43l-0.6,2.9h-2.7c-0.2,0-0.5,0-0.9-0.1c-0.4,0-0.8-0.1-1.1-0.1c-0.5,0-0.9,0-1.4,0.1h-0.4v-0.6
		c0.7,0,1.1-0.3,1.1-1v-7.5c0-0.4-0.1-0.6-0.3-0.7c-0.2-0.2-0.5-0.2-0.8-0.2V29h0.4c0.9,0.1,1.7,0.1,2.6,0.1c0.6,0,1.4-0.1,2.2-0.2
		c0.9-0.1,1.3-0.1,1.2-0.1c0,1.1,0.1,2,0.2,2.8h-0.5c0-0.1,0-0.1,0-0.2c0-0.1,0-0.1-0.1-0.2c0-0.1-0.1-0.2-0.1-0.3
		c0-0.1-0.1-0.2-0.2-0.3c-0.2-0.2-0.5-0.4-1-0.4c-0.7-0.1-1.4-0.1-2.1-0.1v3.7c0.7,0,1.3-0.1,1.6-0.2s0.5-0.6,0.5-1.2h0.5
		c-0.1,0.6-0.1,1.3-0.1,1.9c0,0.7,0,1.3,0.1,2h-0.5c-0.1-0.7-0.3-1.2-0.6-1.4c-0.3-0.2-0.9-0.3-1.6-0.2v3.6c0,0.2,0,0.3,0.1,0.5
		c0.1,0.1,0.3,0.2,0.5,0.2c0.2,0,0.3,0,0.5,0c0.2,0,0.4,0,0.5,0c0.3,0,0.6,0,0.9-0.1C41.7,38.5,42.2,37.9,42.4,36.8z"/>
	<path class="st0" d="M48,31.6l-1.9,6.5c-0.1,0.2-0.1,0.3-0.1,0.5c0.1,0.3,0.3,0.5,0.9,0.5v0.6h-0.4c-0.8-0.1-1.5-0.1-2.3,0h-0.4
		v-0.6c0,0,0.1,0,0.1,0c0,0,0.1,0,0.1,0c0,0,0.1,0,0.1,0c0.2,0,0.4-0.2,0.5-0.3c0.1-0.2,0.2-0.4,0.3-0.6l3.3-9.4
		c0.1-0.2,0.2-0.3,0.3-0.3s0.2,0.1,0.3,0.3l2.7,9.4c0.1,0.2,0.2,0.5,0.3,0.6c0.2,0.2,0.4,0.3,0.7,0.3v0.6h-0.4
		c-0.9-0.1-1.7-0.1-2.6,0h-0.4v-0.6c0.1,0,0.1,0,0.1,0c0.1,0,0.2,0,0.3-0.1c0.2-0.1,0.3-0.2,0.4-0.4c0,0,0-0.2-0.1-0.5L48,31.6z"/>
	<path class="st0" d="M59.8,36.8h0.6l-0.6,2.9h-2.7c-0.2,0-0.5,0-0.9-0.1c-0.4,0-0.8-0.1-1.1-0.1c-0.5,0-0.9,0-1.4,0.1h-0.4v-0.6
		c0.7,0,1.1-0.3,1.1-1v-7.5c0-0.4-0.1-0.6-0.3-0.7c-0.2-0.2-0.5-0.2-0.8-0.2V29h0.4c0.9,0.1,1.7,0.1,2.6,0.1c0.6,0,1.4-0.1,2.2-0.2
		c0.9-0.1,1.3-0.1,1.2-0.1c0.1,1.1,0.1,2,0.2,2.8h-0.5c0-0.1,0-0.1,0-0.2c0-0.1-0.1-0.1-0.1-0.2c0-0.1-0.1-0.2-0.1-0.3
		c0-0.1-0.1-0.2-0.2-0.3c-0.2-0.2-0.5-0.4-1-0.4c-0.7-0.1-1.4-0.1-2.1-0.1v3.7c0.7,0,1.3-0.1,1.6-0.2s0.5-0.6,0.5-1.2h0.5
		c-0.1,0.6-0.1,1.3-0.1,1.9c0,0.7,0,1.3,0.1,2H58c-0.1-0.7-0.3-1.2-0.6-1.4c-0.3-0.2-0.9-0.3-1.6-0.2v3.6c0,0.2,0,0.4,0.2,0.5
		c0.1,0.1,0.3,0.2,0.5,0.2c0.2,0,0.3,0,0.5,0c0.2,0,0.4,0,0.5,0c0.3,0,0.6,0,0.9-0.1C59.1,38.5,59.6,37.9,59.8,36.8z"/>
	<path class="st0" d="M67.6,31.4h-0.7c-0.1-0.3-0.2-0.7-0.4-0.9c-0.1-0.2-0.3-0.3-0.6-0.4C65.7,30,65.4,30,65.1,30
		c-0.3,0-0.7,0-1.1,0v3.5c0.5-0.1,1-0.2,1.6-0.2c0.9,0,1.5,0.3,1.9,0.9c0.4,0.6,0.6,1.3,0.6,2.1c0,0.6-0.1,1.1-0.3,1.6
		c-0.2,0.5-0.6,0.9-1,1.2c-0.5,0.3-1.1,0.5-1.8,0.5c-0.1,0-0.4,0-0.7,0c-0.4,0-0.6,0-0.7,0c-0.1,0-0.3,0-0.4,0c-0.4,0-0.9,0-1.3,0.1
		h-0.5v-0.6c0.3,0,0.5-0.1,0.7-0.3c0.2-0.1,0.2-0.4,0.2-0.7v-7.4c0-0.3-0.1-0.6-0.2-0.7c-0.2-0.2-0.5-0.2-0.7-0.2V29h0.5
		c0.8,0.1,1.5,0.1,2.3,0.1c1.1,0,2.1-0.1,3.2-0.3L67.6,31.4z M64,34.3v3.7c0,0.5,0.3,0.8,0.8,0.8c0.4,0,0.8-0.2,1.1-0.5
		c0.3-0.4,0.4-0.9,0.4-1.6c0-1.2-0.3-1.9-0.9-2.2C65,34.3,64.5,34.3,64,34.3L64,34.3z"/>
	<path class="st0" d="M71.8,34.6v3.6c0,0.1,0,0.2,0,0.2c0,0.1,0,0.2,0,0.3c0.1,0.3,0.4,0.4,0.9,0.5v0.6h-0.4c-0.9-0.1-1.9-0.1-2.8,0
		h-0.4v-0.6c0.3,0,0.5-0.1,0.8-0.2c0.2-0.1,0.2-0.4,0.2-0.7v-7.5c0-0.4-0.1-0.6-0.2-0.7c-0.2-0.1-0.5-0.2-0.7-0.2V29h0.4
		c0.5,0.1,0.9,0.1,1.4,0.1c0.5,0,0.9,0,1.4-0.1h0.4v0.6c-0.5,0-0.8,0.2-0.9,0.4c0,0.1,0,0.2,0,0.3c0,0.1,0,0.1,0,0.2v2.9h0.4
		c0.1,0,0.3,0,0.5,0h0.4c0.1,0,0.2,0,0.4,0c0.1,0,0.3,0,0.4,0s0.3,0,0.4,0c0.2,0,0.4,0,0.5,0c0.1,0,0.3,0,0.4,0v-2.9
		c0-0.4-0.1-0.6-0.2-0.7c-0.2-0.1-0.5-0.2-0.7-0.2V29h0.4c0.5,0.1,0.9,0.1,1.4,0.1c0.5,0,0.9,0,1.4-0.1h0.4v0.6
		c-0.2,0-0.4,0.1-0.5,0.1c-0.1,0.1-0.2,0.2-0.3,0.3C77,30.3,77,30.4,77,30.6v7.5c0,0.3,0.1,0.6,0.2,0.7c0.1,0.1,0.4,0.2,0.8,0.3v0.6
		h-0.4c-0.9-0.1-1.9-0.1-2.8,0h-0.4v-0.6c0.3,0,0.6-0.1,0.8-0.2s0.2-0.4,0.2-0.7v-3.6C74.1,34.7,73,34.7,71.8,34.6L71.8,34.6z"/>
	<path class="st0" d="M84.2,36.1h-2.7c0,0.1,0,0.2-0.1,0.2c0,0.1,0,0.1,0,0.2c-0.1,0.4-0.2,0.7-0.2,0.9c-0.1,0.5-0.2,0.9-0.1,1
		c0,0.3,0.2,0.5,0.5,0.6c0,0,0.1,0,0.1,0c0,0,0.1,0,0.1,0c0,0,0.1,0,0.1,0c0,0,0,0,0,0v0.6h-0.4c-0.8-0.1-1.6-0.1-2.4,0h-0.4v-0.6
		c0.2,0,0.5-0.1,0.7-0.3c0.2-0.2,0.3-0.4,0.4-0.6l3.3-9.7c0-0.2,0.2-0.3,0.3-0.3c0.2,0,0.3,0.1,0.3,0.3l2.9,9.7l0.1,0.2
		c0,0.1,0.1,0.2,0.1,0.3c0.2,0.2,0.5,0.4,0.8,0.5v0.6h-0.5c-0.9-0.1-1.8-0.1-2.7,0H84v-0.6c0.2,0,0.4,0,0.5-0.1
		c0.1-0.1,0.2-0.2,0.3-0.3c0-0.2,0-0.3-0.1-0.5L84.2,36.1z M83.9,35.1l-1-3.6l-1.2,3.6H83.9z"/>
	<path class="st0" d="M87.9,39.6v-0.7c0,0,0.1,0,0.1,0c0.1,0,0.1,0,0.2,0c0.1,0,0.1,0,0.2,0c0.2,0,0.5-0.2,0.8-0.6
		c0.3-0.4,0.6-0.8,0.9-1.2c0.3-0.4,0.6-0.9,0.8-1.4c0.3-0.5,0.5-0.9,0.6-1.1c-0.6-0.1-1.2-0.3-1.6-0.8c-0.4-0.4-0.7-1.1-0.6-1.8
		c0-0.5,0.1-1.1,0.3-1.6c0.2-0.5,0.6-0.9,1.2-1.2c0.6-0.3,1.4-0.4,2.4-0.4c0.1,0,0.3,0,0.5,0l0.7,0c0.8,0.1,1.3,0.1,1.7,0.2v0.6
		l-0.2,0c0,0-0.1,0-0.1,0c0,0-0.1,0-0.1,0c-0.1,0-0.3,0.1-0.4,0.2c-0.1,0.1-0.1,0.3-0.1,0.6l0,7.6c0,0.7,0.3,1,1,0.9v0.6h-0.5
		c-0.9-0.1-1.8-0.1-2.7,0h-0.5v-0.6c0.3,0,0.5-0.1,0.7-0.2c0.2-0.1,0.3-0.4,0.3-0.7v-7.4c0-0.4,0-0.7-0.1-0.8
		c-0.1-0.2-0.4-0.2-0.8-0.2c-0.3,0-0.6,0.1-1,0.4c-0.3,0.3-0.5,0.8-0.5,1.6c0,0.7,0.3,1.3,0.7,1.7c0.4,0.4,0.9,0.6,1.5,0.6v0.4
		c-0.5,1-0.8,1.6-1,1.9c-0.2,0.3-0.2,0.5-0.2,0.5c-0.2,0.4-0.4,0.8-0.6,1.2c-0.4,0.7-0.8,1.2-1,1.5S89.8,40,89.6,40
		c-0.2,0-0.5-0.1-0.7-0.2L87.9,39.6z"/>
</g>
</svg>
