<?xml version="1.0" encoding="utf-8"?>
<!-- Generator: Adobe Illustrator 22.1.0, SVG Export Plug-In . SVG Version: 6.00 Build 0)  -->
<svg version="1.1" id="Слой_1" xmlns="http://www.w3.org/2000/svg" xmlns:xlink="http://www.w3.org/1999/xlink" x="0px" y="0px"
	 viewBox="0 0 120.2 30.8" style="enable-background:new 0 0 120.2 30.8;" xml:space="preserve">
<style type="text/css">
	.st0{fill:#FFFFFF;}
	.st1{enable-background:new    ;}
</style>
<title>Ресурс 1</title>
<g id="Слой_2_1_">
	<g id="Слой_1-2">
		<path class="st0" d="M26,15.7c-4.3,0-7.8-3.5-7.8-7.8C18.2,3.5,21.7,0,26,0c4.3,0,7.8,3.5,7.8,7.8C33.8,12.2,30.3,15.7,26,15.7z
			 M27.7,5.5l-1.5-4.7h-0.4l-1.5,4.7h-4.9l-0.1,0.4l4,2.9l-1.5,4.7c0.1,0.1,0.2,0.2,0.3,0.2l4-2.9l4,2.9l0.3-0.2l-1.6-4.7l4-2.9
			l-0.1-0.4L27.7,5.5z M120,3.3c-0.1,0.2-0.3,0.4-0.5,0.5C119.3,3.9,119,4,118.8,4c-0.2,0-0.5-0.1-0.7-0.2c-0.2-0.1-0.4-0.3-0.5-0.5
			c-0.1-0.2-0.2-0.5-0.2-0.7c0-0.2,0.1-0.5,0.2-0.7c0.1-0.2,0.3-0.4,0.5-0.5c0.2-0.1,0.5-0.2,0.7-0.2c0.2,0,0.5,0.1,0.7,0.2
			c0.2,0.1,0.4,0.3,0.5,0.5c0.1,0.2,0.2,0.5,0.2,0.7C120.1,2.8,120.1,3,120,3.3L120,3.3z M119.7,2c-0.1-0.2-0.2-0.3-0.4-0.4
			c-0.5-0.3-1.2-0.1-1.6,0.4c-0.1,0.2-0.2,0.4-0.2,0.6c0,0.2,0.1,0.4,0.2,0.6c0.1,0.2,0.2,0.3,0.4,0.4c0.2,0.1,0.4,0.1,0.6,0.2
			c0.2,0,0.4-0.1,0.6-0.2c0.2-0.1,0.3-0.2,0.4-0.4c0.1-0.2,0.1-0.4,0.2-0.6C119.9,2.4,119.8,2.2,119.7,2z M119.1,2.8l0.1,0.2
			l0.2,0.3H119l-0.1-0.3c-0.1-0.1-0.1-0.2-0.2-0.3c-0.1,0-0.1-0.1-0.2-0.1h-0.1v0.6h-0.3V1.8h0.8c0.1,0,0.2,0,0.2,0.1
			c0.1,0,0.1,0.1,0.1,0.2c0,0.1,0,0.1,0,0.2c0,0.1,0,0.2-0.1,0.3c-0.1,0.1-0.2,0.1-0.3,0.2c0,0,0.1,0,0.1,0
			C119,2.7,119,2.8,119.1,2.8L119.1,2.8z M118.9,2.4c0.1-0.1,0.1-0.2,0-0.2c0,0-0.1-0.1-0.1-0.1c-0.1,0-0.2,0-0.3,0h-0.1v0.4h0.1
			c0.1,0,0.2,0,0.3,0C118.9,2.5,118.9,2.5,118.9,2.4L118.9,2.4z M109.3,3.9v2.4h4.4v2.7h-4.4v2.6h5.2v2.8h-8.3V1.2h8.6l-0.9,2.7
			L109.3,3.9z M100.2,11.9c0.7,0,1.4-0.2,2-0.4c0.7-0.3,1.4-0.7,2-1.3l-0.2,3.5c-0.6,0.4-1.2,0.7-1.9,0.9c-0.7,0.2-1.4,0.3-2.1,0.3
			c-0.8,0-1.5-0.1-2.3-0.4c-0.7-0.2-1.4-0.6-2-1.1c-0.9-0.7-1.5-1.5-2-2.5c-0.5-1-0.7-2.1-0.7-3.2c0-0.9,0.2-1.9,0.5-2.8
			c0.7-1.7,2-3.1,3.7-3.8c0.9-0.3,1.8-0.5,2.7-0.5c0.7,0,1.5,0.1,2.2,0.3c0.7,0.2,1.4,0.6,1.9,1l-0.3,3.4c-0.5-0.6-1.1-1-1.8-1.4
			c-0.6-0.3-1.2-0.4-1.9-0.4c-1,0-2,0.4-2.8,1.2c-0.7,0.8-1.1,1.9-1.1,3c-0.1,1.1,0.3,2.2,1.1,3C98.1,11.6,99.1,12,100.2,11.9
			L100.2,11.9z M88.7,12.6h-5.4l-0.9,1.9h-3.2l6.8-13.8h0.2l6.7,13.7h-3.3L88.7,12.6L88.7,12.6z M86,6.1l-1.8,4.2h3.5L86,6.1z
			 M79.2,8.4c-1.1,0.8-2.5,1.3-3.9,1.2h-0.6v4.9h-3.2V1.2h3.4c0.8,0,1.7,0.1,2.5,0.2c0.6,0.1,1.2,0.4,1.7,0.8
			C79.6,2.5,80,3,80.2,3.5c0.3,0.5,0.4,1.1,0.4,1.7C80.7,6.5,80.2,7.7,79.2,8.4z M77.1,4c-0.6-0.3-1.3-0.5-2-0.4h-0.4v3.6h0.6
			c0.6,0,1.3-0.1,1.8-0.5c0.4-0.3,0.7-0.8,0.6-1.3C77.8,4.8,77.5,4.3,77.1,4z M64.3,14.9c-0.5,0-1.1-0.1-1.6-0.1
			c-0.6-0.1-1.3-0.3-1.9-0.5l-0.3-3.6c0.7,0.4,1.4,0.7,2.1,1c0.5,0.2,1.1,0.3,1.7,0.3c0.5,0,0.9-0.1,1.3-0.4
			c0.3-0.2,0.5-0.6,0.5-0.9c0-0.6-0.6-1.2-1.8-1.8l-0.4-0.3L63,8.2c-0.8-0.4-1.5-1-2-1.7c-0.4-0.6-0.7-1.4-0.6-2.1
			c0-1,0.4-2,1.2-2.6c0.9-0.7,2-1.1,3.1-1c0.5,0,1,0.1,1.5,0.2c0.6,0.1,1.2,0.3,1.8,0.5v3.1c-0.6-0.4-1.2-0.7-1.8-0.9
			c-0.5-0.2-1-0.3-1.5-0.3c-0.4,0-0.7,0.1-1,0.3c-0.3,0.2-0.4,0.5-0.4,0.8c0,0.2,0.1,0.5,0.3,0.7c0.2,0.2,0.4,0.4,0.7,0.6l1.6,0.9
			c1,0.5,1.9,1.2,2.6,2c0.5,0.6,0.7,1.4,0.7,2.2c0,1.2-0.4,2.3-1.3,3.1C66.9,14.6,65.6,15,64.3,14.9L64.3,14.9z M56.2,14.5l-4.8-6.1
			v6.1h-3.1V1.2h3.1V7l4.4-5.8h3.8l-5,6.3l5.4,7L56.2,14.5z M43.4,14.5l-3.6-5.2h-0.5v5.2h-3.1V1.2h3.4c0.9,0,1.7,0,2.6,0.2
			c0.6,0.1,1.1,0.4,1.6,0.7c1,0.7,1.6,1.8,1.6,3c0,0.8-0.2,1.5-0.6,2.2c-0.5,0.7-1.1,1.2-1.8,1.5l4.1,5.7H43.4z M41.9,4
			c-0.6-0.3-1.3-0.5-2-0.4h-0.5v3.7H40c0.6,0,1.3-0.1,1.8-0.5c0.4-0.3,0.7-0.9,0.6-1.4C42.5,4.9,42.3,4.3,41.9,4z M12.1,14.9
			L9.2,7.3l-2.8,7.6H6.2L0.6,1.2h3.2l2.6,7.2l2.8-7.6h0.3l2.8,7.6l2.6-7.2h3l-5.6,13.8H12.1z"/>
		<g class="st1">
			<path class="st0" d="M29.5,17.8h-1.2v-0.4h3v0.4H30v3.6h-0.5V17.8z"/>
			<path class="st0" d="M33.8,19.5h-1.6V21H34v0.4h-2.3v-4h2.2v0.4h-1.7v1.3h1.6V19.5z"/>
			<path class="st0" d="M35.2,17.4v1.7h2v-1.7h0.5v4h-0.5v-1.9h-2v1.9h-0.5v-4H35.2z"/>
			<path class="st0" d="M41.3,17.4V21l0.4,0l0,1.4h-0.4l0-1h-2.5l0,1h-0.4l0-1.4l0.3,0c0.1-0.3,0.3-0.6,0.4-0.9
				c0.1-0.5,0.2-1,0.2-1.7v-1H41.3z M39.6,18.6c0,0.6-0.1,1.2-0.2,1.6c-0.1,0.3-0.2,0.6-0.3,0.8h1.8v-3.2h-1.3V18.6z"/>
			<path class="st0" d="M44.4,19.5h-1.6V21h1.8v0.4h-2.3v-4h2.2v0.4h-1.7v1.3h1.6V19.5z"/>
			<path class="st0" d="M45.3,17.4c0.3,0,0.6-0.1,1-0.1c0.5,0,0.9,0.1,1.1,0.3c0.2,0.2,0.4,0.5,0.4,0.8c0,0.4-0.1,0.7-0.3,0.9
				c-0.3,0.3-0.7,0.4-1.2,0.4c-0.2,0-0.3,0-0.4,0v1.6h-0.5V17.4z M45.8,19.4c0.1,0,0.3,0,0.4,0c0.6,0,1-0.3,1-0.9
				c0-0.5-0.4-0.8-1-0.8c-0.2,0-0.4,0-0.5,0V19.4z"/>
			<path class="st0" d="M49,17.4v1.7h2v-1.7h0.5v4H51v-1.9h-2v1.9h-0.5v-4H49z"/>
			<path class="st0" d="M53.1,20.1l-0.4,1.3h-0.5l1.4-4h0.6l1.4,4h-0.6l-0.4-1.3H53.1z M54.4,19.7L54,18.6c-0.1-0.3-0.1-0.5-0.2-0.7
				h0c-0.1,0.2-0.1,0.5-0.2,0.7l-0.4,1.2H54.4z"/>
			<path class="st0" d="M55.7,21.4c0.1-0.1,0.1-0.2,0.2-0.4c0.2-0.5,0.3-1,0.6-1.4c0.1-0.1,0.2-0.2,0.3-0.2v0
				c-0.5-0.1-0.9-0.4-0.9-1c0-0.4,0.1-0.6,0.4-0.8c0.3-0.2,0.6-0.3,1.2-0.3c0.3,0,0.7,0,1,0.1v4h-0.5v-1.8h-0.4
				c-0.3,0-0.4,0.1-0.6,0.2c-0.3,0.3-0.4,0.9-0.5,1.3c0,0.1-0.1,0.2-0.1,0.3H55.7z M57.9,17.8c-0.1,0-0.3,0-0.5,0
				c-0.5,0-1,0.2-1,0.8c0,0.5,0.4,0.8,1,0.8c0.2,0,0.3,0,0.4,0V17.8z"/>
		</g>
		<g class="st1">
			<path class="st0" d="M63.5,17.4v4H63v-3.6h-1.9v3.6h-0.5v-4H63.5z"/>
		</g>
		<g class="st1">
			<path class="st0" d="M67.1,17.4v4h-0.5v-3.6h-1.3V19c0,0.9,0,1.9-0.6,2.2c-0.1,0.1-0.4,0.2-0.6,0.2L64,21c0.2,0,0.3-0.1,0.4-0.2
				c0.3-0.3,0.4-1.1,0.4-1.8v-1.7H67.1z"/>
			<path class="st0" d="M71.5,19.4c0,1.4-0.8,2.1-1.9,2.1c-1.1,0-1.8-0.8-1.8-2.1c0-1.3,0.8-2.1,1.9-2.1
				C70.8,17.3,71.5,18.2,71.5,19.4z M68.3,19.4c0,0.9,0.5,1.6,1.3,1.6c0.8,0,1.3-0.8,1.3-1.7c0-0.8-0.4-1.6-1.3-1.6
				C68.8,17.7,68.3,18.5,68.3,19.4z"/>
		</g>
		<g class="st1">
			<path class="st0" d="M72.7,17.4V21H74v-3.6h0.5V21h1.3v-3.6h0.5V21l0.4,0l0,1.4h-0.4l0-1h-4v-4H72.7z"/>
		</g>
		<g class="st1">
			<path class="st0" d="M78,20.1l-0.4,1.3h-0.5l1.4-4h0.6l1.4,4h-0.6l-0.4-1.3H78z M79.3,19.7l-0.4-1.2c-0.1-0.3-0.2-0.5-0.2-0.7h0
				c-0.1,0.2-0.1,0.5-0.2,0.7l-0.4,1.2H79.3z"/>
		</g>
		<g class="st1">
			<path class="st0" d="M84,17.4V21l0.4,0l0,1.4h-0.4l0-1h-2.5l0,1h-0.4l0-1.4l0.3,0c0.2-0.3,0.3-0.6,0.4-0.9c0.1-0.5,0.2-1,0.2-1.7
				v-1H84z M82.2,18.6c0,0.6-0.1,1.2-0.2,1.6c-0.1,0.3-0.2,0.6-0.3,0.8h1.8v-3.2h-1.3V18.6z"/>
		</g>
		<g class="st1">
			<path class="st0" d="M85.5,17.4v1.8h0.2l1.4-1.8h0.6l-1.5,1.9c0.7,0.1,0.9,0.5,1.1,1c0.1,0.4,0.3,0.8,0.4,1.1h-0.6
				c-0.1-0.3-0.3-0.6-0.4-1c-0.2-0.5-0.4-0.9-1.1-0.9h-0.2v1.9H85v-4H85.5z"/>
		</g>
		<g class="st1">
			<path class="st0" d="M88.9,20.1l-0.4,1.3H88l1.4-4H90l1.4,4h-0.6l-0.4-1.3H88.9z M90.2,19.7l-0.4-1.2c-0.1-0.3-0.1-0.5-0.2-0.7h0
				c-0.1,0.2-0.1,0.5-0.2,0.7L89,19.7H90.2z"/>
		</g>
	</g>
</g>
</svg>
