<svg id="Layer_1" data-name="Layer 1" xmlns="http://www.w3.org/2000/svg" viewBox="0 0 423.04 235.79"><defs><style>.cls-1,.cls-2{fill:#fff;}.cls-2{fill-rule:evenodd;}</style></defs><title>world-expo</title><path id="_Составной_контур_" data-name="&lt;Составной контур&gt;" class="cls-1" d="M174.28,372.6H154l-6.14-43.37-5.79,43.37H124.63L115,294h15.38l4.3,36.29L140.55,294h19.28l4.66,36.29L170.26,294h14l-10,78.61Zm30.05.87q-18.42,0-18.42-13.43V322q0-13.44,18.42-13.43a24.62,24.62,0,0,1,12.52,3.12q5.4,3.12,5.4,9.76v39.19q0,12.89-17.92,12.88Zm2.44-52c0-2.09-.89-3.13-2.66-3.13s-2.72,1-2.72,3.13v39c0,2.16.91,3.23,2.72,3.23s2.66-1.07,2.66-3.23v-39Zm39.82,13.81V321.51c0-1.94-.89-2.91-2.66-2.91s-2.66.93-2.66,2.8v51.2H225.78V309h15.49v2.14q3.09-2.58,9.56-2.57a12.82,12.82,0,0,1,7.93,2.49,7.83,7.83,0,0,1,3.32,6.55v17.76Zm18.53,37.28V294H280.6V372.6Zm43.53,0-1.31-2.14a14.58,14.58,0,0,1-9,3,17.76,17.76,0,0,1-10.11-2.79,8.75,8.75,0,0,1-4.16-7.62V317.34a7.54,7.54,0,0,1,3.29-6.44,13.25,13.25,0,0,1,8-2.38c4.28,0,7.48.78,9.58,2.35V294h15.49V372.6Zm-3.77-51.42c0-1.87-.88-2.8-2.66-2.8s-2.71,1-2.71,2.91V360.7c0,1.94.9,2.91,2.71,2.91s2.66-1,2.66-2.91V321.18Zm72.32,41.33V372.6H343.73V294H377v10.09H360.85v21.27H375.4v9.53H360.85v27.63Zm44.11,10.09H404.25l-5.32-17.27-5,17.27H378.45l12.11-33.66-11.79-30h16.36l5.27,16.51L404.58,309H419.3l-10.37,30.76,12.38,32.89Zm35-1.54a13,13,0,0,1-8,2.41q-6.48,0-9.64-2.35v15H423.27V309H435l1.31,2.58a14.12,14.12,0,0,1,9-3,18.74,18.74,0,0,1,9.78,2.68,8.51,8.51,0,0,1,4.49,7.73v45.72a7.6,7.6,0,0,1-3.26,6.41Zm-12.22-49.77c0-1.94-.89-2.91-2.66-2.91s-2.72,1-2.72,2.91v39.52c0,1.86.91,2.8,2.72,2.8s2.66-1,2.66-2.91V321.29Zm36.95,52.18q-18.42,0-18.42-13.43V322q0-13.44,18.42-13.43a24.62,24.62,0,0,1,12.52,3.12q5.4,3.12,5.4,9.76v39.19q0,12.89-17.92,12.88Zm2.44-52c0-2.09-.89-3.13-2.66-3.13s-2.72,1-2.72,3.13v39c0,2.16.9,3.23,2.72,3.23s2.66-1.07,2.66-3.23v-39Z" transform="translate(-76 -150.29)"/><path id="_Составной_контур_2" data-name="&lt;Составной контур&gt;" class="cls-2" d="M186.62,276s54.27-.18,78.5,12.57c-28.5-9.57-78.5-9-78.5-9l-16.06,7.17s8.28-6.13,14.27-9c0-5.65,0-16.16,0-16.16l-16.05,9,16.05-10.78V243.65l-14.27,10.78L163.42,285l7.14-52.07,14.27-14.36s68.4-2.18,80.29,59.25c-2.36-6.3-5.35-12.57-5.35-12.57s-21.46-19.55-73.15-23.34v14.36s50.09,3.24,78.5,21.55c-30.29-16.9-78.5-18-78.5-18V276Zm-1.79-52.06-12.48,10.77-1.79,16.16,14.27-10.77V223.91Zm74.94,39.5C245,227.48,196,219.16,186.62,222.11v16.16s52.55,6.3,73.15,25.14ZM179.48,155.68l3.57,53.86-7.14-50.27L165.21,170l-3.57,21.55,7.14,43.09-10.71-43.09,5.35,64.63-8.92-66.43-3.56-3.59v46.68l-3.57-48.47-1.79-1.8V288.54L142,184.41h-1.78l-5.35,89.77L136.66,188l-3.57,3.59-8.92,64.63,5.35-62.84-25,102.34,19.62-95.15L76,374.72l44.6-176L142,177.22,158.07,188l3.57-18,19.63-19.75,12.49,12.57,16.05,55.66-19.63-55.66-10.7-7.18Z" transform="translate(-76 -150.29)"/><g id="_Группа_" data-name="&lt;Группа&gt;"><path id="_Составной_контур_3" data-name="&lt;Составной контур&gt;" class="cls-1" d="M431.49,214.36h-2.31v-15.2h-8.27v15.2h-2.3v-17h12.88Z" transform="translate(-76 -150.29)"/><path id="_Составной_контур_4" data-name="&lt;Составной контур&gt;" class="cls-1" d="M434.73,207.92a7,7,0,0,1,1.52-4.62,5.1,5.1,0,0,1,4.12-1.82,5.16,5.16,0,0,1,4.16,1.82,6.93,6.93,0,0,1,1.52,4.62v.26a7,7,0,0,1-1.52,4.63,5.67,5.67,0,0,1-8.28,0,6.93,6.93,0,0,1-1.52-4.62Zm2.3.25a6,6,0,0,0,.85,3.32,3.07,3.07,0,0,0,5,0,6,6,0,0,0,.85-3.32v-.25a6,6,0,0,0-.86-3.31,2.8,2.8,0,0,0-2.52-1.31,2.75,2.75,0,0,0-2.49,1.31,6,6,0,0,0-.85,3.31Z" transform="translate(-76 -150.29)"/><path id="_Составной_контур_5" data-name="&lt;Составной контур&gt;" class="cls-1" d="M459.64,208.52a7,7,0,0,1-1.31,4.41,4.32,4.32,0,0,1-3.61,1.67,5,5,0,0,1-2.05-.39,3.88,3.88,0,0,1-1.5-1.17v6.18h-2.3v-17.5h1.76l.36,1.63a4.29,4.29,0,0,1,1.55-1.39,4.58,4.58,0,0,1,2.15-.48,4.22,4.22,0,0,1,3.65,1.87,8.47,8.47,0,0,1,1.3,4.92Zm-2.3-.25a6.71,6.71,0,0,0-.85-3.53,2.73,2.73,0,0,0-2.49-1.39,3.08,3.08,0,0,0-1.7.45,3.36,3.36,0,0,0-1.13,1.23v6.11a3.33,3.33,0,0,0,1.13,1.22,3.21,3.21,0,0,0,1.72.43,2.83,2.83,0,0,0,2.48-1.19,5.27,5.27,0,0,0,.84-3.09Z" transform="translate(-76 -150.29)"/><path id="_Составной_контур_6" data-name="&lt;Составной контур&gt;" class="cls-1" d="M472,203.53h-4.17v10.83h-2.3V203.53h-4.11v-1.81H472Z" transform="translate(-76 -150.29)"/><path id="_Составной_контур_7" data-name="&lt;Составной контур&gt;" class="cls-1" d="M482.05,214.36c-.08-.38-.14-.72-.18-1a6.54,6.54,0,0,1-.08-.88,5.48,5.48,0,0,1-1.68,1.52,4.27,4.27,0,0,1-2.22.61,4.1,4.1,0,0,1-3-1,3.7,3.7,0,0,1-1-2.78,3.27,3.27,0,0,1,1.46-2.84,6.88,6.88,0,0,1,4-1h2.5V205.7a2.34,2.34,0,0,0-.68-1.76,2.66,2.66,0,0,0-1.91-.64,2.76,2.76,0,0,0-1.81.56,1.71,1.71,0,0,0-.69,1.36h-2.2l0-.07a3,3,0,0,1,1.3-2.52,5.37,5.37,0,0,1,3.55-1.15,5.19,5.19,0,0,1,3.45,1.1,3.84,3.84,0,0,1,1.31,3.15v6.08c0,.45,0,.89.07,1.31a6.67,6.67,0,0,0,.26,1.24Zm-3.82-1.7a4.07,4.07,0,0,0,2.25-.64,3,3,0,0,0,1.31-1.46v-2.05h-2.58a3.35,3.35,0,0,0-2.23.7,2.09,2.09,0,0,0-.83,1.64,1.73,1.73,0,0,0,.52,1.33A2.24,2.24,0,0,0,478.23,212.66Z" transform="translate(-76 -150.29)"/><path id="_Составной_контур_8" data-name="&lt;Составной контур&gt;" class="cls-1" d="M497.68,201.72v12.64h-2.3V203.53H491.1v3.58a11.59,11.59,0,0,1-1,5.49,3.57,3.57,0,0,1-3.39,1.76h-.65l0-1.94h.48a1.72,1.72,0,0,0,1.71-1.2,11.83,11.83,0,0,0,.49-4.08v-5.41Z" transform="translate(-76 -150.29)"/><path id="_Составной_контур_9" data-name="&lt;Составной контур&gt;" class="cls-1" d="M319.39,240.06h.07l4.14-9.63h2.87v12.64h-2.3V234.3l-.07,0-3.88,8.8h-1.59l-3.95-9-.07,0v9h-2.3V230.43h3Z" transform="translate(-76 -150.29)"/><path id="_Составной_контур_10" data-name="&lt;Составной контур&gt;" class="cls-1" d="M335.29,243.32a5.34,5.34,0,0,1-4.2-1.76,6.61,6.61,0,0,1-1.56-4.56v-.52a6.49,6.49,0,0,1,1.61-4.49,5,5,0,0,1,3.8-1.79,4.78,4.78,0,0,1,3.87,1.54,6.16,6.16,0,0,1,1.31,4.11v1.44h-8.2l0,.06a5,5,0,0,0,.92,3,3,3,0,0,0,2.49,1.17,5.61,5.61,0,0,0,2-.34,4.68,4.68,0,0,0,1.53-.91l.9,1.49a5.32,5.32,0,0,1-1.79,1.12A7.18,7.18,0,0,1,335.29,243.32ZM334.94,232a2.47,2.47,0,0,0-2,1,4.61,4.61,0,0,0-1,2.44l0,.06h5.83v-.3a3.52,3.52,0,0,0-.73-2.26A2.57,2.57,0,0,0,334.94,232Z" transform="translate(-76 -150.29)"/><path id="_Составной_контур_11" data-name="&lt;Составной контур&gt;" class="cls-1" d="M352.77,237.58H351.3v5.49H349v-5.49h-1.49l-3.34,5.49h-2.9l4.51-6.7-4.11-5.94h2.78l3.11,5.21H349v-5.21h2.3v5.21h1.44l3.12-5.21h2.78l-4.13,5.94,4.51,6.7h-2.9Z" transform="translate(-76 -150.29)"/><path id="_Составной_контур_12" data-name="&lt;Составной контур&gt;" class="cls-1" d="M360.88,241.26a8.58,8.58,0,0,0,1.48-2.34,12,12,0,0,0,.69-3.74l.19-4.75h8.26v10.83h1.68l-.22,5.53h-2.08v-3.72h-8.69v3.72h-2.08l-.22-5.53Zm4.47-6.08a14.32,14.32,0,0,1-.6,3.58,8.33,8.33,0,0,1-1.22,2.5h5.67v-8.78h-3.74Z" transform="translate(-76 -150.29)"/><path id="_Составной_контур_13" data-name="&lt;Составной контур&gt;" class="cls-1" d="M379.46,238.39l.4,1.59h.07l3.11-9.55h2.56L380.29,245a6.5,6.5,0,0,1-1.38,2.22,3.16,3.16,0,0,1-2.41,1,4.2,4.2,0,0,1-.71-.07,6.61,6.61,0,0,1-.67-.12l.23-1.81.42,0,.61,0a1.44,1.44,0,0,0,1.21-.66,6.62,6.62,0,0,0,.78-1.44l.55-1.32-4.7-12.39h2.57Z" transform="translate(-76 -150.29)"/><path id="_Составной_контур_14" data-name="&lt;Составной контур&gt;" class="cls-1" d="M397.86,243.07h-2.3v-5.36h-5.64v5.36h-2.3V230.43h2.3v5.47h5.64v-5.47h2.3Z" transform="translate(-76 -150.29)"/><path id="_Составной_контур_15" data-name="&lt;Составной контур&gt;" class="cls-1" d="M409,243.07c-.08-.38-.14-.72-.18-1a8.46,8.46,0,0,1-.08-.88,5.1,5.1,0,0,1-1.67,1.52,4.29,4.29,0,0,1-2.23.62,4.16,4.16,0,0,1-3-1,3.72,3.72,0,0,1-1-2.79,3.25,3.25,0,0,1,1.47-2.83,6.83,6.83,0,0,1,4-1h2.5v-1.25a2.32,2.32,0,0,0-.67-1.76,2.64,2.64,0,0,0-1.92-.65,2.78,2.78,0,0,0-1.81.57,1.7,1.7,0,0,0-.69,1.36h-2.2l0-.07a3.08,3.08,0,0,1,1.3-2.53,5.38,5.38,0,0,1,3.55-1.14,5.23,5.23,0,0,1,3.46,1.09,3.88,3.88,0,0,1,1.31,3.15v6.09a11,11,0,0,0,.07,1.3,6.49,6.49,0,0,0,.25,1.24Zm-3.82-1.69a4.19,4.19,0,0,0,2.26-.64,3,3,0,0,0,1.3-1.47v-2.05h-2.58a3.32,3.32,0,0,0-2.22.7,2.07,2.07,0,0,0-.84,1.64,1.74,1.74,0,0,0,.53,1.33A2.19,2.19,0,0,0,405.17,241.38Z" transform="translate(-76 -150.29)"/><path id="_Составной_контур_16" data-name="&lt;Составной контур&gt;" class="cls-1" d="M425.15,237.23a7,7,0,0,1-1.31,4.41,4.31,4.31,0,0,1-3.61,1.68,5,5,0,0,1-2.05-.39,3.91,3.91,0,0,1-1.5-1.18v6.18h-2.3v-17.5h1.76l.36,1.64a4.2,4.2,0,0,1,1.55-1.39,4.58,4.58,0,0,1,2.15-.48,4.21,4.21,0,0,1,3.65,1.86,8.51,8.51,0,0,1,1.3,4.93Zm-2.3-.25a6.62,6.62,0,0,0-.85-3.53,2.74,2.74,0,0,0-2.49-1.38,3.08,3.08,0,0,0-1.7.45,3.36,3.36,0,0,0-1.13,1.23v6.1a3.25,3.25,0,0,0,1.13,1.22,3.21,3.21,0,0,0,1.72.44,2.84,2.84,0,0,0,2.48-1.2,5.27,5.27,0,0,0,.84-3.09Z" transform="translate(-76 -150.29)"/><path id="_Составной_контур_17" data-name="&lt;Составной контур&gt;" class="cls-1" d="M427.44,236.64A7,7,0,0,1,429,232a5.09,5.09,0,0,1,4.12-1.81,5.16,5.16,0,0,1,4.16,1.81,7,7,0,0,1,1.52,4.63v.25a6.94,6.94,0,0,1-1.52,4.63,5.65,5.65,0,0,1-8.28,0,6.93,6.93,0,0,1-1.52-4.62Zm2.3.25a5.94,5.94,0,0,0,.85,3.31,3.06,3.06,0,0,0,5,0,6,6,0,0,0,.85-3.31v-.26a6,6,0,0,0-.86-3.3,2.81,2.81,0,0,0-2.52-1.32,2.76,2.76,0,0,0-2.49,1.32,6,6,0,0,0-.85,3.3Z" transform="translate(-76 -150.29)"/><path id="_Составной_контур_18" data-name="&lt;Составной контур&gt;" class="cls-1" d="M441.44,241.26a8.83,8.83,0,0,0,1.48-2.34,12.62,12.62,0,0,0,.69-3.74l.19-4.75h8.26v10.83h1.68l-.22,5.53h-2.08v-3.72h-8.7v3.72h-2.07l-.23-5.53Zm4.47-6.08a14.79,14.79,0,0,1-.6,3.58,8.57,8.57,0,0,1-1.22,2.5h5.66v-8.78H446Z" transform="translate(-76 -150.29)"/><path id="_Составной_контур_19" data-name="&lt;Составной контур&gt;" class="cls-1" d="M466.38,243.07h-2.3v-5.36h-5.63v5.36h-2.3V230.43h2.3v5.47h5.63v-5.47h2.3Z" transform="translate(-76 -150.29)"/><path id="_Составной_контур_20" data-name="&lt;Составной контур&gt;" class="cls-1" d="M472.4,235.24h3.14a5.15,5.15,0,0,1,3.49,1.08,3.52,3.52,0,0,1,1.24,2.79A3.66,3.66,0,0,1,479,242a5.08,5.08,0,0,1-3.48,1.11H470.1V230.43h2.3Zm0,1.82v4.2h3.14a2.5,2.5,0,0,0,1.83-.59,2,2,0,0,0,.59-1.48,2.13,2.13,0,0,0-.6-1.5,2.38,2.38,0,0,0-1.82-.63Zm12.4,6h-2.3V230.43h2.3Z" transform="translate(-76 -150.29)"/><path id="_Составной_контур_21" data-name="&lt;Составной контур&gt;" class="cls-1" d="M492.92,235.09l2.69-4.66h2.69l-4.1,6.25,4.22,6.39h-2.64L493,238.29l-2.8,4.78H487.5l4.22-6.39-4.1-6.25h2.65Z" transform="translate(-76 -150.29)"/><path id="_Составной_контур_22" data-name="&lt;Составной контур&gt;" class="cls-1" d="M390.39,271.79V259.14h5a7.27,7.27,0,0,1,3.88.87,2.9,2.9,0,0,1,1.38,2.62,2.5,2.5,0,0,1-.54,1.58,3.39,3.39,0,0,1-1.52,1.06,3.32,3.32,0,0,1,1.84,1.09,2.78,2.78,0,0,1,.66,1.83,3.06,3.06,0,0,1-1.29,2.68,6.14,6.14,0,0,1-3.6.92Zm2.3-7.31h2.7a4.41,4.41,0,0,0,2.2-.43,1.4,1.4,0,0,0,.75-1.3,1.47,1.47,0,0,0-.75-1.34,4.37,4.37,0,0,0-2.21-.45h-2.69Zm0,1.77V270h3.5a3.12,3.12,0,0,0,1.92-.49,1.61,1.61,0,0,0,.66-1.39,1.63,1.63,0,0,0-.66-1.39,3.12,3.12,0,0,0-1.92-.49Z" transform="translate(-76 -150.29)"/><path id="_Составной_контур_23" data-name="&lt;Составной контур&gt;" class="cls-1" d="M406.63,264h3.14a5.2,5.2,0,0,1,3.49,1.07,3.53,3.53,0,0,1,1.25,2.8,3.62,3.62,0,0,1-1.26,2.84,5.09,5.09,0,0,1-3.48,1.12h-5.44V259.14h2.3Zm0,1.81V270h3.14a2.46,2.46,0,0,0,1.83-.59,2,2,0,0,0,.59-1.47,2.13,2.13,0,0,0-.59-1.5,2.38,2.38,0,0,0-1.83-.64Zm12.41,6h-2.3V259.14H419Z" transform="translate(-76 -150.29)"/><path id="_Составной_контур_24" data-name="&lt;Составной контур&gt;" class="cls-1" d="M428,270.22a3.11,3.11,0,0,0,2-.71,2.15,2.15,0,0,0,.87-1.73H433l0,.07a3.56,3.56,0,0,1-1.46,2.91A5.27,5.27,0,0,1,428,272a5.13,5.13,0,0,1-4.22-1.8,7,7,0,0,1-1.46-4.52v-.49a6.88,6.88,0,0,1,1.47-4.5,5.75,5.75,0,0,1,7.84-.5,4.06,4.06,0,0,1,1.36,3.21l0,.07H430.9a2.7,2.7,0,0,0-.82-2,2.82,2.82,0,0,0-2.07-.81,2.79,2.79,0,0,0-2.59,1.3,6.2,6.2,0,0,0-.77,3.19v.49a6.13,6.13,0,0,0,.77,3.23A2.77,2.77,0,0,0,428,270.22Z" transform="translate(-76 -150.29)"/><path id="_Составной_контур_25" data-name="&lt;Составной контур&gt;" class="cls-1" d="M445.31,261h-4.17v10.83h-2.3V261h-4.11v-1.82h10.58Z" transform="translate(-76 -150.29)"/><path id="_Составной_контур_26" data-name="&lt;Составной контур&gt;" class="cls-1" d="M455.4,271.79c-.08-.39-.14-.72-.18-1a6.4,6.4,0,0,1-.08-.88,5.39,5.39,0,0,1-1.68,1.53,4.27,4.27,0,0,1-2.22.61,4.15,4.15,0,0,1-3-1,3.71,3.71,0,0,1-1-2.79,3.25,3.25,0,0,1,1.46-2.83,6.88,6.88,0,0,1,4-1h2.5v-1.25a2.33,2.33,0,0,0-.68-1.76,2.66,2.66,0,0,0-1.91-.65,2.78,2.78,0,0,0-1.81.57,1.71,1.71,0,0,0-.69,1.36h-2.2l0-.07a3,3,0,0,1,1.3-2.52,5.31,5.31,0,0,1,3.54-1.15,5.2,5.2,0,0,1,3.46,1.09,3.85,3.85,0,0,1,1.31,3.15v6.09c0,.45,0,.89.07,1.31a6.67,6.67,0,0,0,.26,1.24Zm-3.82-1.7a4.07,4.07,0,0,0,2.25-.64,3.06,3.06,0,0,0,1.31-1.47v-2.05h-2.58a3.4,3.4,0,0,0-2.23.7,2.12,2.12,0,0,0-.83,1.64,1.72,1.72,0,0,0,.52,1.33A2.2,2.2,0,0,0,451.58,270.09Z" transform="translate(-76 -150.29)"/><path id="_Составной_контур_27" data-name="&lt;Составной контур&gt;" class="cls-1" d="M460.8,271.79V259.14h5a7.27,7.27,0,0,1,3.88.87,2.9,2.9,0,0,1,1.38,2.62,2.5,2.5,0,0,1-.54,1.58,3.35,3.35,0,0,1-1.51,1.06,3.35,3.35,0,0,1,1.84,1.09,2.78,2.78,0,0,1,.66,1.83,3,3,0,0,1-1.3,2.68,6.14,6.14,0,0,1-3.6.92Zm2.3-7.31h2.7a4.46,4.46,0,0,0,2.2-.43,1.41,1.41,0,0,0,.74-1.3,1.47,1.47,0,0,0-.75-1.34,4.35,4.35,0,0,0-2.21-.45H463.1Zm0,1.77V270h3.49a3.18,3.18,0,0,0,1.93-.49,1.63,1.63,0,0,0,.65-1.39,1.65,1.65,0,0,0-.65-1.39,3.18,3.18,0,0,0-1.93-.49Z" transform="translate(-76 -150.29)"/><path id="_Составной_контур_28" data-name="&lt;Составной контур&gt;" class="cls-1" d="M473.85,265.35a6.92,6.92,0,0,1,1.52-4.62,5.62,5.62,0,0,1,8.27,0,6.93,6.93,0,0,1,1.53,4.63v.25a6.94,6.94,0,0,1-1.52,4.63,5.66,5.66,0,0,1-8.28,0,6.92,6.92,0,0,1-1.52-4.63Zm2.3.25a6,6,0,0,0,.84,3.31,3.06,3.06,0,0,0,5,0,5.92,5.92,0,0,0,.86-3.31v-.26A6,6,0,0,0,482,262a2.83,2.83,0,0,0-2.52-1.32A2.79,2.79,0,0,0,477,262a6,6,0,0,0-.84,3.3Z" transform="translate(-76 -150.29)"/><path id="_Составной_контур_29" data-name="&lt;Составной контур&gt;" class="cls-1" d="M491.91,266.42H490.4v5.37h-2.3V259.14h2.3v5.34h1.33l4.17-5.34h2.7l0,.06-5,6,5.36,6.53,0,.06h-2.83Z" transform="translate(-76 -150.29)"/></g></svg>