<?xml version="1.0" encoding="UTF-8"?>
<svg width="24px" height="17px" viewBox="0 0 24 17" version="1.1" xmlns="http://www.w3.org/2000/svg" xmlns:xlink="http://www.w3.org/1999/xlink">
    <!-- Generator: Sketch 48.1 (47250) - http://www.bohemiancoding.com/sketch -->
    <title>insta_icn</title>
    <desc>Created with Sketch.</desc>
    <defs></defs>
    <g id="Extra-large-+--1920" stroke="none" stroke-width="1" fill="none" fill-rule="evenodd" transform="translate(-1828.000000, -3187.000000)">
        <g id="desktop" transform="translate(-17.000000, 0.000000)" fill="#FFFFFF" fill-rule="nonzero">
            <g id="screen-03" transform="translate(0.000000, 2009.000000)">
                <g id="footer" transform="translate(201.000000, 1176.000000)">
                    <g id="social-icns" transform="translate(1593.000000, 0.000000)">
                        <g id="insta_icn" transform="translate(51.000000, 2.000000)">
                            <path d="M3,2 C2.44771525,2 2,2.44771525 2,3 L2,14 C2,14.5522847 2.44771525,15 3,15 L21,15 C21.5522847,15 22,14.5522847 22,14 L22,3 C22,2.44771525 21.5522847,2 21,2 L3,2 Z M3,0 L21,0 C22.6568542,-3.04359188e-16 24,1.34314575 24,3 L24,14 C24,15.6568542 22.6568542,17 21,17 L3,17 C1.34314575,17 2.02906125e-16,15.6568542 0,14 L0,3 C-2.02906125e-16,1.34314575 1.34314575,1.19253761e-15 3,0 Z" id="Rectangle-6"></path>
                            <path d="M10.7696924,10.2303076 L15.0326582,10.2303076 L12.9011753,7.03308327 L10.7696924,10.2303076 Z M14.5652759,5.92368288 L16.6967588,9.12090724 C17.3094637,10.0399646 17.0611159,11.2817033 16.1420586,11.8944082 C15.8135235,12.1134316 15.4275082,12.2303076 15.0326582,12.2303076 L10.7696924,12.2303076 C9.66512286,12.2303076 8.76969236,11.3348771 8.76969236,10.2303076 C8.76969236,9.83545767 8.88656842,9.44944228 9.10559177,9.12090724 L11.2370747,5.92368288 C11.8497796,5.0046255 13.0915183,4.75627777 14.0105757,5.36898269 C14.2302802,5.5154524 14.4188061,5.70397831 14.5652759,5.92368288 Z" id="Triangle-2" transform="translate(12.901282, 8.631589) rotate(90.000000) translate(-12.901282, -8.631589) "></path>
                        </g>
                    </g>
                </g>
            </g>
        </g>
    </g>
</svg>