<?xml version="1.0" encoding="utf-8"?>
<!-- Generator: Adobe Illustrator 22.1.0, SVG Export Plug-In . SVG Version: 6.00 Build 0)  -->
<svg version="1.1" id="Слой_1" xmlns="http://www.w3.org/2000/svg" xmlns:xlink="http://www.w3.org/1999/xlink" x="0px" y="0px"
	 viewBox="0 0 319 73.7" style="enable-background:new 0 0 319 73.7;" xml:space="preserve">
<style type="text/css">
	.st0{fill:#FFFFFF;}
</style>
<title>Ресурс 1</title>
<g id="Слой_2_1_">
	<g id="Слой_1-2">
		<g id="_Layer_1">
			<g id="_278383976">
				<polygon class="st0" points="128.7,9.9 128.7,5.6 89.3,5.6 89.3,11.6 119.9,11.6 87.9,53.8 87.9,58 129.4,58 129.4,52 96.5,52 
									"/>
				<polygon class="st0" points="136.4,58 142.3,58 142.3,24.3 136.4,24.3 				"/>
				<path class="st0" d="M139.5,8.1c-2-0.1-3.8,1.4-3.9,3.5c0,0,0,0.1,0,0.1c-0.1,2.1,1.5,3.8,3.6,3.9c0.1,0,0.2,0,0.3,0
					c2,0,3.7-1.7,3.7-3.7c0-0.1,0-0.1,0-0.2C143.2,9.7,141.6,8,139.5,8.1C139.6,8.1,139.5,8.1,139.5,8.1z"/>
				<path class="st0" d="M169.1,23.8c-4.2,0-8.1,1.8-11,4.8v-4.1h-6v33.7h6V33.8c2.4-2.7,5.9-4.3,9.5-4.3c6.3,0,9.5,3.3,9.5,10.4
					v18.4h6V38.7C183.1,28.1,177.8,23.8,169.1,23.8L169.1,23.8z"/>
				<path class="st0" d="M222.7,23.7l-9.9,2.4c-2.5-1.7-5.5-2.5-8.6-2.4c-8.5,0-13.8,5.6-13.8,12.4c-0.1,4.9,3,9.3,7.6,11.1
					c-0.6,0.8-0.9,1.9-0.9,2.9c0,1,0.2,1.9,0.8,2.7c-6.4,1.4-10.8,4.8-10.8,10.3c0,7.3,7.3,10.7,17.1,10.7s17.1-3.5,17.1-10.7
					s-7.4-10.9-17.1-10.9c-0.6,0-1.4,0.1-2,0.1c-0.4-0.7-0.7-1.4-0.6-2.2c0-0.6,0.1-1.3,0.4-1.9c0.7,0.1,1.5,0.1,2.2,0.1
					c8.4,0,13.8-5.4,13.8-12.2c0-2.1-0.5-4.1-1.6-5.8l6.3-1.6L222.7,23.7L222.7,23.7z M204.3,57L204.3,57c7.2,0,11.5,2.2,11.5,6
					c0,3.8-4.5,5.8-11.5,5.8s-11.5-2.1-11.5-5.8S197.1,57,204.3,57z M204.3,43.3L204.3,43.3c-5,0-8.1-3.1-8.1-7.3s3.2-7.5,8.1-7.5
					s8.1,3.3,8.1,7.5S208.9,43.3,204.3,43.3L204.3,43.3z"/>
				<path class="st0" d="M239,23.6c-4,0-7.8,1.1-11.2,3.1l1.6,4.8c2.8-1.7,6-2.5,9.3-2.5c6.7,0,7.6,4.3,7.6,10.6
					c-2.2-1.7-5.8-2.2-8.4-2.2c-7.3,0-12.7,3.8-12.7,10.7c0,6.5,4.2,10.4,10.4,10.4c5.6,0,8.8-2.3,10.8-4.9v4.3h5.7V37.5
					c0-8.8-3.4-13.8-13-13.8L239,23.6z M246.3,48.9L246.3,48.9c-2.1,2.7-5.3,4.3-8.7,4.3c-3.9,0-6.1-2.1-6.1-5.3
					c0-3.9,3.6-5.5,7.2-5.5c2.7-0.1,5.3,0.7,7.6,2.2L246.3,48.9L246.3,48.9z"/>
				<path class="st0" d="M275.5,45.7c-0.6,1.8-1.1,3.5-1.6,5.2c-0.6-1.7-1.3-3.4-2-5.1L262,24.3h-7.2L271,58l-0.7,1.8
					c-2.2,5.4-4.3,7.6-7.2,7.6c-1.3-0.1-2.6-0.5-3.7-1.2l-2,4.5c1.8,1.3,4.1,2.1,6.3,2.1c4.8,0,7.9-3,12.9-15l13.5-33.7h-6.8
					l-7.8,21.4V45.7z"/>
				<path class="st0" d="M306.1,23.6c-4,0-7.8,1.1-11.2,3.1l1.6,4.8c2.8-1.7,6-2.5,9.3-2.5c6.7,0,7.6,4.3,7.6,10.6
					c-2.2-1.7-5.8-2.2-8.4-2.2c-7.3,0-12.7,3.8-12.7,10.7c0,6.5,4.2,10.4,10.4,10.4c5.5,0,8.8-2.3,10.8-4.9v4.3h5.7V37.5
					c0-8.8-3.4-13.8-13-13.8L306.1,23.6z M313.3,48.9L313.3,48.9c-2.1,2.7-5.3,4.3-8.7,4.3c-3.9,0-6-2.1-6-5.3
					c0-3.9,3.6-5.5,7.2-5.5c2.7-0.1,5.3,0.7,7.6,2.2L313.3,48.9L313.3,48.9z"/>
				<path class="st0" d="M57.7,19.1c3-7,6-12.6,6-12.6l-8.2-6.4c0,0-2.6,0.2-3,0.2c-9.1,13.2-8.9,29.2-8.9,31s-0.2,17.7,8.9,31
					c0.3,0,3,0.2,3,0.2l8.1-6.5c0,0-3-5.6-6-12.6c-2,0.3-4,0.5-6,0.6c0,0-1.6-4-1.7-12.7s1.7-12.7,1.7-12.7
					C53.8,18.6,55.8,18.8,57.7,19.1z"/>
				<path class="st0" d="M34.2,16.3H2.5c-1.4,0.2-2.4,1.4-2.2,2.8c0.1,1.1,1,2,2.2,2.2h31.7c1.4-0.2,2.4-1.4,2.2-2.8
					C36.2,17.3,35.3,16.4,34.2,16.3z"/>
				<path class="st0" d="M34.2,27.9H12.9c-1.4,0.2-2.4,1.4-2.2,2.8c0.1,1.1,1,2,2.2,2.2h21.3c1.4-0.2,2.4-1.4,2.2-2.8
					C36.2,29,35.3,28.1,34.2,27.9z"/>
				<path class="st0" d="M34.2,39.6H23.5c-1.4,0.2-2.4,1.4-2.2,2.8c0.1,1.1,1,2,2.2,2.2h10.7c1.4,0.2,2.6-0.8,2.8-2.2
					c0.2-1.4-0.8-2.6-2.2-2.8C34.6,39.6,34.4,39.6,34.2,39.6z"/>
			</g>
			<g id="_272421384">
				<path class="st0" d="M158.8,29.5c2.9-3,6.9-4.7,11-4.8c5,0,8.9,1.4,11.3,4.6c-2.3-3.9-6.4-5.6-12-5.6c-3.8,0.1-7.5,1.5-10.4,4.1
					L158.8,29.5z"/>
				<path class="st0" d="M191.1,36.9c0-6.8,5.3-12.4,13.8-12.4c3-0.1,6,0.8,8.6,2.5l9.3-2.2v-1.1l-9.9,2.4c-2.5-1.7-5.5-2.5-8.6-2.5
					c-8.5,0-13.8,5.6-13.8,12.4c0,2.5,0.8,5,2.3,7c-1.1-1.8-1.6-3.9-1.6-6H191.1z"/>
				<path class="st0" d="M205,69.8c7,0,11.5-2,11.5-5.8c0-1.1-0.4-2.1-1.1-2.9c0.3,0.6,0.4,1.2,0.4,1.9c0,3.8-4.5,5.8-11.5,5.8
					c-5,0-8.7-1.1-10.4-3.1c1.2,2.6,5.4,4,11.2,4L205,69.8z"/>
				<path class="st0" d="M11,31.4c0-1.4,1.1-2.5,2.5-2.5h21.3c0.6,0,1.2,0.2,1.7,0.6c-0.4-1-1.3-1.6-2.4-1.7H12.8
					c-1.4,0-2.5,1.1-2.5,2.5c0,0.7,0.3,1.4,0.8,1.9C11,32,11,31.7,11,31.4L11,31.4z"/>
				<polygon class="st0" points="90.1,6.6 128.7,6.6 128.7,5.6 89.3,5.6 89.3,11.6 90.1,11.6 				"/>
				<polygon class="st0" points="97.2,53.1 129.4,53.1 129.4,52 97.9,52 				"/>
				<path class="st0" d="M204.3,52c-0.6,0-1.2,0.1-1.9,0.1c0.1,0.4,0.3,0.7,0.5,1c0.6,0,1.4-0.1,2-0.1c6.9,0,12.6,1.7,15.3,5.3
					C217.9,54.1,211.8,52,204.3,52z"/>
				<path class="st0" d="M296.7,31.3l-1.2-3.7c3.4-2,7.3-3.1,11.2-3.1c5.1,0,8.4,1.4,10.4,4.1c-1.9-3.3-5.4-5-11.1-5
					c-4,0-7.8,1.1-11.2,3.1l1.6,4.8c0.1-0.1,0.2-0.1,0.3-0.1V31.3z"/>
				<path class="st0" d="M314,45.6l-0.6-0.4v3.7c-2.1,2.7-5.3,4.3-8.7,4.3c-1.8,0.1-3.6-0.6-4.8-1.9c0.9,1.8,2.7,2.9,5.5,2.9
					c3.4,0,6.6-1.6,8.7-4.3L314,45.6L314,45.6z"/>
				<path class="st0" d="M204.9,44.2c4.8,0,8.1-3,8.1-7.3c0-1.7-0.5-3.3-1.5-4.6c0.6,1.1,0.9,2.3,0.9,3.6c0,4.3-3.4,7.3-8.1,7.3
					c-2.6,0.1-5-0.9-6.7-2.9C198.8,42.6,201.5,44.1,204.9,44.2L204.9,44.2z"/>
				<path class="st0" d="M274.5,51.8c0.4-1.7,1-3.4,1.6-5.2l7.8-21.4h5.8l0.4-1h-6.8l-7.8,21.4c-0.6,1.7-1,3.2-1.4,4.8
					C274.2,50.9,274.4,51.3,274.5,51.8L274.5,51.8z"/>
				<path class="st0" d="M247,45.6l-0.6-0.4v3.7c-2.1,2.7-5.3,4.3-8.7,4.3c-1.8,0.1-3.6-0.6-4.8-1.9c0.9,1.8,2.7,2.9,5.5,2.9
					c3.4,0,6.6-1.6,8.6-4.3V45.6z"/>
				<path class="st0" d="M229.6,31.3l-1.2-3.7c3.4-2,7.3-3.1,11.2-3.1c5.1,0,8.4,1.4,10.4,4.1c-1.9-3.3-5.4-5-11.1-5
					c-4,0-7.8,1.1-11.2,3.1l1.6,4.8c0.1-0.1,0.2-0.1,0.3-0.1V31.3z"/>
				<path class="st0" d="M0.7,19.7c0-1.4,1.1-2.5,2.5-2.5h31.7c0.6,0,1.2,0.2,1.7,0.6c-0.4-1-1.3-1.6-2.4-1.7H2.5
					c-1.4,0-2.5,1.1-2.5,2.5c0,0.7,0.3,1.4,0.8,1.9C0.7,20.3,0.7,20,0.7,19.7L0.7,19.7z"/>
				<path class="st0" d="M225.8,49.2c0-6.9,5.5-10.7,12.7-10.7c2.6,0,6.1,0.5,8.4,2.2c0-3.6-0.4-6.6-1.9-8.5c1,1.9,1.2,4.5,1.2,7.5
					c-2.2-1.7-5.8-2.2-8.4-2.2c-7.3,0-12.7,3.8-12.7,10.7c-0.1,2.4,0.7,4.8,2.1,6.8C226.2,53.2,225.7,51.2,225.8,49.2z"/>
				<path class="st0" d="M21.7,43c0-1.4,1.1-2.5,2.5-2.5h10.7c0.6,0,1.2,0.2,1.7,0.7c-0.4-1-1.3-1.6-2.4-1.7H23.5
					c-1.4,0-2.5,1.2-2.5,2.5c0,0.7,0.3,1.4,0.8,1.9C21.7,43.6,21.7,43.3,21.7,43L21.7,43z"/>
				<path class="st0" d="M187.8,63.9c0-5.5,4.3-8.9,10.8-10.3c-0.6-0.8-0.8-1.8-0.8-2.8c0-1,0.3-2.1,0.9-2.9c-0.4-0.1-0.6-0.3-1-0.4
					c-0.4,0.7-0.6,1.5-0.6,2.3c0,1,0.2,2,0.8,2.8c-6.4,1.4-10.8,4.8-10.8,10.3c0,2,0.6,3.9,1.8,5.5C188.2,67,187.8,65.5,187.8,63.9z
					"/>
				<path class="st0" d="M314,54.7c-0.2,0.3-0.4,0.5-0.6,0.8v2.6h0.6V54.7z"/>
				<path class="st0" d="M177.8,58V40.7c0-3.2-0.6-5.6-2-7.3c0.9,2,1.4,4.1,1.2,6.3V58H177.8L177.8,58z"/>
				<path class="st0" d="M292.9,49.2c0-6.9,5.5-10.7,12.7-10.7c2.6,0,6.1,0.5,8.4,2.2c0-3.6-0.4-6.6-1.9-8.5c1,1.9,1.2,4.5,1.2,7.5
					c-2.2-1.7-5.8-2.2-8.4-2.2c-7.3,0-12.7,3.8-12.7,10.7c-0.1,2.4,0.7,4.8,2.1,6.8C293.3,53.2,292.8,51.2,292.9,49.2z"/>
				<path class="st0" d="M263,67.5c-1.3-0.1-2.6-0.5-3.7-1.2l-2,4.5c0.3,0.2,0.6,0.4,0.9,0.5l1.7-4.1c1.2,0.6,2.4,1,3.8,1.2
					c2.9,0,5-2.2,7.2-7.6l0.7-1.8l-16.2-33.7h7l-0.4-1h-7.2L270.9,58l-0.7,1.8C268,65.2,265.9,67.4,263,67.5L263,67.5z"/>
				<path class="st0" d="M247,54.7c-0.2,0.3-0.4,0.5-0.6,0.8v2.6h0.6V54.7z"/>
				<path class="st0" d="M58.2,44.4c-0.1-0.4-0.3-0.7-0.4-1c-1.9,0.3-3.7,0.5-5.6,0.6c0.1,0.3,0.2,0.7,0.3,1
					C54.3,44.9,56.3,44.8,58.2,44.4L58.2,44.4z"/>
				<path class="st0" d="M44.4,32.3c-0.1-1.7-0.2-17.7,8.9-31c0.3,0,3-0.2,3-0.2l7.3,5.7c0.1-0.1,0.1-0.2,0.2-0.4L55.6,0
					c0,0-2.6,0.2-3,0.2c-9.1,13.2-8.9,29.2-8.9,31c0,1.8-0.2,17.7,8.9,31l0,0C44.2,49.2,44.4,34,44.4,32.3L44.4,32.3z"/>
				<polygon class="st0" points="88.6,54.8 120.6,12.6 119.2,12.6 87.9,53.8 87.9,58 88.6,58 				"/>
				<path class="st0" d="M136.3,12.7c0-2,1.7-3.6,3.8-3.6c0,0,0.1,0,0.1,0c1,0,2,0.4,2.7,1.1c-0.9-1.9-3.2-2.7-5.1-1.8
					c-1.2,0.6-2.1,1.8-2.1,3.2c-0.1,1,0.3,2,1,2.7C136.4,13.8,136.3,13.2,136.3,12.7z"/>
				<polygon class="st0" points="137,25.3 142.3,25.3 142.3,24.3 136.4,24.3 136.4,58 137,58 				"/>
				<polygon class="st0" points="152.7,25.3 158,25.3 158,24.3 152.1,24.3 152.1,58 152.7,58 				"/>
			</g>
		</g>
	</g>
</g>
</svg>
