<svg id="Layer_1" data-name="Layer 1" xmlns="http://www.w3.org/2000/svg" viewBox="0 0 165 165"><defs><style>.cls-1,.cls-2{fill:#fff;}.cls-2{fill-rule:evenodd;}</style></defs><title>bis_journal</title><path class="cls-1" d="M165,165H0V0H165ZM5,160H160V5H5Z" transform="translate(0)"/><path class="cls-2" d="M24.43,17.58H52.35c12.46,0,13.22,9.53,13.22,15.75V47.55A16.06,16.06,0,0,1,65,51.81H47.75c0-.19,0-.38,0-.58V31.68c0-2.79-1.39-4.44-3.28-4.44H42.22V51.81H24.43V17.58m49.14,0h17.8V51.81H73.57ZM99.28,51.39V33.31c0-6.2.77-15.73,13.22-15.73h14.7c12.46,0,13.22,9.53,13.22,15.73v18.5h-1.67l-16.12-6.87V30.15a2.83,2.83,0,0,0-2.78-2.91,2.72,2.72,0,0,0-2.77,2.91v14c0,3.06-.36,5.53,3.5,7.63H99.29ZM42.22,55.67h2.27a2.81,2.81,0,0,0,1.79-.61h17.3a10.29,10.29,0,0,1-1.33,1.58H24.43V55.06H42.22Zm22.56-3a10.77,10.77,0,0,1-.69,1.57H47a4.63,4.63,0,0,0,.6-1.57Zm26.59,1.57H73.57V52.65h17.8Zm30.87-1.57,3.13,1.57h-26c-.06-.55-.09-1.07-.1-1.57Zm-80,1.57H24.43V52.65H42.22Zm31.35.84h17.8v1.58H73.57Zm53.47,0,3.12,1.58H99.81c-.13-.53-.22-1.06-.3-1.58Zm6.77,3.41a9.2,9.2,0,0,1,1,.58H100.62a12.94,12.94,0,0,1-.59-1.57h31.8Zm-60.24-1h17.8v1.57H73.57Zm-49.14,0H61.24A11,11,0,0,1,58,59.05H24.43Z" transform="translate(0)"/><path class="cls-2" d="M65.57,72.4V90.22a36.59,36.59,0,0,1-.19,4.08H47.32a6.14,6.14,0,0,0,.45-2.44V69.75c0-2.78-1.39-4.43-3.28-4.43H42.22v29H24.43V62.39H61.48c4,2.79,4.09,7.82,4.09,10m25.8,21.9H73.57V62.39h17.8Zm31.26-.93V77.06c0-3.54-1-6.2-4.67-7.84l-13.21-5.94a7.7,7.7,0,0,1-1.51-.89h35a16.06,16.06,0,0,1,2.17,8.73V90.21a39.22,39.22,0,0,1-.18,4.09H122.48A2.92,2.92,0,0,0,122.63,93.37Zm-18.14,10.57a9.54,9.54,0,0,1-1.86-1.57h34.44a9.54,9.54,0,0,1-1.86,1.57Zm-2.55-2.41a11.51,11.51,0,0,1-1-1.57h37.73a11.58,11.58,0,0,1-1,1.57Zm-10.57,2.41H73.57v-1.57h17.8Zm0-2.41H73.57V100h17.8Zm0-2.41H73.57V97.55h17.8Zm-66.94,4.82v-1.57H62.22a9.32,9.32,0,0,1-1.87,1.57Zm0-2.41V100H63.86a11.51,11.51,0,0,1-1,1.57Zm76.18-2.41a14.54,14.54,0,0,1-.54-1.57h39.56a14.48,14.48,0,0,1-.53,1.57Zm-9.24-2.41H73.57V95.14h17.8Zm-26.59.84a14.54,14.54,0,0,1-.54,1.57H24.43V97.55ZM42.22,96.28h2.27a2.88,2.88,0,0,0,2.33-1.14H65.28c-.08.52-.17,1-.29,1.57H24.43V95.14H42.22Zm85,9.65H112.5a16.12,16.12,0,0,1-6.43-1.15h27.57A16.21,16.21,0,0,1,127.2,105.93Zm-7.35-9.65a2.68,2.68,0,0,0,2.21-1.14h18.07c-.07.52-.17,1-.29,1.57h-40c-.12-.52-.21-1-.29-1.57h18A2.83,2.83,0,0,0,119.85,96.28ZM99.28,69.22l17.8,7.59V93.37a3.77,3.77,0,0,0,.11.93H99.47a36.77,36.77,0,0,1-.19-4.09Zm-7.91,36.71H73.57v-1.15h17.8Zm-66.94,0v-1.15H58.78a16.12,16.12,0,0,1-6.43,1.15ZM101.14,60h35a11.14,11.14,0,0,1,1.4,1.44H102.2A8.22,8.22,0,0,1,101.14,60ZM73.57,60h17.8v1.44H73.57ZM24.43,60H53.49v.41a15.1,15.1,0,0,1,6.29,1H24.43Z" transform="translate(0)"/><path class="cls-2" d="M81,130.89h1.07a1.47,1.47,0,0,0,1.55-1.56v-9.69a1.47,1.47,0,0,0-1.55-1.56H81v12.81m39.35,3h2.85l-1.22-15h-.41Zm-.42,4.89-.09,1.14h-6.77l.14-1.14Zm3.93,2.9-.09-1.15h6.79l.14,1.15Zm16.54-3.51h-7.08V137h7.08Zm-10.06.61.15,1.14h-6.78l-.09-1.14Zm10.06,2.9h-7.08V140.5h7.08Zm-36.69,1.76-.42-1.15h7.08v1.15Zm6.66-6.42v1.15h-8.58l-.41-1.15Zm-7.94,2.9-.41-1.14h8.35v1.14Zm-12.66-1.14.34,1.14h-7l-.28-1.14ZM74,137H81v1.15H74Zm10,6.42-.28-1.15h7.15l.34,1.15Zm14.69-1.76h-5V140.5h5Zm-17.65,0H74V140.5H81Zm-10.3.61a3.51,3.51,0,0,1-.66,1.15H55.25a3.48,3.48,0,0,1-.65-1.15Zm.31-4.12H64V137h7.08Zm-9.69,1.75H54.29v-1.14h7.07Zm-10.31,2.37a3.66,3.66,0,0,1-.65,1.15H35.57a3.66,3.66,0,0,1-.65-1.15Zm-19.88,0a3.48,3.48,0,0,1-.65,1.15H16.2a3.48,3.48,0,0,1-.65-1.15Zm111.88-3.51h7.08v1.14h-7.08Zm-120.74-.61H15.23V137h7.08Zm120.74,2.36h7.08v1.15h-7.08Zm-9.69,1.76h16.77v1.15H133.36Zm9.69-5.27h7.08v1.15h-7.08Zm-12.89,0,.15,1.15h-6.7l-.09-1.15Zm10.28,2.9h-7.08v-1.14h7.08ZM124,143.41l-.09-1.15h6.87l.15,1.15Zm-11.37,0,.14-1.15h6.87l-.09,1.15Zm.22-1.76.14-1.15h6.8l-.1,1.15Zm.44-3.51.14-1.15h6.65l-.1,1.15ZM93.65,137h5v1.15h-5Zm9.46,4.66-.42-1.15h7.72v1.15Zm-4.42,1.76h-5v-1.15h5Zm0-3.52h-5v-1.14h5Zm-17.65,0H74v-1.14H81ZM74,142.26H81v1.15H74Zm9.6-.61-.28-1.15h7l.34,1.15Zm-.86-3.51L82.42,137h6.86l.34,1.15Zm-21.35,0H54.29V137h7.07Zm9.69,1.75H64v-1.14h7.08Zm-19.68-1.75H44.29V137h7.08Zm-9.69,0H34.6V137h7.08ZM24.41,137h7.08v1.15H24.41Zm118.64-2.83,7.08-2.58v4.8h-7.08Zm-9.69-19h7.08v21.22h-7.08Zm16.77,29.7H133.36V144h16.77Zm-19,0h-7l-.07-.84H131Zm-14.94-29.7h11.22l2.65,21.22H113.55Zm-3.73,29.7.11-.84h7l-.07.84Zm-2.07,0h-6.14L104,144h6.44Zm-16.76-29.7h6.14l5.33,14.75h.26V115.16h5v21.22H101.2L99,130.16h-.26v6.22h-5Zm5,29.7h-5V144h5Zm-17.65,0H74V144H81Zm.6-11.05H81v2.57H74V115.16H85.48c5,0,5.25,2.88,5.25,5.06v9.69a3.15,3.15,0,0,1-2.58,3.37l.94,3.1H82.27Zm10,11.05H84.36l-.2-.84H91.4Zm-25.86,0H59.54A6.47,6.47,0,0,1,56,144H69.38A6.47,6.47,0,0,1,65.79,144.86ZM64,115.45h7.08v20.93H64ZM64,141v-.46H71a9,9,0,0,1-.13,1.15H63.6A.87.87,0,0,0,64,141Zm-2.61,0a.82.82,0,0,0,.34.69H54.43a6.43,6.43,0,0,1-.13-1.15h7.06Zm-7.07-25.51h7.07v20.93H54.29ZM41.68,140.93a.87.87,0,0,0,.35.72H34.75a7.5,7.5,0,0,1-.13-1.15h7.06Zm2.61,0v-.43h7.06a6.43,6.43,0,0,1-.13,1.15H43.91A.92.92,0,0,0,44.29,140.93Zm1.82,3.93H39.86a6.47,6.47,0,0,1-3.59-.84H49.7A6.47,6.47,0,0,1,46.11,144.86Zm5.26-5v0H44.29v-1.14h7.08ZM34.6,120.18c0-2.14.31-5,5.26-5h6.25c5,0,5.26,2.88,5.26,5v16.2H44.29v-17.3a1.17,1.17,0,0,0-1.3-1c-.48,0-1.31.22-1.31,1v17.3H34.6Zm0,19.66v-1.09h7.08v1.14H34.6ZM24.41,141v-.45h7.07a7.52,7.52,0,0,1-.14,1.15H24.11A1,1,0,0,0,24.41,141Zm-2.1,0a.89.89,0,0,0,.28.7H15.38a6.43,6.43,0,0,1-.13-1.15h7.06Zm-7.08-8.21,7.08,2.58v1.06H15.23Zm0,7.14v-1.13h7.08v1.14H15.23Zm11,5H20.49A6.47,6.47,0,0,1,16.9,144H29.82A6.47,6.47,0,0,1,26.23,144.86Zm5.26-5H24.41v-1.14h7.08Zm-7.08-24.72h7.08v21.22H24.41Z" transform="translate(0)"/></svg>