<svg id="Layer_1" data-name="Layer 1" xmlns="http://www.w3.org/2000/svg" viewBox="0 0 383.8 78.92"><defs><style>.cls-1{fill:#fff;}.cls-1,.cls-2,.cls-3{fill-rule:evenodd;}.cls-2{fill:#a5c44b;}.cls-3{fill:#1b1831;}</style></defs><title>event-live</title><path class="cls-1" d="M114.68,369.86v11.57h17.6a21.17,21.17,0,0,1,2.39.17c1.14.18,1.78.68,1.78,1.75a51.71,51.71,0,0,1-.27,5.95c-.13,1.22-1,1.77-2.39,1.84-.92.09-1.84.11-2.75.11H114.7V403.6c.3,0,.61.08.92.08q10.62,0,21.22,0c2.53,0,3.42.76,3.39,3.14,0,1.17-.06,2.37-.13,3.53-.14,2.28-1.07,3.14-3.53,3.17s-5.16.07-7.75.06c-4.34,0-8.68.05-13-.07a23.4,23.4,0,0,1-5-.66c-4.67-1.11-7.3-4-7.81-8.44a29.74,29.74,0,0,1-.2-3.38V363.83a12.62,12.62,0,0,1,.08-1.95c.2-1.22.74-1.73,2.11-1.74,2.06-.06,4.13-.05,6.22-.06l25.15-.05c.32,0,.64,0,1,0,1.9.1,2.74.69,2.85,2.44a28.27,28.27,0,0,1-.13,4.95,2.38,2.38,0,0,1-2.42,2.24c-1.39.14-2.8.17-4.19.18-5.85,0-11.67,0-17.52,0Z" transform="translate(-102.8 -347.74)"/><path class="cls-1" d="M197.32,400.22c.07,3.26,1.68,4.93,5.06,5,3.53.07,7.08-.1,10.61-.13,1.91,0,3.82.05,5.73.11.75,0,1.29.26,1.29,1.09,0,1.91.14,3.86.11,5.83,0,.27-.52.73-.89.82-1.57.35-3.16.65-4.75.88a48,48,0,0,1-12.49.53,38.13,38.13,0,0,1-6.81-1.23c-5.28-1.5-8-5-8.34-10.18a163,163,0,0,1,0-19.14c.24-4.05,2.91-7.37,7.28-8.83a33.58,33.58,0,0,1,18.72-.44c4.86,1.14,7.14,3.65,7.71,8.34a25.5,25.5,0,0,1,.05,7.75c-.8,4.42-3.63,7.06-8.23,7.91-2.9.56-5.86.82-8.81,1.1-2,.23-4.11.39-6.23.56Zm-.24-8c3.59-.35,7.13-.61,10.67-1.06a2.56,2.56,0,0,0,2.22-2.28,16.38,16.38,0,0,0,.09-3.89,3.37,3.37,0,0,0-3.09-3c-.88-.17-1.73-.37-2.62-.49-4.13-.49-6.77,1.29-7.25,5.15A52.17,52.17,0,0,0,197.08,392.19Z" transform="translate(-102.8 -347.74)"/><path class="cls-1" d="M229,396.33c0-4.92,0-9.82,0-14.73a4.11,4.11,0,0,1,2.65-4,38.78,38.78,0,0,1,24.48-3.26c3.66.67,6,2.72,6.5,6.29a79.23,79.23,0,0,1,.68,10.07c.14,6.72.09,13.46.09,20.17a7.76,7.76,0,0,1-.13,1.59,2.31,2.31,0,0,1-2.43,2,66.66,66.66,0,0,1-6.95-.54c-1.17-.12-1.69-1-1.69-2.4,0-3.93,0-7.88,0-11.8,0-4.11,0-8.24,0-12.36,0-.35,0-.7,0-1.06-.16-2-1.07-2.89-3.28-2.88a45.84,45.84,0,0,0-5.62.35c-2.11.27-3,1.27-3.15,3.28-.14,2.18-.19,4.32-.19,6.49,0,5.91,0,11.78,0,17.64,0,.42,0,.83,0,1.24a2.18,2.18,0,0,1-2.31,2.08c-2.35-.08-4.7-.32-7-.58-1.07-.12-1.54-1-1.55-2.27,0-3.27,0-6.58,0-9.85v-5.4Z" transform="translate(-102.8 -347.74)"/><path class="cls-1" d="M163.62,401.65q2.25-7.87,4.47-15.76c.82-2.87,1.64-5.75,2.48-8.65.12-.43.28-.85.43-1.27a2.89,2.89,0,0,1,2.77-2.1c2.21-.1,4.46-.19,6.67-.09,1.95.12,2.8,1.22,2.21,3-.94,2.89-2.09,5.79-3.2,8.71-3.26,8.51-6.58,17-9.86,25.57a11.7,11.7,0,0,1-.83,1.79,3.55,3.55,0,0,1-3.5,1.75c-1.11-.08-2.23-.18-3.32-.34a5.2,5.2,0,0,1-4.51-3.33c-4.15-10.8-8.34-21.58-12.49-32.35a10.86,10.86,0,0,1-.64-2.49,1.73,1.73,0,0,1,1.6-2.16A20.83,20.83,0,0,1,154,374a2.79,2.79,0,0,1,2,2.05q1,3.07,1.9,6.14,2.68,9.41,5.35,18.77a5.62,5.62,0,0,0,.21.67Z" transform="translate(-102.8 -347.74)"/><path class="cls-1" d="M285.81,384.05v2.65c.05,5.19.07,10.41.13,15.59,0,1.6.66,2.32,2.34,2.56s3.35.4,5,.51c1,.07,1.61.48,1.7,1.44.15,1.74.34,3.46.46,5.23.05.82-.7,1.23-1.38,1.39-4.55,1.37-9.17,1.81-13.74,0a8.11,8.11,0,0,1-5.38-7c-.33-2.93-.28-5.91-.33-8.85,0-4.08,0-8.15,0-12.25v-1.09c-1.09-.13-2.15-.25-3.22-.39-2-.24-2.48-.69-2.48-2.55,0-1.48.05-3,.19-4.51a2.59,2.59,0,0,1,2.3-2.29,16.75,16.75,0,0,1,2.46-.35c.53-.06.8-.21.79-.76-.05-1.86,0-3.72-.08-5.6-.07-1.7.48-2.48,2.33-2.74s3.48-.41,5.22-.48c2-.06,2.87.58,3.11,2.39.26,2,.26,3.95.33,6,.07,1.31.06,1.31,1.51,1.31,1.85,0,3.69,0,5.54-.06a2.72,2.72,0,0,1,2.67,2.14,12.31,12.31,0,0,1,0,2.78c-.06.89-.26,1.72-.31,2.56-.13,1.63-1,2.39-2.77,2.39h-6.4Z" transform="translate(-102.8 -347.74)"/><path class="cls-1" d="M314.4,357.49s.48-9.11,9.53-9.56c2.53-.12,14.53-.19,30.46-.19h20.06c39.35,0,87.08.19,87.08.19s24.59,1.9,24.92,21.64c.09,5.85.14,12.47.15,18.85v5c0,13.1-.15,24.13-.15,24.13s-1.9,9.13-10.16,9.13H337.88s-23.48-1-23.48-23.09V357.49Zm55.07,51.72h9.22V367.37h-9.22v41.84ZM332,367.37v41.86h30.09v-8.35H341.26V367.37Zm101.95,0v41.86h31.88V401H443.14v-8.79h19.73v-8.19H443.14v-8.5h22.4v-8.18Zm-48.42,0,16.91,42.17h8.15l16.91-42.17h-9.93l-10.94,29.49-10.94-29.49Z" transform="translate(-102.8 -347.74)"/><path class="cls-2" d="M369.47,409.21h9.22V367.37h-9.22v41.84ZM332,367.37h9.22v33.51h20.87v8.35H332V367.37Zm101.95,0h31.55v8.18h-22.4v8.5h19.73v8.19H443.14V401h22.73v8.2H434V367.37Zm-48.42,0h10.16l10.94,29.49,10.94-29.49h9.93l-16.91,42.17h-8.15Z" transform="translate(-102.8 -347.74)"/><path class="cls-3" d="M369.47,409.21h9.22V367.37h-9.22v41.84ZM332,367.37h9.22v33.51h20.87v8.35H332V367.37Zm101.95,0h31.55v8.18h-22.4v8.5h19.73v8.19H443.14V401h22.73v8.2H434V367.37Zm-48.42,0h10.16l10.94,29.49,10.94-29.49h9.93l-16.91,42.17h-8.15Z" transform="translate(-102.8 -347.74)"/></svg>