<?xml version="1.0" encoding="utf-8"?>
<!-- Generator: Adobe Illustrator 22.1.0, SVG Export Plug-In . SVG Version: 6.00 Build 0)  -->
<svg version="1.1" xmlns="http://www.w3.org/2000/svg" xmlns:xlink="http://www.w3.org/1999/xlink" x="0px" y="0px"
	 viewBox="0 0 283.5 283.5" style="enable-background:new 0 0 283.5 283.5;" xml:space="preserve">
<style type="text/css">
	.st0{display:none;}
	.st1{fill:#FFFFFF;}
</style>
<g id="Слой_4" class="st0">
	
		<image style="display:inline;overflow:visible;" width="250" height="250" xlink:href="27EE480305633A24.jpg"  transform="matrix(1 0 0 1 14.9082 16.9707)">
	</image>
</g>
<g id="Слой_6">
	<g id="Слой_2">
	</g>
	<g id="Слой_3">
	</g>
</g>
<g id="Слой_5">
	<g>
		<g>
			<g>
				<path class="st1" d="M78.6,258.6c-1.1,0-2-0.3-2.6-1c-0.6-0.7-0.9-1.6-0.9-2.7c0-0.8,0.1-1.6,0.3-2.5c0.2-0.9,0.6-1.7,1.1-2.4
					c0.5-0.7,1.1-1.3,1.9-1.8c0.8-0.5,1.7-0.7,2.8-0.7c1.1,0,2,0.3,2.6,1c0.6,0.7,0.9,1.6,0.9,2.7c0,0.8-0.1,1.6-0.3,2.5
					c-0.2,0.9-0.6,1.7-1.1,2.4c-0.5,0.7-1.1,1.3-1.9,1.8C80.7,258.4,79.7,258.6,78.6,258.6z M79,257c0.6,0,1.2-0.2,1.6-0.5
					c0.5-0.3,0.9-0.8,1.2-1.3c0.3-0.5,0.6-1.2,0.8-1.8c0.2-0.7,0.3-1.3,0.3-1.9c0-0.7-0.1-1.2-0.4-1.6c-0.3-0.4-0.8-0.6-1.5-0.6
					c-0.6,0-1.2,0.2-1.6,0.5c-0.5,0.4-0.9,0.8-1.2,1.3c-0.3,0.5-0.6,1.2-0.8,1.8c-0.2,0.7-0.3,1.3-0.3,1.9c0,0.7,0.1,1.2,0.4,1.6
					C77.7,256.8,78.2,257,79,257z"/>
				<path class="st1" d="M98.2,247.6c0.6,0,1.1,0.1,1.5,0.3c0.4,0.2,0.7,0.4,1,0.7c0.3,0.3,0.4,0.7,0.5,1.1c0.1,0.4,0.2,0.8,0.2,1.3
					c0,0.3,0,0.6-0.1,1c0,0.3-0.1,0.7-0.2,1l-1.3,5.4H98l1.2-5c0.1-0.3,0.2-0.7,0.2-1c0.1-0.4,0.1-0.8,0.1-1.1c0-0.3,0-0.5-0.1-0.7
					c-0.1-0.2-0.2-0.5-0.3-0.6c-0.1-0.2-0.3-0.3-0.6-0.4c-0.3-0.1-0.6-0.2-1-0.2c-0.4,0-0.9,0.1-1.3,0.2c-0.4,0.2-0.8,0.3-1,0.5
					c0,0.2,0.1,0.4,0.1,0.6c0,0.2,0,0.4,0,0.5c0,0.3,0,0.6-0.1,0.9c0,0.3-0.1,0.6-0.2,0.9l-1.3,5.4H92l1.2-5c0.1-0.3,0.1-0.7,0.2-1
					c0.1-0.4,0.1-0.8,0.1-1.2c0-0.3,0-0.5-0.1-0.7c-0.1-0.2-0.1-0.4-0.3-0.6c-0.1-0.2-0.3-0.3-0.5-0.4c-0.2-0.1-0.5-0.2-0.8-0.2
					c-0.3,0-0.7,0-1,0.1c-0.3,0-0.6,0.1-0.8,0.1l-2.1,8.9H86l2.4-10.1c0.6-0.2,1.3-0.3,2-0.5c0.7-0.1,1.4-0.2,1.9-0.2
					c0.6,0,1,0.1,1.4,0.3c0.4,0.2,0.7,0.5,0.9,0.8c0.1-0.1,0.3-0.2,0.6-0.3c0.2-0.1,0.5-0.2,0.8-0.3c0.3-0.1,0.6-0.2,1-0.3
					C97.5,247.7,97.9,247.6,98.2,247.6z"/>
				<path class="st1" d="M109.1,247.6c0.7,0,1.2,0.1,1.7,0.3c0.5,0.2,0.9,0.5,1.2,0.8c0.3,0.3,0.5,0.7,0.7,1.2
					c0.2,0.5,0.2,0.9,0.2,1.5c0,0.9-0.1,1.8-0.4,2.7c-0.3,0.9-0.7,1.6-1.3,2.3c-0.6,0.7-1.3,1.2-2.2,1.6c-0.9,0.4-2,0.6-3.2,0.6
					c-0.1,0-0.3,0-0.5,0c-0.2,0-0.3,0-0.5,0l-0.9,3.6h-1.9l3.3-13.8c0.6-0.2,1.2-0.4,1.8-0.5C107.9,247.6,108.6,247.6,109.1,247.6z
					 M105.2,256.9c0.1,0,0.3,0,0.4,0c0.2,0,0.3,0,0.5,0c0.8,0,1.5-0.1,2.1-0.4c0.6-0.3,1.1-0.7,1.6-1.2c0.4-0.5,0.8-1.1,1-1.7
					c0.2-0.7,0.3-1.3,0.3-2.1c0-0.3,0-0.6-0.1-0.9c-0.1-0.3-0.2-0.5-0.4-0.7c-0.2-0.2-0.4-0.4-0.7-0.5c-0.3-0.1-0.7-0.2-1.2-0.2
					c-0.3,0-0.6,0-0.9,0.1c-0.3,0.1-0.5,0.1-0.7,0.2L105.2,256.9z"/>
				<path class="st1" d="M121.5,258.5c-0.1-0.1-0.1-0.3-0.2-0.5c-0.1-0.2-0.1-0.4-0.2-0.6c-0.3,0.3-0.7,0.5-1.2,0.8
					c-0.5,0.3-1.1,0.4-1.8,0.4c-0.6,0-1.1-0.1-1.5-0.3c-0.4-0.2-0.8-0.5-1-0.8c-0.3-0.3-0.5-0.7-0.6-1.2c-0.1-0.5-0.2-1-0.2-1.5
					c0-0.9,0.2-1.8,0.5-2.7c0.3-0.9,0.8-1.6,1.4-2.3c0.6-0.7,1.4-1.2,2.3-1.6c0.9-0.4,2-0.6,3.2-0.6c0.4,0,0.8,0,1.3,0.1
					c0.5,0.1,0.9,0.2,1.3,0.4l-1.6,6.4c-0.1,0.3-0.1,0.6-0.2,0.9c0,0.3-0.1,0.6-0.1,0.9c0,0.3,0,0.6,0.1,0.9c0.1,0.3,0.1,0.7,0.3,1
					L121.5,258.5z M118.4,257c0.6,0,1.1-0.1,1.5-0.4c0.4-0.2,0.8-0.5,1.1-0.8c0-0.2,0-0.5,0.1-0.7c0-0.3,0.1-0.5,0.1-0.8l1.2-5
					c-0.1,0-0.2,0-0.3,0c-0.2,0-0.3,0-0.4,0c-0.8,0-1.5,0.1-2.1,0.4c-0.6,0.3-1.2,0.7-1.6,1.2c-0.4,0.5-0.8,1.1-1,1.7
					c-0.2,0.7-0.4,1.3-0.4,2c0,0.3,0,0.6,0.1,0.9c0.1,0.3,0.2,0.5,0.3,0.8c0.1,0.2,0.3,0.4,0.6,0.5C117.7,257,118,257,118.4,257z"/>
				<path class="st1" d="M126,254.6c0-0.9,0.1-1.8,0.4-2.7c0.3-0.9,0.7-1.6,1.2-2.3c0.5-0.6,1.2-1.2,2-1.6c0.8-0.4,1.7-0.6,2.7-0.6
					c0.4,0,0.9,0,1.3,0.1c0.4,0.1,0.8,0.2,1.2,0.4l-0.7,1.6c-0.2-0.1-0.5-0.2-0.8-0.3c-0.3-0.1-0.7-0.1-1.1-0.1
					c-0.7,0-1.3,0.1-1.8,0.4c-0.5,0.3-1,0.7-1.3,1.2c-0.4,0.5-0.7,1-0.9,1.7c-0.2,0.6-0.3,1.3-0.3,2c0,0.4,0,0.7,0.1,1
					c0.1,0.3,0.2,0.6,0.4,0.8c0.2,0.2,0.4,0.4,0.8,0.6c0.3,0.1,0.7,0.2,1.2,0.2c0.2,0,0.5,0,0.8-0.1c0.3,0,0.5-0.1,0.8-0.2
					c0.2-0.1,0.4-0.1,0.6-0.2c0.2-0.1,0.3-0.1,0.4-0.2l0.2,1.6c-0.3,0.2-0.7,0.3-1.2,0.5c-0.5,0.2-1.2,0.2-1.8,0.2
					c-0.6,0-1.2-0.1-1.7-0.3c-0.5-0.2-0.9-0.5-1.3-0.8c-0.3-0.4-0.6-0.8-0.8-1.3C126.1,255.7,126,255.2,126,254.6z"/>
				<path class="st1" d="M133.9,257c0.4,0,0.7-0.1,1-0.2c0.3-0.1,0.5-0.2,0.7-0.4c0.2-0.2,0.4-0.3,0.5-0.5c0.1-0.2,0.3-0.4,0.4-0.6
					c0.3-0.5,0.5-1.1,0.7-1.7c0.2-0.6,0.4-1.2,0.6-1.9c0.2-0.6,0.3-1.3,0.5-1.9c0.1-0.6,0.3-1.3,0.4-1.9h6.9l-2.5,10.5h-1.9l2.2-9
					h-3.2c-0.1,0.4-0.2,0.9-0.4,1.4c-0.1,0.5-0.3,1-0.4,1.5c-0.1,0.5-0.3,1-0.5,1.5c-0.2,0.5-0.3,1-0.5,1.4c-0.2,0.5-0.5,1-0.7,1.4
					c-0.3,0.4-0.6,0.7-0.9,1c-0.4,0.3-0.8,0.5-1.2,0.6c-0.5,0.1-1,0.2-1.6,0.3L133.9,257z"/>
				<path class="st1" d="M150.9,258.6c-0.7,0-1.3-0.1-1.8-0.3c-0.5-0.2-0.9-0.5-1.2-0.8s-0.6-0.7-0.7-1.2c-0.2-0.5-0.2-0.9-0.2-1.5
					c0-0.9,0.1-1.9,0.4-2.7c0.3-0.9,0.7-1.7,1.2-2.3c0.5-0.7,1.2-1.2,1.9-1.6c0.8-0.4,1.6-0.6,2.6-0.6c0.6,0,1,0.1,1.4,0.2
					c0.4,0.1,0.7,0.3,1,0.6c0.2,0.2,0.4,0.5,0.6,0.8c0.1,0.3,0.2,0.6,0.2,1c0,0.6-0.1,1.2-0.3,1.6c-0.2,0.4-0.5,0.8-0.9,1.1
					c-0.4,0.3-0.8,0.5-1.3,0.7c-0.5,0.2-1,0.3-1.6,0.4c-0.5,0.1-1.1,0.2-1.7,0.2c-0.6,0-1.1,0.1-1.6,0.1c0,0.1,0,0.2,0,0.3
					c0,0.1,0,0.1,0,0.2c0,0.3,0,0.6,0.1,0.9c0.1,0.3,0.2,0.5,0.4,0.7c0.2,0.2,0.5,0.4,0.8,0.5c0.4,0.1,0.8,0.2,1.4,0.2
					c0.3,0,0.5,0,0.8-0.1c0.3,0,0.5-0.1,0.8-0.2c0.2-0.1,0.5-0.2,0.7-0.2c0.2-0.1,0.3-0.1,0.4-0.2l0.2,1.6c-0.3,0.1-0.7,0.3-1.3,0.5
					C152.4,258.6,151.7,258.6,150.9,258.6z M149,252.8c0.8,0,1.5-0.1,2.1-0.2c0.6-0.1,1.2-0.2,1.7-0.4c0.5-0.2,0.8-0.4,1.1-0.7
					c0.3-0.3,0.4-0.7,0.4-1.2c0-0.1,0-0.2-0.1-0.4c0-0.1-0.1-0.3-0.2-0.4c-0.1-0.1-0.3-0.2-0.5-0.3c-0.2-0.1-0.4-0.1-0.7-0.1
					c-0.5,0-0.9,0.1-1.3,0.3c-0.4,0.2-0.8,0.5-1.1,0.8c-0.3,0.3-0.6,0.7-0.8,1.2C149.3,251.9,149.1,252.3,149,252.8z"/>
				<path class="st1" d="M166.7,250.1c0,0.8-0.2,1.3-0.6,1.8c-0.4,0.4-0.8,0.7-1.4,1c0.5,0.1,0.8,0.4,1.1,0.8
					c0.3,0.4,0.4,0.8,0.4,1.2c0,0.8-0.2,1.4-0.5,1.9c-0.3,0.5-0.7,0.9-1.2,1.1c-0.5,0.3-1.1,0.5-1.7,0.6c-0.6,0.1-1.3,0.2-2,0.2
					c-0.7,0-1.4,0-2.1-0.1c-0.7-0.1-1.3-0.2-1.8-0.4l1.5-6.5c0.2-0.8,0.4-1.4,0.8-1.9c0.3-0.5,0.7-0.9,1.1-1.2
					c0.4-0.3,0.9-0.5,1.4-0.6c0.5-0.1,1.1-0.2,1.7-0.2c0.5,0,1,0.1,1.4,0.2c0.4,0.1,0.7,0.3,1,0.5c0.3,0.2,0.4,0.5,0.6,0.8
					C166.7,249.4,166.7,249.8,166.7,250.1z M160,253.5l-0.8,3.4c0.2,0,0.4,0.1,0.8,0.1c0.3,0,0.7,0,1.2,0c0.4,0,0.8,0,1.2-0.1
					c0.4-0.1,0.7-0.2,1.1-0.3c0.3-0.2,0.5-0.4,0.7-0.6c0.2-0.3,0.3-0.6,0.3-1c0-0.5-0.2-0.9-0.5-1.1c-0.3-0.2-0.9-0.3-1.6-0.3H160z
					 M160.3,252.2h1.6c0.4,0,0.8,0,1.2-0.1c0.4-0.1,0.7-0.2,1-0.3c0.3-0.1,0.5-0.3,0.6-0.6c0.2-0.2,0.2-0.6,0.2-0.9
					c0-0.4-0.1-0.6-0.4-0.9c-0.2-0.2-0.6-0.3-1.2-0.3c-0.3,0-0.6,0-0.9,0.1c-0.3,0.1-0.6,0.2-0.9,0.4c-0.3,0.2-0.5,0.5-0.7,0.9
					c-0.2,0.4-0.4,0.9-0.5,1.5L160.3,252.2z"/>
				<path class="st1" d="M172.2,258.6c-1.1,0-2-0.3-2.6-1c-0.6-0.7-0.9-1.6-0.9-2.7c0-0.8,0.1-1.6,0.3-2.5c0.2-0.9,0.6-1.7,1.1-2.4
					c0.5-0.7,1.1-1.3,1.9-1.8c0.8-0.5,1.7-0.7,2.8-0.7c1.1,0,2,0.3,2.6,1c0.6,0.7,0.9,1.6,0.9,2.7c0,0.8-0.1,1.6-0.3,2.5
					c-0.2,0.9-0.6,1.7-1.1,2.4c-0.5,0.7-1.1,1.3-1.9,1.8C174.2,258.4,173.3,258.6,172.2,258.6z M172.5,257c0.6,0,1.2-0.2,1.6-0.5
					c0.5-0.3,0.9-0.8,1.2-1.3c0.3-0.5,0.6-1.2,0.8-1.8c0.2-0.7,0.3-1.3,0.3-1.9c0-0.7-0.1-1.2-0.4-1.6c-0.3-0.4-0.8-0.6-1.5-0.6
					c-0.6,0-1.2,0.2-1.6,0.5c-0.5,0.4-0.9,0.8-1.2,1.3c-0.3,0.5-0.6,1.2-0.8,1.8c-0.2,0.7-0.3,1.3-0.3,1.9c0,0.7,0.1,1.2,0.4,1.6
					C171.3,256.8,171.8,257,172.5,257z"/>
				<path class="st1" d="M183.5,258.6c-0.6,0-1.1-0.1-1.5-0.3c-0.4-0.2-0.7-0.4-1-0.7c-0.3-0.3-0.4-0.6-0.5-1.1
					c-0.1-0.4-0.2-0.8-0.2-1.3c0-0.4,0-0.7,0.1-1c0.1-0.3,0.1-0.7,0.2-1l1.3-5.4h1.9l-1.2,5c-0.1,0.3-0.2,0.7-0.3,1.1
					c-0.1,0.4-0.2,0.8-0.2,1.3c0,0.2,0,0.5,0.1,0.7c0,0.2,0.1,0.4,0.3,0.6c0.1,0.2,0.3,0.3,0.5,0.4c0.2,0.1,0.5,0.2,0.8,0.2
					c0.6,0,1.1-0.1,1.5-0.4c0.4-0.3,0.8-0.5,1.1-0.9c0-0.2,0-0.4,0.1-0.7c0-0.2,0.1-0.5,0.1-0.7l1.6-6.5h1.9l-1.6,6.7
					c-0.1,0.3-0.1,0.6-0.2,0.9c0,0.3-0.1,0.6-0.1,0.9c0,0.3,0,0.6,0.1,0.9c0.1,0.3,0.1,0.7,0.3,1l-1.7,0.2c-0.1-0.2-0.1-0.3-0.2-0.5
					c-0.1-0.2-0.1-0.4-0.2-0.6c-0.1,0.1-0.3,0.3-0.5,0.4c-0.2,0.1-0.4,0.3-0.7,0.4c-0.3,0.1-0.6,0.2-0.9,0.3
					C184.2,258.6,183.9,258.6,183.5,258.6z M186.3,246.1c-0.8,0-1.5-0.2-1.9-0.6c-0.5-0.4-0.7-1-0.8-1.8l1.5-0.4
					c0,0.2,0.1,0.4,0.1,0.6c0,0.2,0.1,0.3,0.2,0.5c0.1,0.1,0.2,0.2,0.4,0.3c0.2,0.1,0.4,0.1,0.7,0.1c0.4,0,0.8-0.1,1.2-0.4
					c0.3-0.3,0.6-0.6,0.8-1.1l1.4,0.5c-0.3,0.8-0.8,1.4-1.4,1.8C187.9,245.9,187.2,246.1,186.3,246.1z"/>
				<path class="st1" d="M197.7,258.4h-1.9l2.4-10.1c0.6-0.2,1.3-0.3,2-0.5c0.7-0.1,1.4-0.2,1.9-0.2c0.6,0,1.1,0.1,1.6,0.3
					c0.4,0.2,0.8,0.4,1.1,0.7c0.3,0.3,0.5,0.6,0.6,1.1c0.1,0.4,0.2,0.9,0.2,1.3c0,0.3,0,0.6-0.1,1c-0.1,0.3-0.1,0.7-0.2,1l-1.3,5.4
					h-1.9l1.2-5c0.1-0.4,0.2-0.8,0.3-1.1c0.1-0.4,0.1-0.8,0.1-1.1c0-0.5-0.1-1-0.4-1.3c-0.3-0.4-0.8-0.5-1.6-0.5c-0.3,0-0.7,0-1,0.1
					c-0.3,0-0.6,0.1-0.8,0.2L197.7,258.4z"/>
				<path class="st1" d="M211.2,258.6c-1.1,0-2-0.3-2.6-1c-0.6-0.7-0.9-1.6-0.9-2.7c0-0.8,0.1-1.6,0.3-2.5c0.2-0.9,0.6-1.7,1.1-2.4
					c0.5-0.7,1.1-1.3,1.9-1.8c0.8-0.5,1.7-0.7,2.8-0.7c1.1,0,2,0.3,2.6,1c0.6,0.7,0.9,1.6,0.9,2.7c0,0.8-0.1,1.6-0.3,2.5
					c-0.2,0.9-0.6,1.7-1.1,2.4c-0.5,0.7-1.1,1.3-1.9,1.8C213.3,258.4,212.3,258.6,211.2,258.6z M211.6,257c0.6,0,1.2-0.2,1.6-0.5
					c0.5-0.3,0.9-0.8,1.2-1.3c0.3-0.5,0.6-1.2,0.8-1.8c0.2-0.7,0.3-1.3,0.3-1.9c0-0.7-0.1-1.2-0.4-1.6c-0.3-0.4-0.8-0.6-1.5-0.6
					c-0.6,0-1.2,0.2-1.6,0.5c-0.5,0.4-0.9,0.8-1.2,1.3c-0.3,0.5-0.6,1.2-0.8,1.8c-0.2,0.7-0.3,1.3-0.3,1.9c0,0.7,0.1,1.2,0.4,1.6
					C210.3,256.8,210.8,257,211.6,257z"/>
				<path class="st1" d="M224.8,247.6c0.7,0,1.2,0.1,1.7,0.3c0.5,0.2,0.9,0.5,1.2,0.8c0.3,0.3,0.5,0.7,0.7,1.2
					c0.2,0.5,0.2,0.9,0.2,1.5c0,0.9-0.1,1.8-0.4,2.7c-0.3,0.9-0.7,1.6-1.3,2.3c-0.6,0.7-1.3,1.2-2.2,1.6c-0.9,0.4-2,0.6-3.2,0.6
					c-0.1,0-0.3,0-0.5,0c-0.2,0-0.3,0-0.5,0l-0.9,3.6h-1.9l3.3-13.8c0.6-0.2,1.2-0.4,1.8-0.5C223.6,247.6,224.2,247.6,224.8,247.6z
					 M220.9,256.9c0.1,0,0.3,0,0.4,0c0.2,0,0.3,0,0.5,0c0.8,0,1.5-0.1,2.1-0.4c0.6-0.3,1.1-0.7,1.5-1.2c0.4-0.5,0.8-1.1,1-1.7
					c0.2-0.7,0.3-1.3,0.3-2.1c0-0.3,0-0.6-0.1-0.9c-0.1-0.3-0.2-0.5-0.4-0.7c-0.2-0.2-0.4-0.4-0.7-0.5c-0.3-0.1-0.7-0.2-1.2-0.2
					c-0.3,0-0.6,0-0.9,0.1c-0.3,0.1-0.5,0.1-0.7,0.2L220.9,256.9z"/>
				<path class="st1" d="M242.1,247.6c0.6,0,1.1,0.1,1.5,0.3c0.4,0.2,0.7,0.4,1,0.7c0.3,0.3,0.4,0.7,0.5,1.1
					c0.1,0.4,0.2,0.8,0.2,1.3c0,0.3,0,0.6-0.1,1c0,0.3-0.1,0.7-0.2,1l-1.3,5.4h-1.9l1.2-5c0.1-0.3,0.2-0.7,0.2-1
					c0.1-0.4,0.1-0.8,0.1-1.1c0-0.3,0-0.5-0.1-0.7c-0.1-0.2-0.2-0.5-0.3-0.6c-0.1-0.2-0.3-0.3-0.6-0.4c-0.3-0.1-0.6-0.2-1-0.2
					c-0.4,0-0.9,0.1-1.3,0.2c-0.4,0.2-0.8,0.3-1,0.5c0,0.2,0,0.4,0.1,0.6c0,0.2,0,0.4,0,0.5c0,0.3,0,0.6-0.1,0.9
					c0,0.3-0.1,0.6-0.2,0.9l-1.3,5.4h-1.9l1.2-5c0.1-0.3,0.1-0.7,0.2-1c0.1-0.4,0.1-0.8,0.1-1.2c0-0.3,0-0.5-0.1-0.7
					c-0.1-0.2-0.1-0.4-0.3-0.6c-0.1-0.2-0.3-0.3-0.5-0.4c-0.2-0.1-0.5-0.2-0.8-0.2c-0.3,0-0.7,0-1,0.1c-0.3,0-0.6,0.1-0.8,0.1
					l-2.1,8.9h-1.9l2.4-10.1c0.6-0.2,1.3-0.3,2-0.5c0.7-0.1,1.4-0.2,1.9-0.2c0.6,0,1,0.1,1.4,0.3c0.4,0.2,0.7,0.5,0.9,0.8
					c0.1-0.1,0.3-0.2,0.6-0.3c0.2-0.1,0.5-0.2,0.8-0.3c0.3-0.1,0.6-0.2,1-0.3C241.3,247.7,241.7,247.6,242.1,247.6z"/>
				<path class="st1" d="M254.1,258.5c-0.1-0.1-0.1-0.3-0.2-0.5s-0.1-0.4-0.2-0.6c-0.3,0.3-0.7,0.5-1.2,0.8
					c-0.5,0.3-1.1,0.4-1.8,0.4c-0.6,0-1.1-0.1-1.5-0.3c-0.4-0.2-0.8-0.5-1-0.8c-0.3-0.3-0.5-0.7-0.6-1.2c-0.1-0.5-0.2-1-0.2-1.5
					c0-0.9,0.2-1.8,0.5-2.7c0.3-0.9,0.8-1.6,1.4-2.3c0.6-0.7,1.4-1.2,2.3-1.6c0.9-0.4,2-0.6,3.2-0.6c0.4,0,0.8,0,1.3,0.1
					c0.5,0.1,0.9,0.2,1.3,0.4l-1.6,6.4c-0.1,0.3-0.1,0.6-0.2,0.9c0,0.3-0.1,0.6-0.1,0.9c0,0.3,0,0.6,0.1,0.9c0.1,0.3,0.2,0.7,0.3,1
					L254.1,258.5z M251,257c0.6,0,1.1-0.1,1.5-0.4c0.4-0.2,0.8-0.5,1.1-0.8c0-0.2,0-0.5,0.1-0.7c0-0.3,0.1-0.5,0.1-0.8l1.2-5
					c-0.1,0-0.2,0-0.3,0c-0.2,0-0.3,0-0.4,0c-0.8,0-1.5,0.1-2.1,0.4c-0.6,0.3-1.2,0.7-1.6,1.2c-0.4,0.5-0.8,1.1-1,1.7
					c-0.2,0.7-0.4,1.3-0.4,2c0,0.3,0,0.6,0.1,0.9c0.1,0.3,0.2,0.5,0.3,0.8c0.1,0.2,0.3,0.4,0.6,0.5C250.3,257,250.6,257,251,257z"/>
				<path class="st1" d="M257.1,257c0.4,0,0.7-0.1,1-0.2c0.3-0.1,0.5-0.2,0.7-0.4c0.2-0.2,0.4-0.3,0.5-0.5c0.1-0.2,0.3-0.4,0.4-0.6
					c0.3-0.5,0.5-1.1,0.7-1.7c0.2-0.6,0.4-1.2,0.6-1.9c0.2-0.6,0.3-1.3,0.5-1.9c0.1-0.6,0.3-1.3,0.4-1.9h6.9l-2.5,10.5h-1.9l2.2-9
					h-3.2c-0.1,0.4-0.2,0.9-0.4,1.4c-0.1,0.5-0.3,1-0.4,1.5c-0.1,0.5-0.3,1-0.5,1.5c-0.2,0.5-0.3,1-0.5,1.4c-0.2,0.5-0.5,1-0.7,1.4
					c-0.3,0.4-0.6,0.7-0.9,1c-0.4,0.3-0.8,0.5-1.2,0.6c-0.4,0.1-1,0.2-1.6,0.3L257.1,257z"/>
			</g>
			<g>
				<g>
					<polygon class="st1" points="108.8,165.7 130.1,108.7 166.8,137.7 155.8,151.7 138.5,138 125.8,172 					"/>
					<polygon class="st1" points="119.2,137.9 130.1,108.7 145.1,120.6 136.2,144.3 					"/>
					<polygon class="st1" points="155.8,151.7 138.5,138 145.1,120.6 166.8,137.7 					"/>
				</g>
				<g>
					<polygon class="st1" points="191.4,152.2 143.8,114.3 182.7,88.4 192.6,103.1 174.3,115.3 202.7,138 					"/>
					<polygon class="st1" points="168.2,133.7 143.8,114.3 159.7,103.7 179.6,119.5 					"/>
					<polygon class="st1" points="192.6,103.1 174.3,115.3 159.7,103.7 182.8,88.4 					"/>
				</g>
				<g>
					<polygon class="st1" points="204.2,68.9 153.5,102.4 140.9,57.4 158,52.6 163.9,73.7 194.2,53.7 					"/>
					<polygon class="st1" points="179.5,85.2 153.5,102.4 148.3,84 169.5,70 					"/>
					<polygon class="st1" points="158,52.6 163.9,73.7 148.3,84 140.9,57.4 					"/>
				</g>
				<g>
					<polygon class="st1" points="128.1,30.3 144.3,88.9 97.6,87 98.3,69.3 120.3,70.2 110.6,35.1 					"/>
					<polygon class="st1" points="136,58.9 144.3,88.9 125.2,88.1 118.5,63.7 					"/>
					<polygon class="st1" points="98.3,69.3 120.3,70.2 125.2,88.1 97.6,87 					"/>
				</g>
				<g>
					<polygon class="st1" points="70.9,89.4 131.7,92.1 115.4,136 98.8,129.8 106.4,109.2 70.1,107.6 					"/>
					<polygon class="st1" points="100.5,90.7 131.7,92.1 125,110.1 99.7,108.9 					"/>
					<polygon class="st1" points="98.8,129.8 106.4,109.2 125,110 115.4,136 					"/>
				</g>
			</g>
		</g>
		<g>
			<path class="st1" d="M11.3,236.4v-34h3.5h3.5v28.9h8.8v2.5v2.5H11.3z"/>
			<path class="st1" d="M34.3,234.3c-1.6-1.7-2.4-4.7-2.4-8.9v-14c0-3.2,0.9-5.5,2.6-7.1c1.8-1.6,4.4-2.4,7.9-2.4s6.2,0.8,8,2.4
				c1.8,1.6,2.7,3.9,2.7,7.1v14c0,4.2-0.8,7.2-2.4,8.9c-1.6,1.7-4.3,2.6-8.2,2.6C38.6,236.9,35.9,236.1,34.3,234.3z M45.3,230.5
				c0.5-0.9,0.8-2.5,0.8-4.8v-14c0-1.5-0.3-2.7-0.9-3.5c-0.6-0.8-1.5-1.2-2.7-1.2c-1.2,0-2.1,0.4-2.7,1.2c-0.6,0.8-0.9,1.9-0.9,3.5
				v14c0,2.3,0.3,3.9,0.8,4.8c0.5,0.9,1.5,1.3,2.8,1.3C43.9,231.8,44.8,231.4,45.3,230.5z"/>
			<path class="st1" d="M69.7,236.9c-3.9,0-6.7-1-8.2-3c-1.5-2-2.3-5.6-2.3-10.8V215c0-4.6,0.9-8,2.7-10.1c1.8-2.1,4.6-3.1,8.6-3.1
				c3.5,0,6,0.8,7.7,2.5c1.7,1.7,2.5,4.2,2.3,7.5v1h-6.9v-1c0-1.6-0.2-2.9-0.8-3.7c-0.6-0.8-1.5-1.2-2.7-1.2c-1.4,0-2.4,0.6-3,1.7
				c-0.6,1.1-0.8,3.1-0.8,6v8c0,3.7,0.3,6.2,0.8,7.3c0.5,1.2,1.6,1.8,3.3,1.8c0.7,0,1.7-0.2,3.2-0.5v-7.8h-3.2v-5.1h10.2v17.2
				C76.7,236.5,73.1,236.9,69.7,236.9L69.7,236.9z"/>
			<path class="st1" d="M86.4,202.4h3.5h3.5v34h-3.5h-3.5V202.4z"/>
			<path class="st1" d="M112.7,213v-1c0-1.8-0.2-3.1-0.7-3.8c-0.5-0.7-1.3-1.1-2.5-1.1c-1.2,0-2.1,0.3-2.7,1
				c-0.6,0.7-0.9,1.7-0.9,3.1c0,1.1,0.4,2,1.1,2.7c0.7,0.8,1.9,1.5,3.7,2.4c3.5,1.6,5.9,3.2,7.2,4.8c1.4,1.6,2.1,3.5,2.1,5.7
				c0,3.4-0.9,6-2.7,7.7c-1.8,1.7-4.4,2.5-8,2.5c-3.9,0-6.6-0.8-8.3-2.3c-1.6-1.5-2.4-4-2.4-7.4v-0.3v-1h6.9v1
				c0,1.6,0.3,2.9,0.9,3.7c0.6,0.8,1.6,1.2,2.9,1.2c1.3,0,2.2-0.4,2.8-1.1c0.6-0.7,0.9-1.9,0.9-3.3c0-1.1-0.4-2.1-1.1-2.9
				c-0.8-0.8-2.1-1.7-4-2.6c-3.3-1.6-5.6-3.1-6.9-4.6c-1.3-1.5-2-3.4-2-5.6c0-3.3,0.9-5.8,2.7-7.4c1.8-1.6,4.4-2.5,8-2.5
				c3.7,0,6.2,0.8,7.8,2.3c1.4,1.4,2.1,3.8,2.1,7l0,0.7v1H112.7z"/>
			<path class="st1" d="M131.4,207.5h-7.3V205v-2.5h21.6v2.5v2.5h-7.3v28.9h-3.5h-3.5V207.5z"/>
			<path class="st1" d="M150.1,202.4h3.5h3.5v34h-3.5h-3.5V202.4z"/>
			<path class="st1" d="M183.4,224.9v1c0.1,4-0.7,6.8-2.2,8.5c-1.5,1.7-4.2,2.5-7.8,2.5c-3.9,0-6.7-0.9-8.3-2.8
				c-1.6-1.8-2.4-5-2.4-9.5v-10.5c0-4.5,0.8-7.7,2.4-9.5c1.6-1.8,4.4-2.8,8.3-2.8c3.4,0,5.9,0.9,7.5,2.6c1.5,1.6,2.3,4,2.3,7.2v0.7
				v1h-6.9v-1c0-1.8-0.2-3.1-0.7-4c-0.5-0.9-1.2-1.3-2.2-1.3c-1.3,0-2.2,0.5-2.8,1.5c-0.6,1-0.9,2.6-0.9,4.9v10.5c0,3,0.3,5,0.8,6.2
				c0.5,1.2,1.5,1.7,2.9,1.7c1.1,0,1.9-0.5,2.4-1.5c0.5-1,0.8-2.5,0.7-4.5v-1H183.4z"/>
			<path class="st1" d="M201.9,213v-1c0-1.8-0.2-3.1-0.7-3.8c-0.5-0.7-1.3-1.1-2.5-1.1c-1.2,0-2.1,0.3-2.7,1
				c-0.6,0.7-0.9,1.7-0.9,3.1c0,1.1,0.4,2,1.1,2.7c0.7,0.8,1.9,1.5,3.7,2.4c3.5,1.6,5.9,3.2,7.2,4.8c1.4,1.6,2.1,3.5,2.1,5.7
				c0,3.4-0.9,6-2.7,7.7c-1.8,1.7-4.4,2.5-8,2.5c-3.9,0-6.6-0.8-8.3-2.3c-1.6-1.5-2.4-4-2.4-7.4v-0.3v-1h6.9v1
				c0,1.6,0.3,2.9,0.9,3.7c0.6,0.8,1.6,1.2,2.9,1.2c1.3,0,2.2-0.4,2.8-1.1c0.6-0.7,0.9-1.9,0.9-3.3c0-1.1-0.4-2.1-1.1-2.9
				c-0.8-0.8-2.1-1.7-4-2.6c-3.3-1.6-5.6-3.1-6.9-4.6c-1.3-1.5-2-3.4-2-5.6c0-3.3,0.9-5.8,2.7-7.4c1.8-1.6,4.4-2.5,8-2.5
				c3.7,0,6.2,0.8,7.8,2.3c1.4,1.4,2.1,3.8,2.1,7l0,0.7v1H201.9z"/>
			<path class="st1" d="M214.2,230.2h6.3v6.2h-6.3V230.2z"/>
			<path class="st1" d="M225.6,202.4h3.5h6.7c3.6,0,6.3,0.7,7.8,2c1.6,1.3,2.3,3.6,2.3,6.8c0,3.6-0.8,6-2.4,7.3
				c-0.8,0.6-2,1.1-3.6,1.5h0.4c1.9,0,3.3,0.6,4.3,1.9c1,1.2,1.4,3,1.3,5.3c0,1.3-0.1,2.7,0,4.1c0,1.5,0.1,2.6,0.1,3.4
				c0.1,0.8,0.2,1.3,0.3,1.7h-3.5h-3.5c-0.1-0.4-0.2-0.9-0.2-1.7c0-0.8-0.1-1.9-0.1-3.4v-4.1c0-1.7-0.3-2.9-1-3.6
				c-0.7-0.7-1.8-1-3.5-1h-2v13.9h-3.5h-3.5V202.4z M232.6,217.3h1.9c1.8,0,3-0.3,3.6-1c0.6-0.7,0.9-2,0.9-4c0-1.9-0.3-3.1-1-3.8
				c-0.6-0.7-1.8-1-3.6-1h-1.9V217.3z"/>
			<path class="st1" d="M272.2,226.9c0,3.4-0.9,5.9-2.6,7.5c-1.7,1.7-4.4,2.5-7.8,2.5c-3.5,0-6.1-0.8-7.8-2.5
				c-1.7-1.7-2.6-4.2-2.6-7.5v-24.5h3.4h3.4v24.9c0,1.7,0.3,2.9,0.8,3.5c0.5,0.7,1.4,1,2.8,1c1.3,0,2.3-0.3,2.8-1
				c0.5-0.7,0.8-1.8,0.8-3.5v-24.9h3.4h3.4V226.9z"/>
		</g>
	</g>
</g>
</svg>
