<?xml version="1.0" standalone="no"?>
<!DOCTYPE svg PUBLIC "-//W3C//DTD SVG 20010904//EN"
 "http://www.w3.org/TR/2001/REC-SVG-20010904/DTD/svg10.dtd">
<svg version="1.0" xmlns="http://www.w3.org/2000/svg"
 width="700.000000pt" height="700.000000pt" viewBox="0 0 700.000000 700.000000"
 preserveAspectRatio="xMidYMid meet">
<metadata>
Created by potrace 1.11, written by Peter Selinger 2001-2013
</metadata>
<g transform="translate(0.000000,700.000000) scale(0.100000,-0.100000)"
fill="#000000" stroke="none">
<path d="M3265 6959 c-38 -4 -101 -10 -140 -13 -38 -3 -81 -8 -95 -11 -14 -3
-38 -7 -55 -9 -30 -5 -74 -12 -127 -22 -16 -2 -58 -11 -95 -20 -38 -9 -77 -18
-88 -20 -11 -2 -67 -18 -125 -35 -470 -138 -866 -345 -1220 -639 -105 -87
-126 -106 -252 -230 -404 -399 -664 -812 -848 -1345 -66 -190 -133 -475 -155
-655 -4 -30 -8 -66 -10 -80 -19 -150 -24 -439 -12 -620 9 -139 15 -183 38
-325 27 -161 24 -149 49 -245 12 -47 23 -92 25 -100 2 -8 18 -62 35 -120 155
-499 437 -979 794 -1347 38 -40 72 -76 75 -81 13 -18 236 -215 313 -276 528
-418 1211 -679 1893 -723 187 -12 496 -6 615 12 14 2 63 9 110 15 105 14 300
54 400 81 92 25 351 109 365 118 6 4 44 20 85 36 77 29 273 125 390 190 229
128 480 324 710 555 173 174 180 181 295 325 362 453 608 1033 696 1640 6 44
13 88 14 97 23 119 23 598 0 768 -2 19 -7 58 -10 85 -4 28 -13 86 -20 130 -8
44 -16 91 -19 105 -2 14 -14 63 -26 110 -12 47 -23 93 -25 102 -2 9 -18 63
-36 120 -114 364 -295 720 -523 1028 -153 207 -429 490 -642 660 -432 344
-926 572 -1471 679 -54 11 -121 23 -148 26 -28 4 -61 8 -75 11 -26 4 -71 9
-185 20 -102 9 -418 11 -500 3z m550 -472 c11 -3 47 -8 80 -12 167 -19 469
-96 673 -171 231 -85 565 -271 752 -417 214 -168 407 -361 552 -552 245 -322
409 -650 523 -1045 18 -63 36 -131 39 -151 3 -20 8 -42 10 -50 3 -8 8 -32 11
-53 3 -21 8 -48 10 -60 34 -141 42 -795 11 -887 -3 -8 -7 -32 -10 -54 -3 -22
-8 -51 -11 -65 -2 -14 -10 -50 -16 -80 -51 -259 -180 -604 -317 -845 -25 -44
-50 -89 -56 -100 -32 -58 -156 -234 -233 -330 -89 -111 -308 -336 -399 -410
-137 -113 -209 -164 -378 -273 -58 -37 -302 -159 -406 -202 -217 -91 -462
-160 -680 -194 -167 -25 -200 -28 -435 -31 -252 -4 -372 6 -620 50 -263 47
-668 201 -925 350 -643 375 -1139 1000 -1357 1710 -32 105 -75 281 -87 355 -3
19 -7 44 -10 55 -4 24 -15 109 -26 220 -9 85 -5 513 5 580 4 22 13 84 20 138
55 378 200 767 420 1126 47 77 171 247 232 319 350 413 760 708 1252 899 159
61 413 131 541 149 25 3 52 8 60 9 17 3 186 23 240 28 50 5 511 0 535 -6z"/>
<path d="M3508 6086 c-1 -2 -61 -6 -133 -9 -131 -6 -274 -24 -405 -52 -14 -3
-35 -7 -47 -9 -76 -15 -324 -96 -428 -141 -307 -131 -563 -304 -795 -535 -212
-212 -322 -353 -447 -575 -121 -215 -228 -494 -274 -710 -7 -33 -13 -62 -14
-65 -27 -111 -45 -308 -44 -490 0 -132 3 -180 14 -270 3 -25 8 -65 11 -90 31
-251 127 -556 252 -805 139 -276 339 -531 617 -785 48 -44 221 -180 228 -180
3 0 37 -22 78 -49 77 -50 290 -161 394 -204 231 -96 467 -157 705 -181 36 -4
83 -9 105 -12 85 -9 397 -2 465 11 14 2 48 7 75 11 28 3 93 15 145 26 52 11
106 22 119 24 13 3 83 24 155 48 765 252 1344 804 1635 1560 40 105 97 304
116 411 35 190 40 254 40 485 0 227 -7 306 -41 485 -75 395 -262 801 -509
1110 -79 99 -273 299 -375 387 -329 284 -856 519 -1287 573 -26 4 -59 8 -73
11 -14 2 -77 6 -140 10 -63 3 -120 7 -127 9 -6 2 -13 2 -15 1z m202 -439 c82
-7 220 -27 265 -39 22 -5 50 -12 63 -14 112 -21 419 -149 572 -240 233 -137
497 -386 672 -634 136 -193 259 -468 318 -715 46 -191 49 -226 46 -530 -2
-159 -7 -303 -10 -320 -4 -16 -14 -66 -22 -110 -41 -209 -175 -528 -299 -714
-174 -261 -377 -465 -642 -643 -230 -155 -597 -295 -848 -325 -82 -9 -553 -11
-640 -1 -157 16 -412 93 -589 177 -371 174 -673 437 -909 789 -155 232 -297
605 -325 857 -9 81 -9 588 0 650 9 61 60 263 86 342 105 313 271 584 505 822
248 252 499 418 802 529 118 43 205 68 304 87 14 2 48 9 76 15 113 23 388 31
575 17z"/>
<path d="M3417 5274 c-1 -1 -53 -4 -114 -8 -293 -18 -642 -161 -913 -374 -124
-98 -309 -306 -405 -457 -102 -160 -204 -422 -231 -595 -2 -14 -6 -38 -9 -55
-26 -167 -26 -372 0 -570 24 -187 115 -441 221 -619 89 -149 285 -375 419
-483 251 -202 598 -349 890 -379 168 -17 446 -7 590 21 238 45 547 193 749
357 76 62 225 214 287 293 201 258 341 594 366 880 12 135 4 498 -11 524 -2 3
-7 24 -10 46 -19 120 -90 317 -167 463 -43 81 -141 238 -158 252 -4 3 -22 25
-41 50 -92 122 -306 310 -458 403 -144 88 -395 192 -508 210 -16 3 -40 8 -54
11 -49 11 -86 16 -170 22 -84 5 -269 11 -273 8z m333 -328 c238 -45 436 -131
622 -271 294 -221 497 -540 563 -885 5 -23 8 -45 20 -145 6 -50 6 -234 0 -299
-36 -384 -225 -728 -540 -986 -296 -242 -645 -347 -1050 -316 -401 30 -754
226 -1031 571 -127 158 -231 387 -268 590 -10 57 -18 108 -22 147 -5 56 -5
244 0 283 13 99 20 151 21 155 1 3 7 32 14 65 83 379 386 760 759 953 71 37
282 117 282 107 0 -2 17 2 39 9 21 8 67 17 102 21 35 4 66 8 67 10 7 6 386 -3
422 -9z"/>
<path d="M3369 4146 c-3 -3 -20 -8 -39 -11 -19 -3 -73 -24 -120 -47 -119 -57
-237 -176 -296 -298 -51 -104 -67 -169 -66 -269 1 -96 8 -151 28 -221 56 -198
254 -388 453 -434 95 -22 309 -15 391 13 201 70 388 282 419 476 13 85 6 290
-12 347 -38 122 -152 269 -265 345 -113 75 -177 94 -353 99 -74 2 -137 2 -140
0z"/>
</g>
</svg>
