<svg xmlns="http://www.w3.org/2000/svg" viewBox="0 0 764.39 178"><defs><style>.cls-1{isolation:isolate;}.cls-2{fill:#fff;}.cls-3{fill:#0a0028;fill-rule:evenodd;}</style></defs><title>Ресурс 1</title><g id="Слой_2" data-name="Слой 2"><g id="tipler" class="cls-1"><polygon class="cls-2" points="78.28 5.88 0 5.88 0 27.46 26.96 27.46 26.96 169.1 51.32 169.1 51.32 27.46 78.28 27.46 78.28 5.88"/><rect class="cls-2" x="92.36" y="5.88" width="24.46" height="163.22"/><path class="cls-2" d="M215.54,20.89q0-15-14.94-15H136.53V169.1H161V110H200.6q14.94,0,14.94-15.22ZM161,89V26.84h29.89V89Z"/><polygon class="cls-2" points="298.91 147.3 259.09 147.3 259.09 5.88 234.64 5.88 234.64 169.1 298.91 169.1 298.91 147.3"/><polygon class="cls-2" points="382.73 147.51 339.36 147.51 339.36 96.3 376.15 96.3 376.15 75.13 339.36 75.13 339.36 27.46 382.11 27.46 382.11 5.88 314.9 5.88 314.9 169.1 382.73 169.1 382.73 147.51"/><path class="cls-2" d="M456.38,95.15q12.12,0,15.89-1.56,7-3,7-13.35V20.89q0-15-14.74-15h-64.9V169.1h24.46V26.84h30.83V78.57h-24V93.28l27,75.82h25.51Z"/></g><g id="Rectangle_1" data-name="Rectangle 1" class="cls-1"><polygon class="cls-3" points="559.26 0 764.39 0 764.39 178 514.67 178 559.26 0"/></g><g id="_.ru" data-name=".ru" class="cls-1"><rect class="cls-2" x="552.5" y="139.17" width="19.6" height="21.03"/><path class="cls-2" d="M632.58,98.58q10.09,0,13.24-1.31,5.82-2.52,5.83-11.12V36.7q0-12.53-12.28-12.52H585.28v136h20.38V41.65h25.7V84.76h-20V97L633.8,160.2h21.25Z"/><path class="cls-2" d="M733.75,24.18H713.37V142.73H685.93V24.18H665.55V147.77q0,12.43,12.37,12.43h43.29q12.54,0,12.54-12.43Z"/></g></g></svg>